%TF.GenerationSoftware,KiCad,Pcbnew,9.0.7*%
%TF.CreationDate,2026-03-17T22:43:26+07:00*%
%TF.ProjectId,project,70726f6a-6563-4742-9e6b-696361645f70,rev?*%
%TF.SameCoordinates,Original*%
%TF.FileFunction,Legend,Bot*%
%TF.FilePolarity,Positive*%
%FSLAX46Y46*%
G04 Gerber Fmt 4.6, Leading zero omitted, Abs format (unit mm)*
G04 Created by KiCad (PCBNEW 9.0.7) date 2026-03-17 22:43:26*
%MOMM*%
%LPD*%
G01*
G04 APERTURE LIST*
%ADD10C,0.100000*%
%ADD11C,0.300000*%
%ADD12C,0.200000*%
G04 APERTURE END LIST*
D10*
X47359827Y-91241574D02*
G75*
G02*
X45997477Y-91241574I-681175J0D01*
G01*
X45997477Y-91241574D02*
G75*
G02*
X47359827Y-91241574I681175J0D01*
G01*
D11*
X53652375Y-105040962D02*
X52652375Y-105040962D01*
X53711673Y-161049520D02*
X52711673Y-161049520D01*
X53711673Y-84049520D02*
X52711673Y-84049520D01*
X53711673Y-175049520D02*
X52711673Y-175049520D01*
X53711673Y-70049520D02*
X52711673Y-70049520D01*
X53711673Y-119049520D02*
X52711673Y-119049520D01*
X53711673Y-140049520D02*
X52711673Y-140049520D01*
X53711673Y-189049520D02*
X52711673Y-189049520D01*
D10*
X45366152Y-91161574D02*
X45611152Y-91161574D01*
X45453990Y-133124477D02*
G75*
G02*
X47123720Y-133124477I834865J0D01*
G01*
X45714329Y-49311457D02*
G75*
G02*
X47034081Y-49320852I659771J-19443D01*
G01*
X47486152Y-92009074D02*
X47711152Y-92194074D01*
D11*
X53711673Y-147049520D02*
X52711673Y-147049520D01*
D10*
X45824766Y-92011030D02*
X45604766Y-92192117D01*
D12*
X45000000Y-22000000D02*
X52500000Y-22000000D01*
D10*
X36201000Y-45500000D02*
G75*
G02*
X29799000Y-45500000I-3201000J0D01*
G01*
X29799000Y-45500000D02*
G75*
G02*
X36201000Y-45500000I3201000J0D01*
G01*
D11*
X53711673Y-133049520D02*
X52711673Y-133049520D01*
D10*
X36201000Y-135000000D02*
G75*
G02*
X29799000Y-135000000I-3201000J0D01*
G01*
X29799000Y-135000000D02*
G75*
G02*
X36201000Y-135000000I3201000J0D01*
G01*
X45069120Y-49240851D02*
X45314120Y-49240851D01*
X36201000Y-154000000D02*
G75*
G02*
X29799000Y-154000000I-3201000J0D01*
G01*
X29799000Y-154000000D02*
G75*
G02*
X36201000Y-154000000I3201000J0D01*
G01*
D11*
X53711673Y-98049520D02*
X52711673Y-98049520D01*
X53775538Y-126066857D02*
X52775538Y-126066857D01*
D10*
X47340697Y-133440270D02*
X45163855Y-133438206D01*
X45873652Y-90441574D02*
X45653652Y-90260487D01*
D11*
X53711673Y-63049520D02*
X52711673Y-63049520D01*
X53711673Y-42049520D02*
X52711673Y-42049520D01*
D10*
X47733652Y-91171574D02*
X47978652Y-91171574D01*
D11*
X53691548Y-28004344D02*
X52691548Y-28004344D01*
X53711673Y-168049520D02*
X52711673Y-168049520D01*
D10*
X47174120Y-48560851D02*
X47399120Y-48375851D01*
X46668652Y-92281574D02*
X46668652Y-92561574D01*
D11*
X53711673Y-182049520D02*
X52711673Y-182049520D01*
D10*
X46384120Y-48270851D02*
X46384120Y-47990851D01*
X47473652Y-90441574D02*
X47698652Y-90256574D01*
X36201000Y-64500000D02*
G75*
G02*
X29799000Y-64500000I-3201000J0D01*
G01*
X29799000Y-64500000D02*
G75*
G02*
X36201000Y-64500000I3201000J0D01*
G01*
X47543855Y-133750644D02*
X44953855Y-133749612D01*
X46683652Y-90151574D02*
X46683652Y-89871574D01*
D11*
X53711673Y-56049520D02*
X52711673Y-56049520D01*
X53711673Y-112049520D02*
X52711673Y-112049520D01*
D10*
X45574120Y-48560851D02*
X45354120Y-48379764D01*
D11*
X53711673Y-77049520D02*
X52711673Y-77049520D01*
X53711673Y-49049520D02*
X52711673Y-49049520D01*
D10*
X36201000Y-83500000D02*
G75*
G02*
X29799000Y-83500000I-3201000J0D01*
G01*
X29799000Y-83500000D02*
G75*
G02*
X36201000Y-83500000I3201000J0D01*
G01*
D11*
X53711673Y-91049520D02*
X52711673Y-91049520D01*
X53711673Y-154049520D02*
X52711673Y-154049520D01*
D10*
X47434120Y-49250851D02*
X47679120Y-49250851D01*
X36201000Y-173000000D02*
G75*
G02*
X29799000Y-173000000I-3201000J0D01*
G01*
X29799000Y-173000000D02*
G75*
G02*
X36201000Y-173000000I3201000J0D01*
G01*
D11*
X53711673Y-35049520D02*
X52711673Y-35049520D01*
D10*
G36*
X51531806Y-96775873D02*
G01*
X51220732Y-96794692D01*
X51220732Y-98835701D01*
X51478439Y-98835701D01*
X51481529Y-97163907D01*
X51572286Y-97261745D01*
X51730948Y-97401182D01*
X51982758Y-97594495D01*
X52141454Y-97357152D01*
X51958462Y-97237779D01*
X51813107Y-97121635D01*
X51705389Y-97017148D01*
X51626884Y-96924317D01*
X51576606Y-96851289D01*
X51545148Y-96799467D01*
X51531806Y-96775873D01*
G37*
G36*
X50523449Y-98295149D02*
G01*
X50275293Y-98293604D01*
X50263349Y-98383681D01*
X50231024Y-98459299D01*
X50177968Y-98523784D01*
X50109051Y-98571570D01*
X50022670Y-98601692D01*
X49913941Y-98612542D01*
X49794255Y-98600154D01*
X49698599Y-98565612D01*
X49621686Y-98510443D01*
X49563389Y-98436233D01*
X49527530Y-98345652D01*
X49514812Y-98233917D01*
X49527456Y-98105826D01*
X49562000Y-98007669D01*
X49622748Y-97925986D01*
X49719011Y-97855292D01*
X49787185Y-97822327D01*
X49860434Y-97798695D01*
X49982195Y-97777488D01*
X50111821Y-97775101D01*
X50111821Y-97526803D01*
X50086682Y-97526803D01*
X49959492Y-97516629D01*
X49835295Y-97486076D01*
X49742528Y-97440762D01*
X49683761Y-97385521D01*
X49648881Y-97312631D01*
X49635730Y-97206320D01*
X49644871Y-97152282D01*
X49671959Y-97106476D01*
X49719854Y-97066583D01*
X49810858Y-97028378D01*
X49927985Y-97014620D01*
X50025044Y-97028007D01*
X50108544Y-97067148D01*
X50182083Y-97133974D01*
X50246924Y-97234689D01*
X50470082Y-97110540D01*
X50449719Y-97065740D01*
X50390734Y-96983302D01*
X50291724Y-96885837D01*
X50229932Y-96846129D01*
X50143279Y-96808174D01*
X50048013Y-96782955D01*
X49943715Y-96774328D01*
X49926440Y-96774328D01*
X49783394Y-96785198D01*
X49660869Y-96816038D01*
X49553168Y-96871907D01*
X49465377Y-96956619D01*
X49422759Y-97026111D01*
X49396668Y-97105850D01*
X49387574Y-97198456D01*
X49402876Y-97344536D01*
X49446558Y-97467959D01*
X49492223Y-97539807D01*
X49546647Y-97593726D01*
X49610592Y-97632133D01*
X49485339Y-97710086D01*
X49390368Y-97806035D01*
X49321805Y-97921770D01*
X49278757Y-98061353D01*
X49263425Y-98230687D01*
X49272725Y-98339597D01*
X49301905Y-98457076D01*
X49349758Y-98568385D01*
X49414257Y-98662820D01*
X49502989Y-98744269D01*
X49612582Y-98804145D01*
X49747520Y-98842323D01*
X49913941Y-98856065D01*
X50051796Y-98845252D01*
X50169511Y-98814582D01*
X50270598Y-98765581D01*
X50357731Y-98698210D01*
X50430058Y-98614024D01*
X50481286Y-98520224D01*
X50512600Y-98414856D01*
X50523449Y-98295149D01*
G37*
G36*
X51433787Y-110920090D02*
G01*
X51122713Y-110938909D01*
X51122713Y-112979918D01*
X51380420Y-112979918D01*
X51383510Y-111308124D01*
X51474267Y-111405962D01*
X51632929Y-111545399D01*
X51884739Y-111738712D01*
X52043435Y-111501369D01*
X51860443Y-111381996D01*
X51715088Y-111265852D01*
X51607370Y-111161365D01*
X51528865Y-111068534D01*
X51478587Y-110995506D01*
X51447129Y-110943684D01*
X51433787Y-110920090D01*
G37*
G36*
X49786009Y-111817218D02*
G01*
X49879188Y-111827081D01*
X49968312Y-111856704D01*
X50055173Y-111907433D01*
X50141040Y-111982235D01*
X50145815Y-111986869D01*
X50343835Y-111902044D01*
X50271509Y-110941998D01*
X49330423Y-110945228D01*
X49330423Y-111187206D01*
X50050035Y-111187206D01*
X50086128Y-111653746D01*
X49988117Y-111605984D01*
X49890153Y-111578126D01*
X49790784Y-111568921D01*
X49632264Y-111586020D01*
X49487434Y-111636472D01*
X49398084Y-111695785D01*
X49317374Y-111774542D01*
X49244754Y-111875360D01*
X49191253Y-111987009D01*
X49158139Y-112113754D01*
X49146587Y-112258760D01*
X49159487Y-112428945D01*
X49195536Y-112569657D01*
X49252174Y-112686223D01*
X49328878Y-112782741D01*
X49425305Y-112861859D01*
X49535180Y-112919125D01*
X49661048Y-112955168D01*
X49806372Y-112968823D01*
X49809603Y-112968823D01*
X49933002Y-112956953D01*
X50043409Y-112922383D01*
X50143568Y-112865179D01*
X50233420Y-112790383D01*
X50312555Y-112703280D01*
X50381473Y-112602837D01*
X50172499Y-112464504D01*
X50094299Y-112574186D01*
X50013100Y-112653817D01*
X49951800Y-112692386D01*
X49883061Y-112715709D01*
X49804828Y-112723756D01*
X49679200Y-112709346D01*
X49580188Y-112669160D01*
X49501618Y-112604382D01*
X49444778Y-112518642D01*
X49408162Y-112406964D01*
X49394744Y-112261850D01*
X49409801Y-112109153D01*
X49450238Y-111996928D01*
X49512386Y-111915240D01*
X49597539Y-111858086D01*
X49687077Y-111827602D01*
X49786009Y-111817218D01*
G37*
G36*
X51688711Y-21172334D02*
G01*
X51688711Y-19596967D01*
X51999632Y-19597700D01*
X52186112Y-19598433D01*
X52186112Y-19386674D01*
X51697748Y-19385942D01*
X51142218Y-19385209D01*
X50950975Y-19405725D01*
X50996038Y-19613454D01*
X51079040Y-19600837D01*
X51149056Y-19596967D01*
X51470114Y-19596967D01*
X51470114Y-21172334D01*
X51688711Y-21172334D01*
G37*
G36*
X50266823Y-19761100D02*
G01*
X50363938Y-19793094D01*
X50449489Y-19843994D01*
X50517567Y-19908499D01*
X50572402Y-19986486D01*
X50618683Y-20081423D01*
X50653083Y-20183853D01*
X50676080Y-20291838D01*
X50688690Y-20403684D01*
X50693055Y-20526067D01*
X50682934Y-20673318D01*
X50654532Y-20796986D01*
X50609877Y-20901004D01*
X50549684Y-20988541D01*
X50472405Y-21060592D01*
X50379524Y-21113064D01*
X50267874Y-21146342D01*
X50133006Y-21158656D01*
X50130197Y-21158656D01*
X50006473Y-21148131D01*
X49902075Y-21118356D01*
X49809868Y-21070221D01*
X49738798Y-21010401D01*
X49681713Y-20936807D01*
X49634384Y-20846514D01*
X49599375Y-20748251D01*
X49576255Y-20645624D01*
X49563600Y-20538686D01*
X49559158Y-20418112D01*
X49559592Y-20411273D01*
X49776412Y-20411273D01*
X49776412Y-20435942D01*
X49786276Y-20599462D01*
X49812271Y-20719544D01*
X49850224Y-20805877D01*
X49897922Y-20866297D01*
X49951138Y-20904414D01*
X50001115Y-20927847D01*
X50055970Y-20941000D01*
X50130197Y-20946898D01*
X50237685Y-20933428D01*
X50321923Y-20895721D01*
X50388484Y-20834180D01*
X50435594Y-20754317D01*
X50466098Y-20651420D01*
X50477266Y-20519228D01*
X50472312Y-20392250D01*
X50458826Y-20290373D01*
X50434261Y-20196507D01*
X50399475Y-20116228D01*
X50350103Y-20048594D01*
X50285292Y-20000090D01*
X50206949Y-19970887D01*
X50108338Y-19960401D01*
X50025199Y-19968833D01*
X49957862Y-19992451D01*
X49902940Y-20030265D01*
X49858355Y-20083377D01*
X49816029Y-20168962D01*
X49787897Y-20276532D01*
X49776412Y-20411273D01*
X49559592Y-20411273D01*
X49569116Y-20261157D01*
X49596792Y-20131536D01*
X49639758Y-20024637D01*
X49695720Y-19937935D01*
X49760907Y-19869679D01*
X49835885Y-19817641D01*
X49920120Y-19781785D01*
X50024929Y-19758461D01*
X50154866Y-19749986D01*
X50266823Y-19761100D01*
G37*
G36*
X48395463Y-19243182D02*
G01*
X48379606Y-19435116D01*
X48374946Y-19580603D01*
X48374946Y-19863436D01*
X48483138Y-19806271D01*
X48590445Y-19773195D01*
X48698690Y-19762320D01*
X48823453Y-19772089D01*
X48924859Y-19799200D01*
X49013698Y-19843929D01*
X49081296Y-19900317D01*
X49134416Y-19971480D01*
X49178261Y-20064326D01*
X49209352Y-20166202D01*
X49229552Y-20275352D01*
X49240017Y-20390996D01*
X49243840Y-20532906D01*
X49234848Y-20680386D01*
X49209644Y-20804647D01*
X49170215Y-20909322D01*
X49117567Y-20997456D01*
X49048032Y-21070723D01*
X48961801Y-21123841D01*
X48855322Y-21157451D01*
X48723359Y-21169525D01*
X48587838Y-21155005D01*
X48472723Y-21113418D01*
X48373603Y-21045205D01*
X48358582Y-21176364D01*
X48134489Y-21150474D01*
X48152916Y-20990395D01*
X48159035Y-20830760D01*
X48159035Y-20795223D01*
X48158311Y-20143461D01*
X48373603Y-20143461D01*
X48373603Y-20740512D01*
X48467148Y-20868374D01*
X48512045Y-20906126D01*
X48568997Y-20935296D01*
X48634829Y-20952606D01*
X48723359Y-20959110D01*
X48805001Y-20951024D01*
X48869170Y-20928683D01*
X48919721Y-20893425D01*
X48959053Y-20844438D01*
X48994657Y-20764574D01*
X49018893Y-20654873D01*
X49028052Y-20506894D01*
X49017958Y-20312511D01*
X48992388Y-20180938D01*
X48956977Y-20095711D01*
X48916242Y-20043327D01*
X48864552Y-20005983D01*
X48799676Y-19982521D01*
X48717863Y-19974078D01*
X48633078Y-19986507D01*
X48535536Y-20027445D01*
X48443972Y-20084677D01*
X48373603Y-20143461D01*
X48158311Y-20143461D01*
X48157692Y-19586099D01*
X48162783Y-19393186D01*
X48176865Y-19232191D01*
X48395463Y-19243182D01*
G37*
G36*
X47362406Y-19764568D02*
G01*
X47470957Y-19790326D01*
X47564426Y-19831318D01*
X47647023Y-19890307D01*
X47723677Y-19973700D01*
X47794625Y-20086186D01*
X47617061Y-20198171D01*
X47557828Y-20105449D01*
X47505128Y-20044749D01*
X47457936Y-20008272D01*
X47403357Y-19984177D01*
X47330084Y-19967946D01*
X47233111Y-19961866D01*
X47122295Y-19973706D01*
X47041735Y-20005506D01*
X46983739Y-20054801D01*
X46943726Y-20121346D01*
X46916773Y-20214958D01*
X46906558Y-20344351D01*
X46985588Y-20308287D01*
X47093557Y-20283836D01*
X47238606Y-20274619D01*
X47366545Y-20284148D01*
X47473568Y-20310889D01*
X47571080Y-20359758D01*
X47667619Y-20439972D01*
X47719161Y-20505466D01*
X47757744Y-20584075D01*
X47781485Y-20668335D01*
X47789130Y-20748817D01*
X47775513Y-20858601D01*
X47735498Y-20956103D01*
X47667619Y-21044595D01*
X47580232Y-21113569D01*
X47482999Y-21154285D01*
X47372451Y-21168182D01*
X47278961Y-21163400D01*
X47196230Y-21149741D01*
X47118741Y-21126315D01*
X47051394Y-21094420D01*
X46946858Y-21026154D01*
X46857343Y-20946898D01*
X46837682Y-21017240D01*
X46802755Y-21071950D01*
X46767218Y-21108831D01*
X46721422Y-21143635D01*
X46679779Y-21173677D01*
X46566450Y-21011133D01*
X46605407Y-20981702D01*
X46649126Y-20948241D01*
X46674283Y-20923695D01*
X46685487Y-20882388D01*
X46692113Y-20725491D01*
X46692113Y-20558796D01*
X46906558Y-20558796D01*
X46906558Y-20688611D01*
X46940752Y-20739902D01*
X47002912Y-20807557D01*
X47095236Y-20882051D01*
X47147084Y-20909861D01*
X47217479Y-20936639D01*
X47293118Y-20954546D01*
X47372451Y-20960575D01*
X47433583Y-20953469D01*
X47482513Y-20933509D01*
X47522050Y-20901102D01*
X47550977Y-20858411D01*
X47569363Y-20804173D01*
X47576028Y-20735139D01*
X47564774Y-20661974D01*
X47531695Y-20599667D01*
X47474301Y-20545240D01*
X47403275Y-20505542D01*
X47321845Y-20480696D01*
X47227615Y-20471357D01*
X47110846Y-20481351D01*
X47004512Y-20510558D01*
X46906558Y-20558796D01*
X46692113Y-20558796D01*
X46692113Y-20274619D01*
X46702041Y-20160672D01*
X46730485Y-20061820D01*
X46776597Y-19975259D01*
X46841101Y-19898974D01*
X46919513Y-19837497D01*
X47009795Y-19792981D01*
X47114217Y-19765232D01*
X47235798Y-19755481D01*
X47362406Y-19764568D01*
G37*
G36*
X45988816Y-21464692D02*
G01*
X45943753Y-21456510D01*
X45902109Y-21430498D01*
X45865839Y-21394961D01*
X45833111Y-21345746D01*
X45805023Y-21293112D01*
X45778400Y-21233761D01*
X45756541Y-21176364D01*
X45736024Y-21117745D01*
X45718317Y-21067065D01*
X45834359Y-20698643D01*
X45939939Y-20426976D01*
X46035323Y-20233402D01*
X46121008Y-20101345D01*
X46197888Y-20016454D01*
X46253657Y-19986145D01*
X46348097Y-19974078D01*
X46348097Y-19765129D01*
X46196422Y-19775997D01*
X46128645Y-19799695D01*
X46051878Y-19857501D01*
X45962427Y-19963049D01*
X45857535Y-20134648D01*
X45734962Y-20394407D01*
X45592654Y-20767868D01*
X45518983Y-20526172D01*
X45455389Y-20259720D01*
X45409789Y-19993032D01*
X45390421Y-19766472D01*
X45174510Y-19766472D01*
X45179428Y-19886075D01*
X45193683Y-19995938D01*
X45268024Y-20346081D01*
X45360628Y-20688800D01*
X45471521Y-21024626D01*
X45600836Y-21354050D01*
X45646637Y-21452872D01*
X45696637Y-21530540D01*
X45750435Y-21590355D01*
X45814528Y-21635877D01*
X45891015Y-21663885D01*
X45983320Y-21673764D01*
X46086175Y-21663297D01*
X46169092Y-21634039D01*
X46236436Y-21587224D01*
X46290848Y-21521371D01*
X46332871Y-21432495D01*
X46360883Y-21314572D01*
X46371300Y-21160000D01*
X46158198Y-21160000D01*
X46152227Y-21276840D01*
X46137376Y-21352660D01*
X46117287Y-21399113D01*
X46085236Y-21435188D01*
X46043487Y-21456930D01*
X45988816Y-21464692D01*
G37*
G36*
X51740226Y-167619198D02*
G01*
X51975884Y-167675795D01*
X51997006Y-167589664D01*
X52007202Y-167499825D01*
X52008045Y-167479461D01*
X52008887Y-167460501D01*
X51997874Y-167336293D01*
X51966531Y-167230392D01*
X51916012Y-167139334D01*
X51845556Y-167060670D01*
X51759843Y-166997019D01*
X51664741Y-166951466D01*
X51558442Y-166923472D01*
X51438562Y-166913770D01*
X51275817Y-166927553D01*
X51147973Y-166965358D01*
X51047710Y-167023986D01*
X50969823Y-167103306D01*
X50911797Y-167206264D01*
X50874149Y-167338484D01*
X50860372Y-167507689D01*
X50873896Y-167622866D01*
X50916391Y-167744442D01*
X50992719Y-167875387D01*
X51110074Y-168018328D01*
X51342642Y-168224212D01*
X51590939Y-168444141D01*
X51660185Y-168521989D01*
X51707223Y-168595815D01*
X51738867Y-168669896D01*
X51749636Y-168722211D01*
X50830458Y-168719121D01*
X50830458Y-168962644D01*
X52022931Y-168962644D01*
X52024617Y-168889615D01*
X52026161Y-168813356D01*
X52016752Y-168686118D01*
X51985931Y-168576386D01*
X51932625Y-168466569D01*
X51854090Y-168355275D01*
X51746406Y-168241486D01*
X51512293Y-168044309D01*
X51300229Y-167864406D01*
X51220750Y-167776406D01*
X51161194Y-167682958D01*
X51121526Y-167586182D01*
X51110074Y-167510779D01*
X51119298Y-167412867D01*
X51145519Y-167330071D01*
X51187877Y-167259392D01*
X51246590Y-167205022D01*
X51323924Y-167171136D01*
X51425922Y-167158837D01*
X51528061Y-167169744D01*
X51608692Y-167200052D01*
X51672675Y-167248438D01*
X51719146Y-167313691D01*
X51749375Y-167401877D01*
X51760590Y-167520188D01*
X51755950Y-167563983D01*
X51740226Y-167619198D01*
G37*
G36*
X50425430Y-168439366D02*
G01*
X50177274Y-168437821D01*
X50165330Y-168527898D01*
X50133005Y-168603516D01*
X50079949Y-168668001D01*
X50011032Y-168715787D01*
X49924651Y-168745909D01*
X49815922Y-168756759D01*
X49696236Y-168744371D01*
X49600580Y-168709829D01*
X49523667Y-168654660D01*
X49465370Y-168580450D01*
X49429511Y-168489869D01*
X49416793Y-168378134D01*
X49429437Y-168250043D01*
X49463981Y-168151886D01*
X49524729Y-168070203D01*
X49620992Y-167999509D01*
X49689166Y-167966544D01*
X49762415Y-167942912D01*
X49884176Y-167921705D01*
X50013802Y-167919318D01*
X50013802Y-167671020D01*
X49988663Y-167671020D01*
X49861473Y-167660846D01*
X49737276Y-167630293D01*
X49644509Y-167584979D01*
X49585742Y-167529738D01*
X49550862Y-167456848D01*
X49537711Y-167350537D01*
X49546852Y-167296499D01*
X49573940Y-167250693D01*
X49621835Y-167210800D01*
X49712839Y-167172595D01*
X49829966Y-167158837D01*
X49927025Y-167172224D01*
X50010525Y-167211365D01*
X50084064Y-167278191D01*
X50148905Y-167378906D01*
X50372063Y-167254757D01*
X50351700Y-167209957D01*
X50292715Y-167127519D01*
X50193705Y-167030054D01*
X50131913Y-166990346D01*
X50045260Y-166952391D01*
X49949994Y-166927172D01*
X49845696Y-166918545D01*
X49828421Y-166918545D01*
X49685375Y-166929415D01*
X49562850Y-166960255D01*
X49455149Y-167016124D01*
X49367358Y-167100836D01*
X49324740Y-167170328D01*
X49298649Y-167250067D01*
X49289555Y-167342673D01*
X49304857Y-167488753D01*
X49348539Y-167612176D01*
X49394204Y-167684024D01*
X49448628Y-167737943D01*
X49512573Y-167776350D01*
X49387320Y-167854303D01*
X49292349Y-167950252D01*
X49223786Y-168065987D01*
X49180738Y-168205570D01*
X49165406Y-168374904D01*
X49174706Y-168483814D01*
X49203886Y-168601293D01*
X49251739Y-168712602D01*
X49316238Y-168807037D01*
X49404970Y-168888486D01*
X49514563Y-168948362D01*
X49649501Y-168986540D01*
X49815922Y-169000282D01*
X49953777Y-168989469D01*
X50071492Y-168958799D01*
X50172579Y-168909798D01*
X50259712Y-168842427D01*
X50332039Y-168758241D01*
X50383267Y-168664441D01*
X50414581Y-168559073D01*
X50425430Y-168439366D01*
G37*
G36*
X51433787Y-131920090D02*
G01*
X51122713Y-131938909D01*
X51122713Y-133979918D01*
X51380420Y-133979918D01*
X51383510Y-132308124D01*
X51474267Y-132405962D01*
X51632929Y-132545399D01*
X51884739Y-132738712D01*
X52043435Y-132501369D01*
X51860443Y-132381996D01*
X51715088Y-132265852D01*
X51607370Y-132161365D01*
X51528865Y-132068534D01*
X51478587Y-131995506D01*
X51447129Y-131943684D01*
X51433787Y-131920090D01*
G37*
G36*
X49911178Y-131943797D02*
G01*
X50016432Y-131970607D01*
X50105263Y-132013060D01*
X50180363Y-132070922D01*
X50259493Y-132169727D01*
X50306905Y-132283861D01*
X50323331Y-132418089D01*
X50314643Y-132493098D01*
X50287916Y-132568531D01*
X50240893Y-132646022D01*
X50150028Y-132743392D01*
X50050035Y-132806264D01*
X50149343Y-132863752D01*
X50241308Y-132937646D01*
X50326561Y-133029422D01*
X50392875Y-133133057D01*
X50432442Y-133246174D01*
X50445935Y-133371814D01*
X50434079Y-133501427D01*
X50399837Y-133615590D01*
X50343762Y-133717318D01*
X50264487Y-133808722D01*
X50169078Y-133881916D01*
X50059019Y-133935056D01*
X49931521Y-133968243D01*
X49782919Y-133979918D01*
X49634238Y-133968239D01*
X49506720Y-133935045D01*
X49396691Y-133881906D01*
X49301352Y-133808722D01*
X49222076Y-133717318D01*
X49166001Y-133615590D01*
X49131760Y-133501427D01*
X49121342Y-133387544D01*
X49369605Y-133387544D01*
X49382464Y-133489275D01*
X49419081Y-133572399D01*
X49479710Y-133641318D01*
X49558083Y-133691278D01*
X49657261Y-133723152D01*
X49782919Y-133734710D01*
X49908577Y-133723152D01*
X50007755Y-133691278D01*
X50086128Y-133641318D01*
X50146673Y-133572410D01*
X50183247Y-133489286D01*
X50196092Y-133387544D01*
X50187690Y-133305341D01*
X50163089Y-133231234D01*
X50122681Y-133164447D01*
X50065764Y-133104839D01*
X49937683Y-133012148D01*
X49782919Y-132933502D01*
X49628155Y-133012148D01*
X49500074Y-133104839D01*
X49443043Y-133164457D01*
X49402608Y-133231234D01*
X49378007Y-133305341D01*
X49369605Y-133387544D01*
X49121342Y-133387544D01*
X49119903Y-133371814D01*
X49133396Y-133246174D01*
X49172963Y-133133057D01*
X49239277Y-133029422D01*
X49324451Y-132937661D01*
X49416414Y-132863766D01*
X49515803Y-132806264D01*
X49416371Y-132744442D01*
X49328035Y-132647567D01*
X49282943Y-132570260D01*
X49257124Y-132494275D01*
X49248687Y-132418089D01*
X49249443Y-132411909D01*
X49495299Y-132411909D01*
X49503453Y-132462099D01*
X49529286Y-132513572D01*
X49577035Y-132568219D01*
X49667623Y-132632252D01*
X49782919Y-132675795D01*
X49899884Y-132632097D01*
X49992736Y-132567376D01*
X50042060Y-132512137D01*
X50068463Y-132460987D01*
X50076719Y-132411909D01*
X50068104Y-132350452D01*
X50042682Y-132296435D01*
X49998915Y-132247735D01*
X49943432Y-132211882D01*
X49873749Y-132189113D01*
X49786009Y-132180886D01*
X49698269Y-132189113D01*
X49628585Y-132211882D01*
X49573102Y-132247735D01*
X49529335Y-132296435D01*
X49503913Y-132350452D01*
X49495299Y-132411909D01*
X49249443Y-132411909D01*
X49265113Y-132283861D01*
X49312524Y-132169727D01*
X49391654Y-132070922D01*
X49466754Y-132013060D01*
X49555585Y-131970607D01*
X49660839Y-131943797D01*
X49786009Y-131934274D01*
X49911178Y-131943797D01*
G37*
G36*
X51467339Y-40859234D02*
G01*
X51553548Y-40885581D01*
X51631621Y-40927471D01*
X51697358Y-40981361D01*
X51753371Y-41046993D01*
X51804092Y-41127559D01*
X51846219Y-41215211D01*
X51880351Y-41308164D01*
X51929084Y-41513206D01*
X51955767Y-41726112D01*
X51963632Y-41937334D01*
X51959401Y-42087629D01*
X51947200Y-42224954D01*
X51924233Y-42358989D01*
X51888216Y-42492070D01*
X51838854Y-42617392D01*
X51780639Y-42719021D01*
X51705648Y-42804421D01*
X51609303Y-42872240D01*
X51497456Y-42915402D01*
X51366623Y-42930382D01*
X51239268Y-42916348D01*
X51130853Y-42876063D01*
X51037055Y-42809590D01*
X50955465Y-42713503D01*
X50885899Y-42581294D01*
X50830376Y-42403956D01*
X50792852Y-42170490D01*
X50778883Y-41868237D01*
X50779686Y-41838464D01*
X51022405Y-41838464D01*
X51024091Y-41994773D01*
X51033500Y-42156560D01*
X51055549Y-42319189D01*
X51094732Y-42462156D01*
X51123777Y-42531349D01*
X51156104Y-42582373D01*
X51196264Y-42624569D01*
X51245564Y-42659334D01*
X51301797Y-42682113D01*
X51366623Y-42689950D01*
X51442716Y-42680857D01*
X51502165Y-42655519D01*
X51548914Y-42614533D01*
X51602869Y-42529459D01*
X51647783Y-42407245D01*
X51031955Y-41620080D01*
X51022405Y-41838464D01*
X50779686Y-41838464D01*
X50782933Y-41718048D01*
X50794612Y-41580757D01*
X50816444Y-41445936D01*
X50826048Y-41407876D01*
X51090097Y-41407876D01*
X51701150Y-42190406D01*
X51715402Y-42077245D01*
X51720109Y-41965702D01*
X51707961Y-41670111D01*
X51676271Y-41456053D01*
X51631147Y-41305910D01*
X51577029Y-41204533D01*
X51516168Y-41139681D01*
X51448127Y-41102870D01*
X51369713Y-41090483D01*
X51311079Y-41096981D01*
X51261293Y-41115621D01*
X51218524Y-41146825D01*
X51181945Y-41192723D01*
X51130965Y-41289345D01*
X51090097Y-41407876D01*
X50826048Y-41407876D01*
X50851209Y-41308164D01*
X50899327Y-41177496D01*
X50956539Y-41072506D01*
X51030957Y-40983870D01*
X51127735Y-40912265D01*
X51240538Y-40866098D01*
X51371257Y-40850190D01*
X51467339Y-40859234D01*
G37*
G36*
X49714070Y-41756728D02*
G01*
X49807249Y-41766591D01*
X49896373Y-41796214D01*
X49983234Y-41846943D01*
X50069101Y-41921745D01*
X50073876Y-41926379D01*
X50271896Y-41841554D01*
X50199570Y-40881508D01*
X49258484Y-40884738D01*
X49258484Y-41126716D01*
X49978096Y-41126716D01*
X50014189Y-41593256D01*
X49916178Y-41545494D01*
X49818214Y-41517636D01*
X49718845Y-41508431D01*
X49560325Y-41525530D01*
X49415495Y-41575982D01*
X49326145Y-41635295D01*
X49245435Y-41714052D01*
X49172815Y-41814870D01*
X49119314Y-41926519D01*
X49086200Y-42053264D01*
X49074648Y-42198270D01*
X49087548Y-42368455D01*
X49123597Y-42509167D01*
X49180235Y-42625733D01*
X49256939Y-42722251D01*
X49353366Y-42801369D01*
X49463241Y-42858635D01*
X49589109Y-42894678D01*
X49734433Y-42908333D01*
X49737664Y-42908333D01*
X49861063Y-42896463D01*
X49971470Y-42861893D01*
X50071629Y-42804689D01*
X50161481Y-42729893D01*
X50240616Y-42642790D01*
X50309534Y-42542347D01*
X50100560Y-42404014D01*
X50022360Y-42513696D01*
X49941161Y-42593327D01*
X49879861Y-42631896D01*
X49811122Y-42655219D01*
X49732889Y-42663266D01*
X49607261Y-42648856D01*
X49508249Y-42608670D01*
X49429679Y-42543892D01*
X49372839Y-42458152D01*
X49336223Y-42346474D01*
X49322805Y-42201360D01*
X49337862Y-42048663D01*
X49378299Y-41936438D01*
X49440447Y-41854750D01*
X49525600Y-41797596D01*
X49615138Y-41767112D01*
X49714070Y-41756728D01*
G37*
G36*
X51628925Y-75822446D02*
G01*
X51317851Y-75841265D01*
X51317851Y-77882274D01*
X51575558Y-77882274D01*
X51578648Y-76210480D01*
X51669405Y-76308318D01*
X51828067Y-76447755D01*
X52079877Y-76641068D01*
X52238573Y-76403725D01*
X52055581Y-76284352D01*
X51910226Y-76168208D01*
X51802508Y-76063721D01*
X51724003Y-75970890D01*
X51673725Y-75897862D01*
X51642267Y-75846040D01*
X51628925Y-75822446D01*
G37*
G36*
X50069364Y-75822080D02*
G01*
X50155573Y-75848427D01*
X50233645Y-75890317D01*
X50299383Y-75944207D01*
X50355396Y-76009839D01*
X50406117Y-76090405D01*
X50448243Y-76178057D01*
X50482376Y-76271010D01*
X50531108Y-76476052D01*
X50557792Y-76688958D01*
X50565656Y-76900180D01*
X50561426Y-77050475D01*
X50549225Y-77187800D01*
X50526258Y-77321835D01*
X50490240Y-77454916D01*
X50440879Y-77580238D01*
X50382664Y-77681867D01*
X50307673Y-77767267D01*
X50211327Y-77835086D01*
X50099481Y-77878248D01*
X49968648Y-77893228D01*
X49841293Y-77879194D01*
X49732877Y-77838909D01*
X49639080Y-77772436D01*
X49557490Y-77676349D01*
X49487923Y-77544140D01*
X49432401Y-77366802D01*
X49394877Y-77133336D01*
X49380908Y-76831083D01*
X49381711Y-76801310D01*
X49624430Y-76801310D01*
X49626115Y-76957619D01*
X49635525Y-77119406D01*
X49657574Y-77282035D01*
X49696756Y-77425002D01*
X49725802Y-77494195D01*
X49758129Y-77545219D01*
X49798289Y-77587415D01*
X49847589Y-77622180D01*
X49903821Y-77644959D01*
X49968648Y-77652796D01*
X50044741Y-77643703D01*
X50104189Y-77618365D01*
X50150938Y-77577379D01*
X50204893Y-77492305D01*
X50249808Y-77370091D01*
X49633980Y-76582926D01*
X49624430Y-76801310D01*
X49381711Y-76801310D01*
X49384957Y-76680894D01*
X49396637Y-76543603D01*
X49418469Y-76408782D01*
X49428073Y-76370722D01*
X49692122Y-76370722D01*
X50303175Y-77153252D01*
X50317427Y-77040091D01*
X50322134Y-76928548D01*
X50309985Y-76632957D01*
X50278295Y-76418899D01*
X50233172Y-76268756D01*
X50179053Y-76167379D01*
X50118193Y-76102527D01*
X50050152Y-76065716D01*
X49971737Y-76053329D01*
X49913104Y-76059827D01*
X49863318Y-76078467D01*
X49820549Y-76109671D01*
X49783969Y-76155569D01*
X49732990Y-76252191D01*
X49692122Y-76370722D01*
X49428073Y-76370722D01*
X49453234Y-76271010D01*
X49501352Y-76140342D01*
X49558564Y-76035352D01*
X49632982Y-75946716D01*
X49729760Y-75875111D01*
X49842562Y-75828944D01*
X49973282Y-75813036D01*
X50069364Y-75822080D01*
G37*
G36*
X51433787Y-103920090D02*
G01*
X51122713Y-103938909D01*
X51122713Y-105979918D01*
X51380420Y-105979918D01*
X51383510Y-104308124D01*
X51474267Y-104405962D01*
X51632929Y-104545399D01*
X51884739Y-104738712D01*
X52043435Y-104501369D01*
X51860443Y-104381996D01*
X51715088Y-104265852D01*
X51607370Y-104161365D01*
X51528865Y-104068534D01*
X51478587Y-103995506D01*
X51447129Y-103943684D01*
X51433787Y-103920090D01*
G37*
G36*
X49631422Y-103992228D02*
G01*
X49699638Y-104126676D01*
X49787475Y-104268367D01*
X49898360Y-104428341D01*
X50123064Y-104730005D01*
X50325718Y-104988414D01*
X50425430Y-105112563D01*
X50331195Y-105316902D01*
X49597539Y-105316902D01*
X49597539Y-105968823D01*
X49352331Y-105968823D01*
X49352331Y-105312127D01*
X49151222Y-105312127D01*
X49151222Y-105070150D01*
X49352331Y-105070150D01*
X49597539Y-105070150D01*
X50097082Y-105070150D01*
X49978356Y-104935562D01*
X49829966Y-104750509D01*
X49690586Y-104559014D01*
X49597539Y-104410224D01*
X49597539Y-105070150D01*
X49352331Y-105070150D01*
X49352331Y-103913770D01*
X49608493Y-103913770D01*
X49631422Y-103992228D01*
G37*
G36*
X51740226Y-146619198D02*
G01*
X51975884Y-146675795D01*
X51997006Y-146589664D01*
X52007202Y-146499825D01*
X52008045Y-146479461D01*
X52008887Y-146460501D01*
X51997874Y-146336293D01*
X51966531Y-146230392D01*
X51916012Y-146139334D01*
X51845556Y-146060670D01*
X51759843Y-145997019D01*
X51664741Y-145951466D01*
X51558442Y-145923472D01*
X51438562Y-145913770D01*
X51275817Y-145927553D01*
X51147973Y-145965358D01*
X51047710Y-146023986D01*
X50969823Y-146103306D01*
X50911797Y-146206264D01*
X50874149Y-146338484D01*
X50860372Y-146507689D01*
X50873896Y-146622866D01*
X50916391Y-146744442D01*
X50992719Y-146875387D01*
X51110074Y-147018328D01*
X51342642Y-147224212D01*
X51590939Y-147444141D01*
X51660185Y-147521989D01*
X51707223Y-147595815D01*
X51738867Y-147669896D01*
X51749636Y-147722211D01*
X50830458Y-147719121D01*
X50830458Y-147962644D01*
X52022931Y-147962644D01*
X52024617Y-147889615D01*
X52026161Y-147813356D01*
X52016752Y-147686118D01*
X51985931Y-147576386D01*
X51932625Y-147466569D01*
X51854090Y-147355275D01*
X51746406Y-147241486D01*
X51512293Y-147044309D01*
X51300229Y-146864406D01*
X51220750Y-146776406D01*
X51161194Y-146682958D01*
X51121526Y-146586182D01*
X51110074Y-146510779D01*
X51119298Y-146412867D01*
X51145519Y-146330071D01*
X51187877Y-146259392D01*
X51246590Y-146205022D01*
X51323924Y-146171136D01*
X51425922Y-146158837D01*
X51528061Y-146169744D01*
X51608692Y-146200052D01*
X51672675Y-146248438D01*
X51719146Y-146313691D01*
X51749375Y-146401877D01*
X51760590Y-146520188D01*
X51755950Y-146563983D01*
X51740226Y-146619198D01*
G37*
G36*
X49874226Y-145919724D02*
G01*
X49960435Y-145946071D01*
X50038507Y-145987961D01*
X50104245Y-146041851D01*
X50160258Y-146107483D01*
X50210979Y-146188049D01*
X50253105Y-146275701D01*
X50287238Y-146368654D01*
X50335970Y-146573696D01*
X50362654Y-146786602D01*
X50370518Y-146997824D01*
X50366288Y-147148119D01*
X50354087Y-147285444D01*
X50331120Y-147419479D01*
X50295102Y-147552560D01*
X50245741Y-147677882D01*
X50187526Y-147779511D01*
X50112535Y-147864911D01*
X50016189Y-147932730D01*
X49904343Y-147975892D01*
X49773510Y-147990872D01*
X49646155Y-147976838D01*
X49537739Y-147936553D01*
X49443942Y-147870080D01*
X49362352Y-147773993D01*
X49292785Y-147641784D01*
X49237263Y-147464446D01*
X49199739Y-147230980D01*
X49185770Y-146928727D01*
X49186573Y-146898954D01*
X49429292Y-146898954D01*
X49430977Y-147055263D01*
X49440387Y-147217050D01*
X49462436Y-147379679D01*
X49501618Y-147522646D01*
X49530664Y-147591839D01*
X49562991Y-147642863D01*
X49603151Y-147685059D01*
X49652451Y-147719824D01*
X49708683Y-147742603D01*
X49773510Y-147750440D01*
X49849603Y-147741347D01*
X49909051Y-147716009D01*
X49955800Y-147675023D01*
X50009755Y-147589949D01*
X50054670Y-147467735D01*
X49438842Y-146680570D01*
X49429292Y-146898954D01*
X49186573Y-146898954D01*
X49189819Y-146778538D01*
X49201499Y-146641247D01*
X49223331Y-146506426D01*
X49232935Y-146468366D01*
X49496984Y-146468366D01*
X50108037Y-147250896D01*
X50122289Y-147137735D01*
X50126996Y-147026192D01*
X50114847Y-146730601D01*
X50083157Y-146516543D01*
X50038034Y-146366400D01*
X49983915Y-146265023D01*
X49923055Y-146200171D01*
X49855014Y-146163360D01*
X49776599Y-146150973D01*
X49717966Y-146157471D01*
X49668180Y-146176111D01*
X49625411Y-146207315D01*
X49588831Y-146253213D01*
X49537852Y-146349835D01*
X49496984Y-146468366D01*
X49232935Y-146468366D01*
X49258096Y-146368654D01*
X49306214Y-146237986D01*
X49363426Y-146132996D01*
X49437844Y-146044360D01*
X49534622Y-145972755D01*
X49647424Y-145926588D01*
X49778144Y-145910680D01*
X49874226Y-145919724D01*
G37*
G36*
X51539278Y-187919724D02*
G01*
X51625487Y-187946071D01*
X51703560Y-187987961D01*
X51769297Y-188041851D01*
X51825310Y-188107483D01*
X51876031Y-188188049D01*
X51918158Y-188275701D01*
X51952290Y-188368654D01*
X52001023Y-188573696D01*
X52027706Y-188786602D01*
X52035571Y-188997824D01*
X52031340Y-189148119D01*
X52019139Y-189285444D01*
X51996172Y-189419479D01*
X51960155Y-189552560D01*
X51910793Y-189677882D01*
X51852578Y-189779511D01*
X51777587Y-189864911D01*
X51681242Y-189932730D01*
X51569395Y-189975892D01*
X51438562Y-189990872D01*
X51311207Y-189976838D01*
X51202792Y-189936553D01*
X51108994Y-189870080D01*
X51027404Y-189773993D01*
X50957838Y-189641784D01*
X50902315Y-189464446D01*
X50864791Y-189230980D01*
X50850822Y-188928727D01*
X50851625Y-188898954D01*
X51094344Y-188898954D01*
X51096030Y-189055263D01*
X51105439Y-189217050D01*
X51127488Y-189379679D01*
X51166671Y-189522646D01*
X51195716Y-189591839D01*
X51228043Y-189642863D01*
X51268203Y-189685059D01*
X51317503Y-189719824D01*
X51373736Y-189742603D01*
X51438562Y-189750440D01*
X51514655Y-189741347D01*
X51574104Y-189716009D01*
X51620853Y-189675023D01*
X51674808Y-189589949D01*
X51719722Y-189467735D01*
X51103894Y-188680570D01*
X51094344Y-188898954D01*
X50851625Y-188898954D01*
X50854872Y-188778538D01*
X50866551Y-188641247D01*
X50888383Y-188506426D01*
X50897987Y-188468366D01*
X51162036Y-188468366D01*
X51773089Y-189250896D01*
X51787341Y-189137735D01*
X51792048Y-189026192D01*
X51779900Y-188730601D01*
X51748210Y-188516543D01*
X51703086Y-188366400D01*
X51648968Y-188265023D01*
X51588107Y-188200171D01*
X51520066Y-188163360D01*
X51441652Y-188150973D01*
X51383018Y-188157471D01*
X51333232Y-188176111D01*
X51290463Y-188207315D01*
X51253884Y-188253213D01*
X51202904Y-188349835D01*
X51162036Y-188468366D01*
X50897987Y-188468366D01*
X50923148Y-188368654D01*
X50971266Y-188237986D01*
X51028478Y-188132996D01*
X51102896Y-188044360D01*
X51199674Y-187972755D01*
X51312477Y-187926588D01*
X51443196Y-187910680D01*
X51539278Y-187919724D01*
G37*
G36*
X50075174Y-188619198D02*
G01*
X50310832Y-188675795D01*
X50331954Y-188589664D01*
X50342150Y-188499825D01*
X50342992Y-188479461D01*
X50343835Y-188460501D01*
X50332822Y-188336293D01*
X50301479Y-188230392D01*
X50250959Y-188139334D01*
X50180504Y-188060670D01*
X50094791Y-187997019D01*
X49999688Y-187951466D01*
X49893390Y-187923472D01*
X49773510Y-187913770D01*
X49610764Y-187927553D01*
X49482921Y-187965358D01*
X49382658Y-188023986D01*
X49304771Y-188103306D01*
X49246745Y-188206264D01*
X49209096Y-188338484D01*
X49195320Y-188507689D01*
X49208844Y-188622866D01*
X49251339Y-188744442D01*
X49327666Y-188875387D01*
X49445021Y-189018328D01*
X49677589Y-189224212D01*
X49925887Y-189444141D01*
X49995133Y-189521989D01*
X50042171Y-189595815D01*
X50073815Y-189669896D01*
X50084583Y-189722211D01*
X49165406Y-189719121D01*
X49165406Y-189962644D01*
X50357879Y-189962644D01*
X50359564Y-189889615D01*
X50361109Y-189813356D01*
X50351700Y-189686118D01*
X50320879Y-189576386D01*
X50267573Y-189466569D01*
X50189038Y-189355275D01*
X50081353Y-189241486D01*
X49847240Y-189044309D01*
X49635177Y-188864406D01*
X49555697Y-188776406D01*
X49496141Y-188682958D01*
X49456474Y-188586182D01*
X49445021Y-188510779D01*
X49454246Y-188412867D01*
X49480467Y-188330071D01*
X49522825Y-188259392D01*
X49581537Y-188205022D01*
X49658871Y-188171136D01*
X49760870Y-188158837D01*
X49863008Y-188169744D01*
X49943640Y-188200052D01*
X50007622Y-188248438D01*
X50054094Y-188313691D01*
X50084322Y-188401877D01*
X50095538Y-188520188D01*
X50090897Y-188563983D01*
X50075174Y-188619198D01*
G37*
G36*
X51433787Y-117920090D02*
G01*
X51122713Y-117938909D01*
X51122713Y-119979918D01*
X51380420Y-119979918D01*
X51383510Y-118308124D01*
X51474267Y-118405962D01*
X51632929Y-118545399D01*
X51884739Y-118738712D01*
X52043435Y-118501369D01*
X51860443Y-118381996D01*
X51715088Y-118265852D01*
X51607370Y-118161365D01*
X51528865Y-118068534D01*
X51478587Y-117995506D01*
X51447129Y-117943684D01*
X51433787Y-117920090D01*
G37*
G36*
X49588598Y-117944760D02*
G01*
X49777329Y-118009123D01*
X49941616Y-118097605D01*
X50052947Y-118182719D01*
X50145418Y-118278856D01*
X50220620Y-118386740D01*
X50279373Y-118507689D01*
X50345880Y-118712948D01*
X50386449Y-118931676D01*
X50400292Y-119166070D01*
X50389061Y-119348708D01*
X50357430Y-119504213D01*
X50307675Y-119636731D01*
X50240893Y-119749737D01*
X50152810Y-119846011D01*
X50049428Y-119913956D01*
X49927740Y-119955797D01*
X49782919Y-119970508D01*
X49637237Y-119959969D01*
X49512875Y-119930141D01*
X49406294Y-119882743D01*
X49314693Y-119818131D01*
X49240168Y-119736245D01*
X49185658Y-119636516D01*
X49151099Y-119515208D01*
X49138722Y-119367180D01*
X49388565Y-119367180D01*
X49401760Y-119479530D01*
X49438511Y-119567447D01*
X49497827Y-119636683D01*
X49575377Y-119687312D01*
X49668998Y-119718863D01*
X49782919Y-119730076D01*
X49880311Y-119715760D01*
X49963880Y-119673735D01*
X50037396Y-119601293D01*
X50091093Y-119510648D01*
X50124562Y-119403057D01*
X50136406Y-119274349D01*
X50113880Y-119208187D01*
X50070769Y-119143984D01*
X50002847Y-119080402D01*
X49923659Y-119032075D01*
X49836959Y-119003096D01*
X49740506Y-118993189D01*
X49638246Y-119005539D01*
X49554269Y-119040668D01*
X49484344Y-119098519D01*
X49431931Y-119173573D01*
X49399830Y-119261909D01*
X49388565Y-119367180D01*
X49138722Y-119367180D01*
X49149696Y-119232297D01*
X49181098Y-119115029D01*
X49231790Y-119012274D01*
X49302194Y-118921705D01*
X49389206Y-118846951D01*
X49487284Y-118793742D01*
X49598623Y-118761046D01*
X49726322Y-118749667D01*
X49872520Y-118759919D01*
X49931469Y-118774432D01*
X49983186Y-118796854D01*
X50053125Y-118838425D01*
X50120676Y-118894179D01*
X50087594Y-118723232D01*
X50050035Y-118605154D01*
X49986963Y-118487432D01*
X49898468Y-118383698D01*
X49781374Y-118292536D01*
X49648988Y-118222888D01*
X49500615Y-118173916D01*
X49333512Y-118146338D01*
X49371290Y-117905905D01*
X49588598Y-117944760D01*
G37*
G36*
X51539278Y-173919724D02*
G01*
X51625487Y-173946071D01*
X51703560Y-173987961D01*
X51769297Y-174041851D01*
X51825310Y-174107483D01*
X51876031Y-174188049D01*
X51918158Y-174275701D01*
X51952290Y-174368654D01*
X52001023Y-174573696D01*
X52027706Y-174786602D01*
X52035571Y-174997824D01*
X52031340Y-175148119D01*
X52019139Y-175285444D01*
X51996172Y-175419479D01*
X51960155Y-175552560D01*
X51910793Y-175677882D01*
X51852578Y-175779511D01*
X51777587Y-175864911D01*
X51681242Y-175932730D01*
X51569395Y-175975892D01*
X51438562Y-175990872D01*
X51311207Y-175976838D01*
X51202792Y-175936553D01*
X51108994Y-175870080D01*
X51027404Y-175773993D01*
X50957838Y-175641784D01*
X50902315Y-175464446D01*
X50864791Y-175230980D01*
X50850822Y-174928727D01*
X50851625Y-174898954D01*
X51094344Y-174898954D01*
X51096030Y-175055263D01*
X51105439Y-175217050D01*
X51127488Y-175379679D01*
X51166671Y-175522646D01*
X51195716Y-175591839D01*
X51228043Y-175642863D01*
X51268203Y-175685059D01*
X51317503Y-175719824D01*
X51373736Y-175742603D01*
X51438562Y-175750440D01*
X51514655Y-175741347D01*
X51574104Y-175716009D01*
X51620853Y-175675023D01*
X51674808Y-175589949D01*
X51719722Y-175467735D01*
X51103894Y-174680570D01*
X51094344Y-174898954D01*
X50851625Y-174898954D01*
X50854872Y-174778538D01*
X50866551Y-174641247D01*
X50888383Y-174506426D01*
X50897987Y-174468366D01*
X51162036Y-174468366D01*
X51773089Y-175250896D01*
X51787341Y-175137735D01*
X51792048Y-175026192D01*
X51779900Y-174730601D01*
X51748210Y-174516543D01*
X51703086Y-174366400D01*
X51648968Y-174265023D01*
X51588107Y-174200171D01*
X51520066Y-174163360D01*
X51441652Y-174150973D01*
X51383018Y-174157471D01*
X51333232Y-174176111D01*
X51290463Y-174207315D01*
X51253884Y-174253213D01*
X51202904Y-174349835D01*
X51162036Y-174468366D01*
X50897987Y-174468366D01*
X50923148Y-174368654D01*
X50971266Y-174237986D01*
X51028478Y-174132996D01*
X51102896Y-174044360D01*
X51199674Y-173972755D01*
X51312477Y-173926588D01*
X51443196Y-173910680D01*
X51539278Y-173919724D01*
G37*
G36*
X49874226Y-173919724D02*
G01*
X49960435Y-173946071D01*
X50038507Y-173987961D01*
X50104245Y-174041851D01*
X50160258Y-174107483D01*
X50210979Y-174188049D01*
X50253105Y-174275701D01*
X50287238Y-174368654D01*
X50335970Y-174573696D01*
X50362654Y-174786602D01*
X50370518Y-174997824D01*
X50366288Y-175148119D01*
X50354087Y-175285444D01*
X50331120Y-175419479D01*
X50295102Y-175552560D01*
X50245741Y-175677882D01*
X50187526Y-175779511D01*
X50112535Y-175864911D01*
X50016189Y-175932730D01*
X49904343Y-175975892D01*
X49773510Y-175990872D01*
X49646155Y-175976838D01*
X49537739Y-175936553D01*
X49443942Y-175870080D01*
X49362352Y-175773993D01*
X49292785Y-175641784D01*
X49237263Y-175464446D01*
X49199739Y-175230980D01*
X49185770Y-174928727D01*
X49186573Y-174898954D01*
X49429292Y-174898954D01*
X49430977Y-175055263D01*
X49440387Y-175217050D01*
X49462436Y-175379679D01*
X49501618Y-175522646D01*
X49530664Y-175591839D01*
X49562991Y-175642863D01*
X49603151Y-175685059D01*
X49652451Y-175719824D01*
X49708683Y-175742603D01*
X49773510Y-175750440D01*
X49849603Y-175741347D01*
X49909051Y-175716009D01*
X49955800Y-175675023D01*
X50009755Y-175589949D01*
X50054670Y-175467735D01*
X49438842Y-174680570D01*
X49429292Y-174898954D01*
X49186573Y-174898954D01*
X49189819Y-174778538D01*
X49201499Y-174641247D01*
X49223331Y-174506426D01*
X49232935Y-174468366D01*
X49496984Y-174468366D01*
X50108037Y-175250896D01*
X50122289Y-175137735D01*
X50126996Y-175026192D01*
X50114847Y-174730601D01*
X50083157Y-174516543D01*
X50038034Y-174366400D01*
X49983915Y-174265023D01*
X49923055Y-174200171D01*
X49855014Y-174163360D01*
X49776599Y-174150973D01*
X49717966Y-174157471D01*
X49668180Y-174176111D01*
X49625411Y-174207315D01*
X49588831Y-174253213D01*
X49537852Y-174349835D01*
X49496984Y-174468366D01*
X49232935Y-174468366D01*
X49258096Y-174368654D01*
X49306214Y-174237986D01*
X49363426Y-174132996D01*
X49437844Y-174044360D01*
X49534622Y-173972755D01*
X49647424Y-173926588D01*
X49778144Y-173910680D01*
X49874226Y-173919724D01*
G37*
G36*
X51564458Y-47900363D02*
G01*
X51650667Y-47926710D01*
X51728740Y-47968600D01*
X51794477Y-48022490D01*
X51850490Y-48088122D01*
X51901211Y-48168688D01*
X51943338Y-48256340D01*
X51977470Y-48349293D01*
X52026203Y-48554335D01*
X52052886Y-48767241D01*
X52060751Y-48978463D01*
X52056520Y-49128758D01*
X52044319Y-49266083D01*
X52021352Y-49400118D01*
X51985335Y-49533199D01*
X51935973Y-49658521D01*
X51877758Y-49760150D01*
X51802767Y-49845550D01*
X51706422Y-49913369D01*
X51594575Y-49956531D01*
X51463742Y-49971511D01*
X51336387Y-49957477D01*
X51227972Y-49917192D01*
X51134174Y-49850719D01*
X51052584Y-49754632D01*
X50983018Y-49622423D01*
X50927495Y-49445085D01*
X50889971Y-49211619D01*
X50876002Y-48909366D01*
X50876805Y-48879593D01*
X51119524Y-48879593D01*
X51121210Y-49035902D01*
X51130619Y-49197689D01*
X51152668Y-49360318D01*
X51191851Y-49503285D01*
X51220896Y-49572478D01*
X51253223Y-49623502D01*
X51293383Y-49665698D01*
X51342683Y-49700463D01*
X51398916Y-49723242D01*
X51463742Y-49731079D01*
X51539835Y-49721986D01*
X51599284Y-49696648D01*
X51646033Y-49655662D01*
X51699988Y-49570588D01*
X51744902Y-49448374D01*
X51129074Y-48661209D01*
X51119524Y-48879593D01*
X50876805Y-48879593D01*
X50880052Y-48759177D01*
X50891731Y-48621886D01*
X50913563Y-48487065D01*
X50923167Y-48449005D01*
X51187216Y-48449005D01*
X51798269Y-49231535D01*
X51812521Y-49118374D01*
X51817228Y-49006831D01*
X51805080Y-48711240D01*
X51773390Y-48497182D01*
X51728266Y-48347039D01*
X51674148Y-48245662D01*
X51613287Y-48180810D01*
X51545246Y-48143999D01*
X51466832Y-48131612D01*
X51408198Y-48138110D01*
X51358412Y-48156750D01*
X51315643Y-48187954D01*
X51279064Y-48233852D01*
X51228084Y-48330474D01*
X51187216Y-48449005D01*
X50923167Y-48449005D01*
X50948328Y-48349293D01*
X50996446Y-48218625D01*
X51053658Y-48113635D01*
X51128076Y-48024999D01*
X51224854Y-47953394D01*
X51337657Y-47907227D01*
X51468376Y-47891319D01*
X51564458Y-47900363D01*
G37*
G36*
X49613778Y-47925399D02*
G01*
X49802509Y-47989762D01*
X49966796Y-48078244D01*
X50078127Y-48163358D01*
X50170598Y-48259495D01*
X50245800Y-48367379D01*
X50304553Y-48488328D01*
X50371060Y-48693587D01*
X50411629Y-48912315D01*
X50425472Y-49146709D01*
X50414241Y-49329347D01*
X50382610Y-49484852D01*
X50332855Y-49617370D01*
X50266073Y-49730376D01*
X50177990Y-49826650D01*
X50074608Y-49894595D01*
X49952920Y-49936436D01*
X49808099Y-49951147D01*
X49662417Y-49940608D01*
X49538055Y-49910780D01*
X49431474Y-49863382D01*
X49339873Y-49798770D01*
X49265348Y-49716884D01*
X49210838Y-49617155D01*
X49176279Y-49495847D01*
X49163902Y-49347819D01*
X49413745Y-49347819D01*
X49426940Y-49460169D01*
X49463691Y-49548086D01*
X49523007Y-49617322D01*
X49600557Y-49667951D01*
X49694178Y-49699502D01*
X49808099Y-49710715D01*
X49905491Y-49696399D01*
X49989060Y-49654374D01*
X50062576Y-49581932D01*
X50116273Y-49491287D01*
X50149742Y-49383696D01*
X50161586Y-49254988D01*
X50139060Y-49188826D01*
X50095949Y-49124623D01*
X50028027Y-49061041D01*
X49948839Y-49012714D01*
X49862139Y-48983735D01*
X49765686Y-48973828D01*
X49663426Y-48986178D01*
X49579449Y-49021307D01*
X49509524Y-49079158D01*
X49457111Y-49154212D01*
X49425010Y-49242548D01*
X49413745Y-49347819D01*
X49163902Y-49347819D01*
X49174876Y-49212936D01*
X49206278Y-49095668D01*
X49256970Y-48992913D01*
X49327374Y-48902344D01*
X49414386Y-48827590D01*
X49512464Y-48774381D01*
X49623803Y-48741685D01*
X49751502Y-48730306D01*
X49897700Y-48740558D01*
X49956649Y-48755071D01*
X50008366Y-48777493D01*
X50078305Y-48819064D01*
X50145856Y-48874818D01*
X50112774Y-48703871D01*
X50075215Y-48585793D01*
X50012143Y-48468071D01*
X49923648Y-48364337D01*
X49806554Y-48273175D01*
X49674168Y-48203527D01*
X49525795Y-48154555D01*
X49358692Y-48126977D01*
X49396470Y-47886544D01*
X49613778Y-47925399D01*
G37*
G36*
X51418779Y-26825537D02*
G01*
X51504988Y-26851884D01*
X51583061Y-26893774D01*
X51648798Y-26947664D01*
X51704811Y-27013296D01*
X51755532Y-27093862D01*
X51797659Y-27181514D01*
X51831791Y-27274467D01*
X51880524Y-27479509D01*
X51907207Y-27692415D01*
X51915072Y-27903637D01*
X51910841Y-28053932D01*
X51898640Y-28191257D01*
X51875673Y-28325292D01*
X51839656Y-28458373D01*
X51790294Y-28583695D01*
X51732079Y-28685324D01*
X51657088Y-28770724D01*
X51560743Y-28838543D01*
X51448896Y-28881705D01*
X51318063Y-28896685D01*
X51190708Y-28882651D01*
X51082293Y-28842366D01*
X50988495Y-28775893D01*
X50906905Y-28679806D01*
X50837339Y-28547597D01*
X50781816Y-28370259D01*
X50744292Y-28136793D01*
X50730323Y-27834540D01*
X50731126Y-27804767D01*
X50973845Y-27804767D01*
X50975531Y-27961076D01*
X50984940Y-28122863D01*
X51006989Y-28285492D01*
X51046172Y-28428459D01*
X51075217Y-28497652D01*
X51107544Y-28548676D01*
X51147704Y-28590872D01*
X51197004Y-28625637D01*
X51253237Y-28648416D01*
X51318063Y-28656253D01*
X51394156Y-28647160D01*
X51453605Y-28621822D01*
X51500354Y-28580836D01*
X51554309Y-28495762D01*
X51599223Y-28373548D01*
X50983395Y-27586383D01*
X50973845Y-27804767D01*
X50731126Y-27804767D01*
X50734373Y-27684351D01*
X50746052Y-27547060D01*
X50767884Y-27412239D01*
X50777488Y-27374179D01*
X51041537Y-27374179D01*
X51652590Y-28156709D01*
X51666842Y-28043548D01*
X51671549Y-27932005D01*
X51659401Y-27636414D01*
X51627711Y-27422356D01*
X51582587Y-27272213D01*
X51528469Y-27170836D01*
X51467608Y-27105984D01*
X51399567Y-27069173D01*
X51321153Y-27056786D01*
X51262519Y-27063284D01*
X51212733Y-27081924D01*
X51169964Y-27113128D01*
X51133385Y-27159026D01*
X51082405Y-27255648D01*
X51041537Y-27374179D01*
X50777488Y-27374179D01*
X50802649Y-27274467D01*
X50850767Y-27143799D01*
X50907979Y-27038809D01*
X50982397Y-26950173D01*
X51079175Y-26878568D01*
X51191978Y-26832401D01*
X51322697Y-26816493D01*
X51418779Y-26825537D01*
G37*
G36*
X50304931Y-28345179D02*
G01*
X50056775Y-28343634D01*
X50044831Y-28433711D01*
X50012506Y-28509329D01*
X49959450Y-28573814D01*
X49890533Y-28621600D01*
X49804152Y-28651722D01*
X49695423Y-28662572D01*
X49575737Y-28650184D01*
X49480081Y-28615642D01*
X49403168Y-28560473D01*
X49344871Y-28486263D01*
X49309012Y-28395682D01*
X49296294Y-28283947D01*
X49308938Y-28155856D01*
X49343482Y-28057699D01*
X49404230Y-27976016D01*
X49500493Y-27905322D01*
X49568667Y-27872357D01*
X49641916Y-27848725D01*
X49763677Y-27827518D01*
X49893303Y-27825131D01*
X49893303Y-27576833D01*
X49868164Y-27576833D01*
X49740974Y-27566659D01*
X49616777Y-27536106D01*
X49524010Y-27490792D01*
X49465243Y-27435551D01*
X49430363Y-27362661D01*
X49417212Y-27256350D01*
X49426353Y-27202312D01*
X49453441Y-27156506D01*
X49501336Y-27116613D01*
X49592340Y-27078408D01*
X49709467Y-27064650D01*
X49806526Y-27078037D01*
X49890026Y-27117178D01*
X49963565Y-27184004D01*
X50028406Y-27284719D01*
X50251564Y-27160570D01*
X50231201Y-27115770D01*
X50172216Y-27033332D01*
X50073206Y-26935867D01*
X50011414Y-26896159D01*
X49924761Y-26858204D01*
X49829495Y-26832985D01*
X49725197Y-26824358D01*
X49707922Y-26824358D01*
X49564876Y-26835228D01*
X49442351Y-26866068D01*
X49334650Y-26921937D01*
X49246859Y-27006649D01*
X49204241Y-27076141D01*
X49178150Y-27155880D01*
X49169056Y-27248486D01*
X49184358Y-27394566D01*
X49228040Y-27517989D01*
X49273705Y-27589837D01*
X49328129Y-27643756D01*
X49392074Y-27682163D01*
X49266821Y-27760116D01*
X49171850Y-27856065D01*
X49103287Y-27971800D01*
X49060239Y-28111383D01*
X49044907Y-28280717D01*
X49054207Y-28389627D01*
X49083387Y-28507106D01*
X49131240Y-28618415D01*
X49195739Y-28712850D01*
X49284471Y-28794299D01*
X49394064Y-28854175D01*
X49529002Y-28892353D01*
X49695423Y-28906095D01*
X49833278Y-28895282D01*
X49950993Y-28864612D01*
X50052080Y-28815611D01*
X50139213Y-28748240D01*
X50211540Y-28664054D01*
X50262768Y-28570254D01*
X50294082Y-28464886D01*
X50304931Y-28345179D01*
G37*
X40713643Y-191017484D02*
X40666023Y-190874627D01*
X40666023Y-190874627D02*
X40666023Y-190636532D01*
X40666023Y-190636532D02*
X40713643Y-190541294D01*
X40713643Y-190541294D02*
X40761262Y-190493675D01*
X40761262Y-190493675D02*
X40856500Y-190446056D01*
X40856500Y-190446056D02*
X40951738Y-190446056D01*
X40951738Y-190446056D02*
X41046976Y-190493675D01*
X41046976Y-190493675D02*
X41094595Y-190541294D01*
X41094595Y-190541294D02*
X41142214Y-190636532D01*
X41142214Y-190636532D02*
X41189833Y-190827008D01*
X41189833Y-190827008D02*
X41237452Y-190922246D01*
X41237452Y-190922246D02*
X41285071Y-190969865D01*
X41285071Y-190969865D02*
X41380309Y-191017484D01*
X41380309Y-191017484D02*
X41475547Y-191017484D01*
X41475547Y-191017484D02*
X41570785Y-190969865D01*
X41570785Y-190969865D02*
X41618404Y-190922246D01*
X41618404Y-190922246D02*
X41666023Y-190827008D01*
X41666023Y-190827008D02*
X41666023Y-190588913D01*
X41666023Y-190588913D02*
X41618404Y-190446056D01*
X41332690Y-190017484D02*
X40332690Y-190017484D01*
X41285071Y-190017484D02*
X41332690Y-189922246D01*
X41332690Y-189922246D02*
X41332690Y-189731770D01*
X41332690Y-189731770D02*
X41285071Y-189636532D01*
X41285071Y-189636532D02*
X41237452Y-189588913D01*
X41237452Y-189588913D02*
X41142214Y-189541294D01*
X41142214Y-189541294D02*
X40856500Y-189541294D01*
X40856500Y-189541294D02*
X40761262Y-189588913D01*
X40761262Y-189588913D02*
X40713643Y-189636532D01*
X40713643Y-189636532D02*
X40666023Y-189731770D01*
X40666023Y-189731770D02*
X40666023Y-189922246D01*
X40666023Y-189922246D02*
X40713643Y-190017484D01*
X40666023Y-189112722D02*
X41332690Y-189112722D01*
X41666023Y-189112722D02*
X41618404Y-189160341D01*
X41618404Y-189160341D02*
X41570785Y-189112722D01*
X41570785Y-189112722D02*
X41618404Y-189065103D01*
X41618404Y-189065103D02*
X41666023Y-189112722D01*
X41666023Y-189112722D02*
X41570785Y-189112722D01*
X41332690Y-188636532D02*
X40666023Y-188636532D01*
X41237452Y-188636532D02*
X41285071Y-188588913D01*
X41285071Y-188588913D02*
X41332690Y-188493675D01*
X41332690Y-188493675D02*
X41332690Y-188350818D01*
X41332690Y-188350818D02*
X41285071Y-188255580D01*
X41285071Y-188255580D02*
X41189833Y-188207961D01*
X41189833Y-188207961D02*
X40666023Y-188207961D01*
X40713643Y-187350818D02*
X40666023Y-187446056D01*
X40666023Y-187446056D02*
X40666023Y-187636532D01*
X40666023Y-187636532D02*
X40713643Y-187731770D01*
X40713643Y-187731770D02*
X40808881Y-187779389D01*
X40808881Y-187779389D02*
X41189833Y-187779389D01*
X41189833Y-187779389D02*
X41285071Y-187731770D01*
X41285071Y-187731770D02*
X41332690Y-187636532D01*
X41332690Y-187636532D02*
X41332690Y-187446056D01*
X41332690Y-187446056D02*
X41285071Y-187350818D01*
X41285071Y-187350818D02*
X41189833Y-187303199D01*
X41189833Y-187303199D02*
X41094595Y-187303199D01*
X41094595Y-187303199D02*
X40999357Y-187779389D01*
X41332690Y-187017484D02*
X41332690Y-186636532D01*
X41666023Y-186874627D02*
X40808881Y-186874627D01*
X40808881Y-186874627D02*
X40713643Y-186827008D01*
X40713643Y-186827008D02*
X40666023Y-186731770D01*
X40666023Y-186731770D02*
X40666023Y-186636532D01*
X40666023Y-186303198D02*
X41332690Y-186303198D01*
X41666023Y-186303198D02*
X41618404Y-186350817D01*
X41618404Y-186350817D02*
X41570785Y-186303198D01*
X41570785Y-186303198D02*
X41618404Y-186255579D01*
X41618404Y-186255579D02*
X41666023Y-186303198D01*
X41666023Y-186303198D02*
X41570785Y-186303198D01*
X40666023Y-185827008D02*
X41332690Y-185827008D01*
X41237452Y-185827008D02*
X41285071Y-185779389D01*
X41285071Y-185779389D02*
X41332690Y-185684151D01*
X41332690Y-185684151D02*
X41332690Y-185541294D01*
X41332690Y-185541294D02*
X41285071Y-185446056D01*
X41285071Y-185446056D02*
X41189833Y-185398437D01*
X41189833Y-185398437D02*
X40666023Y-185398437D01*
X41189833Y-185398437D02*
X41285071Y-185350818D01*
X41285071Y-185350818D02*
X41332690Y-185255580D01*
X41332690Y-185255580D02*
X41332690Y-185112723D01*
X41332690Y-185112723D02*
X41285071Y-185017484D01*
X41285071Y-185017484D02*
X41189833Y-184969865D01*
X41189833Y-184969865D02*
X40666023Y-184969865D01*
X40713643Y-184112723D02*
X40666023Y-184207961D01*
X40666023Y-184207961D02*
X40666023Y-184398437D01*
X40666023Y-184398437D02*
X40713643Y-184493675D01*
X40713643Y-184493675D02*
X40808881Y-184541294D01*
X40808881Y-184541294D02*
X41189833Y-184541294D01*
X41189833Y-184541294D02*
X41285071Y-184493675D01*
X41285071Y-184493675D02*
X41332690Y-184398437D01*
X41332690Y-184398437D02*
X41332690Y-184207961D01*
X41332690Y-184207961D02*
X41285071Y-184112723D01*
X41285071Y-184112723D02*
X41189833Y-184065104D01*
X41189833Y-184065104D02*
X41094595Y-184065104D01*
X41094595Y-184065104D02*
X40999357Y-184541294D01*
X41332690Y-182969865D02*
X40666023Y-182731770D01*
X40666023Y-182731770D02*
X41332690Y-182493675D01*
X40666023Y-181588913D02*
X40666023Y-182160341D01*
X40666023Y-181874627D02*
X41666023Y-181874627D01*
X41666023Y-181874627D02*
X41523166Y-181969865D01*
X41523166Y-181969865D02*
X41427928Y-182065103D01*
X41427928Y-182065103D02*
X41380309Y-182160341D01*
G36*
X51540178Y-68878070D02*
G01*
X51626387Y-68904417D01*
X51704460Y-68946307D01*
X51770197Y-69000197D01*
X51826210Y-69065829D01*
X51876931Y-69146395D01*
X51919058Y-69234047D01*
X51953190Y-69327000D01*
X52001923Y-69532042D01*
X52028606Y-69744948D01*
X52036471Y-69956170D01*
X52032240Y-70106465D01*
X52020039Y-70243790D01*
X51997072Y-70377825D01*
X51961055Y-70510906D01*
X51911693Y-70636228D01*
X51853478Y-70737857D01*
X51778487Y-70823257D01*
X51682142Y-70891076D01*
X51570295Y-70934238D01*
X51439462Y-70949218D01*
X51312107Y-70935184D01*
X51203692Y-70894899D01*
X51109894Y-70828426D01*
X51028304Y-70732339D01*
X50958738Y-70600130D01*
X50903215Y-70422792D01*
X50865691Y-70189326D01*
X50851722Y-69887073D01*
X50852525Y-69857300D01*
X51095244Y-69857300D01*
X51096930Y-70013609D01*
X51106339Y-70175396D01*
X51128388Y-70338025D01*
X51167571Y-70480992D01*
X51196616Y-70550185D01*
X51228943Y-70601209D01*
X51269103Y-70643405D01*
X51318403Y-70678170D01*
X51374636Y-70700949D01*
X51439462Y-70708786D01*
X51515555Y-70699693D01*
X51575004Y-70674355D01*
X51621753Y-70633369D01*
X51675708Y-70548295D01*
X51720622Y-70426081D01*
X51104794Y-69638916D01*
X51095244Y-69857300D01*
X50852525Y-69857300D01*
X50855772Y-69736884D01*
X50867451Y-69599593D01*
X50889283Y-69464772D01*
X50898887Y-69426712D01*
X51162936Y-69426712D01*
X51773989Y-70209242D01*
X51788241Y-70096081D01*
X51792948Y-69984538D01*
X51780800Y-69688947D01*
X51749110Y-69474889D01*
X51703986Y-69324746D01*
X51649868Y-69223369D01*
X51589007Y-69158517D01*
X51520966Y-69121706D01*
X51442552Y-69109319D01*
X51383918Y-69115817D01*
X51334132Y-69134457D01*
X51291363Y-69165661D01*
X51254784Y-69211559D01*
X51203804Y-69308181D01*
X51162936Y-69426712D01*
X50898887Y-69426712D01*
X50924048Y-69327000D01*
X50972166Y-69196332D01*
X51029378Y-69091342D01*
X51103796Y-69002706D01*
X51200574Y-68931101D01*
X51313377Y-68884934D01*
X51444096Y-68869026D01*
X51540178Y-68878070D01*
G37*
G36*
X49927949Y-68888443D02*
G01*
X50042281Y-68917014D01*
X50142213Y-68962909D01*
X50229996Y-69026178D01*
X50302906Y-69105498D01*
X50354848Y-69196465D01*
X50386889Y-69301391D01*
X50398102Y-69423622D01*
X50386510Y-69548243D01*
X50353664Y-69652961D01*
X50300804Y-69741705D01*
X50226906Y-69817134D01*
X50105878Y-69892685D01*
X49962167Y-69939592D01*
X49789998Y-69956170D01*
X49649542Y-69946461D01*
X49547319Y-69920919D01*
X49457510Y-69875618D01*
X49375280Y-69808567D01*
X49370505Y-69976674D01*
X49377668Y-70153487D01*
X49400419Y-70317661D01*
X49420413Y-70397740D01*
X49446764Y-70464561D01*
X49481141Y-70525169D01*
X49522180Y-70578458D01*
X49571905Y-70622574D01*
X49632987Y-70655418D01*
X49702044Y-70675135D01*
X49783819Y-70682102D01*
X49885943Y-70677554D01*
X49960492Y-70665671D01*
X50025384Y-70641807D01*
X50076776Y-70605141D01*
X50118539Y-70558434D01*
X50149945Y-70507816D01*
X50206402Y-70360074D01*
X50446835Y-70430715D01*
X50381572Y-70590492D01*
X50303529Y-70712674D01*
X50213564Y-70803863D01*
X50104776Y-70869322D01*
X49964418Y-70911666D01*
X49783819Y-70927169D01*
X49631948Y-70911958D01*
X49506451Y-70869027D01*
X49398209Y-70800979D01*
X49316295Y-70717493D01*
X49253106Y-70616184D01*
X49200854Y-70488155D01*
X49163839Y-70351300D01*
X49141167Y-70214719D01*
X49129556Y-70073865D01*
X49125438Y-69912212D01*
X49130915Y-69696216D01*
X49153807Y-69488786D01*
X49158302Y-69466035D01*
X49403508Y-69466035D01*
X49446384Y-69553471D01*
X49530045Y-69638916D01*
X49600031Y-69682167D01*
X49678605Y-69708372D01*
X49768090Y-69717422D01*
X49870691Y-69708801D01*
X49959405Y-69684165D01*
X50036751Y-69644394D01*
X50098537Y-69588133D01*
X50135312Y-69517648D01*
X50148260Y-69428257D01*
X50135013Y-69329349D01*
X50097886Y-69252660D01*
X50036751Y-69192740D01*
X49958878Y-69150173D01*
X49866734Y-69123528D01*
X49756995Y-69114093D01*
X49672578Y-69125834D01*
X49594923Y-69161069D01*
X49521478Y-69222513D01*
X49462001Y-69299250D01*
X49423266Y-69379902D01*
X49403508Y-69466035D01*
X49158302Y-69466035D01*
X49174959Y-69381739D01*
X49200995Y-69293997D01*
X49235761Y-69211382D01*
X49281888Y-69128980D01*
X49338109Y-69054389D01*
X49401964Y-68995562D01*
X49476740Y-68949038D01*
X49570913Y-68910737D01*
X49674532Y-68886887D01*
X49796318Y-68878436D01*
X49927949Y-68888443D01*
G37*
G36*
X51433787Y-138920090D02*
G01*
X51122713Y-138938909D01*
X51122713Y-140979918D01*
X51380420Y-140979918D01*
X51383510Y-139308124D01*
X51474267Y-139405962D01*
X51632929Y-139545399D01*
X51884739Y-139738712D01*
X52043435Y-139501369D01*
X51860443Y-139381996D01*
X51715088Y-139265852D01*
X51607370Y-139161365D01*
X51528865Y-139068534D01*
X51478587Y-138995506D01*
X51447129Y-138943684D01*
X51433787Y-138920090D01*
G37*
G36*
X49927049Y-138930097D02*
G01*
X50041381Y-138958668D01*
X50141313Y-139004563D01*
X50229096Y-139067832D01*
X50302006Y-139147152D01*
X50353948Y-139238119D01*
X50385989Y-139343045D01*
X50397202Y-139465276D01*
X50385610Y-139589897D01*
X50352764Y-139694615D01*
X50299904Y-139783359D01*
X50226006Y-139858788D01*
X50104978Y-139934339D01*
X49961267Y-139981246D01*
X49789098Y-139997824D01*
X49648642Y-139988115D01*
X49546419Y-139962573D01*
X49456610Y-139917272D01*
X49374380Y-139850221D01*
X49369605Y-140018328D01*
X49376768Y-140195141D01*
X49399519Y-140359315D01*
X49419513Y-140439394D01*
X49445864Y-140506215D01*
X49480241Y-140566823D01*
X49521280Y-140620112D01*
X49571005Y-140664228D01*
X49632087Y-140697072D01*
X49701144Y-140716789D01*
X49782919Y-140723756D01*
X49885043Y-140719208D01*
X49959592Y-140707325D01*
X50024484Y-140683461D01*
X50075876Y-140646795D01*
X50117639Y-140600088D01*
X50149045Y-140549470D01*
X50205502Y-140401728D01*
X50445935Y-140472369D01*
X50380672Y-140632146D01*
X50302629Y-140754328D01*
X50212664Y-140845517D01*
X50103876Y-140910976D01*
X49963518Y-140953320D01*
X49782919Y-140968823D01*
X49631048Y-140953612D01*
X49505551Y-140910681D01*
X49397309Y-140842633D01*
X49315395Y-140759147D01*
X49252206Y-140657838D01*
X49199954Y-140529809D01*
X49162939Y-140392954D01*
X49140267Y-140256373D01*
X49128656Y-140115519D01*
X49124538Y-139953866D01*
X49130015Y-139737870D01*
X49152907Y-139530440D01*
X49157402Y-139507689D01*
X49402608Y-139507689D01*
X49445484Y-139595125D01*
X49529145Y-139680570D01*
X49599131Y-139723821D01*
X49677705Y-139750026D01*
X49767190Y-139759076D01*
X49869791Y-139750455D01*
X49958505Y-139725819D01*
X50035851Y-139686048D01*
X50097637Y-139629787D01*
X50134412Y-139559302D01*
X50147360Y-139469911D01*
X50134113Y-139371003D01*
X50096986Y-139294314D01*
X50035851Y-139234394D01*
X49957978Y-139191827D01*
X49865834Y-139165182D01*
X49756095Y-139155747D01*
X49671678Y-139167488D01*
X49594023Y-139202723D01*
X49520578Y-139264167D01*
X49461101Y-139340904D01*
X49422366Y-139421556D01*
X49402608Y-139507689D01*
X49157402Y-139507689D01*
X49174059Y-139423393D01*
X49200095Y-139335651D01*
X49234861Y-139253036D01*
X49280988Y-139170634D01*
X49337209Y-139096043D01*
X49401064Y-139037216D01*
X49475840Y-138990692D01*
X49570013Y-138952391D01*
X49673632Y-138928541D01*
X49795418Y-138920090D01*
X49927049Y-138930097D01*
G37*
G36*
X51497652Y-124937427D02*
G01*
X51186578Y-124956246D01*
X51186578Y-126997255D01*
X51444285Y-126997255D01*
X51447375Y-125325461D01*
X51538132Y-125423299D01*
X51696794Y-125562736D01*
X51948604Y-125756049D01*
X52107300Y-125518706D01*
X51924308Y-125399333D01*
X51778953Y-125283189D01*
X51671235Y-125178702D01*
X51592730Y-125085871D01*
X51542452Y-125012843D01*
X51510994Y-124961021D01*
X51497652Y-124937427D01*
G37*
G36*
X50374697Y-124953156D02*
G01*
X50159403Y-124957931D01*
X49951973Y-124962565D01*
X49178994Y-124962565D01*
X49114532Y-124962565D01*
X49042346Y-125091349D01*
X49258342Y-125472502D01*
X49457907Y-125800850D01*
X49620536Y-126083555D01*
X49697265Y-126237387D01*
X49751706Y-126366400D01*
X49794355Y-126497533D01*
X49830212Y-126651493D01*
X49853048Y-126812373D01*
X49860828Y-126983071D01*
X50120080Y-126983071D01*
X50107580Y-126773254D01*
X50077667Y-126579307D01*
X50021210Y-126382129D01*
X49952114Y-126196749D01*
X49860968Y-126003504D01*
X49761116Y-125817281D01*
X49640900Y-125616874D01*
X49515206Y-125418152D01*
X49375328Y-125202998D01*
X49686542Y-125206088D01*
X49889197Y-125206088D01*
X50222179Y-125193448D01*
X50288186Y-125375739D01*
X50500390Y-125279959D01*
X50439861Y-125122105D01*
X50374697Y-124953156D01*
G37*
G36*
X51539278Y-180919724D02*
G01*
X51625487Y-180946071D01*
X51703560Y-180987961D01*
X51769297Y-181041851D01*
X51825310Y-181107483D01*
X51876031Y-181188049D01*
X51918158Y-181275701D01*
X51952290Y-181368654D01*
X52001023Y-181573696D01*
X52027706Y-181786602D01*
X52035571Y-181997824D01*
X52031340Y-182148119D01*
X52019139Y-182285444D01*
X51996172Y-182419479D01*
X51960155Y-182552560D01*
X51910793Y-182677882D01*
X51852578Y-182779511D01*
X51777587Y-182864911D01*
X51681242Y-182932730D01*
X51569395Y-182975892D01*
X51438562Y-182990872D01*
X51311207Y-182976838D01*
X51202792Y-182936553D01*
X51108994Y-182870080D01*
X51027404Y-182773993D01*
X50957838Y-182641784D01*
X50902315Y-182464446D01*
X50864791Y-182230980D01*
X50850822Y-181928727D01*
X50851625Y-181898954D01*
X51094344Y-181898954D01*
X51096030Y-182055263D01*
X51105439Y-182217050D01*
X51127488Y-182379679D01*
X51166671Y-182522646D01*
X51195716Y-182591839D01*
X51228043Y-182642863D01*
X51268203Y-182685059D01*
X51317503Y-182719824D01*
X51373736Y-182742603D01*
X51438562Y-182750440D01*
X51514655Y-182741347D01*
X51574104Y-182716009D01*
X51620853Y-182675023D01*
X51674808Y-182589949D01*
X51719722Y-182467735D01*
X51103894Y-181680570D01*
X51094344Y-181898954D01*
X50851625Y-181898954D01*
X50854872Y-181778538D01*
X50866551Y-181641247D01*
X50888383Y-181506426D01*
X50897987Y-181468366D01*
X51162036Y-181468366D01*
X51773089Y-182250896D01*
X51787341Y-182137735D01*
X51792048Y-182026192D01*
X51779900Y-181730601D01*
X51748210Y-181516543D01*
X51703086Y-181366400D01*
X51648968Y-181265023D01*
X51588107Y-181200171D01*
X51520066Y-181163360D01*
X51441652Y-181150973D01*
X51383018Y-181157471D01*
X51333232Y-181176111D01*
X51290463Y-181207315D01*
X51253884Y-181253213D01*
X51202904Y-181349835D01*
X51162036Y-181468366D01*
X50897987Y-181468366D01*
X50923148Y-181368654D01*
X50971266Y-181237986D01*
X51028478Y-181132996D01*
X51102896Y-181044360D01*
X51199674Y-180972755D01*
X51312477Y-180926588D01*
X51443196Y-180910680D01*
X51539278Y-180919724D01*
G37*
G36*
X49768735Y-180920090D02*
G01*
X49457661Y-180938909D01*
X49457661Y-182979918D01*
X49715368Y-182979918D01*
X49718457Y-181308124D01*
X49809214Y-181405962D01*
X49967876Y-181545399D01*
X50219686Y-181738712D01*
X50378383Y-181501369D01*
X50195390Y-181381996D01*
X50050035Y-181265852D01*
X49942318Y-181161365D01*
X49863812Y-181068534D01*
X49813535Y-180995506D01*
X49782076Y-180943684D01*
X49768735Y-180920090D01*
G37*
G36*
X51740226Y-160619198D02*
G01*
X51975884Y-160675795D01*
X51997006Y-160589664D01*
X52007202Y-160499825D01*
X52008045Y-160479461D01*
X52008887Y-160460501D01*
X51997874Y-160336293D01*
X51966531Y-160230392D01*
X51916012Y-160139334D01*
X51845556Y-160060670D01*
X51759843Y-159997019D01*
X51664741Y-159951466D01*
X51558442Y-159923472D01*
X51438562Y-159913770D01*
X51275817Y-159927553D01*
X51147973Y-159965358D01*
X51047710Y-160023986D01*
X50969823Y-160103306D01*
X50911797Y-160206264D01*
X50874149Y-160338484D01*
X50860372Y-160507689D01*
X50873896Y-160622866D01*
X50916391Y-160744442D01*
X50992719Y-160875387D01*
X51110074Y-161018328D01*
X51342642Y-161224212D01*
X51590939Y-161444141D01*
X51660185Y-161521989D01*
X51707223Y-161595815D01*
X51738867Y-161669896D01*
X51749636Y-161722211D01*
X50830458Y-161719121D01*
X50830458Y-161962644D01*
X52022931Y-161962644D01*
X52024617Y-161889615D01*
X52026161Y-161813356D01*
X52016752Y-161686118D01*
X51985931Y-161576386D01*
X51932625Y-161466569D01*
X51854090Y-161355275D01*
X51746406Y-161241486D01*
X51512293Y-161044309D01*
X51300229Y-160864406D01*
X51220750Y-160776406D01*
X51161194Y-160682958D01*
X51121526Y-160586182D01*
X51110074Y-160510779D01*
X51119298Y-160412867D01*
X51145519Y-160330071D01*
X51187877Y-160259392D01*
X51246590Y-160205022D01*
X51323924Y-160171136D01*
X51425922Y-160158837D01*
X51528061Y-160169744D01*
X51608692Y-160200052D01*
X51672675Y-160248438D01*
X51719146Y-160313691D01*
X51749375Y-160401877D01*
X51760590Y-160520188D01*
X51755950Y-160563983D01*
X51740226Y-160619198D01*
G37*
G36*
X50075174Y-160619198D02*
G01*
X50310832Y-160675795D01*
X50331954Y-160589664D01*
X50342150Y-160499825D01*
X50342992Y-160479461D01*
X50343835Y-160460501D01*
X50332822Y-160336293D01*
X50301479Y-160230392D01*
X50250959Y-160139334D01*
X50180504Y-160060670D01*
X50094791Y-159997019D01*
X49999688Y-159951466D01*
X49893390Y-159923472D01*
X49773510Y-159913770D01*
X49610764Y-159927553D01*
X49482921Y-159965358D01*
X49382658Y-160023986D01*
X49304771Y-160103306D01*
X49246745Y-160206264D01*
X49209096Y-160338484D01*
X49195320Y-160507689D01*
X49208844Y-160622866D01*
X49251339Y-160744442D01*
X49327666Y-160875387D01*
X49445021Y-161018328D01*
X49677589Y-161224212D01*
X49925887Y-161444141D01*
X49995133Y-161521989D01*
X50042171Y-161595815D01*
X50073815Y-161669896D01*
X50084583Y-161722211D01*
X49165406Y-161719121D01*
X49165406Y-161962644D01*
X50357879Y-161962644D01*
X50359564Y-161889615D01*
X50361109Y-161813356D01*
X50351700Y-161686118D01*
X50320879Y-161576386D01*
X50267573Y-161466569D01*
X50189038Y-161355275D01*
X50081353Y-161241486D01*
X49847240Y-161044309D01*
X49635177Y-160864406D01*
X49555697Y-160776406D01*
X49496141Y-160682958D01*
X49456474Y-160586182D01*
X49445021Y-160510779D01*
X49454246Y-160412867D01*
X49480467Y-160330071D01*
X49522825Y-160259392D01*
X49581537Y-160205022D01*
X49658871Y-160171136D01*
X49760870Y-160158837D01*
X49863008Y-160169744D01*
X49943640Y-160200052D01*
X50007622Y-160248438D01*
X50054094Y-160313691D01*
X50084322Y-160401877D01*
X50095538Y-160520188D01*
X50090897Y-160563983D01*
X50075174Y-160619198D01*
G37*
G36*
X51540178Y-33939504D02*
G01*
X51626387Y-33965851D01*
X51704460Y-34007741D01*
X51770197Y-34061631D01*
X51826210Y-34127263D01*
X51876931Y-34207829D01*
X51919058Y-34295481D01*
X51953190Y-34388434D01*
X52001923Y-34593476D01*
X52028606Y-34806382D01*
X52036471Y-35017604D01*
X52032240Y-35167899D01*
X52020039Y-35305224D01*
X51997072Y-35439259D01*
X51961055Y-35572340D01*
X51911693Y-35697662D01*
X51853478Y-35799291D01*
X51778487Y-35884691D01*
X51682142Y-35952510D01*
X51570295Y-35995672D01*
X51439462Y-36010652D01*
X51312107Y-35996618D01*
X51203692Y-35956333D01*
X51109894Y-35889860D01*
X51028304Y-35793773D01*
X50958738Y-35661564D01*
X50903215Y-35484226D01*
X50865691Y-35250760D01*
X50851722Y-34948507D01*
X50852525Y-34918734D01*
X51095244Y-34918734D01*
X51096930Y-35075043D01*
X51106339Y-35236830D01*
X51128388Y-35399459D01*
X51167571Y-35542426D01*
X51196616Y-35611619D01*
X51228943Y-35662643D01*
X51269103Y-35704839D01*
X51318403Y-35739604D01*
X51374636Y-35762383D01*
X51439462Y-35770220D01*
X51515555Y-35761127D01*
X51575004Y-35735789D01*
X51621753Y-35694803D01*
X51675708Y-35609729D01*
X51720622Y-35487515D01*
X51104794Y-34700350D01*
X51095244Y-34918734D01*
X50852525Y-34918734D01*
X50855772Y-34798318D01*
X50867451Y-34661027D01*
X50889283Y-34526206D01*
X50898887Y-34488146D01*
X51162936Y-34488146D01*
X51773989Y-35270676D01*
X51788241Y-35157515D01*
X51792948Y-35045972D01*
X51780800Y-34750381D01*
X51749110Y-34536323D01*
X51703986Y-34386180D01*
X51649868Y-34284803D01*
X51589007Y-34219951D01*
X51520966Y-34183140D01*
X51442552Y-34170753D01*
X51383918Y-34177251D01*
X51334132Y-34195891D01*
X51291363Y-34227095D01*
X51254784Y-34272993D01*
X51203804Y-34369615D01*
X51162936Y-34488146D01*
X50898887Y-34488146D01*
X50924048Y-34388434D01*
X50972166Y-34257766D01*
X51029378Y-34152776D01*
X51103796Y-34064140D01*
X51200574Y-33992535D01*
X51313377Y-33946368D01*
X51444096Y-33930460D01*
X51540178Y-33939504D01*
G37*
G36*
X49632322Y-34012008D02*
G01*
X49700538Y-34146456D01*
X49788375Y-34288147D01*
X49899260Y-34448121D01*
X50123964Y-34749785D01*
X50326618Y-35008194D01*
X50426330Y-35132343D01*
X50332095Y-35336682D01*
X49598439Y-35336682D01*
X49598439Y-35988603D01*
X49353231Y-35988603D01*
X49353231Y-35331907D01*
X49152122Y-35331907D01*
X49152122Y-35089930D01*
X49353231Y-35089930D01*
X49598439Y-35089930D01*
X50097982Y-35089930D01*
X49979256Y-34955342D01*
X49830866Y-34770289D01*
X49691486Y-34578794D01*
X49598439Y-34430004D01*
X49598439Y-35089930D01*
X49353231Y-35089930D01*
X49353231Y-33933550D01*
X49609393Y-33933550D01*
X49632322Y-34012008D01*
G37*
G36*
X51540178Y-54990051D02*
G01*
X51626387Y-55016398D01*
X51704460Y-55058288D01*
X51770197Y-55112178D01*
X51826210Y-55177810D01*
X51876931Y-55258376D01*
X51919058Y-55346028D01*
X51953190Y-55438981D01*
X52001923Y-55644023D01*
X52028606Y-55856929D01*
X52036471Y-56068151D01*
X52032240Y-56218446D01*
X52020039Y-56355771D01*
X51997072Y-56489806D01*
X51961055Y-56622887D01*
X51911693Y-56748209D01*
X51853478Y-56849838D01*
X51778487Y-56935238D01*
X51682142Y-57003057D01*
X51570295Y-57046219D01*
X51439462Y-57061199D01*
X51312107Y-57047165D01*
X51203692Y-57006880D01*
X51109894Y-56940407D01*
X51028304Y-56844320D01*
X50958738Y-56712111D01*
X50903215Y-56534773D01*
X50865691Y-56301307D01*
X50851722Y-55999054D01*
X50852525Y-55969281D01*
X51095244Y-55969281D01*
X51096930Y-56125590D01*
X51106339Y-56287377D01*
X51128388Y-56450006D01*
X51167571Y-56592973D01*
X51196616Y-56662166D01*
X51228943Y-56713190D01*
X51269103Y-56755386D01*
X51318403Y-56790151D01*
X51374636Y-56812930D01*
X51439462Y-56820767D01*
X51515555Y-56811674D01*
X51575004Y-56786336D01*
X51621753Y-56745350D01*
X51675708Y-56660276D01*
X51720622Y-56538062D01*
X51104794Y-55750897D01*
X51095244Y-55969281D01*
X50852525Y-55969281D01*
X50855772Y-55848865D01*
X50867451Y-55711574D01*
X50889283Y-55576753D01*
X50898887Y-55538693D01*
X51162936Y-55538693D01*
X51773989Y-56321223D01*
X51788241Y-56208062D01*
X51792948Y-56096519D01*
X51780800Y-55800928D01*
X51749110Y-55586870D01*
X51703986Y-55436727D01*
X51649868Y-55335350D01*
X51589007Y-55270498D01*
X51520966Y-55233687D01*
X51442552Y-55221300D01*
X51383918Y-55227798D01*
X51334132Y-55246438D01*
X51291363Y-55277642D01*
X51254784Y-55323540D01*
X51203804Y-55420162D01*
X51162936Y-55538693D01*
X50898887Y-55538693D01*
X50924048Y-55438981D01*
X50972166Y-55308313D01*
X51029378Y-55203323D01*
X51103796Y-55114687D01*
X51200574Y-55043082D01*
X51313377Y-54996915D01*
X51444096Y-54981007D01*
X51540178Y-54990051D01*
G37*
G36*
X50311732Y-55006146D02*
G01*
X50096438Y-55010921D01*
X49889008Y-55015555D01*
X49116029Y-55015555D01*
X49051567Y-55015555D01*
X48979381Y-55144339D01*
X49195377Y-55525492D01*
X49394942Y-55853840D01*
X49557571Y-56136545D01*
X49634300Y-56290377D01*
X49688741Y-56419390D01*
X49731390Y-56550523D01*
X49767247Y-56704483D01*
X49790083Y-56865363D01*
X49797863Y-57036061D01*
X50057115Y-57036061D01*
X50044615Y-56826244D01*
X50014702Y-56632297D01*
X49958245Y-56435119D01*
X49889149Y-56249739D01*
X49798003Y-56056494D01*
X49698151Y-55870271D01*
X49577935Y-55669864D01*
X49452241Y-55471142D01*
X49312363Y-55255988D01*
X49623577Y-55259078D01*
X49826232Y-55259078D01*
X50159214Y-55246438D01*
X50225221Y-55428729D01*
X50437425Y-55332949D01*
X50376896Y-55175095D01*
X50311732Y-55006146D01*
G37*
G36*
X51740226Y-153619198D02*
G01*
X51975884Y-153675795D01*
X51997006Y-153589664D01*
X52007202Y-153499825D01*
X52008045Y-153479461D01*
X52008887Y-153460501D01*
X51997874Y-153336293D01*
X51966531Y-153230392D01*
X51916012Y-153139334D01*
X51845556Y-153060670D01*
X51759843Y-152997019D01*
X51664741Y-152951466D01*
X51558442Y-152923472D01*
X51438562Y-152913770D01*
X51275817Y-152927553D01*
X51147973Y-152965358D01*
X51047710Y-153023986D01*
X50969823Y-153103306D01*
X50911797Y-153206264D01*
X50874149Y-153338484D01*
X50860372Y-153507689D01*
X50873896Y-153622866D01*
X50916391Y-153744442D01*
X50992719Y-153875387D01*
X51110074Y-154018328D01*
X51342642Y-154224212D01*
X51590939Y-154444141D01*
X51660185Y-154521989D01*
X51707223Y-154595815D01*
X51738867Y-154669896D01*
X51749636Y-154722211D01*
X50830458Y-154719121D01*
X50830458Y-154962644D01*
X52022931Y-154962644D01*
X52024617Y-154889615D01*
X52026161Y-154813356D01*
X52016752Y-154686118D01*
X51985931Y-154576386D01*
X51932625Y-154466569D01*
X51854090Y-154355275D01*
X51746406Y-154241486D01*
X51512293Y-154044309D01*
X51300229Y-153864406D01*
X51220750Y-153776406D01*
X51161194Y-153682958D01*
X51121526Y-153586182D01*
X51110074Y-153510779D01*
X51119298Y-153412867D01*
X51145519Y-153330071D01*
X51187877Y-153259392D01*
X51246590Y-153205022D01*
X51323924Y-153171136D01*
X51425922Y-153158837D01*
X51528061Y-153169744D01*
X51608692Y-153200052D01*
X51672675Y-153248438D01*
X51719146Y-153313691D01*
X51749375Y-153401877D01*
X51760590Y-153520188D01*
X51755950Y-153563983D01*
X51740226Y-153619198D01*
G37*
G36*
X49768735Y-152920090D02*
G01*
X49457661Y-152938909D01*
X49457661Y-154979918D01*
X49715368Y-154979918D01*
X49718457Y-153308124D01*
X49809214Y-153405962D01*
X49967876Y-153545399D01*
X50219686Y-153738712D01*
X50378383Y-153501369D01*
X50195390Y-153381996D01*
X50050035Y-153265852D01*
X49942318Y-153161365D01*
X49863812Y-153068534D01*
X49813535Y-152995506D01*
X49782076Y-152943684D01*
X49768735Y-152920090D01*
G37*
G36*
X51491619Y-61885501D02*
G01*
X51577828Y-61911848D01*
X51655901Y-61953738D01*
X51721638Y-62007628D01*
X51777651Y-62073260D01*
X51828372Y-62153826D01*
X51870499Y-62241478D01*
X51904631Y-62334431D01*
X51953364Y-62539473D01*
X51980047Y-62752379D01*
X51987912Y-62963601D01*
X51983681Y-63113896D01*
X51971480Y-63251221D01*
X51948513Y-63385256D01*
X51912496Y-63518337D01*
X51863134Y-63643659D01*
X51804919Y-63745288D01*
X51729928Y-63830688D01*
X51633583Y-63898507D01*
X51521736Y-63941669D01*
X51390903Y-63956649D01*
X51263548Y-63942615D01*
X51155133Y-63902330D01*
X51061335Y-63835857D01*
X50979745Y-63739770D01*
X50910179Y-63607561D01*
X50854656Y-63430223D01*
X50817132Y-63196757D01*
X50803163Y-62894504D01*
X50803966Y-62864731D01*
X51046685Y-62864731D01*
X51048371Y-63021040D01*
X51057780Y-63182827D01*
X51079829Y-63345456D01*
X51119012Y-63488423D01*
X51148057Y-63557616D01*
X51180384Y-63608640D01*
X51220544Y-63650836D01*
X51269844Y-63685601D01*
X51326077Y-63708380D01*
X51390903Y-63716217D01*
X51466996Y-63707124D01*
X51526445Y-63681786D01*
X51573194Y-63640800D01*
X51627149Y-63555726D01*
X51672063Y-63433512D01*
X51056235Y-62646347D01*
X51046685Y-62864731D01*
X50803966Y-62864731D01*
X50807213Y-62744315D01*
X50818892Y-62607024D01*
X50840724Y-62472203D01*
X50850328Y-62434143D01*
X51114377Y-62434143D01*
X51725430Y-63216673D01*
X51739682Y-63103512D01*
X51744389Y-62991969D01*
X51732241Y-62696378D01*
X51700551Y-62482320D01*
X51655427Y-62332177D01*
X51601309Y-62230800D01*
X51540448Y-62165948D01*
X51472407Y-62129137D01*
X51393993Y-62116750D01*
X51335359Y-62123248D01*
X51285573Y-62141888D01*
X51242804Y-62173092D01*
X51206225Y-62218990D01*
X51155245Y-62315612D01*
X51114377Y-62434143D01*
X50850328Y-62434143D01*
X50875489Y-62334431D01*
X50923607Y-62203763D01*
X50980819Y-62098773D01*
X51055237Y-62010137D01*
X51152015Y-61938532D01*
X51264818Y-61892365D01*
X51395537Y-61876457D01*
X51491619Y-61885501D01*
G37*
G36*
X49863519Y-61909574D02*
G01*
X49968773Y-61936384D01*
X50057604Y-61978837D01*
X50132704Y-62036699D01*
X50211834Y-62135504D01*
X50259246Y-62249638D01*
X50275672Y-62383866D01*
X50266984Y-62458875D01*
X50240257Y-62534308D01*
X50193234Y-62611799D01*
X50102369Y-62709169D01*
X50002376Y-62772041D01*
X50101684Y-62829529D01*
X50193649Y-62903423D01*
X50278902Y-62995199D01*
X50345216Y-63098834D01*
X50384783Y-63211951D01*
X50398276Y-63337591D01*
X50386420Y-63467204D01*
X50352178Y-63581367D01*
X50296103Y-63683095D01*
X50216828Y-63774499D01*
X50121419Y-63847693D01*
X50011360Y-63900833D01*
X49883862Y-63934020D01*
X49735260Y-63945695D01*
X49586579Y-63934016D01*
X49459061Y-63900822D01*
X49349032Y-63847683D01*
X49253693Y-63774499D01*
X49174417Y-63683095D01*
X49118342Y-63581367D01*
X49084101Y-63467204D01*
X49073683Y-63353321D01*
X49321946Y-63353321D01*
X49334805Y-63455052D01*
X49371422Y-63538176D01*
X49432051Y-63607095D01*
X49510424Y-63657055D01*
X49609602Y-63688929D01*
X49735260Y-63700487D01*
X49860918Y-63688929D01*
X49960096Y-63657055D01*
X50038469Y-63607095D01*
X50099014Y-63538187D01*
X50135588Y-63455063D01*
X50148433Y-63353321D01*
X50140031Y-63271118D01*
X50115430Y-63197011D01*
X50075022Y-63130224D01*
X50018105Y-63070616D01*
X49890024Y-62977925D01*
X49735260Y-62899279D01*
X49580496Y-62977925D01*
X49452415Y-63070616D01*
X49395384Y-63130234D01*
X49354949Y-63197011D01*
X49330348Y-63271118D01*
X49321946Y-63353321D01*
X49073683Y-63353321D01*
X49072244Y-63337591D01*
X49085737Y-63211951D01*
X49125304Y-63098834D01*
X49191618Y-62995199D01*
X49276792Y-62903438D01*
X49368755Y-62829543D01*
X49468144Y-62772041D01*
X49368712Y-62710219D01*
X49280376Y-62613344D01*
X49235284Y-62536037D01*
X49209465Y-62460052D01*
X49201028Y-62383866D01*
X49201784Y-62377686D01*
X49447640Y-62377686D01*
X49455794Y-62427876D01*
X49481627Y-62479349D01*
X49529376Y-62533996D01*
X49619964Y-62598029D01*
X49735260Y-62641572D01*
X49852225Y-62597874D01*
X49945077Y-62533153D01*
X49994401Y-62477914D01*
X50020804Y-62426764D01*
X50029060Y-62377686D01*
X50020445Y-62316229D01*
X49995023Y-62262212D01*
X49951256Y-62213512D01*
X49895773Y-62177659D01*
X49826090Y-62154890D01*
X49738350Y-62146663D01*
X49650610Y-62154890D01*
X49580926Y-62177659D01*
X49525443Y-62213512D01*
X49481676Y-62262212D01*
X49456254Y-62316229D01*
X49447640Y-62377686D01*
X49201784Y-62377686D01*
X49217454Y-62249638D01*
X49264865Y-62135504D01*
X49343995Y-62036699D01*
X49419095Y-61978837D01*
X49507926Y-61936384D01*
X49613180Y-61909574D01*
X49738350Y-61900051D01*
X49863519Y-61909574D01*
G37*
G36*
X51531806Y-89856143D02*
G01*
X51220732Y-89874962D01*
X51220732Y-91915971D01*
X51478439Y-91915971D01*
X51481529Y-90244177D01*
X51572286Y-90342015D01*
X51730948Y-90481452D01*
X51982758Y-90674765D01*
X52141454Y-90437422D01*
X51958462Y-90318049D01*
X51813107Y-90201905D01*
X51705389Y-90097418D01*
X51626884Y-90004587D01*
X51576606Y-89931559D01*
X51545148Y-89879737D01*
X51531806Y-89856143D01*
G37*
G36*
X50173193Y-90555251D02*
G01*
X50408851Y-90611848D01*
X50429973Y-90525717D01*
X50440169Y-90435878D01*
X50441011Y-90415514D01*
X50441854Y-90396554D01*
X50430841Y-90272346D01*
X50399498Y-90166445D01*
X50348978Y-90075387D01*
X50278523Y-89996723D01*
X50192810Y-89933072D01*
X50097707Y-89887519D01*
X49991409Y-89859525D01*
X49871529Y-89849823D01*
X49708783Y-89863606D01*
X49580940Y-89901411D01*
X49480677Y-89960039D01*
X49402790Y-90039359D01*
X49344764Y-90142317D01*
X49307115Y-90274537D01*
X49293339Y-90443742D01*
X49306863Y-90558919D01*
X49349358Y-90680495D01*
X49425685Y-90811440D01*
X49543040Y-90954381D01*
X49775608Y-91160265D01*
X50023906Y-91380194D01*
X50093152Y-91458042D01*
X50140190Y-91531868D01*
X50171834Y-91605949D01*
X50182602Y-91658264D01*
X49263425Y-91655174D01*
X49263425Y-91898697D01*
X50455898Y-91898697D01*
X50457583Y-91825668D01*
X50459128Y-91749409D01*
X50449719Y-91622171D01*
X50418898Y-91512439D01*
X50365592Y-91402622D01*
X50287057Y-91291328D01*
X50179372Y-91177539D01*
X49945259Y-90980362D01*
X49733196Y-90800459D01*
X49653716Y-90712459D01*
X49594160Y-90619011D01*
X49554493Y-90522235D01*
X49543040Y-90446832D01*
X49552265Y-90348920D01*
X49578486Y-90266124D01*
X49620844Y-90195445D01*
X49679556Y-90141075D01*
X49756890Y-90107189D01*
X49858889Y-90094890D01*
X49961027Y-90105797D01*
X50041659Y-90136105D01*
X50105641Y-90184491D01*
X50152113Y-90249744D01*
X50182341Y-90337930D01*
X50193557Y-90456241D01*
X50188916Y-90500036D01*
X50173193Y-90555251D01*
G37*
G36*
X51507526Y-82717896D02*
G01*
X51196452Y-82736715D01*
X51196452Y-84777724D01*
X51454159Y-84777724D01*
X51457249Y-83105930D01*
X51548006Y-83203768D01*
X51706668Y-83343205D01*
X51958478Y-83536518D01*
X52117174Y-83299175D01*
X51934182Y-83179802D01*
X51788827Y-83063658D01*
X51681109Y-82959171D01*
X51602604Y-82866340D01*
X51552326Y-82793312D01*
X51520868Y-82741490D01*
X51507526Y-82717896D01*
G37*
G36*
X49842474Y-82717896D02*
G01*
X49531400Y-82736715D01*
X49531400Y-84777724D01*
X49789107Y-84777724D01*
X49792196Y-83105930D01*
X49882953Y-83203768D01*
X50041615Y-83343205D01*
X50293425Y-83536518D01*
X50452122Y-83299175D01*
X50269129Y-83179802D01*
X50123774Y-83063658D01*
X50016057Y-82959171D01*
X49937551Y-82866340D01*
X49887274Y-82793312D01*
X49855815Y-82741490D01*
X49842474Y-82717896D01*
G37*
M02*
