%TF.GenerationSoftware,KiCad,Pcbnew,9.0.7*%
%TF.CreationDate,2026-03-17T22:43:26+07:00*%
%TF.ProjectId,project,70726f6a-6563-4742-9e6b-696361645f70,rev?*%
%TF.SameCoordinates,Original*%
%TF.FileFunction,Copper,L1,Top*%
%TF.FilePolarity,Positive*%
%FSLAX46Y46*%
G04 Gerber Fmt 4.6, Leading zero omitted, Abs format (unit mm)*
G04 Created by KiCad (PCBNEW 9.0.7) date 2026-03-17 22:43:26*
%MOMM*%
%LPD*%
G01*
G04 APERTURE LIST*
G04 Aperture macros list*
%AMRoundRect*
0 Rectangle with rounded corners*
0 $1 Rounding radius*
0 $2 $3 $4 $5 $6 $7 $8 $9 X,Y pos of 4 corners*
0 Add a 4 corners polygon primitive as box body*
4,1,4,$2,$3,$4,$5,$6,$7,$8,$9,$2,$3,0*
0 Add four circle primitives for the rounded corners*
1,1,$1+$1,$2,$3*
1,1,$1+$1,$4,$5*
1,1,$1+$1,$6,$7*
1,1,$1+$1,$8,$9*
0 Add four rect primitives between the rounded corners*
20,1,$1+$1,$2,$3,$4,$5,0*
20,1,$1+$1,$4,$5,$6,$7,0*
20,1,$1+$1,$6,$7,$8,$9,0*
20,1,$1+$1,$8,$9,$2,$3,0*%
%AMFreePoly0*
4,1,21,0.278536,0.603536,0.280000,0.600000,0.280000,-0.600000,0.278536,-0.603536,0.275000,-0.605000,-0.275000,-0.605000,-0.278536,-0.603536,-0.280000,-0.600000,-0.280000,-0.205000,-0.725000,-0.205000,-0.728536,-0.203536,-0.730000,-0.200000,-0.730000,0.350000,-0.728536,0.353536,-0.725000,0.355000,-0.280000,0.355000,-0.280000,0.600000,-0.278536,0.603536,-0.275000,0.605000,0.275000,0.605000,
0.278536,0.603536,0.278536,0.603536,$1*%
%AMFreePoly1*
4,1,21,0.278536,0.603536,0.280000,0.600000,0.280000,0.355000,0.725000,0.355000,0.728536,0.353536,0.730000,0.350000,0.730000,-0.200000,0.728536,-0.203536,0.725000,-0.205000,0.280000,-0.205000,0.280000,-0.600000,0.278536,-0.603536,0.275000,-0.605000,-0.275000,-0.605000,-0.278536,-0.603536,-0.280000,-0.600000,-0.280000,0.600000,-0.278536,0.603536,-0.275000,0.605000,0.275000,0.605000,
0.278536,0.603536,0.278536,0.603536,$1*%
G04 Aperture macros list end*
%TA.AperFunction,SMDPad,CuDef*%
%ADD10FreePoly0,90.000000*%
%TD*%
%TA.AperFunction,SMDPad,CuDef*%
%ADD11R,1.200000X0.700000*%
%TD*%
%TA.AperFunction,SMDPad,CuDef*%
%ADD12R,1.200000X0.450000*%
%TD*%
%TA.AperFunction,SMDPad,CuDef*%
%ADD13FreePoly1,90.000000*%
%TD*%
%TA.AperFunction,SMDPad,CuDef*%
%ADD14RoundRect,0.140000X-0.140000X-0.170000X0.140000X-0.170000X0.140000X0.170000X-0.140000X0.170000X0*%
%TD*%
%TA.AperFunction,ComponentPad*%
%ADD15C,2.000000*%
%TD*%
%TA.AperFunction,SMDPad,CuDef*%
%ADD16R,0.759000X1.270000*%
%TD*%
%TA.AperFunction,SMDPad,CuDef*%
%ADD17RoundRect,0.250000X-0.325000X-0.650000X0.325000X-0.650000X0.325000X0.650000X-0.325000X0.650000X0*%
%TD*%
%TA.AperFunction,ViaPad*%
%ADD18C,0.600000*%
%TD*%
%TA.AperFunction,Conductor*%
%ADD19C,0.400000*%
%TD*%
%TA.AperFunction,Conductor*%
%ADD20C,0.200000*%
%TD*%
%TA.AperFunction,Conductor*%
%ADD21C,0.300000*%
%TD*%
G04 APERTURE END LIST*
D10*
%TO.P,D8,1,DIN*%
%TO.N,Net-(D7-DOUT)*%
X51000000Y-78650000D03*
D11*
%TO.P,D8,2,VDD*%
%TO.N,Net-(D1-VDD)*%
X51000000Y-77525000D03*
D12*
%TO.P,D8,3,DOUT*%
%TO.N,Net-(D8-DOUT)*%
X51000000Y-76500000D03*
D13*
%TO.P,D8,4,GND*%
%TO.N,GND*%
X51000000Y-75500000D03*
%TD*%
D14*
%TO.P,C4,1*%
%TO.N,Net-(D1-VDD)*%
X47040000Y-42000000D03*
%TO.P,C4,2*%
%TO.N,GND*%
X48000000Y-42000000D03*
%TD*%
D10*
%TO.P,D7,1,DIN*%
%TO.N,Net-(D6-DOUT)*%
X51000000Y-71650000D03*
D11*
%TO.P,D7,2,VDD*%
%TO.N,Net-(D1-VDD)*%
X51000000Y-70525000D03*
D12*
%TO.P,D7,3,DOUT*%
%TO.N,Net-(D7-DOUT)*%
X51000000Y-69500000D03*
D13*
%TO.P,D7,4,GND*%
%TO.N,GND*%
X51000000Y-68500000D03*
%TD*%
D10*
%TO.P,D3,1,DIN*%
%TO.N,Net-(D2-DOUT)*%
X51000000Y-43650000D03*
D11*
%TO.P,D3,2,VDD*%
%TO.N,Net-(D1-VDD)*%
X51000000Y-42525000D03*
D12*
%TO.P,D3,3,DOUT*%
%TO.N,Net-(D3-DOUT)*%
X51000000Y-41500000D03*
D13*
%TO.P,D3,4,GND*%
%TO.N,GND*%
X51000000Y-40500000D03*
%TD*%
D10*
%TO.P,D1,1,DIN*%
%TO.N,Net-(D1-DIN)*%
X51000000Y-29650000D03*
D11*
%TO.P,D1,2,VDD*%
%TO.N,Net-(D1-VDD)*%
X51000000Y-28525000D03*
D12*
%TO.P,D1,3,DOUT*%
%TO.N,Net-(D1-DOUT)*%
X51000000Y-27500000D03*
D13*
%TO.P,D1,4,GND*%
%TO.N,GND*%
X51000000Y-26500000D03*
%TD*%
D10*
%TO.P,D24,1,DIN*%
%TO.N,Net-(D23-DOUT)*%
X51000000Y-190650000D03*
D11*
%TO.P,D24,2,VDD*%
%TO.N,Net-(D1-VDD)*%
X51000000Y-189525000D03*
D12*
%TO.P,D24,3,DOUT*%
%TO.N,unconnected-(D24-DOUT-Pad3)*%
X51000000Y-188500000D03*
D13*
%TO.P,D24,4,GND*%
%TO.N,GND*%
X51000000Y-187500000D03*
%TD*%
D14*
%TO.P,C11,1*%
%TO.N,Net-(D1-VDD)*%
X47040000Y-98000000D03*
%TO.P,C11,2*%
%TO.N,GND*%
X48000000Y-98000000D03*
%TD*%
%TO.P,C9,1*%
%TO.N,Net-(D1-VDD)*%
X47040000Y-112000000D03*
%TO.P,C9,2*%
%TO.N,GND*%
X48000000Y-112000000D03*
%TD*%
D10*
%TO.P,D17,1,DIN*%
%TO.N,Net-(D16-DOUT)*%
X51000000Y-141650000D03*
D11*
%TO.P,D17,2,VDD*%
%TO.N,Net-(D1-VDD)*%
X51000000Y-140525000D03*
D12*
%TO.P,D17,3,DOUT*%
%TO.N,Net-(D17-DOUT)*%
X51000000Y-139500000D03*
D13*
%TO.P,D17,4,GND*%
%TO.N,GND*%
X51000000Y-138500000D03*
%TD*%
D14*
%TO.P,C16,1*%
%TO.N,Net-(D1-VDD)*%
X47040000Y-126000000D03*
%TO.P,C16,2*%
%TO.N,GND*%
X48000000Y-126000000D03*
%TD*%
D10*
%TO.P,D21,1,DIN*%
%TO.N,Net-(D20-DOUT)*%
X51000000Y-169650000D03*
D11*
%TO.P,D21,2,VDD*%
%TO.N,Net-(D1-VDD)*%
X51000000Y-168525000D03*
D12*
%TO.P,D21,3,DOUT*%
%TO.N,Net-(D21-DOUT)*%
X51000000Y-167500000D03*
D13*
%TO.P,D21,4,GND*%
%TO.N,GND*%
X51000000Y-166500000D03*
%TD*%
D14*
%TO.P,C20,1*%
%TO.N,Net-(D1-VDD)*%
X47040000Y-154000000D03*
%TO.P,C20,2*%
%TO.N,GND*%
X48000000Y-154000000D03*
%TD*%
%TO.P,C13,1*%
%TO.N,Net-(D1-VDD)*%
X47040000Y-84000000D03*
%TO.P,C13,2*%
%TO.N,GND*%
X48000000Y-84000000D03*
%TD*%
%TO.P,C7,1*%
%TO.N,Net-(D1-VDD)*%
X47040000Y-63000000D03*
%TO.P,C7,2*%
%TO.N,GND*%
X48000000Y-63000000D03*
%TD*%
D10*
%TO.P,D12,1,DIN*%
%TO.N,Net-(D11-DOUT)*%
X51000000Y-106650000D03*
D11*
%TO.P,D12,2,VDD*%
%TO.N,Net-(D1-VDD)*%
X51000000Y-105525000D03*
D12*
%TO.P,D12,3,DOUT*%
%TO.N,Net-(D12-DOUT)*%
X51000000Y-104500000D03*
D13*
%TO.P,D12,4,GND*%
%TO.N,GND*%
X51000000Y-103500000D03*
%TD*%
D14*
%TO.P,C18,1*%
%TO.N,Net-(D1-VDD)*%
X47040000Y-140000000D03*
%TO.P,C18,2*%
%TO.N,GND*%
X48000000Y-140000000D03*
%TD*%
D10*
%TO.P,D9,1,DIN*%
%TO.N,Net-(D8-DOUT)*%
X51000000Y-85650000D03*
D11*
%TO.P,D9,2,VDD*%
%TO.N,Net-(D1-VDD)*%
X51000000Y-84525000D03*
D12*
%TO.P,D9,3,DOUT*%
%TO.N,Net-(D10-DIN)*%
X51000000Y-83500000D03*
D13*
%TO.P,D9,4,GND*%
%TO.N,GND*%
X51000000Y-82500000D03*
%TD*%
D10*
%TO.P,D18,1,DIN*%
%TO.N,Net-(D17-DOUT)*%
X51000000Y-148650000D03*
D11*
%TO.P,D18,2,VDD*%
%TO.N,Net-(D1-VDD)*%
X51000000Y-147525000D03*
D12*
%TO.P,D18,3,DOUT*%
%TO.N,Net-(D18-DOUT)*%
X51000000Y-146500000D03*
D13*
%TO.P,D18,4,GND*%
%TO.N,GND*%
X51000000Y-145500000D03*
%TD*%
D10*
%TO.P,D5,1,DIN*%
%TO.N,Net-(D4-DOUT)*%
X51000000Y-57650000D03*
D11*
%TO.P,D5,2,VDD*%
%TO.N,Net-(D1-VDD)*%
X51000000Y-56525000D03*
D12*
%TO.P,D5,3,DOUT*%
%TO.N,Net-(D5-DOUT)*%
X51000000Y-55500000D03*
D13*
%TO.P,D5,4,GND*%
%TO.N,GND*%
X51000000Y-54500000D03*
%TD*%
D10*
%TO.P,D2,1,DIN*%
%TO.N,Net-(D1-DOUT)*%
X51000000Y-36650000D03*
D11*
%TO.P,D2,2,VDD*%
%TO.N,Net-(D1-VDD)*%
X51000000Y-35525000D03*
D12*
%TO.P,D2,3,DOUT*%
%TO.N,Net-(D2-DOUT)*%
X51000000Y-34500000D03*
D13*
%TO.P,D2,4,GND*%
%TO.N,GND*%
X51000000Y-33500000D03*
%TD*%
D14*
%TO.P,C14,1*%
%TO.N,Net-(D1-VDD)*%
X47040000Y-77000000D03*
%TO.P,C14,2*%
%TO.N,GND*%
X48000000Y-77000000D03*
%TD*%
D10*
%TO.P,D13,1,DIN*%
%TO.N,Net-(D12-DOUT)*%
X51000000Y-113650000D03*
D11*
%TO.P,D13,2,VDD*%
%TO.N,Net-(D1-VDD)*%
X51000000Y-112525000D03*
D12*
%TO.P,D13,3,DOUT*%
%TO.N,Net-(D13-DOUT)*%
X51000000Y-111500000D03*
D13*
%TO.P,D13,4,GND*%
%TO.N,GND*%
X51000000Y-110500000D03*
%TD*%
D15*
%TO.P,H1,1,1*%
%TO.N,Net-(C1-Pad2)*%
X41500000Y-18500000D03*
%TD*%
D10*
%TO.P,D23,1,DIN*%
%TO.N,Net-(D22-DOUT)*%
X51000000Y-183650000D03*
D11*
%TO.P,D23,2,VDD*%
%TO.N,Net-(D1-VDD)*%
X51000000Y-182525000D03*
D12*
%TO.P,D23,3,DOUT*%
%TO.N,Net-(D23-DOUT)*%
X51000000Y-181500000D03*
D13*
%TO.P,D23,4,GND*%
%TO.N,GND*%
X51000000Y-180500000D03*
%TD*%
D14*
%TO.P,C17,1*%
%TO.N,Net-(D1-VDD)*%
X47040000Y-133000000D03*
%TO.P,C17,2*%
%TO.N,GND*%
X48000000Y-133000000D03*
%TD*%
D15*
%TO.P,H3,1,1*%
%TO.N,Net-(D1-DIN)*%
X41500000Y-23500000D03*
%TD*%
D10*
%TO.P,D15,1,DIN*%
%TO.N,Net-(D14-DOUT)*%
X51000000Y-127650000D03*
D11*
%TO.P,D15,2,VDD*%
%TO.N,Net-(D1-VDD)*%
X51000000Y-126525000D03*
D12*
%TO.P,D15,3,DOUT*%
%TO.N,Net-(D15-DOUT)*%
X51000000Y-125500000D03*
D13*
%TO.P,D15,4,GND*%
%TO.N,GND*%
X51000000Y-124500000D03*
%TD*%
D14*
%TO.P,C8,1*%
%TO.N,Net-(D1-VDD)*%
X47040000Y-70000000D03*
%TO.P,C8,2*%
%TO.N,GND*%
X48000000Y-70000000D03*
%TD*%
%TO.P,C19,1*%
%TO.N,Net-(D1-VDD)*%
X47040000Y-147000000D03*
%TO.P,C19,2*%
%TO.N,GND*%
X48000000Y-147000000D03*
%TD*%
%TO.P,C22,1*%
%TO.N,Net-(D1-VDD)*%
X47040000Y-182000000D03*
%TO.P,C22,2*%
%TO.N,GND*%
X48000000Y-182000000D03*
%TD*%
%TO.P,C25,1*%
%TO.N,Net-(D1-VDD)*%
X47040000Y-161000000D03*
%TO.P,C25,2*%
%TO.N,GND*%
X48000000Y-161000000D03*
%TD*%
%TO.P,C15,1*%
%TO.N,Net-(D1-VDD)*%
X47040000Y-119000000D03*
%TO.P,C15,2*%
%TO.N,GND*%
X48000000Y-119000000D03*
%TD*%
D10*
%TO.P,D10,1,DIN*%
%TO.N,Net-(D10-DIN)*%
X51000000Y-92650000D03*
D11*
%TO.P,D10,2,VDD*%
%TO.N,Net-(D1-VDD)*%
X51000000Y-91525000D03*
D12*
%TO.P,D10,3,DOUT*%
%TO.N,Net-(D10-DOUT)*%
X51000000Y-90500000D03*
D13*
%TO.P,D10,4,GND*%
%TO.N,GND*%
X51000000Y-89500000D03*
%TD*%
D10*
%TO.P,D20,1,DIN*%
%TO.N,Net-(D19-DOUT)*%
X51000000Y-162650000D03*
D11*
%TO.P,D20,2,VDD*%
%TO.N,Net-(D1-VDD)*%
X51000000Y-161525000D03*
D12*
%TO.P,D20,3,DOUT*%
%TO.N,Net-(D20-DOUT)*%
X51000000Y-160500000D03*
D13*
%TO.P,D20,4,GND*%
%TO.N,GND*%
X51000000Y-159500000D03*
%TD*%
D10*
%TO.P,D16,1,DIN*%
%TO.N,Net-(D15-DOUT)*%
X51000000Y-134650000D03*
D11*
%TO.P,D16,2,VDD*%
%TO.N,Net-(D1-VDD)*%
X51000000Y-133525000D03*
D12*
%TO.P,D16,3,DOUT*%
%TO.N,Net-(D16-DOUT)*%
X51000000Y-132500000D03*
D13*
%TO.P,D16,4,GND*%
%TO.N,GND*%
X51000000Y-131500000D03*
%TD*%
D10*
%TO.P,D11,1,DIN*%
%TO.N,Net-(D10-DOUT)*%
X51000000Y-99650000D03*
D11*
%TO.P,D11,2,VDD*%
%TO.N,Net-(D1-VDD)*%
X51000000Y-98525000D03*
D12*
%TO.P,D11,3,DOUT*%
%TO.N,Net-(D11-DOUT)*%
X51000000Y-97500000D03*
D13*
%TO.P,D11,4,GND*%
%TO.N,GND*%
X51000000Y-96500000D03*
%TD*%
D14*
%TO.P,C3,1*%
%TO.N,Net-(D1-VDD)*%
X47040000Y-35000000D03*
%TO.P,C3,2*%
%TO.N,GND*%
X48000000Y-35000000D03*
%TD*%
%TO.P,C10,1*%
%TO.N,Net-(D1-VDD)*%
X47040000Y-105000000D03*
%TO.P,C10,2*%
%TO.N,GND*%
X48000000Y-105000000D03*
%TD*%
D16*
%TO.P,SW1,1*%
%TO.N,Net-(C1-Pad2)*%
X41500000Y-26000000D03*
%TO.P,SW1,2*%
%TO.N,Net-(D1-VDD)*%
X41500000Y-33610000D03*
%TD*%
D14*
%TO.P,C24,1*%
%TO.N,Net-(D1-VDD)*%
X47040000Y-168000000D03*
%TO.P,C24,2*%
%TO.N,GND*%
X48000000Y-168000000D03*
%TD*%
%TO.P,C21,1*%
%TO.N,Net-(D1-VDD)*%
X47040000Y-189000000D03*
%TO.P,C21,2*%
%TO.N,GND*%
X48000000Y-189000000D03*
%TD*%
D10*
%TO.P,D14,1,DIN*%
%TO.N,Net-(D13-DOUT)*%
X51000000Y-120650000D03*
D11*
%TO.P,D14,2,VDD*%
%TO.N,Net-(D1-VDD)*%
X51000000Y-119525000D03*
D12*
%TO.P,D14,3,DOUT*%
%TO.N,Net-(D14-DOUT)*%
X51000000Y-118500000D03*
D13*
%TO.P,D14,4,GND*%
%TO.N,GND*%
X51000000Y-117500000D03*
%TD*%
D10*
%TO.P,D4,1,DIN*%
%TO.N,Net-(D3-DOUT)*%
X51000000Y-50650000D03*
D11*
%TO.P,D4,2,VDD*%
%TO.N,Net-(D1-VDD)*%
X51000000Y-49525000D03*
D12*
%TO.P,D4,3,DOUT*%
%TO.N,Net-(D4-DOUT)*%
X51000000Y-48500000D03*
D13*
%TO.P,D4,4,GND*%
%TO.N,GND*%
X51000000Y-47500000D03*
%TD*%
D10*
%TO.P,D19,1,DIN*%
%TO.N,Net-(D18-DOUT)*%
X51000000Y-155650000D03*
D11*
%TO.P,D19,2,VDD*%
%TO.N,Net-(D1-VDD)*%
X51000000Y-154525000D03*
D12*
%TO.P,D19,3,DOUT*%
%TO.N,Net-(D19-DOUT)*%
X51000000Y-153500000D03*
D13*
%TO.P,D19,4,GND*%
%TO.N,GND*%
X51000000Y-152500000D03*
%TD*%
D14*
%TO.P,C23,1*%
%TO.N,Net-(D1-VDD)*%
X47040000Y-175000000D03*
%TO.P,C23,2*%
%TO.N,GND*%
X48000000Y-175000000D03*
%TD*%
D15*
%TO.P,H2,1,1*%
%TO.N,GND*%
X41500000Y-21000000D03*
%TD*%
D10*
%TO.P,D22,1,DIN*%
%TO.N,Net-(D21-DOUT)*%
X51000000Y-176650000D03*
D11*
%TO.P,D22,2,VDD*%
%TO.N,Net-(D1-VDD)*%
X51000000Y-175525000D03*
D12*
%TO.P,D22,3,DOUT*%
%TO.N,Net-(D22-DOUT)*%
X51000000Y-174500000D03*
D13*
%TO.P,D22,4,GND*%
%TO.N,GND*%
X51000000Y-173500000D03*
%TD*%
D14*
%TO.P,C6,1*%
%TO.N,Net-(D1-VDD)*%
X47040000Y-56000000D03*
%TO.P,C6,2*%
%TO.N,GND*%
X48000000Y-56000000D03*
%TD*%
%TO.P,C5,1*%
%TO.N,Net-(D1-VDD)*%
X47040000Y-49000000D03*
%TO.P,C5,2*%
%TO.N,GND*%
X48000000Y-49000000D03*
%TD*%
%TO.P,C2,1*%
%TO.N,Net-(D1-VDD)*%
X47040000Y-28000000D03*
%TO.P,C2,2*%
%TO.N,GND*%
X48000000Y-28000000D03*
%TD*%
D17*
%TO.P,C1,1*%
%TO.N,GND*%
X44025000Y-25000000D03*
%TO.P,C1,2*%
%TO.N,Net-(C1-Pad2)*%
X46975000Y-25000000D03*
%TD*%
D10*
%TO.P,D6,1,DIN*%
%TO.N,Net-(D5-DOUT)*%
X51000000Y-64650000D03*
D11*
%TO.P,D6,2,VDD*%
%TO.N,Net-(D1-VDD)*%
X51000000Y-63525000D03*
D12*
%TO.P,D6,3,DOUT*%
%TO.N,Net-(D6-DOUT)*%
X51000000Y-62500000D03*
D13*
%TO.P,D6,4,GND*%
%TO.N,GND*%
X51000000Y-61500000D03*
%TD*%
D14*
%TO.P,C12,1*%
%TO.N,Net-(D1-VDD)*%
X47040000Y-91000000D03*
%TO.P,C12,2*%
%TO.N,GND*%
X48000000Y-91000000D03*
%TD*%
D18*
%TO.N,GND*%
X47996826Y-98634962D03*
X47995487Y-42660880D03*
X47994516Y-161630056D03*
X47986670Y-112640629D03*
X51000000Y-179000000D03*
X51000000Y-60500000D03*
X51000000Y-144000000D03*
X47999999Y-168631660D03*
X48003332Y-105627097D03*
X51000000Y-46500000D03*
X51000000Y-123000000D03*
X51000000Y-53500000D03*
X48006347Y-126631948D03*
X51000000Y-25500000D03*
X47996826Y-133628869D03*
X47999999Y-175636626D03*
X48006347Y-91638296D03*
X51000000Y-158000000D03*
X47989764Y-63641761D03*
X51000000Y-32500000D03*
X47994571Y-77655437D03*
X51000000Y-165000000D03*
X48017826Y-56667045D03*
X51000000Y-172000000D03*
X47993652Y-84637948D03*
X43000000Y-25000000D03*
X51000000Y-81000000D03*
X51000000Y-67000000D03*
X47995487Y-49630455D03*
X51000000Y-109000000D03*
X48000000Y-70652604D03*
X51000000Y-130000000D03*
X48009997Y-189643428D03*
X48001503Y-28635291D03*
X51000000Y-95000000D03*
X51000000Y-39500000D03*
X51000000Y-74000000D03*
X47999999Y-140641911D03*
X48006656Y-35635460D03*
X51000000Y-116000000D03*
X48009521Y-119637948D03*
X48003173Y-147638578D03*
X51000000Y-186000000D03*
X51000000Y-137000000D03*
X51000000Y-88000000D03*
X51000000Y-151000000D03*
X51000000Y-102000000D03*
X48013329Y-182632962D03*
X47996826Y-154629659D03*
%TO.N,Net-(D1-VDD)*%
X47040000Y-68500000D03*
X49500000Y-140000000D03*
X47040000Y-173500000D03*
X49600000Y-42000000D03*
X49600000Y-175250000D03*
X47040000Y-124500000D03*
X47040000Y-89500000D03*
X47040000Y-110500000D03*
X47040000Y-138500000D03*
X47040000Y-117500000D03*
X49674265Y-161174265D03*
X49671256Y-133277274D03*
X49724265Y-49124265D03*
X50000000Y-147100000D03*
X49674265Y-63174265D03*
X49987978Y-168008265D03*
X49600000Y-56000000D03*
X47040000Y-103500000D03*
X49600000Y-70000000D03*
X49659000Y-126000000D03*
X49600000Y-154000000D03*
X47040000Y-54500000D03*
X47040000Y-75500000D03*
X49753765Y-119194765D03*
X47040000Y-166500000D03*
X49600000Y-182000000D03*
X47040000Y-47500000D03*
X47040000Y-61500000D03*
X49674265Y-35174265D03*
X47040000Y-82500000D03*
X49987978Y-112008265D03*
X47040000Y-145500000D03*
X49600000Y-84000000D03*
X49600000Y-98000000D03*
X49624265Y-105224265D03*
X47040000Y-131500000D03*
X47040000Y-96500000D03*
X49624265Y-91224265D03*
X47040000Y-159500000D03*
X47040000Y-152500000D03*
X47040000Y-40500000D03*
X47040000Y-33500000D03*
X47040000Y-180500000D03*
X49600000Y-27500000D03*
X49724265Y-77124265D03*
X47040000Y-27000000D03*
%TD*%
D19*
%TO.N,Net-(C1-Pad2)*%
X45674000Y-26301000D02*
X46975000Y-25000000D01*
X41500000Y-26000000D02*
X41801000Y-26301000D01*
X41801000Y-26301000D02*
X45674000Y-26301000D01*
X40000000Y-24500000D02*
X41500000Y-26000000D01*
X40000000Y-19500000D02*
X40000000Y-24500000D01*
X40500000Y-19000000D02*
X40000000Y-19500000D01*
D20*
%TO.N,GND*%
X48000000Y-49625942D02*
X47995487Y-49630455D01*
X48000000Y-35000000D02*
X48000000Y-35628804D01*
X51000000Y-96500000D02*
X51000000Y-95000000D01*
X48000000Y-105623765D02*
X48003332Y-105627097D01*
X48000000Y-56649219D02*
X48017826Y-56667045D01*
X48000000Y-126000000D02*
X48000000Y-126625601D01*
X48000000Y-70000000D02*
X48000000Y-70652604D01*
X51000000Y-26500000D02*
X51000000Y-25500000D01*
X48000000Y-133625695D02*
X47996826Y-133628869D01*
X51000000Y-187500000D02*
X51000000Y-186000000D01*
X51000000Y-124500000D02*
X51000000Y-123000000D01*
X48000000Y-42656367D02*
X47995487Y-42660880D01*
X48000000Y-182000000D02*
X48000000Y-182619633D01*
X48000000Y-168631659D02*
X47999999Y-168631660D01*
X48000000Y-119628427D02*
X48009521Y-119637948D01*
X48000000Y-84631600D02*
X47993652Y-84637948D01*
X48000000Y-161624572D02*
X47994516Y-161630056D01*
X48000000Y-98631788D02*
X47996826Y-98634962D01*
X48000000Y-28000000D02*
X48000000Y-28633788D01*
X48000000Y-56000000D02*
X48000000Y-56649219D01*
X51000000Y-180500000D02*
X51000000Y-179000000D01*
X51000000Y-61500000D02*
X51000000Y-60500000D01*
X48000000Y-77000000D02*
X48000000Y-77650008D01*
X48000000Y-91631949D02*
X48006347Y-91638296D01*
X51000000Y-152500000D02*
X51000000Y-151000000D01*
X48000000Y-98000000D02*
X48000000Y-98631788D01*
X51000000Y-117500000D02*
X51000000Y-116000000D01*
X51000000Y-54500000D02*
X51000000Y-53500000D01*
X48000000Y-63631525D02*
X47989764Y-63641761D01*
X48000000Y-49000000D02*
X48000000Y-49625942D01*
X48000000Y-147635405D02*
X48003173Y-147638578D01*
X48000000Y-84000000D02*
X48000000Y-84631600D01*
X51000000Y-131500000D02*
X51000000Y-130000000D01*
X51000000Y-145500000D02*
X51000000Y-144000000D01*
X48000000Y-154000000D02*
X48000000Y-154626485D01*
X48000000Y-175000000D02*
X48000000Y-175636625D01*
X51000000Y-82500000D02*
X51000000Y-81000000D01*
X48000000Y-126625601D02*
X48006347Y-126631948D01*
X51000000Y-138500000D02*
X51000000Y-137000000D01*
X48000000Y-189000000D02*
X48000000Y-189633431D01*
X48000000Y-63000000D02*
X48000000Y-63631525D01*
X48000000Y-168000000D02*
X48000000Y-168631659D01*
X48000000Y-140641910D02*
X47999999Y-140641911D01*
X48000000Y-147000000D02*
X48000000Y-147635405D01*
X48000000Y-28633788D02*
X48001503Y-28635291D01*
X48000000Y-140000000D02*
X48000000Y-140641910D01*
X48000000Y-77650008D02*
X47994571Y-77655437D01*
X48000000Y-91000000D02*
X48000000Y-91631949D01*
X48000000Y-175636625D02*
X47999999Y-175636626D01*
X51000000Y-166500000D02*
X51000000Y-165000000D01*
X51000000Y-40500000D02*
X51000000Y-39500000D01*
X48000000Y-112627299D02*
X47986670Y-112640629D01*
X44025000Y-25000000D02*
X43000000Y-25000000D01*
X51000000Y-75500000D02*
X51000000Y-74000000D01*
X48000000Y-112000000D02*
X48000000Y-112627299D01*
X51000000Y-33500000D02*
X51000000Y-32500000D01*
X51000000Y-68500000D02*
X51000000Y-67000000D01*
X51000000Y-110500000D02*
X51000000Y-109000000D01*
X48000000Y-189633431D02*
X48009997Y-189643428D01*
X51000000Y-173500000D02*
X51000000Y-172000000D01*
X51000000Y-103500000D02*
X51000000Y-102000000D01*
X48000000Y-42000000D02*
X48000000Y-42656367D01*
X51000000Y-47500000D02*
X51000000Y-46500000D01*
X48000000Y-161000000D02*
X48000000Y-161624572D01*
X48000000Y-35628804D02*
X48006656Y-35635460D01*
X48000000Y-105000000D02*
X48000000Y-105623765D01*
X51000000Y-159500000D02*
X51000000Y-158000000D01*
X48000000Y-154626485D02*
X47996826Y-154629659D01*
X48000000Y-133000000D02*
X48000000Y-133625695D01*
X48000000Y-182619633D02*
X48013329Y-182632962D01*
X51000000Y-89500000D02*
X51000000Y-88000000D01*
X48000000Y-119000000D02*
X48000000Y-119628427D01*
D21*
%TO.N,Net-(D1-VDD)*%
X47040000Y-63000000D02*
X47040000Y-70000000D01*
D20*
X47040000Y-103500000D02*
X47040000Y-105000000D01*
X47040000Y-89500000D02*
X47040000Y-91000000D01*
X50025000Y-140525000D02*
X51000000Y-140525000D01*
D19*
X47040000Y-133000000D02*
X47040000Y-140000000D01*
D20*
X47040000Y-131500000D02*
X47040000Y-133000000D01*
X49600000Y-70000000D02*
X50125000Y-70525000D01*
X47040000Y-54500000D02*
X47040000Y-56000000D01*
D19*
X44500000Y-29500000D02*
X46500000Y-29500000D01*
D20*
X47040000Y-61500000D02*
X47040000Y-63000000D01*
X49600000Y-182000000D02*
X50125000Y-182525000D01*
X47040000Y-152500000D02*
X47040000Y-154000000D01*
D21*
X47040000Y-70000000D02*
X47040000Y-77000000D01*
D20*
X47040000Y-180500000D02*
X47040000Y-182000000D01*
X49600000Y-175250000D02*
X49850000Y-175500000D01*
X49600000Y-27500000D02*
X50625000Y-28525000D01*
X50504713Y-168525000D02*
X51000000Y-168525000D01*
X50752274Y-133277274D02*
X51000000Y-133525000D01*
X50649265Y-63174265D02*
X51000000Y-63525000D01*
X47040000Y-40500000D02*
X47040000Y-42000000D01*
D21*
X47040000Y-48500000D02*
X47040000Y-49000000D01*
D20*
X50100000Y-84500000D02*
X50975000Y-84500000D01*
D19*
X50850735Y-189674265D02*
X51000000Y-189525000D01*
D20*
X50125000Y-182525000D02*
X51000000Y-182525000D01*
D19*
X47040000Y-112000000D02*
X47040000Y-119000000D01*
D20*
X47040000Y-138500000D02*
X47040000Y-140000000D01*
D19*
X47040000Y-98000000D02*
X47040000Y-105000000D01*
D20*
X47040000Y-117500000D02*
X47040000Y-119000000D01*
X49674265Y-35174265D02*
X50649265Y-35174265D01*
X50975000Y-84500000D02*
X51000000Y-84525000D01*
X50504713Y-112525000D02*
X51000000Y-112525000D01*
X50699265Y-91224265D02*
X51000000Y-91525000D01*
D19*
X43500000Y-30500000D02*
X44500000Y-29500000D01*
D20*
X47040000Y-68500000D02*
X47040000Y-70000000D01*
D19*
X47040000Y-140000000D02*
X47040000Y-147000000D01*
X47040000Y-105000000D02*
X47040000Y-112000000D01*
D20*
X49987978Y-112008265D02*
X50504713Y-112525000D01*
D21*
X47040000Y-49000000D02*
X47040000Y-56000000D01*
D20*
X50125000Y-56525000D02*
X51000000Y-56525000D01*
D19*
X48000000Y-187500000D02*
X50174265Y-189674265D01*
D20*
X47040000Y-110500000D02*
X47040000Y-112000000D01*
X49659000Y-126000000D02*
X50184000Y-126525000D01*
D19*
X47040000Y-161000000D02*
X47040000Y-168000000D01*
D20*
X47040000Y-33500000D02*
X47040000Y-35000000D01*
X49600000Y-56000000D02*
X50125000Y-56525000D01*
X49624265Y-91224265D02*
X50699265Y-91224265D01*
X49671256Y-133277274D02*
X50752274Y-133277274D01*
D19*
X47040000Y-91000000D02*
X47040000Y-98000000D01*
X47040000Y-175000000D02*
X47040000Y-182000000D01*
D20*
X50125000Y-154525000D02*
X51000000Y-154525000D01*
D19*
X47040000Y-154000000D02*
X47040000Y-161000000D01*
D20*
X47040000Y-173500000D02*
X47040000Y-175000000D01*
X50975000Y-175500000D02*
X51000000Y-175525000D01*
X50599265Y-77124265D02*
X51000000Y-77525000D01*
D21*
X47040000Y-42000000D02*
X47040000Y-35000000D01*
D19*
X47040000Y-187500000D02*
X47040000Y-189000000D01*
X47040000Y-187500000D02*
X48000000Y-187500000D01*
D20*
X47040000Y-166500000D02*
X47040000Y-168000000D01*
X47040000Y-47500000D02*
X47040000Y-48500000D01*
X49600000Y-42000000D02*
X50125000Y-42525000D01*
D19*
X46500000Y-29500000D02*
X47000000Y-29000000D01*
X47040000Y-119000000D02*
X47040000Y-126000000D01*
X47040000Y-126000000D02*
X47040000Y-133000000D01*
D20*
X49674265Y-161174265D02*
X50649265Y-161174265D01*
X50000000Y-147100000D02*
X50575000Y-147100000D01*
X47000000Y-29000000D02*
X47040000Y-28960000D01*
D19*
X47040000Y-147000000D02*
X47040000Y-154000000D01*
D20*
X50599265Y-49124265D02*
X51000000Y-49525000D01*
X50184000Y-126525000D02*
X51000000Y-126525000D01*
D19*
X47040000Y-84000000D02*
X47040000Y-91000000D01*
D20*
X49724265Y-77124265D02*
X50599265Y-77124265D01*
X49500000Y-140000000D02*
X50025000Y-140525000D01*
X47000000Y-29000000D02*
X47040000Y-29040000D01*
X47040000Y-124500000D02*
X47040000Y-126000000D01*
X50699265Y-105224265D02*
X51000000Y-105525000D01*
X50575000Y-147100000D02*
X51000000Y-147525000D01*
X49850000Y-175500000D02*
X50975000Y-175500000D01*
X47040000Y-96500000D02*
X47040000Y-98000000D01*
X49674265Y-63174265D02*
X50649265Y-63174265D01*
X47040000Y-82500000D02*
X47040000Y-84000000D01*
X49600000Y-154000000D02*
X50125000Y-154525000D01*
D19*
X47040000Y-77000000D02*
X47040000Y-84000000D01*
D21*
X47040000Y-28960000D02*
X47040000Y-28540000D01*
D19*
X47040000Y-182000000D02*
X47040000Y-187500000D01*
D21*
X47040000Y-29040000D02*
X47040000Y-35000000D01*
D20*
X43390000Y-33610000D02*
X43500000Y-33500000D01*
X49600000Y-98000000D02*
X50125000Y-98525000D01*
X49987978Y-168008265D02*
X50504713Y-168525000D01*
D21*
X47040000Y-42000000D02*
X47040000Y-48500000D01*
D20*
X49600000Y-84000000D02*
X50100000Y-84500000D01*
X50625000Y-28525000D02*
X51000000Y-28525000D01*
X47040000Y-145500000D02*
X47040000Y-147000000D01*
X49724265Y-49124265D02*
X50599265Y-49124265D01*
X50649265Y-35174265D02*
X51000000Y-35525000D01*
X49624265Y-105224265D02*
X50699265Y-105224265D01*
X50125000Y-70525000D02*
X51000000Y-70525000D01*
D21*
X47040000Y-28000000D02*
X47040000Y-28540000D01*
D20*
X50125000Y-42525000D02*
X51000000Y-42525000D01*
X47040000Y-75500000D02*
X47040000Y-77000000D01*
X49753765Y-119194765D02*
X50669765Y-119194765D01*
D19*
X43500000Y-33500000D02*
X43500000Y-30500000D01*
D20*
X47040000Y-159500000D02*
X47040000Y-161000000D01*
D19*
X47040000Y-168000000D02*
X47040000Y-175000000D01*
D20*
X50125000Y-98525000D02*
X51000000Y-98525000D01*
D21*
X47040000Y-27000000D02*
X47040000Y-28000000D01*
D19*
X41500000Y-33610000D02*
X43390000Y-33610000D01*
D21*
X47040000Y-56000000D02*
X47040000Y-63000000D01*
D20*
X50669765Y-119194765D02*
X51000000Y-119525000D01*
D19*
X50174265Y-189674265D02*
X50850735Y-189674265D01*
D20*
X50649265Y-161174265D02*
X51000000Y-161525000D01*
%TO.N,Net-(D1-DOUT)*%
X51000000Y-27500000D02*
X51375000Y-27500000D01*
X51375000Y-27500000D02*
X51916000Y-28041000D01*
X51916000Y-28041000D02*
X51916000Y-36349000D01*
X51916000Y-36349000D02*
X51615000Y-36650000D01*
X51615000Y-36650000D02*
X51000000Y-36650000D01*
D19*
%TO.N,Net-(D1-DIN)*%
X48702503Y-28702503D02*
X48702503Y-28344927D01*
X48702503Y-28344927D02*
X48681000Y-28323424D01*
X42000000Y-23000000D02*
X41500000Y-23500000D01*
X48681000Y-27602030D02*
X48500000Y-27421030D01*
X48500000Y-27421030D02*
X48500000Y-23500000D01*
X49650000Y-29650000D02*
X48702503Y-28702503D01*
X48000000Y-23000000D02*
X42000000Y-23000000D01*
X48500000Y-23500000D02*
X48000000Y-23000000D01*
X51000000Y-29650000D02*
X49650000Y-29650000D01*
X48681000Y-28323424D02*
X48681000Y-27602030D01*
D20*
%TO.N,Net-(D2-DOUT)*%
X49000000Y-43000000D02*
X49650000Y-43650000D01*
X49500000Y-34500000D02*
X49000000Y-35000000D01*
X51000000Y-34500000D02*
X49500000Y-34500000D01*
X49000000Y-35000000D02*
X49000000Y-43000000D01*
X49650000Y-43650000D02*
X51000000Y-43650000D01*
%TO.N,Net-(D3-DOUT)*%
X51424000Y-41500000D02*
X51916000Y-41992000D01*
X51427000Y-50650000D02*
X51000000Y-50650000D01*
X51000000Y-41500000D02*
X51424000Y-41500000D01*
X51916000Y-41992000D02*
X51916000Y-50161000D01*
X51916000Y-50161000D02*
X51427000Y-50650000D01*
%TO.N,Net-(D4-DOUT)*%
X49500000Y-48500000D02*
X49000000Y-49000000D01*
X49650000Y-57650000D02*
X51000000Y-57650000D01*
X51000000Y-48500000D02*
X49500000Y-48500000D01*
X49000000Y-49000000D02*
X49000000Y-57000000D01*
X49000000Y-57000000D02*
X49650000Y-57650000D01*
%TO.N,Net-(D5-DOUT)*%
X51916000Y-56041000D02*
X51916000Y-64161000D01*
X51916000Y-64161000D02*
X51427000Y-64650000D01*
X51000000Y-55500000D02*
X51375000Y-55500000D01*
X51375000Y-55500000D02*
X51916000Y-56041000D01*
X51427000Y-64650000D02*
X51000000Y-64650000D01*
%TO.N,Net-(D6-DOUT)*%
X49000000Y-71038500D02*
X49611500Y-71650000D01*
X49611500Y-71650000D02*
X51000000Y-71650000D01*
X51000000Y-62500000D02*
X49500000Y-62500000D01*
X49000000Y-63000000D02*
X49000000Y-71038500D01*
X49500000Y-62500000D02*
X49000000Y-63000000D01*
%TO.N,Net-(D7-DOUT)*%
X51916000Y-78349000D02*
X51615000Y-78650000D01*
X51615000Y-78650000D02*
X51000000Y-78650000D01*
X51375000Y-69500000D02*
X51916000Y-70041000D01*
X51916000Y-70041000D02*
X51916000Y-78349000D01*
X51000000Y-69500000D02*
X51375000Y-69500000D01*
%TO.N,Net-(D8-DOUT)*%
X49611500Y-85650000D02*
X51000000Y-85650000D01*
X49000000Y-77000000D02*
X49000000Y-85038500D01*
X51000000Y-76500000D02*
X49500000Y-76500000D01*
X49500000Y-76500000D02*
X49000000Y-77000000D01*
X49000000Y-85038500D02*
X49611500Y-85650000D01*
%TO.N,Net-(D11-DOUT)*%
X51000000Y-97500000D02*
X51375000Y-97500000D01*
X51375000Y-97500000D02*
X51916000Y-98041000D01*
X51427000Y-106650000D02*
X51000000Y-106650000D01*
X51916000Y-106161000D02*
X51427000Y-106650000D01*
X51916000Y-98041000D02*
X51916000Y-106161000D01*
%TO.N,Net-(D10-DOUT)*%
X49000000Y-98882500D02*
X49767500Y-99650000D01*
X49767500Y-99650000D02*
X51000000Y-99650000D01*
X51000000Y-90500000D02*
X49500000Y-90500000D01*
X49000000Y-91000000D02*
X49000000Y-98882500D01*
X49500000Y-90500000D02*
X49000000Y-91000000D01*
%TO.N,Net-(D10-DIN)*%
X51427000Y-92650000D02*
X51000000Y-92650000D01*
X51916000Y-92161000D02*
X51427000Y-92650000D01*
X51916000Y-84041000D02*
X51916000Y-92161000D01*
X51000000Y-83500000D02*
X51375000Y-83500000D01*
X51375000Y-83500000D02*
X51916000Y-84041000D01*
%TO.N,Net-(D12-DOUT)*%
X49650000Y-113650000D02*
X51000000Y-113650000D01*
X49000000Y-113000000D02*
X49650000Y-113650000D01*
X49000000Y-105000000D02*
X49000000Y-113000000D01*
X49500000Y-104500000D02*
X49000000Y-105000000D01*
X51000000Y-104500000D02*
X49500000Y-104500000D01*
%TO.N,Net-(D13-DOUT)*%
X51427000Y-120650000D02*
X51000000Y-120650000D01*
X51000000Y-111500000D02*
X51375000Y-111500000D01*
X51916000Y-120161000D02*
X51427000Y-120650000D01*
X51916000Y-112041000D02*
X51916000Y-120161000D01*
X51375000Y-111500000D02*
X51916000Y-112041000D01*
%TO.N,Net-(D14-DOUT)*%
X50385000Y-127650000D02*
X51000000Y-127650000D01*
X49059000Y-119041000D02*
X49059000Y-127349000D01*
X49360000Y-127650000D02*
X51000000Y-127650000D01*
X51000000Y-118500000D02*
X49600000Y-118500000D01*
X49600000Y-118500000D02*
X49059000Y-119041000D01*
X49059000Y-127349000D02*
X49360000Y-127650000D01*
%TO.N,Net-(D15-DOUT)*%
X51375000Y-125500000D02*
X51916000Y-126041000D01*
X51916000Y-126041000D02*
X51916000Y-134161000D01*
X51427000Y-134650000D02*
X51000000Y-134650000D01*
X51916000Y-134161000D02*
X51427000Y-134650000D01*
X51000000Y-125500000D02*
X51375000Y-125500000D01*
%TO.N,Net-(D16-DOUT)*%
X49600000Y-132500000D02*
X49000000Y-133100000D01*
X49000000Y-140349943D02*
X49000000Y-141290000D01*
X48899000Y-139751057D02*
X48899000Y-140248943D01*
X49000000Y-139650057D02*
X48899000Y-139751057D01*
X49360000Y-141650000D02*
X51000000Y-141650000D01*
X51000000Y-132500000D02*
X49600000Y-132500000D01*
X49000000Y-133100000D02*
X49000000Y-139650057D01*
X48899000Y-140248943D02*
X49000000Y-140349943D01*
X49000000Y-141290000D02*
X49360000Y-141650000D01*
%TO.N,Net-(D17-DOUT)*%
X51427000Y-148650000D02*
X51000000Y-148650000D01*
X51916000Y-140041000D02*
X51916000Y-148161000D01*
X51375000Y-139500000D02*
X51916000Y-140041000D01*
X51000000Y-139500000D02*
X51375000Y-139500000D01*
X51916000Y-148161000D02*
X51427000Y-148650000D01*
%TO.N,Net-(D18-DOUT)*%
X49000000Y-147062500D02*
X49000000Y-155038500D01*
X49611500Y-155650000D02*
X51000000Y-155650000D01*
X51000000Y-146500000D02*
X49562500Y-146500000D01*
X49000000Y-155038500D02*
X49611500Y-155650000D01*
X49562500Y-146500000D02*
X49000000Y-147062500D01*
%TO.N,Net-(D19-DOUT)*%
X51615000Y-162650000D02*
X51000000Y-162650000D01*
X51916000Y-162349000D02*
X51615000Y-162650000D01*
X51916000Y-154041000D02*
X51916000Y-162349000D01*
X51000000Y-153500000D02*
X51375000Y-153500000D01*
X51375000Y-153500000D02*
X51916000Y-154041000D01*
%TO.N,Net-(D20-DOUT)*%
X49500000Y-160500000D02*
X49000000Y-161000000D01*
X49650000Y-169650000D02*
X51000000Y-169650000D01*
X49000000Y-169000000D02*
X49650000Y-169650000D01*
X49000000Y-161000000D02*
X49000000Y-169000000D01*
X51000000Y-160500000D02*
X49500000Y-160500000D01*
%TO.N,Net-(D21-DOUT)*%
X51916000Y-168041000D02*
X51916000Y-176161000D01*
X51916000Y-176161000D02*
X51427000Y-176650000D01*
X51375000Y-167500000D02*
X51916000Y-168041000D01*
X51000000Y-167500000D02*
X51375000Y-167500000D01*
X51427000Y-176650000D02*
X51000000Y-176650000D01*
%TO.N,Net-(D22-DOUT)*%
X49000000Y-183000000D02*
X49650000Y-183650000D01*
X49500000Y-174500000D02*
X49000000Y-175000000D01*
X49000000Y-175000000D02*
X49000000Y-183000000D01*
X51000000Y-174500000D02*
X49500000Y-174500000D01*
X49650000Y-183650000D02*
X51000000Y-183650000D01*
%TO.N,Net-(D23-DOUT)*%
X51916000Y-182041000D02*
X51916000Y-190349000D01*
X51375000Y-181500000D02*
X51916000Y-182041000D01*
X51916000Y-190349000D02*
X51615000Y-190650000D01*
X51615000Y-190650000D02*
X51000000Y-190650000D01*
X51000000Y-181500000D02*
X51375000Y-181500000D01*
%TD*%
M02*
