%TF.GenerationSoftware,KiCad,Pcbnew,9.0.7*%
%TF.CreationDate,2026-03-17T22:43:26+07:00*%
%TF.ProjectId,project,70726f6a-6563-4742-9e6b-696361645f70,rev?*%
%TF.SameCoordinates,Original*%
%TF.FileFunction,Legend,Top*%
%TF.FilePolarity,Positive*%
%FSLAX46Y46*%
G04 Gerber Fmt 4.6, Leading zero omitted, Abs format (unit mm)*
G04 Created by KiCad (PCBNEW 9.0.7) date 2026-03-17 22:43:26*
%MOMM*%
%LPD*%
G01*
G04 APERTURE LIST*
%ADD10C,0.100000*%
%ADD11C,0.200000*%
%ADD12C,0.150000*%
%ADD13C,0.127000*%
%ADD14C,0.120000*%
G04 APERTURE END LIST*
D10*
X42671973Y-91102940D02*
X42916973Y-91102940D01*
D11*
X36201000Y-135000000D02*
G75*
G02*
X29799000Y-135000000I-3201000J0D01*
G01*
X29799000Y-135000000D02*
G75*
G02*
X36201000Y-135000000I3201000J0D01*
G01*
D10*
X42298148Y-91172940D02*
G75*
G02*
X40935798Y-91172940I-681175J0D01*
G01*
X40935798Y-91172940D02*
G75*
G02*
X42298148Y-91172940I681175J0D01*
G01*
X41537847Y-48562587D02*
X41537847Y-48282587D01*
X42411973Y-90372940D02*
X42636973Y-90187940D01*
X40727847Y-48852587D02*
X40507847Y-48671500D01*
X42424473Y-91940440D02*
X42649473Y-92125440D01*
X40811973Y-90372940D02*
X40591973Y-90191853D01*
D11*
X36201000Y-154000000D02*
G75*
G02*
X29799000Y-154000000I-3201000J0D01*
G01*
X29799000Y-154000000D02*
G75*
G02*
X36201000Y-154000000I3201000J0D01*
G01*
D10*
X41606973Y-92212940D02*
X41606973Y-92492940D01*
X40631535Y-133307182D02*
G75*
G02*
X42301265Y-133307182I834865J0D01*
G01*
D11*
X36201000Y-173000000D02*
G75*
G02*
X29799000Y-173000000I-3201000J0D01*
G01*
X29799000Y-173000000D02*
G75*
G02*
X36201000Y-173000000I3201000J0D01*
G01*
D10*
X41621973Y-90082940D02*
X41621973Y-89802940D01*
D11*
X36201000Y-83500000D02*
G75*
G02*
X29799000Y-83500000I-3201000J0D01*
G01*
X29799000Y-83500000D02*
G75*
G02*
X36201000Y-83500000I3201000J0D01*
G01*
X45000000Y-22000000D02*
X52500000Y-22000000D01*
D10*
X40868056Y-49603193D02*
G75*
G02*
X42187853Y-49612587I659794J-19397D01*
G01*
X42327847Y-48852587D02*
X42552847Y-48667587D01*
X40763087Y-91942396D02*
X40543087Y-92123483D01*
X40304473Y-91092940D02*
X40549473Y-91092940D01*
X42518242Y-133622975D02*
X40341400Y-133620911D01*
X40222847Y-49532587D02*
X40467847Y-49532587D01*
D11*
X36201000Y-64500000D02*
G75*
G02*
X29799000Y-64500000I-3201000J0D01*
G01*
X29799000Y-64500000D02*
G75*
G02*
X36201000Y-64500000I3201000J0D01*
G01*
D10*
X42587847Y-49542587D02*
X42832847Y-49542587D01*
D11*
X36201000Y-45500000D02*
G75*
G02*
X29799000Y-45500000I-3201000J0D01*
G01*
X29799000Y-45500000D02*
G75*
G02*
X36201000Y-45500000I3201000J0D01*
G01*
D10*
X42721400Y-133933349D02*
X40131400Y-133932317D01*
G36*
X43872330Y-68993825D02*
G01*
X43985133Y-69039992D01*
X44081911Y-69111597D01*
X44156329Y-69200233D01*
X44213541Y-69305223D01*
X44261659Y-69435891D01*
X44296424Y-69573663D01*
X44318256Y-69708484D01*
X44329935Y-69845775D01*
X44333985Y-69995964D01*
X44320016Y-70298217D01*
X44282492Y-70531683D01*
X44226969Y-70709021D01*
X44157403Y-70841230D01*
X44075813Y-70937317D01*
X43982015Y-71003790D01*
X43873600Y-71044075D01*
X43746245Y-71058109D01*
X43615412Y-71043129D01*
X43503565Y-70999967D01*
X43407220Y-70932148D01*
X43332229Y-70846748D01*
X43274014Y-70745119D01*
X43224652Y-70619797D01*
X43201695Y-70534972D01*
X43465085Y-70534972D01*
X43509999Y-70657186D01*
X43563954Y-70742260D01*
X43610703Y-70783246D01*
X43670152Y-70808584D01*
X43746245Y-70817677D01*
X43811071Y-70809840D01*
X43867304Y-70787061D01*
X43916604Y-70752296D01*
X43956764Y-70710100D01*
X43989091Y-70659076D01*
X44018136Y-70589883D01*
X44057319Y-70446916D01*
X44079368Y-70284287D01*
X44088777Y-70122500D01*
X44090463Y-69966191D01*
X44080913Y-69747807D01*
X43465085Y-70534972D01*
X43201695Y-70534972D01*
X43188635Y-70486716D01*
X43165668Y-70352681D01*
X43153467Y-70215356D01*
X43150035Y-70093429D01*
X43392759Y-70093429D01*
X43397466Y-70204972D01*
X43411718Y-70318133D01*
X44022771Y-69535603D01*
X43981903Y-69417072D01*
X43930923Y-69320450D01*
X43894344Y-69274552D01*
X43851575Y-69243348D01*
X43801789Y-69224708D01*
X43743155Y-69218210D01*
X43664741Y-69230597D01*
X43596700Y-69267408D01*
X43535839Y-69332260D01*
X43481721Y-69433637D01*
X43436597Y-69583780D01*
X43404907Y-69797838D01*
X43392759Y-70093429D01*
X43150035Y-70093429D01*
X43149236Y-70065061D01*
X43157101Y-69853839D01*
X43183784Y-69640933D01*
X43232517Y-69435891D01*
X43266649Y-69342938D01*
X43308776Y-69255286D01*
X43359497Y-69174720D01*
X43415510Y-69109088D01*
X43481247Y-69055198D01*
X43559320Y-69013308D01*
X43645529Y-68986961D01*
X43741611Y-68977917D01*
X43872330Y-68993825D01*
G37*
G36*
X45511175Y-68995778D02*
G01*
X45614794Y-69019628D01*
X45708967Y-69057929D01*
X45783743Y-69104453D01*
X45847598Y-69163280D01*
X45903819Y-69237871D01*
X45949946Y-69320273D01*
X45984712Y-69402888D01*
X46010748Y-69490630D01*
X46031900Y-69597677D01*
X46054792Y-69805107D01*
X46060269Y-70021103D01*
X46056151Y-70182756D01*
X46044540Y-70323610D01*
X46021868Y-70460191D01*
X45984853Y-70597046D01*
X45932601Y-70725075D01*
X45869412Y-70826384D01*
X45787498Y-70909870D01*
X45679256Y-70977918D01*
X45553759Y-71020849D01*
X45401888Y-71036060D01*
X45221289Y-71020557D01*
X45080931Y-70978213D01*
X44972143Y-70912754D01*
X44882178Y-70821565D01*
X44804135Y-70699383D01*
X44738872Y-70539606D01*
X44979305Y-70468965D01*
X45035762Y-70616707D01*
X45067168Y-70667325D01*
X45108931Y-70714032D01*
X45160323Y-70750698D01*
X45225215Y-70774562D01*
X45299764Y-70786445D01*
X45401888Y-70790993D01*
X45483663Y-70784026D01*
X45552720Y-70764309D01*
X45613802Y-70731465D01*
X45663527Y-70687349D01*
X45704566Y-70634060D01*
X45738943Y-70573452D01*
X45765294Y-70506631D01*
X45785288Y-70426552D01*
X45808039Y-70262378D01*
X45815202Y-70085565D01*
X45810427Y-69917458D01*
X45728197Y-69984509D01*
X45638388Y-70029810D01*
X45536165Y-70055352D01*
X45395709Y-70065061D01*
X45223540Y-70048483D01*
X45079829Y-70001576D01*
X44958801Y-69926025D01*
X44884903Y-69850596D01*
X44832043Y-69761852D01*
X44799197Y-69657134D01*
X44788036Y-69537148D01*
X45037447Y-69537148D01*
X45050395Y-69626539D01*
X45087170Y-69697024D01*
X45148956Y-69753285D01*
X45226302Y-69793056D01*
X45315016Y-69817692D01*
X45417617Y-69826313D01*
X45507102Y-69817263D01*
X45585676Y-69791058D01*
X45655662Y-69747807D01*
X45739323Y-69662362D01*
X45782199Y-69574926D01*
X45762441Y-69488793D01*
X45723706Y-69408141D01*
X45664229Y-69331404D01*
X45590784Y-69269960D01*
X45513129Y-69234725D01*
X45428712Y-69222984D01*
X45318973Y-69232419D01*
X45226829Y-69259064D01*
X45148956Y-69301631D01*
X45087821Y-69361551D01*
X45050694Y-69438240D01*
X45037447Y-69537148D01*
X44788036Y-69537148D01*
X44787605Y-69532513D01*
X44798818Y-69410282D01*
X44830859Y-69305356D01*
X44882801Y-69214389D01*
X44955711Y-69135069D01*
X45043494Y-69071800D01*
X45143426Y-69025905D01*
X45257758Y-68997334D01*
X45389389Y-68987327D01*
X45511175Y-68995778D01*
G37*
G36*
X43933319Y-138956670D02*
G01*
X44244393Y-138975489D01*
X44244393Y-141016498D01*
X43986686Y-141016498D01*
X43983596Y-139344704D01*
X43892839Y-139442542D01*
X43734177Y-139581979D01*
X43482367Y-139775292D01*
X43323671Y-139537949D01*
X43506663Y-139418576D01*
X43652018Y-139302432D01*
X43759736Y-139197945D01*
X43838241Y-139105114D01*
X43888519Y-139032086D01*
X43919977Y-138980264D01*
X43933319Y-138956670D01*
G37*
G36*
X45693474Y-138965121D02*
G01*
X45797093Y-138988971D01*
X45891266Y-139027272D01*
X45966042Y-139073796D01*
X46029897Y-139132623D01*
X46086118Y-139207214D01*
X46132245Y-139289616D01*
X46167011Y-139372231D01*
X46193047Y-139459973D01*
X46214199Y-139567020D01*
X46237091Y-139774450D01*
X46242568Y-139990446D01*
X46238450Y-140152099D01*
X46226839Y-140292953D01*
X46204167Y-140429534D01*
X46167152Y-140566389D01*
X46114900Y-140694418D01*
X46051711Y-140795727D01*
X45969797Y-140879213D01*
X45861555Y-140947261D01*
X45736058Y-140990192D01*
X45584187Y-141005403D01*
X45403588Y-140989900D01*
X45263230Y-140947556D01*
X45154442Y-140882097D01*
X45064477Y-140790908D01*
X44986434Y-140668726D01*
X44921171Y-140508949D01*
X45161604Y-140438308D01*
X45218061Y-140586050D01*
X45249467Y-140636668D01*
X45291230Y-140683375D01*
X45342622Y-140720041D01*
X45407514Y-140743905D01*
X45482063Y-140755788D01*
X45584187Y-140760336D01*
X45665962Y-140753369D01*
X45735019Y-140733652D01*
X45796101Y-140700808D01*
X45845826Y-140656692D01*
X45886865Y-140603403D01*
X45921242Y-140542795D01*
X45947593Y-140475974D01*
X45967587Y-140395895D01*
X45990338Y-140231721D01*
X45997501Y-140054908D01*
X45992726Y-139886801D01*
X45910496Y-139953852D01*
X45820687Y-139999153D01*
X45718464Y-140024695D01*
X45578008Y-140034404D01*
X45405839Y-140017826D01*
X45262128Y-139970919D01*
X45141100Y-139895368D01*
X45067202Y-139819939D01*
X45014342Y-139731195D01*
X44981496Y-139626477D01*
X44970335Y-139506491D01*
X45219746Y-139506491D01*
X45232694Y-139595882D01*
X45269469Y-139666367D01*
X45331255Y-139722628D01*
X45408601Y-139762399D01*
X45497315Y-139787035D01*
X45599916Y-139795656D01*
X45689401Y-139786606D01*
X45767975Y-139760401D01*
X45837961Y-139717150D01*
X45921622Y-139631705D01*
X45964498Y-139544269D01*
X45944740Y-139458136D01*
X45906005Y-139377484D01*
X45846528Y-139300747D01*
X45773083Y-139239303D01*
X45695428Y-139204068D01*
X45611011Y-139192327D01*
X45501272Y-139201762D01*
X45409128Y-139228407D01*
X45331255Y-139270974D01*
X45270120Y-139330894D01*
X45232993Y-139407583D01*
X45219746Y-139506491D01*
X44970335Y-139506491D01*
X44969904Y-139501856D01*
X44981117Y-139379625D01*
X45013158Y-139274699D01*
X45065100Y-139183732D01*
X45138010Y-139104412D01*
X45225793Y-139041143D01*
X45325725Y-138995248D01*
X45440057Y-138966677D01*
X45571688Y-138956670D01*
X45693474Y-138965121D01*
G37*
G36*
X44146512Y-83027279D02*
G01*
X44457586Y-83046098D01*
X44457586Y-85087107D01*
X44199879Y-85087107D01*
X44196789Y-83415313D01*
X44106032Y-83513151D01*
X43947370Y-83652588D01*
X43695560Y-83845901D01*
X43536864Y-83608558D01*
X43719856Y-83489185D01*
X43865211Y-83373041D01*
X43972929Y-83268554D01*
X44051434Y-83175723D01*
X44101712Y-83102695D01*
X44133170Y-83050873D01*
X44146512Y-83027279D01*
G37*
G36*
X45811564Y-83027279D02*
G01*
X46122638Y-83046098D01*
X46122638Y-85087107D01*
X45864931Y-85087107D01*
X45861842Y-83415313D01*
X45771085Y-83513151D01*
X45612423Y-83652588D01*
X45360613Y-83845901D01*
X45201916Y-83608558D01*
X45384909Y-83489185D01*
X45530264Y-83373041D01*
X45637981Y-83268554D01*
X45716487Y-83175723D01*
X45766764Y-83102695D01*
X45798223Y-83050873D01*
X45811564Y-83027279D01*
G37*
G36*
X43856880Y-153745778D02*
G01*
X43621222Y-153802375D01*
X43600100Y-153716244D01*
X43589904Y-153626405D01*
X43589061Y-153606041D01*
X43588219Y-153587081D01*
X43599232Y-153462873D01*
X43630575Y-153356972D01*
X43681094Y-153265914D01*
X43751550Y-153187250D01*
X43837263Y-153123599D01*
X43932365Y-153078046D01*
X44038664Y-153050052D01*
X44158544Y-153040350D01*
X44321289Y-153054133D01*
X44449133Y-153091938D01*
X44549396Y-153150566D01*
X44627283Y-153229886D01*
X44685309Y-153332844D01*
X44722957Y-153465064D01*
X44736734Y-153634269D01*
X44723210Y-153749446D01*
X44680715Y-153871022D01*
X44604387Y-154001967D01*
X44487032Y-154144908D01*
X44254464Y-154350792D01*
X44006167Y-154570721D01*
X43936921Y-154648569D01*
X43889883Y-154722395D01*
X43858239Y-154796476D01*
X43847470Y-154848791D01*
X44766648Y-154845701D01*
X44766648Y-155089224D01*
X43574175Y-155089224D01*
X43572489Y-155016195D01*
X43570945Y-154939936D01*
X43580354Y-154812698D01*
X43611175Y-154702966D01*
X43664481Y-154593149D01*
X43743016Y-154481855D01*
X43850700Y-154368066D01*
X44084813Y-154170889D01*
X44296877Y-153990986D01*
X44376356Y-153902986D01*
X44435912Y-153809538D01*
X44475580Y-153712762D01*
X44487032Y-153637359D01*
X44477808Y-153539447D01*
X44451587Y-153456651D01*
X44409229Y-153385972D01*
X44350516Y-153331602D01*
X44273182Y-153297716D01*
X44171184Y-153285417D01*
X44069045Y-153296324D01*
X43988414Y-153326632D01*
X43924431Y-153375018D01*
X43877960Y-153440271D01*
X43847731Y-153528457D01*
X43836516Y-153646768D01*
X43841156Y-153690563D01*
X43856880Y-153745778D01*
G37*
G36*
X45828371Y-153046670D02*
G01*
X46139445Y-153065489D01*
X46139445Y-155106498D01*
X45881738Y-155106498D01*
X45878649Y-153434704D01*
X45787892Y-153532542D01*
X45629230Y-153671979D01*
X45377420Y-153865292D01*
X45218723Y-153627949D01*
X45401716Y-153508576D01*
X45547071Y-153392432D01*
X45654788Y-153287945D01*
X45733294Y-153195114D01*
X45783571Y-153122086D01*
X45815030Y-153070264D01*
X45828371Y-153046670D01*
G37*
X40713643Y-181833152D02*
X40666023Y-181976009D01*
X40666023Y-181976009D02*
X40666023Y-182214104D01*
X40666023Y-182214104D02*
X40713643Y-182309342D01*
X40713643Y-182309342D02*
X40761262Y-182356961D01*
X40761262Y-182356961D02*
X40856500Y-182404580D01*
X40856500Y-182404580D02*
X40951738Y-182404580D01*
X40951738Y-182404580D02*
X41046976Y-182356961D01*
X41046976Y-182356961D02*
X41094595Y-182309342D01*
X41094595Y-182309342D02*
X41142214Y-182214104D01*
X41142214Y-182214104D02*
X41189833Y-182023628D01*
X41189833Y-182023628D02*
X41237452Y-181928390D01*
X41237452Y-181928390D02*
X41285071Y-181880771D01*
X41285071Y-181880771D02*
X41380309Y-181833152D01*
X41380309Y-181833152D02*
X41475547Y-181833152D01*
X41475547Y-181833152D02*
X41570785Y-181880771D01*
X41570785Y-181880771D02*
X41618404Y-181928390D01*
X41618404Y-181928390D02*
X41666023Y-182023628D01*
X41666023Y-182023628D02*
X41666023Y-182261723D01*
X41666023Y-182261723D02*
X41618404Y-182404580D01*
X41332690Y-182833152D02*
X40332690Y-182833152D01*
X41285071Y-182833152D02*
X41332690Y-182928390D01*
X41332690Y-182928390D02*
X41332690Y-183118866D01*
X41332690Y-183118866D02*
X41285071Y-183214104D01*
X41285071Y-183214104D02*
X41237452Y-183261723D01*
X41237452Y-183261723D02*
X41142214Y-183309342D01*
X41142214Y-183309342D02*
X40856500Y-183309342D01*
X40856500Y-183309342D02*
X40761262Y-183261723D01*
X40761262Y-183261723D02*
X40713643Y-183214104D01*
X40713643Y-183214104D02*
X40666023Y-183118866D01*
X40666023Y-183118866D02*
X40666023Y-182928390D01*
X40666023Y-182928390D02*
X40713643Y-182833152D01*
X40666023Y-183737914D02*
X41332690Y-183737914D01*
X41666023Y-183737914D02*
X41618404Y-183690295D01*
X41618404Y-183690295D02*
X41570785Y-183737914D01*
X41570785Y-183737914D02*
X41618404Y-183785533D01*
X41618404Y-183785533D02*
X41666023Y-183737914D01*
X41666023Y-183737914D02*
X41570785Y-183737914D01*
X41332690Y-184214104D02*
X40666023Y-184214104D01*
X41237452Y-184214104D02*
X41285071Y-184261723D01*
X41285071Y-184261723D02*
X41332690Y-184356961D01*
X41332690Y-184356961D02*
X41332690Y-184499818D01*
X41332690Y-184499818D02*
X41285071Y-184595056D01*
X41285071Y-184595056D02*
X41189833Y-184642675D01*
X41189833Y-184642675D02*
X40666023Y-184642675D01*
X40713643Y-185499818D02*
X40666023Y-185404580D01*
X40666023Y-185404580D02*
X40666023Y-185214104D01*
X40666023Y-185214104D02*
X40713643Y-185118866D01*
X40713643Y-185118866D02*
X40808881Y-185071247D01*
X40808881Y-185071247D02*
X41189833Y-185071247D01*
X41189833Y-185071247D02*
X41285071Y-185118866D01*
X41285071Y-185118866D02*
X41332690Y-185214104D01*
X41332690Y-185214104D02*
X41332690Y-185404580D01*
X41332690Y-185404580D02*
X41285071Y-185499818D01*
X41285071Y-185499818D02*
X41189833Y-185547437D01*
X41189833Y-185547437D02*
X41094595Y-185547437D01*
X41094595Y-185547437D02*
X40999357Y-185071247D01*
X41332690Y-185833152D02*
X41332690Y-186214104D01*
X41666023Y-185976009D02*
X40808881Y-185976009D01*
X40808881Y-185976009D02*
X40713643Y-186023628D01*
X40713643Y-186023628D02*
X40666023Y-186118866D01*
X40666023Y-186118866D02*
X40666023Y-186214104D01*
X40666023Y-186547438D02*
X41332690Y-186547438D01*
X41666023Y-186547438D02*
X41618404Y-186499819D01*
X41618404Y-186499819D02*
X41570785Y-186547438D01*
X41570785Y-186547438D02*
X41618404Y-186595057D01*
X41618404Y-186595057D02*
X41666023Y-186547438D01*
X41666023Y-186547438D02*
X41570785Y-186547438D01*
X40666023Y-187023628D02*
X41332690Y-187023628D01*
X41237452Y-187023628D02*
X41285071Y-187071247D01*
X41285071Y-187071247D02*
X41332690Y-187166485D01*
X41332690Y-187166485D02*
X41332690Y-187309342D01*
X41332690Y-187309342D02*
X41285071Y-187404580D01*
X41285071Y-187404580D02*
X41189833Y-187452199D01*
X41189833Y-187452199D02*
X40666023Y-187452199D01*
X41189833Y-187452199D02*
X41285071Y-187499818D01*
X41285071Y-187499818D02*
X41332690Y-187595056D01*
X41332690Y-187595056D02*
X41332690Y-187737913D01*
X41332690Y-187737913D02*
X41285071Y-187833152D01*
X41285071Y-187833152D02*
X41189833Y-187880771D01*
X41189833Y-187880771D02*
X40666023Y-187880771D01*
X40713643Y-188737913D02*
X40666023Y-188642675D01*
X40666023Y-188642675D02*
X40666023Y-188452199D01*
X40666023Y-188452199D02*
X40713643Y-188356961D01*
X40713643Y-188356961D02*
X40808881Y-188309342D01*
X40808881Y-188309342D02*
X41189833Y-188309342D01*
X41189833Y-188309342D02*
X41285071Y-188356961D01*
X41285071Y-188356961D02*
X41332690Y-188452199D01*
X41332690Y-188452199D02*
X41332690Y-188642675D01*
X41332690Y-188642675D02*
X41285071Y-188737913D01*
X41285071Y-188737913D02*
X41189833Y-188785532D01*
X41189833Y-188785532D02*
X41094595Y-188785532D01*
X41094595Y-188785532D02*
X40999357Y-188309342D01*
X41332690Y-189880771D02*
X40666023Y-190118866D01*
X40666023Y-190118866D02*
X41332690Y-190356961D01*
X40666023Y-191261723D02*
X40666023Y-190690295D01*
X40666023Y-190976009D02*
X41666023Y-190976009D01*
X41666023Y-190976009D02*
X41523166Y-190880771D01*
X41523166Y-190880771D02*
X41427928Y-190785533D01*
X41427928Y-190785533D02*
X41380309Y-190690295D01*
G36*
X43876880Y-167595778D02*
G01*
X43641222Y-167652375D01*
X43620100Y-167566244D01*
X43609904Y-167476405D01*
X43609061Y-167456041D01*
X43608219Y-167437081D01*
X43619232Y-167312873D01*
X43650575Y-167206972D01*
X43701094Y-167115914D01*
X43771550Y-167037250D01*
X43857263Y-166973599D01*
X43952365Y-166928046D01*
X44058664Y-166900052D01*
X44178544Y-166890350D01*
X44341289Y-166904133D01*
X44469133Y-166941938D01*
X44569396Y-167000566D01*
X44647283Y-167079886D01*
X44705309Y-167182844D01*
X44742957Y-167315064D01*
X44756734Y-167484269D01*
X44743210Y-167599446D01*
X44700715Y-167721022D01*
X44624387Y-167851967D01*
X44507032Y-167994908D01*
X44274464Y-168200792D01*
X44026167Y-168420721D01*
X43956921Y-168498569D01*
X43909883Y-168572395D01*
X43878239Y-168646476D01*
X43867470Y-168698791D01*
X44786648Y-168695701D01*
X44786648Y-168939224D01*
X43594175Y-168939224D01*
X43592489Y-168866195D01*
X43590945Y-168789936D01*
X43600354Y-168662698D01*
X43631175Y-168552966D01*
X43684481Y-168443149D01*
X43763016Y-168331855D01*
X43870700Y-168218066D01*
X44104813Y-168020889D01*
X44316877Y-167840986D01*
X44396356Y-167752986D01*
X44455912Y-167659538D01*
X44495580Y-167562762D01*
X44507032Y-167487359D01*
X44497808Y-167389447D01*
X44471587Y-167306651D01*
X44429229Y-167235972D01*
X44370516Y-167181602D01*
X44293182Y-167147716D01*
X44191184Y-167135417D01*
X44089045Y-167146324D01*
X44008414Y-167176632D01*
X43944431Y-167225018D01*
X43897960Y-167290271D01*
X43867731Y-167378457D01*
X43856516Y-167496768D01*
X43861156Y-167540563D01*
X43876880Y-167595778D01*
G37*
G36*
X45191676Y-168415946D02*
G01*
X45439832Y-168414401D01*
X45451776Y-168504478D01*
X45484101Y-168580096D01*
X45537157Y-168644581D01*
X45606074Y-168692367D01*
X45692455Y-168722489D01*
X45801184Y-168733339D01*
X45920870Y-168720951D01*
X46016526Y-168686409D01*
X46093439Y-168631240D01*
X46151736Y-168557030D01*
X46187595Y-168466449D01*
X46200313Y-168354714D01*
X46187669Y-168226623D01*
X46153125Y-168128466D01*
X46092377Y-168046783D01*
X45996114Y-167976089D01*
X45927940Y-167943124D01*
X45854691Y-167919492D01*
X45732930Y-167898285D01*
X45603304Y-167895898D01*
X45603304Y-167647600D01*
X45628443Y-167647600D01*
X45755633Y-167637426D01*
X45879830Y-167606873D01*
X45972597Y-167561559D01*
X46031364Y-167506318D01*
X46066244Y-167433428D01*
X46079395Y-167327117D01*
X46070254Y-167273079D01*
X46043166Y-167227273D01*
X45995271Y-167187380D01*
X45904267Y-167149175D01*
X45787140Y-167135417D01*
X45690081Y-167148804D01*
X45606581Y-167187945D01*
X45533042Y-167254771D01*
X45468201Y-167355486D01*
X45245043Y-167231337D01*
X45265406Y-167186537D01*
X45324391Y-167104099D01*
X45423401Y-167006634D01*
X45485193Y-166966926D01*
X45571846Y-166928971D01*
X45667112Y-166903752D01*
X45771410Y-166895125D01*
X45788685Y-166895125D01*
X45931731Y-166905995D01*
X46054256Y-166936835D01*
X46161957Y-166992704D01*
X46249748Y-167077416D01*
X46292366Y-167146908D01*
X46318457Y-167226647D01*
X46327551Y-167319253D01*
X46312249Y-167465333D01*
X46268567Y-167588756D01*
X46222902Y-167660604D01*
X46168478Y-167714523D01*
X46104533Y-167752930D01*
X46229786Y-167830883D01*
X46324757Y-167926832D01*
X46393320Y-168042567D01*
X46436368Y-168182150D01*
X46451700Y-168351484D01*
X46442400Y-168460394D01*
X46413220Y-168577873D01*
X46365367Y-168689182D01*
X46300868Y-168783617D01*
X46212136Y-168865066D01*
X46102543Y-168924942D01*
X45967605Y-168963120D01*
X45801184Y-168976862D01*
X45663329Y-168966049D01*
X45545614Y-168935379D01*
X45444527Y-168886378D01*
X45357394Y-168819007D01*
X45285067Y-168734821D01*
X45233839Y-168641021D01*
X45202525Y-168535653D01*
X45191676Y-168415946D01*
G37*
G36*
X43948766Y-75868881D02*
G01*
X44259840Y-75887700D01*
X44259840Y-77928709D01*
X44002133Y-77928709D01*
X43999043Y-76256915D01*
X43908286Y-76354753D01*
X43749624Y-76494190D01*
X43497814Y-76687503D01*
X43339118Y-76450160D01*
X43522110Y-76330787D01*
X43667465Y-76214643D01*
X43775183Y-76110156D01*
X43853688Y-76017325D01*
X43903966Y-75944297D01*
X43935424Y-75892475D01*
X43948766Y-75868881D01*
G37*
G36*
X45735129Y-75875379D02*
G01*
X45847931Y-75921546D01*
X45944709Y-75993151D01*
X46019127Y-76081787D01*
X46076339Y-76186777D01*
X46124457Y-76317445D01*
X46159222Y-76455217D01*
X46181054Y-76590038D01*
X46192734Y-76727329D01*
X46196783Y-76877518D01*
X46182814Y-77179771D01*
X46145290Y-77413237D01*
X46089768Y-77590575D01*
X46020201Y-77722784D01*
X45938611Y-77818871D01*
X45844814Y-77885344D01*
X45736398Y-77925629D01*
X45609043Y-77939663D01*
X45478210Y-77924683D01*
X45366364Y-77881521D01*
X45270018Y-77813702D01*
X45195027Y-77728302D01*
X45136812Y-77626673D01*
X45087451Y-77501351D01*
X45064493Y-77416526D01*
X45327883Y-77416526D01*
X45372798Y-77538740D01*
X45426753Y-77623814D01*
X45473502Y-77664800D01*
X45532950Y-77690138D01*
X45609043Y-77699231D01*
X45673870Y-77691394D01*
X45730102Y-77668615D01*
X45779402Y-77633850D01*
X45819562Y-77591654D01*
X45851889Y-77540630D01*
X45880935Y-77471437D01*
X45920117Y-77328470D01*
X45942166Y-77165841D01*
X45951576Y-77004054D01*
X45953261Y-76847745D01*
X45943711Y-76629361D01*
X45327883Y-77416526D01*
X45064493Y-77416526D01*
X45051433Y-77368270D01*
X45028466Y-77234235D01*
X45016265Y-77096910D01*
X45012833Y-76974983D01*
X45255557Y-76974983D01*
X45260264Y-77086526D01*
X45274516Y-77199687D01*
X45885569Y-76417157D01*
X45844701Y-76298626D01*
X45793722Y-76202004D01*
X45757142Y-76156106D01*
X45714373Y-76124902D01*
X45664587Y-76106262D01*
X45605954Y-76099764D01*
X45527539Y-76112151D01*
X45459498Y-76148962D01*
X45398638Y-76213814D01*
X45344519Y-76315191D01*
X45299396Y-76465334D01*
X45267706Y-76679392D01*
X45255557Y-76974983D01*
X45012833Y-76974983D01*
X45012035Y-76946615D01*
X45019899Y-76735393D01*
X45046583Y-76522487D01*
X45095315Y-76317445D01*
X45129448Y-76224492D01*
X45171574Y-76136840D01*
X45222295Y-76056274D01*
X45278308Y-75990642D01*
X45344046Y-75936752D01*
X45422118Y-75894862D01*
X45508327Y-75868515D01*
X45604409Y-75859471D01*
X45735129Y-75875379D01*
G37*
G36*
X44293319Y-110976670D02*
G01*
X44604393Y-110995489D01*
X44604393Y-113036498D01*
X44346686Y-113036498D01*
X44343596Y-111364704D01*
X44252839Y-111462542D01*
X44094177Y-111601979D01*
X43842367Y-111795292D01*
X43683671Y-111557949D01*
X43866663Y-111438576D01*
X44012018Y-111322432D01*
X44119736Y-111217945D01*
X44198241Y-111125114D01*
X44248519Y-111052086D01*
X44279977Y-111000264D01*
X44293319Y-110976670D01*
G37*
G36*
X45941097Y-111873798D02*
G01*
X45847918Y-111883661D01*
X45758794Y-111913284D01*
X45671933Y-111964013D01*
X45586066Y-112038815D01*
X45581291Y-112043449D01*
X45383271Y-111958624D01*
X45455597Y-110998578D01*
X46396683Y-111001808D01*
X46396683Y-111243786D01*
X45677071Y-111243786D01*
X45640978Y-111710326D01*
X45738989Y-111662564D01*
X45836953Y-111634706D01*
X45936322Y-111625501D01*
X46094842Y-111642600D01*
X46239672Y-111693052D01*
X46329022Y-111752365D01*
X46409732Y-111831122D01*
X46482352Y-111931940D01*
X46535853Y-112043589D01*
X46568967Y-112170334D01*
X46580519Y-112315340D01*
X46567619Y-112485525D01*
X46531570Y-112626237D01*
X46474932Y-112742803D01*
X46398228Y-112839321D01*
X46301801Y-112918439D01*
X46191926Y-112975705D01*
X46066058Y-113011748D01*
X45920734Y-113025403D01*
X45917503Y-113025403D01*
X45794104Y-113013533D01*
X45683697Y-112978963D01*
X45583538Y-112921759D01*
X45493686Y-112846963D01*
X45414551Y-112759860D01*
X45345633Y-112659417D01*
X45554607Y-112521084D01*
X45632807Y-112630766D01*
X45714006Y-112710397D01*
X45775306Y-112748966D01*
X45844045Y-112772289D01*
X45922278Y-112780336D01*
X46047906Y-112765926D01*
X46146918Y-112725740D01*
X46225488Y-112660962D01*
X46282328Y-112575222D01*
X46318944Y-112463544D01*
X46332362Y-112318430D01*
X46317305Y-112165733D01*
X46276868Y-112053508D01*
X46214720Y-111971820D01*
X46129567Y-111914666D01*
X46040029Y-111884182D01*
X45941097Y-111873798D01*
G37*
G36*
X45550645Y-21172334D02*
G01*
X45550645Y-19596967D01*
X45239724Y-19597700D01*
X45053244Y-19598433D01*
X45053244Y-19386674D01*
X45541608Y-19385942D01*
X46097138Y-19385209D01*
X46288381Y-19405725D01*
X46243318Y-19613454D01*
X46160316Y-19600837D01*
X46090300Y-19596967D01*
X45769242Y-19596967D01*
X45769242Y-21172334D01*
X45550645Y-21172334D01*
G37*
G36*
X47214427Y-19758461D02*
G01*
X47319236Y-19781785D01*
X47403471Y-19817641D01*
X47478449Y-19869679D01*
X47543636Y-19937935D01*
X47599598Y-20024637D01*
X47642564Y-20131536D01*
X47670240Y-20261157D01*
X47680198Y-20418112D01*
X47675756Y-20538686D01*
X47663101Y-20645624D01*
X47639981Y-20748251D01*
X47604972Y-20846514D01*
X47557643Y-20936807D01*
X47500558Y-21010401D01*
X47429488Y-21070221D01*
X47337281Y-21118356D01*
X47232883Y-21148131D01*
X47109159Y-21158656D01*
X47106350Y-21158656D01*
X46971482Y-21146342D01*
X46859832Y-21113064D01*
X46766951Y-21060592D01*
X46689672Y-20988541D01*
X46629479Y-20901004D01*
X46584824Y-20796986D01*
X46556422Y-20673318D01*
X46546301Y-20526067D01*
X46546545Y-20519228D01*
X46762090Y-20519228D01*
X46773258Y-20651420D01*
X46803762Y-20754317D01*
X46850872Y-20834180D01*
X46917433Y-20895721D01*
X47001671Y-20933428D01*
X47109159Y-20946898D01*
X47183386Y-20941000D01*
X47238241Y-20927847D01*
X47288218Y-20904414D01*
X47341434Y-20866297D01*
X47389132Y-20805877D01*
X47427085Y-20719544D01*
X47453080Y-20599462D01*
X47462944Y-20435942D01*
X47462944Y-20411273D01*
X47451459Y-20276532D01*
X47423327Y-20168962D01*
X47381001Y-20083377D01*
X47336416Y-20030265D01*
X47281494Y-19992451D01*
X47214157Y-19968833D01*
X47131018Y-19960401D01*
X47032407Y-19970887D01*
X46954064Y-20000090D01*
X46889253Y-20048594D01*
X46839881Y-20116228D01*
X46805095Y-20196507D01*
X46780530Y-20290373D01*
X46767044Y-20392250D01*
X46762090Y-20519228D01*
X46546545Y-20519228D01*
X46550666Y-20403684D01*
X46563276Y-20291838D01*
X46586273Y-20183853D01*
X46620673Y-20081423D01*
X46666954Y-19986486D01*
X46721789Y-19908499D01*
X46789867Y-19843994D01*
X46875418Y-19793094D01*
X46972533Y-19761100D01*
X47084490Y-19749986D01*
X47214427Y-19758461D01*
G37*
G36*
X49076573Y-19393186D02*
G01*
X49081664Y-19586099D01*
X49080321Y-20795223D01*
X49080321Y-20830760D01*
X49086440Y-20990395D01*
X49104867Y-21150474D01*
X48880774Y-21176364D01*
X48865753Y-21045205D01*
X48766633Y-21113418D01*
X48651518Y-21155005D01*
X48515997Y-21169525D01*
X48384034Y-21157451D01*
X48277555Y-21123841D01*
X48191324Y-21070723D01*
X48121789Y-20997456D01*
X48069141Y-20909322D01*
X48029712Y-20804647D01*
X48004508Y-20680386D01*
X47995516Y-20532906D01*
X47996217Y-20506894D01*
X48211304Y-20506894D01*
X48220463Y-20654873D01*
X48244699Y-20764574D01*
X48280303Y-20844438D01*
X48319635Y-20893425D01*
X48370186Y-20928683D01*
X48434355Y-20951024D01*
X48515997Y-20959110D01*
X48604527Y-20952606D01*
X48670359Y-20935296D01*
X48727311Y-20906126D01*
X48772208Y-20868374D01*
X48865753Y-20740512D01*
X48865753Y-20143461D01*
X48795384Y-20084677D01*
X48703820Y-20027445D01*
X48606278Y-19986507D01*
X48521493Y-19974078D01*
X48439680Y-19982521D01*
X48374804Y-20005983D01*
X48323114Y-20043327D01*
X48282379Y-20095711D01*
X48246968Y-20180938D01*
X48221398Y-20312511D01*
X48211304Y-20506894D01*
X47996217Y-20506894D01*
X47999339Y-20390996D01*
X48009804Y-20275352D01*
X48030004Y-20166202D01*
X48061095Y-20064326D01*
X48104940Y-19971480D01*
X48158060Y-19900317D01*
X48225658Y-19843929D01*
X48314497Y-19799200D01*
X48415903Y-19772089D01*
X48540666Y-19762320D01*
X48648911Y-19773195D01*
X48756218Y-19806271D01*
X48864410Y-19863436D01*
X48864410Y-19580603D01*
X48859750Y-19435116D01*
X48843893Y-19243182D01*
X49062491Y-19232191D01*
X49076573Y-19393186D01*
G37*
G36*
X50125139Y-19765232D02*
G01*
X50229561Y-19792981D01*
X50319843Y-19837497D01*
X50398255Y-19898974D01*
X50462759Y-19975259D01*
X50508871Y-20061820D01*
X50537315Y-20160672D01*
X50547243Y-20274619D01*
X50547243Y-20725491D01*
X50553869Y-20882388D01*
X50565073Y-20923695D01*
X50590230Y-20948241D01*
X50633949Y-20981702D01*
X50672906Y-21011133D01*
X50559577Y-21173677D01*
X50517934Y-21143635D01*
X50472138Y-21108831D01*
X50436601Y-21071950D01*
X50401674Y-21017240D01*
X50382013Y-20946898D01*
X50292498Y-21026154D01*
X50187962Y-21094420D01*
X50120615Y-21126315D01*
X50043126Y-21149741D01*
X49960395Y-21163400D01*
X49866905Y-21168182D01*
X49756357Y-21154285D01*
X49659124Y-21113569D01*
X49571737Y-21044595D01*
X49503858Y-20956103D01*
X49463843Y-20858601D01*
X49450226Y-20748817D01*
X49451525Y-20735139D01*
X49663328Y-20735139D01*
X49669993Y-20804173D01*
X49688379Y-20858411D01*
X49717306Y-20901102D01*
X49756843Y-20933509D01*
X49805773Y-20953469D01*
X49866905Y-20960575D01*
X49946238Y-20954546D01*
X50021877Y-20936639D01*
X50092272Y-20909861D01*
X50144120Y-20882051D01*
X50236444Y-20807557D01*
X50298604Y-20739902D01*
X50332798Y-20688611D01*
X50332798Y-20558796D01*
X50234844Y-20510558D01*
X50128510Y-20481351D01*
X50011741Y-20471357D01*
X49917511Y-20480696D01*
X49836081Y-20505542D01*
X49765055Y-20545240D01*
X49707661Y-20599667D01*
X49674582Y-20661974D01*
X49663328Y-20735139D01*
X49451525Y-20735139D01*
X49457871Y-20668335D01*
X49481612Y-20584075D01*
X49520195Y-20505466D01*
X49571737Y-20439972D01*
X49668276Y-20359758D01*
X49765788Y-20310889D01*
X49872811Y-20284148D01*
X50000750Y-20274619D01*
X50145799Y-20283836D01*
X50253768Y-20308287D01*
X50332798Y-20344351D01*
X50322583Y-20214958D01*
X50295630Y-20121346D01*
X50255617Y-20054801D01*
X50197621Y-20005506D01*
X50117061Y-19973706D01*
X50006245Y-19961866D01*
X49909272Y-19967946D01*
X49835999Y-19984177D01*
X49781420Y-20008272D01*
X49734228Y-20044749D01*
X49681528Y-20105449D01*
X49622295Y-20198171D01*
X49444731Y-20086186D01*
X49515679Y-19973700D01*
X49592333Y-19890307D01*
X49674930Y-19831318D01*
X49768399Y-19790326D01*
X49876950Y-19764568D01*
X50003558Y-19755481D01*
X50125139Y-19765232D01*
G37*
G36*
X51250540Y-21464692D02*
G01*
X51295603Y-21456510D01*
X51337247Y-21430498D01*
X51373517Y-21394961D01*
X51406245Y-21345746D01*
X51434333Y-21293112D01*
X51460956Y-21233761D01*
X51482815Y-21176364D01*
X51503332Y-21117745D01*
X51521039Y-21067065D01*
X51404997Y-20698643D01*
X51299417Y-20426976D01*
X51204033Y-20233402D01*
X51118348Y-20101345D01*
X51041468Y-20016454D01*
X50985699Y-19986145D01*
X50891259Y-19974078D01*
X50891259Y-19765129D01*
X51042934Y-19775997D01*
X51110711Y-19799695D01*
X51187478Y-19857501D01*
X51276929Y-19963049D01*
X51381821Y-20134648D01*
X51504394Y-20394407D01*
X51646702Y-20767868D01*
X51720373Y-20526172D01*
X51783967Y-20259720D01*
X51829567Y-19993032D01*
X51848935Y-19766472D01*
X52064846Y-19766472D01*
X52059928Y-19886075D01*
X52045673Y-19995938D01*
X51971332Y-20346081D01*
X51878728Y-20688800D01*
X51767835Y-21024626D01*
X51638520Y-21354050D01*
X51592719Y-21452872D01*
X51542719Y-21530540D01*
X51488921Y-21590355D01*
X51424828Y-21635877D01*
X51348341Y-21663885D01*
X51256036Y-21673764D01*
X51153181Y-21663297D01*
X51070264Y-21634039D01*
X51002920Y-21587224D01*
X50948508Y-21521371D01*
X50906485Y-21432495D01*
X50878473Y-21314572D01*
X50868056Y-21160000D01*
X51081158Y-21160000D01*
X51087129Y-21276840D01*
X51101980Y-21352660D01*
X51122069Y-21399113D01*
X51154120Y-21435188D01*
X51195869Y-21456930D01*
X51250540Y-21464692D01*
G37*
G36*
X44214629Y-174083168D02*
G01*
X44327432Y-174129335D01*
X44424210Y-174200940D01*
X44498628Y-174289576D01*
X44555840Y-174394566D01*
X44603958Y-174525234D01*
X44638723Y-174663006D01*
X44660555Y-174797827D01*
X44672234Y-174935118D01*
X44676284Y-175085307D01*
X44662315Y-175387560D01*
X44624791Y-175621026D01*
X44569268Y-175798364D01*
X44499702Y-175930573D01*
X44418112Y-176026660D01*
X44324314Y-176093133D01*
X44215899Y-176133418D01*
X44088544Y-176147452D01*
X43957711Y-176132472D01*
X43845864Y-176089310D01*
X43749519Y-176021491D01*
X43674528Y-175936091D01*
X43616313Y-175834462D01*
X43566951Y-175709140D01*
X43543994Y-175624315D01*
X43807384Y-175624315D01*
X43852298Y-175746529D01*
X43906253Y-175831603D01*
X43953002Y-175872589D01*
X44012451Y-175897927D01*
X44088544Y-175907020D01*
X44153370Y-175899183D01*
X44209603Y-175876404D01*
X44258903Y-175841639D01*
X44299063Y-175799443D01*
X44331390Y-175748419D01*
X44360435Y-175679226D01*
X44399618Y-175536259D01*
X44421667Y-175373630D01*
X44431076Y-175211843D01*
X44432762Y-175055534D01*
X44423212Y-174837150D01*
X43807384Y-175624315D01*
X43543994Y-175624315D01*
X43530934Y-175576059D01*
X43507967Y-175442024D01*
X43495766Y-175304699D01*
X43492334Y-175182772D01*
X43735058Y-175182772D01*
X43739765Y-175294315D01*
X43754017Y-175407476D01*
X44365070Y-174624946D01*
X44324202Y-174506415D01*
X44273222Y-174409793D01*
X44236643Y-174363895D01*
X44193874Y-174332691D01*
X44144088Y-174314051D01*
X44085454Y-174307553D01*
X44007040Y-174319940D01*
X43938999Y-174356751D01*
X43878138Y-174421603D01*
X43824020Y-174522980D01*
X43778896Y-174673123D01*
X43747206Y-174887181D01*
X43735058Y-175182772D01*
X43492334Y-175182772D01*
X43491535Y-175154404D01*
X43499400Y-174943182D01*
X43526083Y-174730276D01*
X43574816Y-174525234D01*
X43608948Y-174432281D01*
X43651075Y-174344629D01*
X43701796Y-174264063D01*
X43757809Y-174198431D01*
X43823546Y-174144541D01*
X43901619Y-174102651D01*
X43987828Y-174076304D01*
X44083910Y-174067260D01*
X44214629Y-174083168D01*
G37*
G36*
X45879682Y-174083168D02*
G01*
X45992484Y-174129335D01*
X46089262Y-174200940D01*
X46163680Y-174289576D01*
X46220892Y-174394566D01*
X46269010Y-174525234D01*
X46303775Y-174663006D01*
X46325607Y-174797827D01*
X46337287Y-174935118D01*
X46341336Y-175085307D01*
X46327367Y-175387560D01*
X46289843Y-175621026D01*
X46234321Y-175798364D01*
X46164754Y-175930573D01*
X46083164Y-176026660D01*
X45989367Y-176093133D01*
X45880951Y-176133418D01*
X45753596Y-176147452D01*
X45622763Y-176132472D01*
X45510917Y-176089310D01*
X45414571Y-176021491D01*
X45339580Y-175936091D01*
X45281365Y-175834462D01*
X45232004Y-175709140D01*
X45209046Y-175624315D01*
X45472436Y-175624315D01*
X45517351Y-175746529D01*
X45571306Y-175831603D01*
X45618055Y-175872589D01*
X45677503Y-175897927D01*
X45753596Y-175907020D01*
X45818423Y-175899183D01*
X45874655Y-175876404D01*
X45923955Y-175841639D01*
X45964115Y-175799443D01*
X45996442Y-175748419D01*
X46025488Y-175679226D01*
X46064670Y-175536259D01*
X46086719Y-175373630D01*
X46096129Y-175211843D01*
X46097814Y-175055534D01*
X46088264Y-174837150D01*
X45472436Y-175624315D01*
X45209046Y-175624315D01*
X45195986Y-175576059D01*
X45173019Y-175442024D01*
X45160818Y-175304699D01*
X45157386Y-175182772D01*
X45400110Y-175182772D01*
X45404817Y-175294315D01*
X45419069Y-175407476D01*
X46030122Y-174624946D01*
X45989254Y-174506415D01*
X45938275Y-174409793D01*
X45901695Y-174363895D01*
X45858926Y-174332691D01*
X45809140Y-174314051D01*
X45750507Y-174307553D01*
X45672092Y-174319940D01*
X45604051Y-174356751D01*
X45543191Y-174421603D01*
X45489072Y-174522980D01*
X45443949Y-174673123D01*
X45412259Y-174887181D01*
X45400110Y-175182772D01*
X45157386Y-175182772D01*
X45156588Y-175154404D01*
X45164452Y-174943182D01*
X45191136Y-174730276D01*
X45239868Y-174525234D01*
X45274001Y-174432281D01*
X45316127Y-174344629D01*
X45366848Y-174264063D01*
X45422861Y-174198431D01*
X45488599Y-174144541D01*
X45566671Y-174102651D01*
X45652880Y-174076304D01*
X45748962Y-174067260D01*
X45879682Y-174083168D01*
G37*
G36*
X44105786Y-97072086D02*
G01*
X44416860Y-97090905D01*
X44416860Y-99131914D01*
X44159153Y-99131914D01*
X44156063Y-97460120D01*
X44065306Y-97557958D01*
X43906644Y-97697395D01*
X43654834Y-97890708D01*
X43496138Y-97653365D01*
X43679130Y-97533992D01*
X43824485Y-97417848D01*
X43932203Y-97313361D01*
X44010708Y-97220530D01*
X44060986Y-97147502D01*
X44092444Y-97095680D01*
X44105786Y-97072086D01*
G37*
G36*
X45114143Y-98591362D02*
G01*
X45362299Y-98589817D01*
X45374243Y-98679894D01*
X45406568Y-98755512D01*
X45459624Y-98819997D01*
X45528541Y-98867783D01*
X45614922Y-98897905D01*
X45723651Y-98908755D01*
X45843337Y-98896367D01*
X45938993Y-98861825D01*
X46015906Y-98806656D01*
X46074203Y-98732446D01*
X46110062Y-98641865D01*
X46122780Y-98530130D01*
X46110136Y-98402039D01*
X46075592Y-98303882D01*
X46014844Y-98222199D01*
X45918581Y-98151505D01*
X45850407Y-98118540D01*
X45777158Y-98094908D01*
X45655397Y-98073701D01*
X45525771Y-98071314D01*
X45525771Y-97823016D01*
X45550910Y-97823016D01*
X45678100Y-97812842D01*
X45802297Y-97782289D01*
X45895064Y-97736975D01*
X45953831Y-97681734D01*
X45988711Y-97608844D01*
X46001862Y-97502533D01*
X45992721Y-97448495D01*
X45965633Y-97402689D01*
X45917738Y-97362796D01*
X45826734Y-97324591D01*
X45709607Y-97310833D01*
X45612548Y-97324220D01*
X45529048Y-97363361D01*
X45455509Y-97430187D01*
X45390668Y-97530902D01*
X45167510Y-97406753D01*
X45187873Y-97361953D01*
X45246858Y-97279515D01*
X45345868Y-97182050D01*
X45407660Y-97142342D01*
X45494313Y-97104387D01*
X45589579Y-97079168D01*
X45693877Y-97070541D01*
X45711152Y-97070541D01*
X45854198Y-97081411D01*
X45976723Y-97112251D01*
X46084424Y-97168120D01*
X46172215Y-97252832D01*
X46214833Y-97322324D01*
X46240924Y-97402063D01*
X46250018Y-97494669D01*
X46234716Y-97640749D01*
X46191034Y-97764172D01*
X46145369Y-97836020D01*
X46090945Y-97889939D01*
X46027000Y-97928346D01*
X46152253Y-98006299D01*
X46247224Y-98102248D01*
X46315787Y-98217983D01*
X46358835Y-98357566D01*
X46374167Y-98526900D01*
X46364867Y-98635810D01*
X46335687Y-98753289D01*
X46287834Y-98864598D01*
X46223335Y-98959033D01*
X46134603Y-99040482D01*
X46025010Y-99100358D01*
X45890072Y-99138536D01*
X45723651Y-99152278D01*
X45585796Y-99141465D01*
X45468081Y-99110795D01*
X45366994Y-99061794D01*
X45279861Y-98994423D01*
X45207534Y-98910237D01*
X45156306Y-98816437D01*
X45124992Y-98711069D01*
X45114143Y-98591362D01*
G37*
G36*
X44103319Y-125056670D02*
G01*
X44414393Y-125075489D01*
X44414393Y-127116498D01*
X44156686Y-127116498D01*
X44153596Y-125444704D01*
X44062839Y-125542542D01*
X43904177Y-125681979D01*
X43652367Y-125875292D01*
X43493671Y-125637949D01*
X43676663Y-125518576D01*
X43822018Y-125402432D01*
X43929736Y-125297945D01*
X44008241Y-125205114D01*
X44058519Y-125132086D01*
X44089977Y-125080264D01*
X44103319Y-125056670D01*
G37*
G36*
X45226274Y-125072399D02*
G01*
X45441568Y-125077174D01*
X45648998Y-125081808D01*
X46421977Y-125081808D01*
X46486439Y-125081808D01*
X46558625Y-125210592D01*
X46342629Y-125591745D01*
X46143064Y-125920093D01*
X45980435Y-126202798D01*
X45903706Y-126356630D01*
X45849265Y-126485643D01*
X45806616Y-126616776D01*
X45770759Y-126770736D01*
X45747923Y-126931616D01*
X45740143Y-127102314D01*
X45480891Y-127102314D01*
X45493391Y-126892497D01*
X45523304Y-126698550D01*
X45579761Y-126501372D01*
X45648857Y-126315992D01*
X45740003Y-126122747D01*
X45839855Y-125936524D01*
X45960071Y-125736117D01*
X46085765Y-125537395D01*
X46225643Y-125322241D01*
X45914429Y-125325331D01*
X45711774Y-125325331D01*
X45378792Y-125312691D01*
X45312785Y-125494982D01*
X45100581Y-125399202D01*
X45161110Y-125241348D01*
X45226274Y-125072399D01*
G37*
G36*
X43876880Y-160775778D02*
G01*
X43641222Y-160832375D01*
X43620100Y-160746244D01*
X43609904Y-160656405D01*
X43609061Y-160636041D01*
X43608219Y-160617081D01*
X43619232Y-160492873D01*
X43650575Y-160386972D01*
X43701094Y-160295914D01*
X43771550Y-160217250D01*
X43857263Y-160153599D01*
X43952365Y-160108046D01*
X44058664Y-160080052D01*
X44178544Y-160070350D01*
X44341289Y-160084133D01*
X44469133Y-160121938D01*
X44569396Y-160180566D01*
X44647283Y-160259886D01*
X44705309Y-160362844D01*
X44742957Y-160495064D01*
X44756734Y-160664269D01*
X44743210Y-160779446D01*
X44700715Y-160901022D01*
X44624387Y-161031967D01*
X44507032Y-161174908D01*
X44274464Y-161380792D01*
X44026167Y-161600721D01*
X43956921Y-161678569D01*
X43909883Y-161752395D01*
X43878239Y-161826476D01*
X43867470Y-161878791D01*
X44786648Y-161875701D01*
X44786648Y-162119224D01*
X43594175Y-162119224D01*
X43592489Y-162046195D01*
X43590945Y-161969936D01*
X43600354Y-161842698D01*
X43631175Y-161732966D01*
X43684481Y-161623149D01*
X43763016Y-161511855D01*
X43870700Y-161398066D01*
X44104813Y-161200889D01*
X44316877Y-161020986D01*
X44396356Y-160932986D01*
X44455912Y-160839538D01*
X44495580Y-160742762D01*
X44507032Y-160667359D01*
X44497808Y-160569447D01*
X44471587Y-160486651D01*
X44429229Y-160415972D01*
X44370516Y-160361602D01*
X44293182Y-160327716D01*
X44191184Y-160315417D01*
X44089045Y-160326324D01*
X44008414Y-160356632D01*
X43944431Y-160405018D01*
X43897960Y-160470271D01*
X43867731Y-160558457D01*
X43856516Y-160676768D01*
X43861156Y-160720563D01*
X43876880Y-160775778D01*
G37*
G36*
X45541932Y-160775778D02*
G01*
X45306274Y-160832375D01*
X45285152Y-160746244D01*
X45274956Y-160656405D01*
X45274114Y-160636041D01*
X45273271Y-160617081D01*
X45284284Y-160492873D01*
X45315627Y-160386972D01*
X45366147Y-160295914D01*
X45436602Y-160217250D01*
X45522315Y-160153599D01*
X45617418Y-160108046D01*
X45723716Y-160080052D01*
X45843596Y-160070350D01*
X46006342Y-160084133D01*
X46134185Y-160121938D01*
X46234448Y-160180566D01*
X46312335Y-160259886D01*
X46370361Y-160362844D01*
X46408010Y-160495064D01*
X46421786Y-160664269D01*
X46408262Y-160779446D01*
X46365767Y-160901022D01*
X46289440Y-161031967D01*
X46172085Y-161174908D01*
X45939517Y-161380792D01*
X45691219Y-161600721D01*
X45621973Y-161678569D01*
X45574935Y-161752395D01*
X45543291Y-161826476D01*
X45532523Y-161878791D01*
X46451700Y-161875701D01*
X46451700Y-162119224D01*
X45259227Y-162119224D01*
X45257542Y-162046195D01*
X45255997Y-161969936D01*
X45265406Y-161842698D01*
X45296227Y-161732966D01*
X45349533Y-161623149D01*
X45428068Y-161511855D01*
X45535753Y-161398066D01*
X45769866Y-161200889D01*
X45981929Y-161020986D01*
X46061409Y-160932986D01*
X46120965Y-160839538D01*
X46160632Y-160742762D01*
X46172085Y-160667359D01*
X46162860Y-160569447D01*
X46136639Y-160486651D01*
X46094281Y-160415972D01*
X46035569Y-160361602D01*
X45958235Y-160327716D01*
X45856236Y-160315417D01*
X45754098Y-160326324D01*
X45673466Y-160356632D01*
X45609484Y-160405018D01*
X45563012Y-160470271D01*
X45532784Y-160558457D01*
X45521568Y-160676768D01*
X45526209Y-160720563D01*
X45541932Y-160775778D01*
G37*
G36*
X44153299Y-34002404D02*
G01*
X44266102Y-34048571D01*
X44362880Y-34120176D01*
X44437298Y-34208812D01*
X44494510Y-34313802D01*
X44542628Y-34444470D01*
X44577393Y-34582242D01*
X44599225Y-34717063D01*
X44610904Y-34854354D01*
X44614954Y-35004543D01*
X44600985Y-35306796D01*
X44563461Y-35540262D01*
X44507938Y-35717600D01*
X44438372Y-35849809D01*
X44356782Y-35945896D01*
X44262984Y-36012369D01*
X44154569Y-36052654D01*
X44027214Y-36066688D01*
X43896381Y-36051708D01*
X43784534Y-36008546D01*
X43688189Y-35940727D01*
X43613198Y-35855327D01*
X43554983Y-35753698D01*
X43505621Y-35628376D01*
X43482664Y-35543551D01*
X43746054Y-35543551D01*
X43790968Y-35665765D01*
X43844923Y-35750839D01*
X43891672Y-35791825D01*
X43951121Y-35817163D01*
X44027214Y-35826256D01*
X44092040Y-35818419D01*
X44148273Y-35795640D01*
X44197573Y-35760875D01*
X44237733Y-35718679D01*
X44270060Y-35667655D01*
X44299105Y-35598462D01*
X44338288Y-35455495D01*
X44360337Y-35292866D01*
X44369746Y-35131079D01*
X44371432Y-34974770D01*
X44361882Y-34756386D01*
X43746054Y-35543551D01*
X43482664Y-35543551D01*
X43469604Y-35495295D01*
X43446637Y-35361260D01*
X43434436Y-35223935D01*
X43431004Y-35102008D01*
X43673728Y-35102008D01*
X43678435Y-35213551D01*
X43692687Y-35326712D01*
X44303740Y-34544182D01*
X44262872Y-34425651D01*
X44211892Y-34329029D01*
X44175313Y-34283131D01*
X44132544Y-34251927D01*
X44082758Y-34233287D01*
X44024124Y-34226789D01*
X43945710Y-34239176D01*
X43877669Y-34275987D01*
X43816808Y-34340839D01*
X43762690Y-34442216D01*
X43717566Y-34592359D01*
X43685876Y-34806417D01*
X43673728Y-35102008D01*
X43431004Y-35102008D01*
X43430205Y-35073640D01*
X43438070Y-34862418D01*
X43464753Y-34649512D01*
X43513486Y-34444470D01*
X43547618Y-34351517D01*
X43589745Y-34263865D01*
X43640466Y-34183299D01*
X43696479Y-34117667D01*
X43762216Y-34063777D01*
X43840289Y-34021887D01*
X43926498Y-33995540D01*
X44022580Y-33986496D01*
X44153299Y-34002404D01*
G37*
G36*
X46113445Y-35145966D02*
G01*
X46314554Y-35145966D01*
X46314554Y-35387943D01*
X46113445Y-35387943D01*
X46113445Y-36044639D01*
X45868237Y-36044639D01*
X45868237Y-35392718D01*
X45134581Y-35392718D01*
X45040346Y-35188379D01*
X45074411Y-35145966D01*
X45368694Y-35145966D01*
X45868237Y-35145966D01*
X45868237Y-34486040D01*
X45775190Y-34634830D01*
X45635810Y-34826325D01*
X45487420Y-35011378D01*
X45368694Y-35145966D01*
X45074411Y-35145966D01*
X45140058Y-35064230D01*
X45342712Y-34805821D01*
X45567416Y-34504157D01*
X45678301Y-34344183D01*
X45766138Y-34202492D01*
X45834354Y-34068044D01*
X45857283Y-33989586D01*
X46113445Y-33989586D01*
X46113445Y-35145966D01*
G37*
G36*
X44134275Y-40927075D02*
G01*
X44247078Y-40973242D01*
X44343856Y-41044847D01*
X44418274Y-41133483D01*
X44475486Y-41238473D01*
X44523604Y-41369141D01*
X44558369Y-41506913D01*
X44580201Y-41641734D01*
X44591880Y-41779025D01*
X44595930Y-41929214D01*
X44581961Y-42231467D01*
X44544437Y-42464933D01*
X44488914Y-42642271D01*
X44419348Y-42774480D01*
X44337758Y-42870567D01*
X44243960Y-42937040D01*
X44135545Y-42977325D01*
X44008190Y-42991359D01*
X43877357Y-42976379D01*
X43765510Y-42933217D01*
X43669165Y-42865398D01*
X43594174Y-42779998D01*
X43535959Y-42678369D01*
X43486597Y-42553047D01*
X43463640Y-42468222D01*
X43727030Y-42468222D01*
X43771944Y-42590436D01*
X43825899Y-42675510D01*
X43872648Y-42716496D01*
X43932097Y-42741834D01*
X44008190Y-42750927D01*
X44073016Y-42743090D01*
X44129249Y-42720311D01*
X44178549Y-42685546D01*
X44218709Y-42643350D01*
X44251036Y-42592326D01*
X44280081Y-42523133D01*
X44319264Y-42380166D01*
X44341313Y-42217537D01*
X44350722Y-42055750D01*
X44352408Y-41899441D01*
X44342858Y-41681057D01*
X43727030Y-42468222D01*
X43463640Y-42468222D01*
X43450580Y-42419966D01*
X43427613Y-42285931D01*
X43415412Y-42148606D01*
X43411980Y-42026679D01*
X43654704Y-42026679D01*
X43659411Y-42138222D01*
X43673663Y-42251383D01*
X44284716Y-41468853D01*
X44243848Y-41350322D01*
X44192868Y-41253700D01*
X44156289Y-41207802D01*
X44113520Y-41176598D01*
X44063734Y-41157958D01*
X44005100Y-41151460D01*
X43926686Y-41163847D01*
X43858645Y-41200658D01*
X43797784Y-41265510D01*
X43743666Y-41366887D01*
X43698542Y-41517030D01*
X43666852Y-41731088D01*
X43654704Y-42026679D01*
X43411980Y-42026679D01*
X43411181Y-41998311D01*
X43419046Y-41787089D01*
X43445729Y-41574183D01*
X43494462Y-41369141D01*
X43528594Y-41276188D01*
X43570721Y-41188536D01*
X43621442Y-41107970D01*
X43677455Y-41042338D01*
X43743192Y-40988448D01*
X43821265Y-40946558D01*
X43907474Y-40920211D01*
X44003556Y-40911167D01*
X44134275Y-40927075D01*
G37*
G36*
X45660743Y-41817705D02*
G01*
X45567564Y-41827568D01*
X45478440Y-41857191D01*
X45391579Y-41907920D01*
X45305712Y-41982722D01*
X45300937Y-41987356D01*
X45102917Y-41902531D01*
X45175243Y-40942485D01*
X46116329Y-40945715D01*
X46116329Y-41187693D01*
X45396717Y-41187693D01*
X45360624Y-41654233D01*
X45458635Y-41606471D01*
X45556599Y-41578613D01*
X45655968Y-41569408D01*
X45814488Y-41586507D01*
X45959318Y-41636959D01*
X46048668Y-41696272D01*
X46129378Y-41775029D01*
X46201998Y-41875847D01*
X46255499Y-41987496D01*
X46288613Y-42114241D01*
X46300165Y-42259247D01*
X46287265Y-42429432D01*
X46251216Y-42570144D01*
X46194578Y-42686710D01*
X46117874Y-42783228D01*
X46021447Y-42862346D01*
X45911572Y-42919612D01*
X45785704Y-42955655D01*
X45640380Y-42969310D01*
X45637149Y-42969310D01*
X45513750Y-42957440D01*
X45403343Y-42922870D01*
X45303184Y-42865666D01*
X45213332Y-42790870D01*
X45134197Y-42703767D01*
X45065279Y-42603324D01*
X45274253Y-42464991D01*
X45352453Y-42574673D01*
X45433652Y-42654304D01*
X45494952Y-42692873D01*
X45563691Y-42716196D01*
X45641924Y-42724243D01*
X45767552Y-42709833D01*
X45866564Y-42669647D01*
X45945134Y-42604869D01*
X46001974Y-42519129D01*
X46038590Y-42407451D01*
X46052008Y-42262337D01*
X46036951Y-42109640D01*
X45996514Y-41997415D01*
X45934366Y-41915727D01*
X45849213Y-41858573D01*
X45759675Y-41828089D01*
X45660743Y-41817705D01*
G37*
G36*
X44243319Y-103926670D02*
G01*
X44554393Y-103945489D01*
X44554393Y-105986498D01*
X44296686Y-105986498D01*
X44293596Y-104314704D01*
X44202839Y-104412542D01*
X44044177Y-104551979D01*
X43792367Y-104745292D01*
X43633671Y-104507949D01*
X43816663Y-104388576D01*
X43962018Y-104272432D01*
X44069736Y-104167945D01*
X44148241Y-104075114D01*
X44198519Y-104002086D01*
X44229977Y-103950264D01*
X44243319Y-103926670D01*
G37*
G36*
X46324775Y-105076730D02*
G01*
X46525884Y-105076730D01*
X46525884Y-105318707D01*
X46324775Y-105318707D01*
X46324775Y-105975403D01*
X46079567Y-105975403D01*
X46079567Y-105323482D01*
X45345911Y-105323482D01*
X45251676Y-105119143D01*
X45285741Y-105076730D01*
X45580024Y-105076730D01*
X46079567Y-105076730D01*
X46079567Y-104416804D01*
X45986520Y-104565594D01*
X45847140Y-104757089D01*
X45698750Y-104942142D01*
X45580024Y-105076730D01*
X45285741Y-105076730D01*
X45351388Y-104994994D01*
X45554042Y-104736585D01*
X45778746Y-104434921D01*
X45889631Y-104274947D01*
X45977468Y-104133256D01*
X46045684Y-103998808D01*
X46068613Y-103920350D01*
X46324775Y-103920350D01*
X46324775Y-105076730D01*
G37*
G36*
X44103319Y-89989471D02*
G01*
X44414393Y-90008290D01*
X44414393Y-92049299D01*
X44156686Y-92049299D01*
X44153596Y-90377505D01*
X44062839Y-90475343D01*
X43904177Y-90614780D01*
X43652367Y-90808093D01*
X43493671Y-90570750D01*
X43676663Y-90451377D01*
X43822018Y-90335233D01*
X43929736Y-90230746D01*
X44008241Y-90137915D01*
X44058519Y-90064887D01*
X44089977Y-90013065D01*
X44103319Y-89989471D01*
G37*
G36*
X45461932Y-90688579D02*
G01*
X45226274Y-90745176D01*
X45205152Y-90659045D01*
X45194956Y-90569206D01*
X45194114Y-90548842D01*
X45193271Y-90529882D01*
X45204284Y-90405674D01*
X45235627Y-90299773D01*
X45286147Y-90208715D01*
X45356602Y-90130051D01*
X45442315Y-90066400D01*
X45537418Y-90020847D01*
X45643716Y-89992853D01*
X45763596Y-89983151D01*
X45926342Y-89996934D01*
X46054185Y-90034739D01*
X46154448Y-90093367D01*
X46232335Y-90172687D01*
X46290361Y-90275645D01*
X46328010Y-90407865D01*
X46341786Y-90577070D01*
X46328262Y-90692247D01*
X46285767Y-90813823D01*
X46209440Y-90944768D01*
X46092085Y-91087709D01*
X45859517Y-91293593D01*
X45611219Y-91513522D01*
X45541973Y-91591370D01*
X45494935Y-91665196D01*
X45463291Y-91739277D01*
X45452523Y-91791592D01*
X46371700Y-91788502D01*
X46371700Y-92032025D01*
X45179227Y-92032025D01*
X45177542Y-91958996D01*
X45175997Y-91882737D01*
X45185406Y-91755499D01*
X45216227Y-91645767D01*
X45269533Y-91535950D01*
X45348068Y-91424656D01*
X45455753Y-91310867D01*
X45689866Y-91113690D01*
X45901929Y-90933787D01*
X45981409Y-90845787D01*
X46040965Y-90752339D01*
X46080632Y-90655563D01*
X46092085Y-90580160D01*
X46082860Y-90482248D01*
X46056639Y-90399452D01*
X46014281Y-90328773D01*
X45955569Y-90274403D01*
X45878235Y-90240517D01*
X45776236Y-90228218D01*
X45674098Y-90239125D01*
X45593466Y-90269433D01*
X45529484Y-90317819D01*
X45483012Y-90383072D01*
X45452784Y-90471258D01*
X45441568Y-90589569D01*
X45446209Y-90633364D01*
X45461932Y-90688579D01*
G37*
G36*
X44315595Y-48033981D02*
G01*
X44428398Y-48080148D01*
X44525176Y-48151753D01*
X44599594Y-48240389D01*
X44656806Y-48345379D01*
X44704924Y-48476047D01*
X44739689Y-48613819D01*
X44761521Y-48748640D01*
X44773200Y-48885931D01*
X44777250Y-49036120D01*
X44763281Y-49338373D01*
X44725757Y-49571839D01*
X44670234Y-49749177D01*
X44600668Y-49881386D01*
X44519078Y-49977473D01*
X44425280Y-50043946D01*
X44316865Y-50084231D01*
X44189510Y-50098265D01*
X44058677Y-50083285D01*
X43946830Y-50040123D01*
X43850485Y-49972304D01*
X43775494Y-49886904D01*
X43717279Y-49785275D01*
X43667917Y-49659953D01*
X43644960Y-49575128D01*
X43908350Y-49575128D01*
X43953264Y-49697342D01*
X44007219Y-49782416D01*
X44053968Y-49823402D01*
X44113417Y-49848740D01*
X44189510Y-49857833D01*
X44254336Y-49849996D01*
X44310569Y-49827217D01*
X44359869Y-49792452D01*
X44400029Y-49750256D01*
X44432356Y-49699232D01*
X44461401Y-49630039D01*
X44500584Y-49487072D01*
X44522633Y-49324443D01*
X44532042Y-49162656D01*
X44533728Y-49006347D01*
X44524178Y-48787963D01*
X43908350Y-49575128D01*
X43644960Y-49575128D01*
X43631900Y-49526872D01*
X43608933Y-49392837D01*
X43596732Y-49255512D01*
X43593300Y-49133585D01*
X43836024Y-49133585D01*
X43840731Y-49245128D01*
X43854983Y-49358289D01*
X44466036Y-48575759D01*
X44425168Y-48457228D01*
X44374188Y-48360606D01*
X44337609Y-48314708D01*
X44294840Y-48283504D01*
X44245054Y-48264864D01*
X44186420Y-48258366D01*
X44108006Y-48270753D01*
X44039965Y-48307564D01*
X43979104Y-48372416D01*
X43924986Y-48473793D01*
X43879862Y-48623936D01*
X43848172Y-48837994D01*
X43836024Y-49133585D01*
X43593300Y-49133585D01*
X43592501Y-49105217D01*
X43600366Y-48893995D01*
X43627049Y-48681089D01*
X43675782Y-48476047D01*
X43709914Y-48383094D01*
X43752041Y-48295442D01*
X43802762Y-48214876D01*
X43858775Y-48149244D01*
X43924512Y-48095354D01*
X44002585Y-48053464D01*
X44088794Y-48027117D01*
X44184876Y-48018073D01*
X44315595Y-48033981D01*
G37*
G36*
X46294560Y-48253731D02*
G01*
X46127457Y-48281309D01*
X45979084Y-48330281D01*
X45846698Y-48399929D01*
X45729604Y-48491091D01*
X45641109Y-48594825D01*
X45578037Y-48712547D01*
X45540478Y-48830625D01*
X45507396Y-49001572D01*
X45574947Y-48945818D01*
X45644886Y-48904247D01*
X45696603Y-48881825D01*
X45755552Y-48867312D01*
X45901750Y-48857060D01*
X46029449Y-48868439D01*
X46140788Y-48901135D01*
X46238866Y-48954344D01*
X46325878Y-49029098D01*
X46396282Y-49119667D01*
X46446974Y-49222422D01*
X46478376Y-49339690D01*
X46489350Y-49474573D01*
X46476973Y-49622601D01*
X46442414Y-49743909D01*
X46387904Y-49843638D01*
X46313379Y-49925524D01*
X46221778Y-49990136D01*
X46115197Y-50037534D01*
X45990835Y-50067362D01*
X45845153Y-50077901D01*
X45700332Y-50063190D01*
X45578644Y-50021349D01*
X45475262Y-49953404D01*
X45387179Y-49857130D01*
X45320397Y-49744124D01*
X45270642Y-49611606D01*
X45239011Y-49456101D01*
X45234438Y-49381742D01*
X45491666Y-49381742D01*
X45503510Y-49510450D01*
X45536979Y-49618041D01*
X45590676Y-49708686D01*
X45664192Y-49781128D01*
X45747761Y-49823153D01*
X45845153Y-49837469D01*
X45959074Y-49826256D01*
X46052695Y-49794705D01*
X46130245Y-49744076D01*
X46189561Y-49674840D01*
X46226312Y-49586923D01*
X46239507Y-49474573D01*
X46228242Y-49369302D01*
X46196141Y-49280966D01*
X46143728Y-49205912D01*
X46073803Y-49148061D01*
X45989826Y-49112932D01*
X45887566Y-49100582D01*
X45791113Y-49110489D01*
X45704413Y-49139468D01*
X45625225Y-49187795D01*
X45557303Y-49251377D01*
X45514192Y-49315580D01*
X45491666Y-49381742D01*
X45234438Y-49381742D01*
X45227780Y-49273463D01*
X45241623Y-49039069D01*
X45282192Y-48820341D01*
X45348699Y-48615082D01*
X45407452Y-48494133D01*
X45482654Y-48386249D01*
X45575125Y-48290112D01*
X45686456Y-48204998D01*
X45850743Y-48116516D01*
X46039474Y-48052153D01*
X46256782Y-48013298D01*
X46294560Y-48253731D01*
G37*
G36*
X44304629Y-180763168D02*
G01*
X44417432Y-180809335D01*
X44514210Y-180880940D01*
X44588628Y-180969576D01*
X44645840Y-181074566D01*
X44693958Y-181205234D01*
X44728723Y-181343006D01*
X44750555Y-181477827D01*
X44762234Y-181615118D01*
X44766284Y-181765307D01*
X44752315Y-182067560D01*
X44714791Y-182301026D01*
X44659268Y-182478364D01*
X44589702Y-182610573D01*
X44508112Y-182706660D01*
X44414314Y-182773133D01*
X44305899Y-182813418D01*
X44178544Y-182827452D01*
X44047711Y-182812472D01*
X43935864Y-182769310D01*
X43839519Y-182701491D01*
X43764528Y-182616091D01*
X43706313Y-182514462D01*
X43656951Y-182389140D01*
X43633994Y-182304315D01*
X43897384Y-182304315D01*
X43942298Y-182426529D01*
X43996253Y-182511603D01*
X44043002Y-182552589D01*
X44102451Y-182577927D01*
X44178544Y-182587020D01*
X44243370Y-182579183D01*
X44299603Y-182556404D01*
X44348903Y-182521639D01*
X44389063Y-182479443D01*
X44421390Y-182428419D01*
X44450435Y-182359226D01*
X44489618Y-182216259D01*
X44511667Y-182053630D01*
X44521076Y-181891843D01*
X44522762Y-181735534D01*
X44513212Y-181517150D01*
X43897384Y-182304315D01*
X43633994Y-182304315D01*
X43620934Y-182256059D01*
X43597967Y-182122024D01*
X43585766Y-181984699D01*
X43582334Y-181862772D01*
X43825058Y-181862772D01*
X43829765Y-181974315D01*
X43844017Y-182087476D01*
X44455070Y-181304946D01*
X44414202Y-181186415D01*
X44363222Y-181089793D01*
X44326643Y-181043895D01*
X44283874Y-181012691D01*
X44234088Y-180994051D01*
X44175454Y-180987553D01*
X44097040Y-180999940D01*
X44028999Y-181036751D01*
X43968138Y-181101603D01*
X43914020Y-181202980D01*
X43868896Y-181353123D01*
X43837206Y-181567181D01*
X43825058Y-181862772D01*
X43582334Y-181862772D01*
X43581535Y-181834404D01*
X43589400Y-181623182D01*
X43616083Y-181410276D01*
X43664816Y-181205234D01*
X43698948Y-181112281D01*
X43741075Y-181024629D01*
X43791796Y-180944063D01*
X43847809Y-180878431D01*
X43913546Y-180824541D01*
X43991619Y-180782651D01*
X44077828Y-180756304D01*
X44173910Y-180747260D01*
X44304629Y-180763168D01*
G37*
G36*
X45848371Y-180756670D02*
G01*
X46159445Y-180775489D01*
X46159445Y-182816498D01*
X45901738Y-182816498D01*
X45898649Y-181144704D01*
X45807892Y-181242542D01*
X45649230Y-181381979D01*
X45397420Y-181575292D01*
X45238723Y-181337949D01*
X45421716Y-181218576D01*
X45567071Y-181102432D01*
X45674788Y-180997945D01*
X45753294Y-180905114D01*
X45803571Y-180832086D01*
X45835030Y-180780264D01*
X45848371Y-180756670D01*
G37*
G36*
X44063319Y-117876670D02*
G01*
X44374393Y-117895489D01*
X44374393Y-119936498D01*
X44116686Y-119936498D01*
X44113596Y-118264704D01*
X44022839Y-118362542D01*
X43864177Y-118501979D01*
X43612367Y-118695292D01*
X43453671Y-118457949D01*
X43636663Y-118338576D01*
X43782018Y-118222432D01*
X43889736Y-118117945D01*
X43968241Y-118025114D01*
X44018519Y-117952086D01*
X44049977Y-117900264D01*
X44063319Y-117876670D01*
G37*
G36*
X46163594Y-118102918D02*
G01*
X45996491Y-118130496D01*
X45848118Y-118179468D01*
X45715732Y-118249116D01*
X45598638Y-118340278D01*
X45510143Y-118444012D01*
X45447071Y-118561734D01*
X45409512Y-118679812D01*
X45376430Y-118850759D01*
X45443981Y-118795005D01*
X45513920Y-118753434D01*
X45565637Y-118731012D01*
X45624586Y-118716499D01*
X45770784Y-118706247D01*
X45898483Y-118717626D01*
X46009822Y-118750322D01*
X46107900Y-118803531D01*
X46194912Y-118878285D01*
X46265316Y-118968854D01*
X46316008Y-119071609D01*
X46347410Y-119188877D01*
X46358384Y-119323760D01*
X46346007Y-119471788D01*
X46311448Y-119593096D01*
X46256938Y-119692825D01*
X46182413Y-119774711D01*
X46090812Y-119839323D01*
X45984231Y-119886721D01*
X45859869Y-119916549D01*
X45714187Y-119927088D01*
X45569366Y-119912377D01*
X45447678Y-119870536D01*
X45344296Y-119802591D01*
X45256213Y-119706317D01*
X45189431Y-119593311D01*
X45139676Y-119460793D01*
X45108045Y-119305288D01*
X45103472Y-119230929D01*
X45360700Y-119230929D01*
X45372544Y-119359637D01*
X45406013Y-119467228D01*
X45459710Y-119557873D01*
X45533226Y-119630315D01*
X45616795Y-119672340D01*
X45714187Y-119686656D01*
X45828108Y-119675443D01*
X45921729Y-119643892D01*
X45999279Y-119593263D01*
X46058595Y-119524027D01*
X46095346Y-119436110D01*
X46108541Y-119323760D01*
X46097276Y-119218489D01*
X46065175Y-119130153D01*
X46012762Y-119055099D01*
X45942837Y-118997248D01*
X45858860Y-118962119D01*
X45756600Y-118949769D01*
X45660147Y-118959676D01*
X45573447Y-118988655D01*
X45494259Y-119036982D01*
X45426337Y-119100564D01*
X45383226Y-119164767D01*
X45360700Y-119230929D01*
X45103472Y-119230929D01*
X45096814Y-119122650D01*
X45110657Y-118888256D01*
X45151226Y-118669528D01*
X45217733Y-118464269D01*
X45276486Y-118343320D01*
X45351688Y-118235436D01*
X45444159Y-118139299D01*
X45555490Y-118054185D01*
X45719777Y-117965703D01*
X45908508Y-117901340D01*
X46125816Y-117862485D01*
X46163594Y-118102918D01*
G37*
G36*
X44384629Y-187993168D02*
G01*
X44497432Y-188039335D01*
X44594210Y-188110940D01*
X44668628Y-188199576D01*
X44725840Y-188304566D01*
X44773958Y-188435234D01*
X44808723Y-188573006D01*
X44830555Y-188707827D01*
X44842234Y-188845118D01*
X44846284Y-188995307D01*
X44832315Y-189297560D01*
X44794791Y-189531026D01*
X44739268Y-189708364D01*
X44669702Y-189840573D01*
X44588112Y-189936660D01*
X44494314Y-190003133D01*
X44385899Y-190043418D01*
X44258544Y-190057452D01*
X44127711Y-190042472D01*
X44015864Y-189999310D01*
X43919519Y-189931491D01*
X43844528Y-189846091D01*
X43786313Y-189744462D01*
X43736951Y-189619140D01*
X43713994Y-189534315D01*
X43977384Y-189534315D01*
X44022298Y-189656529D01*
X44076253Y-189741603D01*
X44123002Y-189782589D01*
X44182451Y-189807927D01*
X44258544Y-189817020D01*
X44323370Y-189809183D01*
X44379603Y-189786404D01*
X44428903Y-189751639D01*
X44469063Y-189709443D01*
X44501390Y-189658419D01*
X44530435Y-189589226D01*
X44569618Y-189446259D01*
X44591667Y-189283630D01*
X44601076Y-189121843D01*
X44602762Y-188965534D01*
X44593212Y-188747150D01*
X43977384Y-189534315D01*
X43713994Y-189534315D01*
X43700934Y-189486059D01*
X43677967Y-189352024D01*
X43665766Y-189214699D01*
X43662334Y-189092772D01*
X43905058Y-189092772D01*
X43909765Y-189204315D01*
X43924017Y-189317476D01*
X44535070Y-188534946D01*
X44494202Y-188416415D01*
X44443222Y-188319793D01*
X44406643Y-188273895D01*
X44363874Y-188242691D01*
X44314088Y-188224051D01*
X44255454Y-188217553D01*
X44177040Y-188229940D01*
X44108999Y-188266751D01*
X44048138Y-188331603D01*
X43994020Y-188432980D01*
X43948896Y-188583123D01*
X43917206Y-188797181D01*
X43905058Y-189092772D01*
X43662334Y-189092772D01*
X43661535Y-189064404D01*
X43669400Y-188853182D01*
X43696083Y-188640276D01*
X43744816Y-188435234D01*
X43778948Y-188342281D01*
X43821075Y-188254629D01*
X43871796Y-188174063D01*
X43927809Y-188108431D01*
X43993546Y-188054541D01*
X44071619Y-188012651D01*
X44157828Y-187986304D01*
X44253910Y-187977260D01*
X44384629Y-187993168D01*
G37*
G36*
X45621932Y-188685778D02*
G01*
X45386274Y-188742375D01*
X45365152Y-188656244D01*
X45354956Y-188566405D01*
X45354114Y-188546041D01*
X45353271Y-188527081D01*
X45364284Y-188402873D01*
X45395627Y-188296972D01*
X45446147Y-188205914D01*
X45516602Y-188127250D01*
X45602315Y-188063599D01*
X45697418Y-188018046D01*
X45803716Y-187990052D01*
X45923596Y-187980350D01*
X46086342Y-187994133D01*
X46214185Y-188031938D01*
X46314448Y-188090566D01*
X46392335Y-188169886D01*
X46450361Y-188272844D01*
X46488010Y-188405064D01*
X46501786Y-188574269D01*
X46488262Y-188689446D01*
X46445767Y-188811022D01*
X46369440Y-188941967D01*
X46252085Y-189084908D01*
X46019517Y-189290792D01*
X45771219Y-189510721D01*
X45701973Y-189588569D01*
X45654935Y-189662395D01*
X45623291Y-189736476D01*
X45612523Y-189788791D01*
X46531700Y-189785701D01*
X46531700Y-190029224D01*
X45339227Y-190029224D01*
X45337542Y-189956195D01*
X45335997Y-189879936D01*
X45345406Y-189752698D01*
X45376227Y-189642966D01*
X45429533Y-189533149D01*
X45508068Y-189421855D01*
X45615753Y-189308066D01*
X45849866Y-189110889D01*
X46061929Y-188930986D01*
X46141409Y-188842986D01*
X46200965Y-188749538D01*
X46240632Y-188652762D01*
X46252085Y-188577359D01*
X46242860Y-188479447D01*
X46216639Y-188396651D01*
X46174281Y-188325972D01*
X46115569Y-188271602D01*
X46038235Y-188237716D01*
X45936236Y-188225417D01*
X45834098Y-188236324D01*
X45753466Y-188266632D01*
X45689484Y-188315018D01*
X45643012Y-188380271D01*
X45612784Y-188468457D01*
X45601568Y-188586768D01*
X45606209Y-188630563D01*
X45621932Y-188685778D01*
G37*
G36*
X44063319Y-132056670D02*
G01*
X44374393Y-132075489D01*
X44374393Y-134116498D01*
X44116686Y-134116498D01*
X44113596Y-132444704D01*
X44022839Y-132542542D01*
X43864177Y-132681979D01*
X43612367Y-132875292D01*
X43453671Y-132637949D01*
X43636663Y-132518576D01*
X43782018Y-132402432D01*
X43889736Y-132297945D01*
X43968241Y-132205114D01*
X44018519Y-132132086D01*
X44049977Y-132080264D01*
X44063319Y-132056670D01*
G37*
G36*
X45836267Y-132080377D02*
G01*
X45941521Y-132107187D01*
X46030352Y-132149640D01*
X46105452Y-132207502D01*
X46184582Y-132306307D01*
X46231993Y-132420441D01*
X46248419Y-132554669D01*
X46239982Y-132630855D01*
X46214163Y-132706840D01*
X46169071Y-132784147D01*
X46080735Y-132881022D01*
X45981303Y-132942844D01*
X46080692Y-133000346D01*
X46172655Y-133074241D01*
X46257829Y-133166002D01*
X46324143Y-133269637D01*
X46363710Y-133382754D01*
X46377203Y-133508394D01*
X46365346Y-133638007D01*
X46331105Y-133752170D01*
X46275030Y-133853898D01*
X46195754Y-133945302D01*
X46100415Y-134018486D01*
X45990386Y-134071625D01*
X45862868Y-134104819D01*
X45714187Y-134116498D01*
X45565585Y-134104823D01*
X45438087Y-134071636D01*
X45328028Y-134018496D01*
X45232619Y-133945302D01*
X45153344Y-133853898D01*
X45097269Y-133752170D01*
X45063027Y-133638007D01*
X45052610Y-133524124D01*
X45301014Y-133524124D01*
X45313859Y-133625866D01*
X45350433Y-133708990D01*
X45410978Y-133777898D01*
X45489351Y-133827858D01*
X45588529Y-133859732D01*
X45714187Y-133871290D01*
X45839845Y-133859732D01*
X45939023Y-133827858D01*
X46017396Y-133777898D01*
X46078025Y-133708979D01*
X46114642Y-133625855D01*
X46127501Y-133524124D01*
X46119099Y-133441921D01*
X46094498Y-133367814D01*
X46054063Y-133301037D01*
X45997032Y-133241419D01*
X45868951Y-133148728D01*
X45714187Y-133070082D01*
X45559423Y-133148728D01*
X45431342Y-133241419D01*
X45374425Y-133301027D01*
X45334017Y-133367814D01*
X45309416Y-133441921D01*
X45301014Y-133524124D01*
X45052610Y-133524124D01*
X45051171Y-133508394D01*
X45064664Y-133382754D01*
X45104231Y-133269637D01*
X45170545Y-133166002D01*
X45255798Y-133074226D01*
X45347763Y-133000332D01*
X45447071Y-132942844D01*
X45347078Y-132879972D01*
X45256213Y-132782602D01*
X45209190Y-132705111D01*
X45182463Y-132629678D01*
X45173775Y-132554669D01*
X45174531Y-132548489D01*
X45420387Y-132548489D01*
X45428643Y-132597567D01*
X45455046Y-132648717D01*
X45504370Y-132703956D01*
X45597222Y-132768677D01*
X45714187Y-132812375D01*
X45829483Y-132768832D01*
X45920071Y-132704799D01*
X45967820Y-132650152D01*
X45993653Y-132598679D01*
X46001807Y-132548489D01*
X45993193Y-132487032D01*
X45967771Y-132433015D01*
X45924004Y-132384315D01*
X45868521Y-132348462D01*
X45798837Y-132325693D01*
X45711097Y-132317466D01*
X45623357Y-132325693D01*
X45553674Y-132348462D01*
X45498191Y-132384315D01*
X45454424Y-132433015D01*
X45429002Y-132487032D01*
X45420387Y-132548489D01*
X45174531Y-132548489D01*
X45190201Y-132420441D01*
X45237613Y-132306307D01*
X45316743Y-132207502D01*
X45391843Y-132149640D01*
X45480674Y-132107187D01*
X45585928Y-132080377D01*
X45711097Y-132070854D01*
X45836267Y-132080377D01*
G37*
G36*
X43741593Y-146530478D02*
G01*
X43505935Y-146587075D01*
X43484813Y-146500944D01*
X43474617Y-146411105D01*
X43473774Y-146390741D01*
X43472932Y-146371781D01*
X43483945Y-146247573D01*
X43515288Y-146141672D01*
X43565807Y-146050614D01*
X43636263Y-145971950D01*
X43721976Y-145908299D01*
X43817078Y-145862746D01*
X43923377Y-145834752D01*
X44043257Y-145825050D01*
X44206002Y-145838833D01*
X44333846Y-145876638D01*
X44434109Y-145935266D01*
X44511996Y-146014586D01*
X44570022Y-146117544D01*
X44607670Y-146249764D01*
X44621447Y-146418969D01*
X44607923Y-146534146D01*
X44565428Y-146655722D01*
X44489100Y-146786667D01*
X44371745Y-146929608D01*
X44139177Y-147135492D01*
X43890880Y-147355421D01*
X43821634Y-147433269D01*
X43774596Y-147507095D01*
X43742952Y-147581176D01*
X43732183Y-147633491D01*
X44651361Y-147630401D01*
X44651361Y-147873924D01*
X43458888Y-147873924D01*
X43457202Y-147800895D01*
X43455658Y-147724636D01*
X43465067Y-147597398D01*
X43495888Y-147487666D01*
X43549194Y-147377849D01*
X43627729Y-147266555D01*
X43735413Y-147152766D01*
X43969526Y-146955589D01*
X44181590Y-146775686D01*
X44261069Y-146687686D01*
X44320625Y-146594238D01*
X44360293Y-146497462D01*
X44371745Y-146422059D01*
X44362521Y-146324147D01*
X44336300Y-146241351D01*
X44293942Y-146170672D01*
X44235229Y-146116302D01*
X44157895Y-146082416D01*
X44055897Y-146070117D01*
X43953758Y-146081024D01*
X43873127Y-146111332D01*
X43809144Y-146159718D01*
X43762673Y-146224971D01*
X43732444Y-146313157D01*
X43721229Y-146431468D01*
X43725869Y-146475263D01*
X43741593Y-146530478D01*
G37*
G36*
X45834395Y-145837868D02*
G01*
X45947197Y-145884035D01*
X46043975Y-145955640D01*
X46118393Y-146044276D01*
X46175605Y-146149266D01*
X46223723Y-146279934D01*
X46258488Y-146417706D01*
X46280320Y-146552527D01*
X46292000Y-146689818D01*
X46296049Y-146840007D01*
X46282080Y-147142260D01*
X46244556Y-147375726D01*
X46189034Y-147553064D01*
X46119467Y-147685273D01*
X46037877Y-147781360D01*
X45944080Y-147847833D01*
X45835664Y-147888118D01*
X45708309Y-147902152D01*
X45577476Y-147887172D01*
X45465630Y-147844010D01*
X45369284Y-147776191D01*
X45294293Y-147690791D01*
X45236078Y-147589162D01*
X45186717Y-147463840D01*
X45163759Y-147379015D01*
X45427149Y-147379015D01*
X45472064Y-147501229D01*
X45526019Y-147586303D01*
X45572768Y-147627289D01*
X45632216Y-147652627D01*
X45708309Y-147661720D01*
X45773136Y-147653883D01*
X45829368Y-147631104D01*
X45878668Y-147596339D01*
X45918828Y-147554143D01*
X45951155Y-147503119D01*
X45980201Y-147433926D01*
X46019383Y-147290959D01*
X46041432Y-147128330D01*
X46050842Y-146966543D01*
X46052527Y-146810234D01*
X46042977Y-146591850D01*
X45427149Y-147379015D01*
X45163759Y-147379015D01*
X45150699Y-147330759D01*
X45127732Y-147196724D01*
X45115531Y-147059399D01*
X45112099Y-146937472D01*
X45354823Y-146937472D01*
X45359530Y-147049015D01*
X45373782Y-147162176D01*
X45984835Y-146379646D01*
X45943967Y-146261115D01*
X45892988Y-146164493D01*
X45856408Y-146118595D01*
X45813639Y-146087391D01*
X45763853Y-146068751D01*
X45705220Y-146062253D01*
X45626805Y-146074640D01*
X45558764Y-146111451D01*
X45497904Y-146176303D01*
X45443785Y-146277680D01*
X45398662Y-146427823D01*
X45366972Y-146641881D01*
X45354823Y-146937472D01*
X45112099Y-146937472D01*
X45111301Y-146909104D01*
X45119165Y-146697882D01*
X45145849Y-146484976D01*
X45194581Y-146279934D01*
X45228714Y-146186981D01*
X45270840Y-146099329D01*
X45321561Y-146018763D01*
X45377574Y-145953131D01*
X45443312Y-145899241D01*
X45521384Y-145857351D01*
X45607593Y-145831004D01*
X45703675Y-145821960D01*
X45834395Y-145837868D01*
G37*
G36*
X44224297Y-26901014D02*
G01*
X44337100Y-26947181D01*
X44433878Y-27018786D01*
X44508296Y-27107422D01*
X44565508Y-27212412D01*
X44613626Y-27343080D01*
X44648391Y-27480852D01*
X44670223Y-27615673D01*
X44681902Y-27752964D01*
X44685952Y-27903153D01*
X44671983Y-28205406D01*
X44634459Y-28438872D01*
X44578936Y-28616210D01*
X44509370Y-28748419D01*
X44427780Y-28844506D01*
X44333982Y-28910979D01*
X44225567Y-28951264D01*
X44098212Y-28965298D01*
X43967379Y-28950318D01*
X43855532Y-28907156D01*
X43759187Y-28839337D01*
X43684196Y-28753937D01*
X43625981Y-28652308D01*
X43576619Y-28526986D01*
X43553662Y-28442161D01*
X43817052Y-28442161D01*
X43861966Y-28564375D01*
X43915921Y-28649449D01*
X43962670Y-28690435D01*
X44022119Y-28715773D01*
X44098212Y-28724866D01*
X44163038Y-28717029D01*
X44219271Y-28694250D01*
X44268571Y-28659485D01*
X44308731Y-28617289D01*
X44341058Y-28566265D01*
X44370103Y-28497072D01*
X44409286Y-28354105D01*
X44431335Y-28191476D01*
X44440744Y-28029689D01*
X44442430Y-27873380D01*
X44432880Y-27654996D01*
X43817052Y-28442161D01*
X43553662Y-28442161D01*
X43540602Y-28393905D01*
X43517635Y-28259870D01*
X43505434Y-28122545D01*
X43502002Y-28000618D01*
X43744726Y-28000618D01*
X43749433Y-28112161D01*
X43763685Y-28225322D01*
X44374738Y-27442792D01*
X44333870Y-27324261D01*
X44282890Y-27227639D01*
X44246311Y-27181741D01*
X44203542Y-27150537D01*
X44153756Y-27131897D01*
X44095122Y-27125399D01*
X44016708Y-27137786D01*
X43948667Y-27174597D01*
X43887806Y-27239449D01*
X43833688Y-27340826D01*
X43788564Y-27490969D01*
X43756874Y-27705027D01*
X43744726Y-28000618D01*
X43502002Y-28000618D01*
X43501203Y-27972250D01*
X43509068Y-27761028D01*
X43535751Y-27548122D01*
X43584484Y-27343080D01*
X43618616Y-27250127D01*
X43660743Y-27162475D01*
X43711464Y-27081909D01*
X43767477Y-27016277D01*
X43833214Y-26962387D01*
X43911287Y-26920497D01*
X43997496Y-26894150D01*
X44093578Y-26885106D01*
X44224297Y-26901014D01*
G37*
G36*
X45111344Y-28413792D02*
G01*
X45359500Y-28412247D01*
X45371444Y-28502324D01*
X45403769Y-28577942D01*
X45456825Y-28642427D01*
X45525742Y-28690213D01*
X45612123Y-28720335D01*
X45720852Y-28731185D01*
X45840538Y-28718797D01*
X45936194Y-28684255D01*
X46013107Y-28629086D01*
X46071404Y-28554876D01*
X46107263Y-28464295D01*
X46119981Y-28352560D01*
X46107337Y-28224469D01*
X46072793Y-28126312D01*
X46012045Y-28044629D01*
X45915782Y-27973935D01*
X45847608Y-27940970D01*
X45774359Y-27917338D01*
X45652598Y-27896131D01*
X45522972Y-27893744D01*
X45522972Y-27645446D01*
X45548111Y-27645446D01*
X45675301Y-27635272D01*
X45799498Y-27604719D01*
X45892265Y-27559405D01*
X45951032Y-27504164D01*
X45985912Y-27431274D01*
X45999063Y-27324963D01*
X45989922Y-27270925D01*
X45962834Y-27225119D01*
X45914939Y-27185226D01*
X45823935Y-27147021D01*
X45706808Y-27133263D01*
X45609749Y-27146650D01*
X45526249Y-27185791D01*
X45452710Y-27252617D01*
X45387869Y-27353332D01*
X45164711Y-27229183D01*
X45185074Y-27184383D01*
X45244059Y-27101945D01*
X45343069Y-27004480D01*
X45404861Y-26964772D01*
X45491514Y-26926817D01*
X45586780Y-26901598D01*
X45691078Y-26892971D01*
X45708353Y-26892971D01*
X45851399Y-26903841D01*
X45973924Y-26934681D01*
X46081625Y-26990550D01*
X46169416Y-27075262D01*
X46212034Y-27144754D01*
X46238125Y-27224493D01*
X46247219Y-27317099D01*
X46231917Y-27463179D01*
X46188235Y-27586602D01*
X46142570Y-27658450D01*
X46088146Y-27712369D01*
X46024201Y-27750776D01*
X46149454Y-27828729D01*
X46244425Y-27924678D01*
X46312988Y-28040413D01*
X46356036Y-28179996D01*
X46371368Y-28349330D01*
X46362068Y-28458240D01*
X46332888Y-28575719D01*
X46285035Y-28687028D01*
X46220536Y-28781463D01*
X46131804Y-28862912D01*
X46022211Y-28922788D01*
X45887273Y-28960966D01*
X45720852Y-28974708D01*
X45582997Y-28963895D01*
X45465282Y-28933225D01*
X45364195Y-28884224D01*
X45277062Y-28816853D01*
X45204735Y-28732667D01*
X45153507Y-28638867D01*
X45122193Y-28533499D01*
X45111344Y-28413792D01*
G37*
G36*
X44172106Y-54813837D02*
G01*
X44284909Y-54860004D01*
X44381687Y-54931609D01*
X44456105Y-55020245D01*
X44513317Y-55125235D01*
X44561435Y-55255903D01*
X44596200Y-55393675D01*
X44618032Y-55528496D01*
X44629711Y-55665787D01*
X44633761Y-55815976D01*
X44619792Y-56118229D01*
X44582268Y-56351695D01*
X44526745Y-56529033D01*
X44457179Y-56661242D01*
X44375589Y-56757329D01*
X44281791Y-56823802D01*
X44173376Y-56864087D01*
X44046021Y-56878121D01*
X43915188Y-56863141D01*
X43803341Y-56819979D01*
X43706996Y-56752160D01*
X43632005Y-56666760D01*
X43573790Y-56565131D01*
X43524428Y-56439809D01*
X43501471Y-56354984D01*
X43764861Y-56354984D01*
X43809775Y-56477198D01*
X43863730Y-56562272D01*
X43910479Y-56603258D01*
X43969928Y-56628596D01*
X44046021Y-56637689D01*
X44110847Y-56629852D01*
X44167080Y-56607073D01*
X44216380Y-56572308D01*
X44256540Y-56530112D01*
X44288867Y-56479088D01*
X44317912Y-56409895D01*
X44357095Y-56266928D01*
X44379144Y-56104299D01*
X44388553Y-55942512D01*
X44390239Y-55786203D01*
X44380689Y-55567819D01*
X43764861Y-56354984D01*
X43501471Y-56354984D01*
X43488411Y-56306728D01*
X43465444Y-56172693D01*
X43453243Y-56035368D01*
X43449811Y-55913441D01*
X43692535Y-55913441D01*
X43697242Y-56024984D01*
X43711494Y-56138145D01*
X44322547Y-55355615D01*
X44281679Y-55237084D01*
X44230699Y-55140462D01*
X44194120Y-55094564D01*
X44151351Y-55063360D01*
X44101565Y-55044720D01*
X44042931Y-55038222D01*
X43964517Y-55050609D01*
X43896476Y-55087420D01*
X43835615Y-55152272D01*
X43781497Y-55253649D01*
X43736373Y-55403792D01*
X43704683Y-55617850D01*
X43692535Y-55913441D01*
X43449811Y-55913441D01*
X43449012Y-55885073D01*
X43456877Y-55673851D01*
X43483560Y-55460945D01*
X43532293Y-55255903D01*
X43566425Y-55162950D01*
X43608552Y-55075298D01*
X43659273Y-54994732D01*
X43715286Y-54929100D01*
X43781023Y-54875210D01*
X43859096Y-54833320D01*
X43945305Y-54806973D01*
X44041387Y-54797929D01*
X44172106Y-54813837D01*
G37*
G36*
X45173751Y-54823068D02*
G01*
X45389045Y-54827843D01*
X45596475Y-54832477D01*
X46369454Y-54832477D01*
X46433916Y-54832477D01*
X46506102Y-54961261D01*
X46290106Y-55342414D01*
X46090541Y-55670762D01*
X45927912Y-55953467D01*
X45851183Y-56107299D01*
X45796742Y-56236312D01*
X45754093Y-56367445D01*
X45718236Y-56521405D01*
X45695400Y-56682285D01*
X45687620Y-56852983D01*
X45428368Y-56852983D01*
X45440868Y-56643166D01*
X45470781Y-56449219D01*
X45527238Y-56252041D01*
X45596334Y-56066661D01*
X45687480Y-55873416D01*
X45787332Y-55687193D01*
X45907548Y-55486786D01*
X46033242Y-55288064D01*
X46173120Y-55072910D01*
X45861906Y-55076000D01*
X45659251Y-55076000D01*
X45326269Y-55063360D01*
X45260262Y-55245651D01*
X45048058Y-55149871D01*
X45108587Y-54992017D01*
X45173751Y-54823068D01*
G37*
G36*
X44149174Y-61874976D02*
G01*
X44261977Y-61921143D01*
X44358755Y-61992748D01*
X44433173Y-62081384D01*
X44490385Y-62186374D01*
X44538503Y-62317042D01*
X44573268Y-62454814D01*
X44595100Y-62589635D01*
X44606779Y-62726926D01*
X44610829Y-62877115D01*
X44596860Y-63179368D01*
X44559336Y-63412834D01*
X44503813Y-63590172D01*
X44434247Y-63722381D01*
X44352657Y-63818468D01*
X44258859Y-63884941D01*
X44150444Y-63925226D01*
X44023089Y-63939260D01*
X43892256Y-63924280D01*
X43780409Y-63881118D01*
X43684064Y-63813299D01*
X43609073Y-63727899D01*
X43550858Y-63626270D01*
X43501496Y-63500948D01*
X43478539Y-63416123D01*
X43741929Y-63416123D01*
X43786843Y-63538337D01*
X43840798Y-63623411D01*
X43887547Y-63664397D01*
X43946996Y-63689735D01*
X44023089Y-63698828D01*
X44087915Y-63690991D01*
X44144148Y-63668212D01*
X44193448Y-63633447D01*
X44233608Y-63591251D01*
X44265935Y-63540227D01*
X44294980Y-63471034D01*
X44334163Y-63328067D01*
X44356212Y-63165438D01*
X44365621Y-63003651D01*
X44367307Y-62847342D01*
X44357757Y-62628958D01*
X43741929Y-63416123D01*
X43478539Y-63416123D01*
X43465479Y-63367867D01*
X43442512Y-63233832D01*
X43430311Y-63096507D01*
X43426879Y-62974580D01*
X43669603Y-62974580D01*
X43674310Y-63086123D01*
X43688562Y-63199284D01*
X44299615Y-62416754D01*
X44258747Y-62298223D01*
X44207767Y-62201601D01*
X44171188Y-62155703D01*
X44128419Y-62124499D01*
X44078633Y-62105859D01*
X44019999Y-62099361D01*
X43941585Y-62111748D01*
X43873544Y-62148559D01*
X43812683Y-62213411D01*
X43758565Y-62314788D01*
X43713441Y-62464931D01*
X43681751Y-62678989D01*
X43669603Y-62974580D01*
X43426879Y-62974580D01*
X43426080Y-62946212D01*
X43433945Y-62734990D01*
X43460628Y-62522084D01*
X43509361Y-62317042D01*
X43543493Y-62224089D01*
X43585620Y-62136437D01*
X43636341Y-62055871D01*
X43692354Y-61990239D01*
X43758091Y-61936349D01*
X43836164Y-61894459D01*
X43922373Y-61868112D01*
X44018455Y-61859068D01*
X44149174Y-61874976D01*
G37*
G36*
X45800812Y-61892185D02*
G01*
X45906066Y-61918995D01*
X45994897Y-61961448D01*
X46069997Y-62019310D01*
X46149127Y-62118115D01*
X46196538Y-62232249D01*
X46212964Y-62366477D01*
X46204527Y-62442663D01*
X46178708Y-62518648D01*
X46133616Y-62595955D01*
X46045280Y-62692830D01*
X45945848Y-62754652D01*
X46045237Y-62812154D01*
X46137200Y-62886049D01*
X46222374Y-62977810D01*
X46288688Y-63081445D01*
X46328255Y-63194562D01*
X46341748Y-63320202D01*
X46329891Y-63449815D01*
X46295650Y-63563978D01*
X46239575Y-63665706D01*
X46160299Y-63757110D01*
X46064960Y-63830294D01*
X45954931Y-63883433D01*
X45827413Y-63916627D01*
X45678732Y-63928306D01*
X45530130Y-63916631D01*
X45402632Y-63883444D01*
X45292573Y-63830304D01*
X45197164Y-63757110D01*
X45117889Y-63665706D01*
X45061814Y-63563978D01*
X45027572Y-63449815D01*
X45017155Y-63335932D01*
X45265559Y-63335932D01*
X45278404Y-63437674D01*
X45314978Y-63520798D01*
X45375523Y-63589706D01*
X45453896Y-63639666D01*
X45553074Y-63671540D01*
X45678732Y-63683098D01*
X45804390Y-63671540D01*
X45903568Y-63639666D01*
X45981941Y-63589706D01*
X46042570Y-63520787D01*
X46079187Y-63437663D01*
X46092046Y-63335932D01*
X46083644Y-63253729D01*
X46059043Y-63179622D01*
X46018608Y-63112845D01*
X45961577Y-63053227D01*
X45833496Y-62960536D01*
X45678732Y-62881890D01*
X45523968Y-62960536D01*
X45395887Y-63053227D01*
X45338970Y-63112835D01*
X45298562Y-63179622D01*
X45273961Y-63253729D01*
X45265559Y-63335932D01*
X45017155Y-63335932D01*
X45015716Y-63320202D01*
X45029209Y-63194562D01*
X45068776Y-63081445D01*
X45135090Y-62977810D01*
X45220343Y-62886034D01*
X45312308Y-62812140D01*
X45411616Y-62754652D01*
X45311623Y-62691780D01*
X45220758Y-62594410D01*
X45173735Y-62516919D01*
X45147008Y-62441486D01*
X45138320Y-62366477D01*
X45139076Y-62360297D01*
X45384932Y-62360297D01*
X45393188Y-62409375D01*
X45419591Y-62460525D01*
X45468915Y-62515764D01*
X45561767Y-62580485D01*
X45678732Y-62624183D01*
X45794028Y-62580640D01*
X45884616Y-62516607D01*
X45932365Y-62461960D01*
X45958198Y-62410487D01*
X45966352Y-62360297D01*
X45957738Y-62298840D01*
X45932316Y-62244823D01*
X45888549Y-62196123D01*
X45833066Y-62160270D01*
X45763382Y-62137501D01*
X45675642Y-62129274D01*
X45587902Y-62137501D01*
X45518219Y-62160270D01*
X45462736Y-62196123D01*
X45418969Y-62244823D01*
X45393547Y-62298840D01*
X45384932Y-62360297D01*
X45139076Y-62360297D01*
X45154746Y-62232249D01*
X45202158Y-62118115D01*
X45281288Y-62019310D01*
X45356388Y-61961448D01*
X45445219Y-61918995D01*
X45550473Y-61892185D01*
X45675642Y-61882662D01*
X45800812Y-61892185D01*
G37*
D12*
X42954819Y-19595237D02*
X43954819Y-19261904D01*
X43954819Y-19261904D02*
X42954819Y-18928571D01*
X43954819Y-18595237D02*
X42954819Y-18595237D01*
X43954819Y-18119047D02*
X42954819Y-18119047D01*
X42954819Y-18119047D02*
X43954819Y-17547619D01*
X43954819Y-17547619D02*
X42954819Y-17547619D01*
D10*
X41091192Y-31183961D02*
X41243573Y-31183961D01*
X41243573Y-31183961D02*
X41319763Y-31222056D01*
X41319763Y-31222056D02*
X41395954Y-31298246D01*
X41395954Y-31298246D02*
X41434049Y-31450627D01*
X41434049Y-31450627D02*
X41434049Y-31717294D01*
X41434049Y-31717294D02*
X41395954Y-31869675D01*
X41395954Y-31869675D02*
X41319763Y-31945866D01*
X41319763Y-31945866D02*
X41243573Y-31983961D01*
X41243573Y-31983961D02*
X41091192Y-31983961D01*
X41091192Y-31983961D02*
X41015001Y-31945866D01*
X41015001Y-31945866D02*
X40938811Y-31869675D01*
X40938811Y-31869675D02*
X40900715Y-31717294D01*
X40900715Y-31717294D02*
X40900715Y-31450627D01*
X40900715Y-31450627D02*
X40938811Y-31298246D01*
X40938811Y-31298246D02*
X41015001Y-31222056D01*
X41015001Y-31222056D02*
X41091192Y-31183961D01*
X41776906Y-31983961D02*
X41776906Y-31183961D01*
X41776906Y-31183961D02*
X42234049Y-31983961D01*
X42234049Y-31983961D02*
X42234049Y-31183961D01*
D12*
X43002438Y-22261904D02*
X42954819Y-22357142D01*
X42954819Y-22357142D02*
X42954819Y-22499999D01*
X42954819Y-22499999D02*
X43002438Y-22642856D01*
X43002438Y-22642856D02*
X43097676Y-22738094D01*
X43097676Y-22738094D02*
X43192914Y-22785713D01*
X43192914Y-22785713D02*
X43383390Y-22833332D01*
X43383390Y-22833332D02*
X43526247Y-22833332D01*
X43526247Y-22833332D02*
X43716723Y-22785713D01*
X43716723Y-22785713D02*
X43811961Y-22738094D01*
X43811961Y-22738094D02*
X43907200Y-22642856D01*
X43907200Y-22642856D02*
X43954819Y-22499999D01*
X43954819Y-22499999D02*
X43954819Y-22404761D01*
X43954819Y-22404761D02*
X43907200Y-22261904D01*
X43907200Y-22261904D02*
X43859580Y-22214285D01*
X43859580Y-22214285D02*
X43526247Y-22214285D01*
X43526247Y-22214285D02*
X43526247Y-22404761D01*
X43954819Y-21785713D02*
X42954819Y-21785713D01*
X42954819Y-21785713D02*
X43954819Y-21214285D01*
X43954819Y-21214285D02*
X42954819Y-21214285D01*
X43954819Y-20738094D02*
X42954819Y-20738094D01*
X42954819Y-20738094D02*
X42954819Y-20499999D01*
X42954819Y-20499999D02*
X43002438Y-20357142D01*
X43002438Y-20357142D02*
X43097676Y-20261904D01*
X43097676Y-20261904D02*
X43192914Y-20214285D01*
X43192914Y-20214285D02*
X43383390Y-20166666D01*
X43383390Y-20166666D02*
X43526247Y-20166666D01*
X43526247Y-20166666D02*
X43716723Y-20214285D01*
X43716723Y-20214285D02*
X43811961Y-20261904D01*
X43811961Y-20261904D02*
X43907200Y-20357142D01*
X43907200Y-20357142D02*
X43954819Y-20499999D01*
X43954819Y-20499999D02*
X43954819Y-20738094D01*
X45333333Y-23509580D02*
X45285714Y-23557200D01*
X45285714Y-23557200D02*
X45142857Y-23604819D01*
X45142857Y-23604819D02*
X45047619Y-23604819D01*
X45047619Y-23604819D02*
X44904762Y-23557200D01*
X44904762Y-23557200D02*
X44809524Y-23461961D01*
X44809524Y-23461961D02*
X44761905Y-23366723D01*
X44761905Y-23366723D02*
X44714286Y-23176247D01*
X44714286Y-23176247D02*
X44714286Y-23033390D01*
X44714286Y-23033390D02*
X44761905Y-22842914D01*
X44761905Y-22842914D02*
X44809524Y-22747676D01*
X44809524Y-22747676D02*
X44904762Y-22652438D01*
X44904762Y-22652438D02*
X45047619Y-22604819D01*
X45047619Y-22604819D02*
X45142857Y-22604819D01*
X45142857Y-22604819D02*
X45285714Y-22652438D01*
X45285714Y-22652438D02*
X45333333Y-22700057D01*
X46285714Y-23604819D02*
X45714286Y-23604819D01*
X46000000Y-23604819D02*
X46000000Y-22604819D01*
X46000000Y-22604819D02*
X45904762Y-22747676D01*
X45904762Y-22747676D02*
X45809524Y-22842914D01*
X45809524Y-22842914D02*
X45714286Y-22890533D01*
D13*
%TO.C,D8*%
X51920000Y-75125000D02*
X52325000Y-75125000D01*
X51920000Y-79125000D02*
X52325000Y-79125000D01*
X52325000Y-79125000D02*
X52325000Y-75125000D01*
D11*
X51025000Y-79875000D02*
G75*
G02*
X50825000Y-79875000I-100000J0D01*
G01*
X50825000Y-79875000D02*
G75*
G02*
X51025000Y-79875000I100000J0D01*
G01*
D14*
%TO.C,C4*%
X47412164Y-41640000D02*
X47627836Y-41640000D01*
X47412164Y-42360000D02*
X47627836Y-42360000D01*
D13*
%TO.C,D7*%
X51920000Y-68125000D02*
X52325000Y-68125000D01*
X51920000Y-72125000D02*
X52325000Y-72125000D01*
X52325000Y-72125000D02*
X52325000Y-68125000D01*
D11*
X51025000Y-72875000D02*
G75*
G02*
X50825000Y-72875000I-100000J0D01*
G01*
X50825000Y-72875000D02*
G75*
G02*
X51025000Y-72875000I100000J0D01*
G01*
D13*
%TO.C,D3*%
X51920000Y-40125000D02*
X52325000Y-40125000D01*
X51920000Y-44125000D02*
X52325000Y-44125000D01*
X52325000Y-44125000D02*
X52325000Y-40125000D01*
D11*
X51025000Y-44875000D02*
G75*
G02*
X50825000Y-44875000I-100000J0D01*
G01*
X50825000Y-44875000D02*
G75*
G02*
X51025000Y-44875000I100000J0D01*
G01*
D13*
%TO.C,D1*%
X51920000Y-26125000D02*
X52325000Y-26125000D01*
X51920000Y-30125000D02*
X52325000Y-30125000D01*
X52325000Y-30125000D02*
X52325000Y-26125000D01*
D11*
X51025000Y-30875000D02*
G75*
G02*
X50825000Y-30875000I-100000J0D01*
G01*
X50825000Y-30875000D02*
G75*
G02*
X51025000Y-30875000I100000J0D01*
G01*
D13*
%TO.C,D24*%
X51920000Y-187125000D02*
X52325000Y-187125000D01*
X51920000Y-191125000D02*
X52325000Y-191125000D01*
X52325000Y-191125000D02*
X52325000Y-187125000D01*
D11*
X51025000Y-191875000D02*
G75*
G02*
X50825000Y-191875000I-100000J0D01*
G01*
X50825000Y-191875000D02*
G75*
G02*
X51025000Y-191875000I100000J0D01*
G01*
D14*
%TO.C,C11*%
X47412164Y-97640000D02*
X47627836Y-97640000D01*
X47412164Y-98360000D02*
X47627836Y-98360000D01*
%TO.C,C9*%
X47412164Y-111640000D02*
X47627836Y-111640000D01*
X47412164Y-112360000D02*
X47627836Y-112360000D01*
D13*
%TO.C,D17*%
X51920000Y-138125000D02*
X52325000Y-138125000D01*
X51920000Y-142125000D02*
X52325000Y-142125000D01*
X52325000Y-142125000D02*
X52325000Y-138125000D01*
D11*
X51025000Y-142875000D02*
G75*
G02*
X50825000Y-142875000I-100000J0D01*
G01*
X50825000Y-142875000D02*
G75*
G02*
X51025000Y-142875000I100000J0D01*
G01*
D14*
%TO.C,C16*%
X47412164Y-125640000D02*
X47627836Y-125640000D01*
X47412164Y-126360000D02*
X47627836Y-126360000D01*
D13*
%TO.C,D21*%
X51920000Y-166125000D02*
X52325000Y-166125000D01*
X51920000Y-170125000D02*
X52325000Y-170125000D01*
X52325000Y-170125000D02*
X52325000Y-166125000D01*
D11*
X51025000Y-170875000D02*
G75*
G02*
X50825000Y-170875000I-100000J0D01*
G01*
X50825000Y-170875000D02*
G75*
G02*
X51025000Y-170875000I100000J0D01*
G01*
D14*
%TO.C,C20*%
X47412164Y-153640000D02*
X47627836Y-153640000D01*
X47412164Y-154360000D02*
X47627836Y-154360000D01*
%TO.C,C13*%
X47412164Y-83640000D02*
X47627836Y-83640000D01*
X47412164Y-84360000D02*
X47627836Y-84360000D01*
%TO.C,C7*%
X47412164Y-62640000D02*
X47627836Y-62640000D01*
X47412164Y-63360000D02*
X47627836Y-63360000D01*
D13*
%TO.C,D12*%
X51920000Y-103125000D02*
X52325000Y-103125000D01*
X51920000Y-107125000D02*
X52325000Y-107125000D01*
X52325000Y-107125000D02*
X52325000Y-103125000D01*
D11*
X51025000Y-107875000D02*
G75*
G02*
X50825000Y-107875000I-100000J0D01*
G01*
X50825000Y-107875000D02*
G75*
G02*
X51025000Y-107875000I100000J0D01*
G01*
D14*
%TO.C,C18*%
X47412164Y-139640000D02*
X47627836Y-139640000D01*
X47412164Y-140360000D02*
X47627836Y-140360000D01*
D13*
%TO.C,D9*%
X51920000Y-82125000D02*
X52325000Y-82125000D01*
X51920000Y-86125000D02*
X52325000Y-86125000D01*
X52325000Y-86125000D02*
X52325000Y-82125000D01*
D11*
X51025000Y-86875000D02*
G75*
G02*
X50825000Y-86875000I-100000J0D01*
G01*
X50825000Y-86875000D02*
G75*
G02*
X51025000Y-86875000I100000J0D01*
G01*
D13*
%TO.C,D18*%
X51920000Y-145125000D02*
X52325000Y-145125000D01*
X51920000Y-149125000D02*
X52325000Y-149125000D01*
X52325000Y-149125000D02*
X52325000Y-145125000D01*
D11*
X51025000Y-149875000D02*
G75*
G02*
X50825000Y-149875000I-100000J0D01*
G01*
X50825000Y-149875000D02*
G75*
G02*
X51025000Y-149875000I100000J0D01*
G01*
D13*
%TO.C,D5*%
X51920000Y-54125000D02*
X52325000Y-54125000D01*
X51920000Y-58125000D02*
X52325000Y-58125000D01*
X52325000Y-58125000D02*
X52325000Y-54125000D01*
D11*
X51025000Y-58875000D02*
G75*
G02*
X50825000Y-58875000I-100000J0D01*
G01*
X50825000Y-58875000D02*
G75*
G02*
X51025000Y-58875000I100000J0D01*
G01*
D13*
%TO.C,D2*%
X51920000Y-33125000D02*
X52325000Y-33125000D01*
X51920000Y-37125000D02*
X52325000Y-37125000D01*
X52325000Y-37125000D02*
X52325000Y-33125000D01*
D11*
X51025000Y-37875000D02*
G75*
G02*
X50825000Y-37875000I-100000J0D01*
G01*
X50825000Y-37875000D02*
G75*
G02*
X51025000Y-37875000I100000J0D01*
G01*
D14*
%TO.C,C14*%
X47412164Y-76640000D02*
X47627836Y-76640000D01*
X47412164Y-77360000D02*
X47627836Y-77360000D01*
D13*
%TO.C,D13*%
X51920000Y-110125000D02*
X52325000Y-110125000D01*
X51920000Y-114125000D02*
X52325000Y-114125000D01*
X52325000Y-114125000D02*
X52325000Y-110125000D01*
D11*
X51025000Y-114875000D02*
G75*
G02*
X50825000Y-114875000I-100000J0D01*
G01*
X50825000Y-114875000D02*
G75*
G02*
X51025000Y-114875000I100000J0D01*
G01*
D13*
%TO.C,D23*%
X51920000Y-180125000D02*
X52325000Y-180125000D01*
X51920000Y-184125000D02*
X52325000Y-184125000D01*
X52325000Y-184125000D02*
X52325000Y-180125000D01*
D11*
X51025000Y-184875000D02*
G75*
G02*
X50825000Y-184875000I-100000J0D01*
G01*
X50825000Y-184875000D02*
G75*
G02*
X51025000Y-184875000I100000J0D01*
G01*
D14*
%TO.C,C17*%
X47412164Y-132640000D02*
X47627836Y-132640000D01*
X47412164Y-133360000D02*
X47627836Y-133360000D01*
D13*
%TO.C,D15*%
X51920000Y-124125000D02*
X52325000Y-124125000D01*
X51920000Y-128125000D02*
X52325000Y-128125000D01*
X52325000Y-128125000D02*
X52325000Y-124125000D01*
D11*
X51025000Y-128875000D02*
G75*
G02*
X50825000Y-128875000I-100000J0D01*
G01*
X50825000Y-128875000D02*
G75*
G02*
X51025000Y-128875000I100000J0D01*
G01*
D14*
%TO.C,C8*%
X47412164Y-69640000D02*
X47627836Y-69640000D01*
X47412164Y-70360000D02*
X47627836Y-70360000D01*
%TO.C,C19*%
X47412164Y-146640000D02*
X47627836Y-146640000D01*
X47412164Y-147360000D02*
X47627836Y-147360000D01*
%TO.C,C22*%
X47412164Y-181640000D02*
X47627836Y-181640000D01*
X47412164Y-182360000D02*
X47627836Y-182360000D01*
%TO.C,C25*%
X47412164Y-160640000D02*
X47627836Y-160640000D01*
X47412164Y-161360000D02*
X47627836Y-161360000D01*
%TO.C,C15*%
X47412164Y-118640000D02*
X47627836Y-118640000D01*
X47412164Y-119360000D02*
X47627836Y-119360000D01*
D13*
%TO.C,D10*%
X51920000Y-89125000D02*
X52325000Y-89125000D01*
X51920000Y-93125000D02*
X52325000Y-93125000D01*
X52325000Y-93125000D02*
X52325000Y-89125000D01*
D11*
X51025000Y-93875000D02*
G75*
G02*
X50825000Y-93875000I-100000J0D01*
G01*
X50825000Y-93875000D02*
G75*
G02*
X51025000Y-93875000I100000J0D01*
G01*
D13*
%TO.C,D20*%
X51920000Y-159125000D02*
X52325000Y-159125000D01*
X51920000Y-163125000D02*
X52325000Y-163125000D01*
X52325000Y-163125000D02*
X52325000Y-159125000D01*
D11*
X51025000Y-163875000D02*
G75*
G02*
X50825000Y-163875000I-100000J0D01*
G01*
X50825000Y-163875000D02*
G75*
G02*
X51025000Y-163875000I100000J0D01*
G01*
D13*
%TO.C,D16*%
X51920000Y-131125000D02*
X52325000Y-131125000D01*
X51920000Y-135125000D02*
X52325000Y-135125000D01*
X52325000Y-135125000D02*
X52325000Y-131125000D01*
D11*
X51025000Y-135875000D02*
G75*
G02*
X50825000Y-135875000I-100000J0D01*
G01*
X50825000Y-135875000D02*
G75*
G02*
X51025000Y-135875000I100000J0D01*
G01*
D13*
%TO.C,D11*%
X51920000Y-96125000D02*
X52325000Y-96125000D01*
X51920000Y-100125000D02*
X52325000Y-100125000D01*
X52325000Y-100125000D02*
X52325000Y-96125000D01*
D11*
X51025000Y-100875000D02*
G75*
G02*
X50825000Y-100875000I-100000J0D01*
G01*
X50825000Y-100875000D02*
G75*
G02*
X51025000Y-100875000I100000J0D01*
G01*
D14*
%TO.C,C3*%
X47412164Y-34640000D02*
X47627836Y-34640000D01*
X47412164Y-35360000D02*
X47627836Y-35360000D01*
%TO.C,C10*%
X47412164Y-104640000D02*
X47627836Y-104640000D01*
X47412164Y-105360000D02*
X47627836Y-105360000D01*
%TO.C,SW1*%
D10*
X42000000Y-30805000D02*
X41000000Y-30805000D01*
X41000000Y-28805000D01*
X42000000Y-28805000D01*
X42000000Y-30805000D01*
X42898000Y-32510000D02*
X40102000Y-32510000D01*
X40102000Y-27100000D01*
X42898000Y-27100000D01*
X42898000Y-32510000D01*
D14*
%TO.C,C24*%
X47412164Y-167640000D02*
X47627836Y-167640000D01*
X47412164Y-168360000D02*
X47627836Y-168360000D01*
%TO.C,C21*%
X47412164Y-188640000D02*
X47627836Y-188640000D01*
X47412164Y-189360000D02*
X47627836Y-189360000D01*
D13*
%TO.C,D14*%
X51920000Y-117125000D02*
X52325000Y-117125000D01*
X51920000Y-121125000D02*
X52325000Y-121125000D01*
X52325000Y-121125000D02*
X52325000Y-117125000D01*
D11*
X51025000Y-121875000D02*
G75*
G02*
X50825000Y-121875000I-100000J0D01*
G01*
X50825000Y-121875000D02*
G75*
G02*
X51025000Y-121875000I100000J0D01*
G01*
D13*
%TO.C,D4*%
X51920000Y-47125000D02*
X52325000Y-47125000D01*
X51920000Y-51125000D02*
X52325000Y-51125000D01*
X52325000Y-51125000D02*
X52325000Y-47125000D01*
D11*
X51025000Y-51875000D02*
G75*
G02*
X50825000Y-51875000I-100000J0D01*
G01*
X50825000Y-51875000D02*
G75*
G02*
X51025000Y-51875000I100000J0D01*
G01*
D13*
%TO.C,D19*%
X51920000Y-152125000D02*
X52325000Y-152125000D01*
X51920000Y-156125000D02*
X52325000Y-156125000D01*
X52325000Y-156125000D02*
X52325000Y-152125000D01*
D11*
X51025000Y-156875000D02*
G75*
G02*
X50825000Y-156875000I-100000J0D01*
G01*
X50825000Y-156875000D02*
G75*
G02*
X51025000Y-156875000I100000J0D01*
G01*
D14*
%TO.C,C23*%
X47412164Y-174640000D02*
X47627836Y-174640000D01*
X47412164Y-175360000D02*
X47627836Y-175360000D01*
D13*
%TO.C,D22*%
X51920000Y-173125000D02*
X52325000Y-173125000D01*
X51920000Y-177125000D02*
X52325000Y-177125000D01*
X52325000Y-177125000D02*
X52325000Y-173125000D01*
D11*
X51025000Y-177875000D02*
G75*
G02*
X50825000Y-177875000I-100000J0D01*
G01*
X50825000Y-177875000D02*
G75*
G02*
X51025000Y-177875000I100000J0D01*
G01*
D14*
%TO.C,C6*%
X47412164Y-55640000D02*
X47627836Y-55640000D01*
X47412164Y-56360000D02*
X47627836Y-56360000D01*
%TO.C,C5*%
X47412164Y-48640000D02*
X47627836Y-48640000D01*
X47412164Y-49360000D02*
X47627836Y-49360000D01*
%TO.C,C2*%
X47412164Y-27640000D02*
X47627836Y-27640000D01*
X47412164Y-28360000D02*
X47627836Y-28360000D01*
%TO.C,C1*%
X44788748Y-24090000D02*
X46211252Y-24090000D01*
X44788748Y-25910000D02*
X46211252Y-25910000D01*
D13*
%TO.C,D6*%
X51920000Y-61125000D02*
X52325000Y-61125000D01*
X51920000Y-65125000D02*
X52325000Y-65125000D01*
X52325000Y-65125000D02*
X52325000Y-61125000D01*
D11*
X51025000Y-65875000D02*
G75*
G02*
X50825000Y-65875000I-100000J0D01*
G01*
X50825000Y-65875000D02*
G75*
G02*
X51025000Y-65875000I100000J0D01*
G01*
D14*
%TO.C,C12*%
X47412164Y-90640000D02*
X47627836Y-90640000D01*
X47412164Y-91360000D02*
X47627836Y-91360000D01*
%TD*%
M02*
