%TF.GenerationSoftware,KiCad,Pcbnew,9.0.7*%
%TF.CreationDate,2026-03-17T22:43:26+07:00*%
%TF.ProjectId,project,70726f6a-6563-4742-9e6b-696361645f70,rev?*%
%TF.SameCoordinates,Original*%
%TF.FileFunction,Paste,Top*%
%TF.FilePolarity,Positive*%
%FSLAX46Y46*%
G04 Gerber Fmt 4.6, Leading zero omitted, Abs format (unit mm)*
G04 Created by KiCad (PCBNEW 9.0.7) date 2026-03-17 22:43:26*
%MOMM*%
%LPD*%
G01*
G04 APERTURE LIST*
G04 Aperture macros list*
%AMRoundRect*
0 Rectangle with rounded corners*
0 $1 Rounding radius*
0 $2 $3 $4 $5 $6 $7 $8 $9 X,Y pos of 4 corners*
0 Add a 4 corners polygon primitive as box body*
4,1,4,$2,$3,$4,$5,$6,$7,$8,$9,$2,$3,0*
0 Add four circle primitives for the rounded corners*
1,1,$1+$1,$2,$3*
1,1,$1+$1,$4,$5*
1,1,$1+$1,$6,$7*
1,1,$1+$1,$8,$9*
0 Add four rect primitives between the rounded corners*
20,1,$1+$1,$2,$3,$4,$5,0*
20,1,$1+$1,$4,$5,$6,$7,0*
20,1,$1+$1,$6,$7,$8,$9,0*
20,1,$1+$1,$8,$9,$2,$3,0*%
G04 Aperture macros list end*
%ADD10C,0.010000*%
%ADD11R,1.200000X0.700000*%
%ADD12R,1.200000X0.450000*%
%ADD13RoundRect,0.140000X-0.140000X-0.170000X0.140000X-0.170000X0.140000X0.170000X-0.140000X0.170000X0*%
%ADD14R,0.759000X1.270000*%
%ADD15RoundRect,0.250000X-0.325000X-0.650000X0.325000X-0.650000X0.325000X0.650000X-0.325000X0.650000X0*%
G04 APERTURE END LIST*
D10*
%TO.C,D8*%
X51200000Y-75225000D02*
X51600000Y-75225000D01*
X51600000Y-75775000D01*
X50400000Y-75775000D01*
X50400000Y-75225000D01*
X50650000Y-75225000D01*
X50650000Y-74775000D01*
X51200000Y-74775000D01*
X51200000Y-75225000D01*
G36*
X51200000Y-75225000D02*
G01*
X51600000Y-75225000D01*
X51600000Y-75775000D01*
X50400000Y-75775000D01*
X50400000Y-75225000D01*
X50650000Y-75225000D01*
X50650000Y-74775000D01*
X51200000Y-74775000D01*
X51200000Y-75225000D01*
G37*
X51600000Y-78925000D02*
X51200000Y-78925000D01*
X51200000Y-79375000D01*
X50650000Y-79375000D01*
X50650000Y-78925000D01*
X50400000Y-78925000D01*
X50400000Y-78375000D01*
X51600000Y-78375000D01*
X51600000Y-78925000D01*
G36*
X51600000Y-78925000D02*
G01*
X51200000Y-78925000D01*
X51200000Y-79375000D01*
X50650000Y-79375000D01*
X50650000Y-78925000D01*
X50400000Y-78925000D01*
X50400000Y-78375000D01*
X51600000Y-78375000D01*
X51600000Y-78925000D01*
G37*
%TO.C,D7*%
X51200000Y-68225000D02*
X51600000Y-68225000D01*
X51600000Y-68775000D01*
X50400000Y-68775000D01*
X50400000Y-68225000D01*
X50650000Y-68225000D01*
X50650000Y-67775000D01*
X51200000Y-67775000D01*
X51200000Y-68225000D01*
G36*
X51200000Y-68225000D02*
G01*
X51600000Y-68225000D01*
X51600000Y-68775000D01*
X50400000Y-68775000D01*
X50400000Y-68225000D01*
X50650000Y-68225000D01*
X50650000Y-67775000D01*
X51200000Y-67775000D01*
X51200000Y-68225000D01*
G37*
X51600000Y-71925000D02*
X51200000Y-71925000D01*
X51200000Y-72375000D01*
X50650000Y-72375000D01*
X50650000Y-71925000D01*
X50400000Y-71925000D01*
X50400000Y-71375000D01*
X51600000Y-71375000D01*
X51600000Y-71925000D01*
G36*
X51600000Y-71925000D02*
G01*
X51200000Y-71925000D01*
X51200000Y-72375000D01*
X50650000Y-72375000D01*
X50650000Y-71925000D01*
X50400000Y-71925000D01*
X50400000Y-71375000D01*
X51600000Y-71375000D01*
X51600000Y-71925000D01*
G37*
%TO.C,D3*%
X51200000Y-40225000D02*
X51600000Y-40225000D01*
X51600000Y-40775000D01*
X50400000Y-40775000D01*
X50400000Y-40225000D01*
X50650000Y-40225000D01*
X50650000Y-39775000D01*
X51200000Y-39775000D01*
X51200000Y-40225000D01*
G36*
X51200000Y-40225000D02*
G01*
X51600000Y-40225000D01*
X51600000Y-40775000D01*
X50400000Y-40775000D01*
X50400000Y-40225000D01*
X50650000Y-40225000D01*
X50650000Y-39775000D01*
X51200000Y-39775000D01*
X51200000Y-40225000D01*
G37*
X51600000Y-43925000D02*
X51200000Y-43925000D01*
X51200000Y-44375000D01*
X50650000Y-44375000D01*
X50650000Y-43925000D01*
X50400000Y-43925000D01*
X50400000Y-43375000D01*
X51600000Y-43375000D01*
X51600000Y-43925000D01*
G36*
X51600000Y-43925000D02*
G01*
X51200000Y-43925000D01*
X51200000Y-44375000D01*
X50650000Y-44375000D01*
X50650000Y-43925000D01*
X50400000Y-43925000D01*
X50400000Y-43375000D01*
X51600000Y-43375000D01*
X51600000Y-43925000D01*
G37*
%TO.C,D1*%
X51200000Y-26225000D02*
X51600000Y-26225000D01*
X51600000Y-26775000D01*
X50400000Y-26775000D01*
X50400000Y-26225000D01*
X50650000Y-26225000D01*
X50650000Y-25775000D01*
X51200000Y-25775000D01*
X51200000Y-26225000D01*
G36*
X51200000Y-26225000D02*
G01*
X51600000Y-26225000D01*
X51600000Y-26775000D01*
X50400000Y-26775000D01*
X50400000Y-26225000D01*
X50650000Y-26225000D01*
X50650000Y-25775000D01*
X51200000Y-25775000D01*
X51200000Y-26225000D01*
G37*
X51600000Y-29925000D02*
X51200000Y-29925000D01*
X51200000Y-30375000D01*
X50650000Y-30375000D01*
X50650000Y-29925000D01*
X50400000Y-29925000D01*
X50400000Y-29375000D01*
X51600000Y-29375000D01*
X51600000Y-29925000D01*
G36*
X51600000Y-29925000D02*
G01*
X51200000Y-29925000D01*
X51200000Y-30375000D01*
X50650000Y-30375000D01*
X50650000Y-29925000D01*
X50400000Y-29925000D01*
X50400000Y-29375000D01*
X51600000Y-29375000D01*
X51600000Y-29925000D01*
G37*
%TO.C,D24*%
X51200000Y-187225000D02*
X51600000Y-187225000D01*
X51600000Y-187775000D01*
X50400000Y-187775000D01*
X50400000Y-187225000D01*
X50650000Y-187225000D01*
X50650000Y-186775000D01*
X51200000Y-186775000D01*
X51200000Y-187225000D01*
G36*
X51200000Y-187225000D02*
G01*
X51600000Y-187225000D01*
X51600000Y-187775000D01*
X50400000Y-187775000D01*
X50400000Y-187225000D01*
X50650000Y-187225000D01*
X50650000Y-186775000D01*
X51200000Y-186775000D01*
X51200000Y-187225000D01*
G37*
X51600000Y-190925000D02*
X51200000Y-190925000D01*
X51200000Y-191375000D01*
X50650000Y-191375000D01*
X50650000Y-190925000D01*
X50400000Y-190925000D01*
X50400000Y-190375000D01*
X51600000Y-190375000D01*
X51600000Y-190925000D01*
G36*
X51600000Y-190925000D02*
G01*
X51200000Y-190925000D01*
X51200000Y-191375000D01*
X50650000Y-191375000D01*
X50650000Y-190925000D01*
X50400000Y-190925000D01*
X50400000Y-190375000D01*
X51600000Y-190375000D01*
X51600000Y-190925000D01*
G37*
%TO.C,D17*%
X51200000Y-138225000D02*
X51600000Y-138225000D01*
X51600000Y-138775000D01*
X50400000Y-138775000D01*
X50400000Y-138225000D01*
X50650000Y-138225000D01*
X50650000Y-137775000D01*
X51200000Y-137775000D01*
X51200000Y-138225000D01*
G36*
X51200000Y-138225000D02*
G01*
X51600000Y-138225000D01*
X51600000Y-138775000D01*
X50400000Y-138775000D01*
X50400000Y-138225000D01*
X50650000Y-138225000D01*
X50650000Y-137775000D01*
X51200000Y-137775000D01*
X51200000Y-138225000D01*
G37*
X51600000Y-141925000D02*
X51200000Y-141925000D01*
X51200000Y-142375000D01*
X50650000Y-142375000D01*
X50650000Y-141925000D01*
X50400000Y-141925000D01*
X50400000Y-141375000D01*
X51600000Y-141375000D01*
X51600000Y-141925000D01*
G36*
X51600000Y-141925000D02*
G01*
X51200000Y-141925000D01*
X51200000Y-142375000D01*
X50650000Y-142375000D01*
X50650000Y-141925000D01*
X50400000Y-141925000D01*
X50400000Y-141375000D01*
X51600000Y-141375000D01*
X51600000Y-141925000D01*
G37*
%TO.C,D21*%
X51200000Y-166225000D02*
X51600000Y-166225000D01*
X51600000Y-166775000D01*
X50400000Y-166775000D01*
X50400000Y-166225000D01*
X50650000Y-166225000D01*
X50650000Y-165775000D01*
X51200000Y-165775000D01*
X51200000Y-166225000D01*
G36*
X51200000Y-166225000D02*
G01*
X51600000Y-166225000D01*
X51600000Y-166775000D01*
X50400000Y-166775000D01*
X50400000Y-166225000D01*
X50650000Y-166225000D01*
X50650000Y-165775000D01*
X51200000Y-165775000D01*
X51200000Y-166225000D01*
G37*
X51600000Y-169925000D02*
X51200000Y-169925000D01*
X51200000Y-170375000D01*
X50650000Y-170375000D01*
X50650000Y-169925000D01*
X50400000Y-169925000D01*
X50400000Y-169375000D01*
X51600000Y-169375000D01*
X51600000Y-169925000D01*
G36*
X51600000Y-169925000D02*
G01*
X51200000Y-169925000D01*
X51200000Y-170375000D01*
X50650000Y-170375000D01*
X50650000Y-169925000D01*
X50400000Y-169925000D01*
X50400000Y-169375000D01*
X51600000Y-169375000D01*
X51600000Y-169925000D01*
G37*
%TO.C,D12*%
X51200000Y-103225000D02*
X51600000Y-103225000D01*
X51600000Y-103775000D01*
X50400000Y-103775000D01*
X50400000Y-103225000D01*
X50650000Y-103225000D01*
X50650000Y-102775000D01*
X51200000Y-102775000D01*
X51200000Y-103225000D01*
G36*
X51200000Y-103225000D02*
G01*
X51600000Y-103225000D01*
X51600000Y-103775000D01*
X50400000Y-103775000D01*
X50400000Y-103225000D01*
X50650000Y-103225000D01*
X50650000Y-102775000D01*
X51200000Y-102775000D01*
X51200000Y-103225000D01*
G37*
X51600000Y-106925000D02*
X51200000Y-106925000D01*
X51200000Y-107375000D01*
X50650000Y-107375000D01*
X50650000Y-106925000D01*
X50400000Y-106925000D01*
X50400000Y-106375000D01*
X51600000Y-106375000D01*
X51600000Y-106925000D01*
G36*
X51600000Y-106925000D02*
G01*
X51200000Y-106925000D01*
X51200000Y-107375000D01*
X50650000Y-107375000D01*
X50650000Y-106925000D01*
X50400000Y-106925000D01*
X50400000Y-106375000D01*
X51600000Y-106375000D01*
X51600000Y-106925000D01*
G37*
%TO.C,D9*%
X51200000Y-82225000D02*
X51600000Y-82225000D01*
X51600000Y-82775000D01*
X50400000Y-82775000D01*
X50400000Y-82225000D01*
X50650000Y-82225000D01*
X50650000Y-81775000D01*
X51200000Y-81775000D01*
X51200000Y-82225000D01*
G36*
X51200000Y-82225000D02*
G01*
X51600000Y-82225000D01*
X51600000Y-82775000D01*
X50400000Y-82775000D01*
X50400000Y-82225000D01*
X50650000Y-82225000D01*
X50650000Y-81775000D01*
X51200000Y-81775000D01*
X51200000Y-82225000D01*
G37*
X51600000Y-85925000D02*
X51200000Y-85925000D01*
X51200000Y-86375000D01*
X50650000Y-86375000D01*
X50650000Y-85925000D01*
X50400000Y-85925000D01*
X50400000Y-85375000D01*
X51600000Y-85375000D01*
X51600000Y-85925000D01*
G36*
X51600000Y-85925000D02*
G01*
X51200000Y-85925000D01*
X51200000Y-86375000D01*
X50650000Y-86375000D01*
X50650000Y-85925000D01*
X50400000Y-85925000D01*
X50400000Y-85375000D01*
X51600000Y-85375000D01*
X51600000Y-85925000D01*
G37*
%TO.C,D18*%
X51200000Y-145225000D02*
X51600000Y-145225000D01*
X51600000Y-145775000D01*
X50400000Y-145775000D01*
X50400000Y-145225000D01*
X50650000Y-145225000D01*
X50650000Y-144775000D01*
X51200000Y-144775000D01*
X51200000Y-145225000D01*
G36*
X51200000Y-145225000D02*
G01*
X51600000Y-145225000D01*
X51600000Y-145775000D01*
X50400000Y-145775000D01*
X50400000Y-145225000D01*
X50650000Y-145225000D01*
X50650000Y-144775000D01*
X51200000Y-144775000D01*
X51200000Y-145225000D01*
G37*
X51600000Y-148925000D02*
X51200000Y-148925000D01*
X51200000Y-149375000D01*
X50650000Y-149375000D01*
X50650000Y-148925000D01*
X50400000Y-148925000D01*
X50400000Y-148375000D01*
X51600000Y-148375000D01*
X51600000Y-148925000D01*
G36*
X51600000Y-148925000D02*
G01*
X51200000Y-148925000D01*
X51200000Y-149375000D01*
X50650000Y-149375000D01*
X50650000Y-148925000D01*
X50400000Y-148925000D01*
X50400000Y-148375000D01*
X51600000Y-148375000D01*
X51600000Y-148925000D01*
G37*
%TO.C,D5*%
X51200000Y-54225000D02*
X51600000Y-54225000D01*
X51600000Y-54775000D01*
X50400000Y-54775000D01*
X50400000Y-54225000D01*
X50650000Y-54225000D01*
X50650000Y-53775000D01*
X51200000Y-53775000D01*
X51200000Y-54225000D01*
G36*
X51200000Y-54225000D02*
G01*
X51600000Y-54225000D01*
X51600000Y-54775000D01*
X50400000Y-54775000D01*
X50400000Y-54225000D01*
X50650000Y-54225000D01*
X50650000Y-53775000D01*
X51200000Y-53775000D01*
X51200000Y-54225000D01*
G37*
X51600000Y-57925000D02*
X51200000Y-57925000D01*
X51200000Y-58375000D01*
X50650000Y-58375000D01*
X50650000Y-57925000D01*
X50400000Y-57925000D01*
X50400000Y-57375000D01*
X51600000Y-57375000D01*
X51600000Y-57925000D01*
G36*
X51600000Y-57925000D02*
G01*
X51200000Y-57925000D01*
X51200000Y-58375000D01*
X50650000Y-58375000D01*
X50650000Y-57925000D01*
X50400000Y-57925000D01*
X50400000Y-57375000D01*
X51600000Y-57375000D01*
X51600000Y-57925000D01*
G37*
%TO.C,D2*%
X51200000Y-33225000D02*
X51600000Y-33225000D01*
X51600000Y-33775000D01*
X50400000Y-33775000D01*
X50400000Y-33225000D01*
X50650000Y-33225000D01*
X50650000Y-32775000D01*
X51200000Y-32775000D01*
X51200000Y-33225000D01*
G36*
X51200000Y-33225000D02*
G01*
X51600000Y-33225000D01*
X51600000Y-33775000D01*
X50400000Y-33775000D01*
X50400000Y-33225000D01*
X50650000Y-33225000D01*
X50650000Y-32775000D01*
X51200000Y-32775000D01*
X51200000Y-33225000D01*
G37*
X51600000Y-36925000D02*
X51200000Y-36925000D01*
X51200000Y-37375000D01*
X50650000Y-37375000D01*
X50650000Y-36925000D01*
X50400000Y-36925000D01*
X50400000Y-36375000D01*
X51600000Y-36375000D01*
X51600000Y-36925000D01*
G36*
X51600000Y-36925000D02*
G01*
X51200000Y-36925000D01*
X51200000Y-37375000D01*
X50650000Y-37375000D01*
X50650000Y-36925000D01*
X50400000Y-36925000D01*
X50400000Y-36375000D01*
X51600000Y-36375000D01*
X51600000Y-36925000D01*
G37*
%TO.C,D13*%
X51200000Y-110225000D02*
X51600000Y-110225000D01*
X51600000Y-110775000D01*
X50400000Y-110775000D01*
X50400000Y-110225000D01*
X50650000Y-110225000D01*
X50650000Y-109775000D01*
X51200000Y-109775000D01*
X51200000Y-110225000D01*
G36*
X51200000Y-110225000D02*
G01*
X51600000Y-110225000D01*
X51600000Y-110775000D01*
X50400000Y-110775000D01*
X50400000Y-110225000D01*
X50650000Y-110225000D01*
X50650000Y-109775000D01*
X51200000Y-109775000D01*
X51200000Y-110225000D01*
G37*
X51600000Y-113925000D02*
X51200000Y-113925000D01*
X51200000Y-114375000D01*
X50650000Y-114375000D01*
X50650000Y-113925000D01*
X50400000Y-113925000D01*
X50400000Y-113375000D01*
X51600000Y-113375000D01*
X51600000Y-113925000D01*
G36*
X51600000Y-113925000D02*
G01*
X51200000Y-113925000D01*
X51200000Y-114375000D01*
X50650000Y-114375000D01*
X50650000Y-113925000D01*
X50400000Y-113925000D01*
X50400000Y-113375000D01*
X51600000Y-113375000D01*
X51600000Y-113925000D01*
G37*
%TO.C,D23*%
X51200000Y-180225000D02*
X51600000Y-180225000D01*
X51600000Y-180775000D01*
X50400000Y-180775000D01*
X50400000Y-180225000D01*
X50650000Y-180225000D01*
X50650000Y-179775000D01*
X51200000Y-179775000D01*
X51200000Y-180225000D01*
G36*
X51200000Y-180225000D02*
G01*
X51600000Y-180225000D01*
X51600000Y-180775000D01*
X50400000Y-180775000D01*
X50400000Y-180225000D01*
X50650000Y-180225000D01*
X50650000Y-179775000D01*
X51200000Y-179775000D01*
X51200000Y-180225000D01*
G37*
X51600000Y-183925000D02*
X51200000Y-183925000D01*
X51200000Y-184375000D01*
X50650000Y-184375000D01*
X50650000Y-183925000D01*
X50400000Y-183925000D01*
X50400000Y-183375000D01*
X51600000Y-183375000D01*
X51600000Y-183925000D01*
G36*
X51600000Y-183925000D02*
G01*
X51200000Y-183925000D01*
X51200000Y-184375000D01*
X50650000Y-184375000D01*
X50650000Y-183925000D01*
X50400000Y-183925000D01*
X50400000Y-183375000D01*
X51600000Y-183375000D01*
X51600000Y-183925000D01*
G37*
%TO.C,D15*%
X51200000Y-124225000D02*
X51600000Y-124225000D01*
X51600000Y-124775000D01*
X50400000Y-124775000D01*
X50400000Y-124225000D01*
X50650000Y-124225000D01*
X50650000Y-123775000D01*
X51200000Y-123775000D01*
X51200000Y-124225000D01*
G36*
X51200000Y-124225000D02*
G01*
X51600000Y-124225000D01*
X51600000Y-124775000D01*
X50400000Y-124775000D01*
X50400000Y-124225000D01*
X50650000Y-124225000D01*
X50650000Y-123775000D01*
X51200000Y-123775000D01*
X51200000Y-124225000D01*
G37*
X51600000Y-127925000D02*
X51200000Y-127925000D01*
X51200000Y-128375000D01*
X50650000Y-128375000D01*
X50650000Y-127925000D01*
X50400000Y-127925000D01*
X50400000Y-127375000D01*
X51600000Y-127375000D01*
X51600000Y-127925000D01*
G36*
X51600000Y-127925000D02*
G01*
X51200000Y-127925000D01*
X51200000Y-128375000D01*
X50650000Y-128375000D01*
X50650000Y-127925000D01*
X50400000Y-127925000D01*
X50400000Y-127375000D01*
X51600000Y-127375000D01*
X51600000Y-127925000D01*
G37*
%TO.C,D10*%
X51200000Y-89225000D02*
X51600000Y-89225000D01*
X51600000Y-89775000D01*
X50400000Y-89775000D01*
X50400000Y-89225000D01*
X50650000Y-89225000D01*
X50650000Y-88775000D01*
X51200000Y-88775000D01*
X51200000Y-89225000D01*
G36*
X51200000Y-89225000D02*
G01*
X51600000Y-89225000D01*
X51600000Y-89775000D01*
X50400000Y-89775000D01*
X50400000Y-89225000D01*
X50650000Y-89225000D01*
X50650000Y-88775000D01*
X51200000Y-88775000D01*
X51200000Y-89225000D01*
G37*
X51600000Y-92925000D02*
X51200000Y-92925000D01*
X51200000Y-93375000D01*
X50650000Y-93375000D01*
X50650000Y-92925000D01*
X50400000Y-92925000D01*
X50400000Y-92375000D01*
X51600000Y-92375000D01*
X51600000Y-92925000D01*
G36*
X51600000Y-92925000D02*
G01*
X51200000Y-92925000D01*
X51200000Y-93375000D01*
X50650000Y-93375000D01*
X50650000Y-92925000D01*
X50400000Y-92925000D01*
X50400000Y-92375000D01*
X51600000Y-92375000D01*
X51600000Y-92925000D01*
G37*
%TO.C,D20*%
X51200000Y-159225000D02*
X51600000Y-159225000D01*
X51600000Y-159775000D01*
X50400000Y-159775000D01*
X50400000Y-159225000D01*
X50650000Y-159225000D01*
X50650000Y-158775000D01*
X51200000Y-158775000D01*
X51200000Y-159225000D01*
G36*
X51200000Y-159225000D02*
G01*
X51600000Y-159225000D01*
X51600000Y-159775000D01*
X50400000Y-159775000D01*
X50400000Y-159225000D01*
X50650000Y-159225000D01*
X50650000Y-158775000D01*
X51200000Y-158775000D01*
X51200000Y-159225000D01*
G37*
X51600000Y-162925000D02*
X51200000Y-162925000D01*
X51200000Y-163375000D01*
X50650000Y-163375000D01*
X50650000Y-162925000D01*
X50400000Y-162925000D01*
X50400000Y-162375000D01*
X51600000Y-162375000D01*
X51600000Y-162925000D01*
G36*
X51600000Y-162925000D02*
G01*
X51200000Y-162925000D01*
X51200000Y-163375000D01*
X50650000Y-163375000D01*
X50650000Y-162925000D01*
X50400000Y-162925000D01*
X50400000Y-162375000D01*
X51600000Y-162375000D01*
X51600000Y-162925000D01*
G37*
%TO.C,D16*%
X51200000Y-131225000D02*
X51600000Y-131225000D01*
X51600000Y-131775000D01*
X50400000Y-131775000D01*
X50400000Y-131225000D01*
X50650000Y-131225000D01*
X50650000Y-130775000D01*
X51200000Y-130775000D01*
X51200000Y-131225000D01*
G36*
X51200000Y-131225000D02*
G01*
X51600000Y-131225000D01*
X51600000Y-131775000D01*
X50400000Y-131775000D01*
X50400000Y-131225000D01*
X50650000Y-131225000D01*
X50650000Y-130775000D01*
X51200000Y-130775000D01*
X51200000Y-131225000D01*
G37*
X51600000Y-134925000D02*
X51200000Y-134925000D01*
X51200000Y-135375000D01*
X50650000Y-135375000D01*
X50650000Y-134925000D01*
X50400000Y-134925000D01*
X50400000Y-134375000D01*
X51600000Y-134375000D01*
X51600000Y-134925000D01*
G36*
X51600000Y-134925000D02*
G01*
X51200000Y-134925000D01*
X51200000Y-135375000D01*
X50650000Y-135375000D01*
X50650000Y-134925000D01*
X50400000Y-134925000D01*
X50400000Y-134375000D01*
X51600000Y-134375000D01*
X51600000Y-134925000D01*
G37*
%TO.C,D11*%
X51200000Y-96225000D02*
X51600000Y-96225000D01*
X51600000Y-96775000D01*
X50400000Y-96775000D01*
X50400000Y-96225000D01*
X50650000Y-96225000D01*
X50650000Y-95775000D01*
X51200000Y-95775000D01*
X51200000Y-96225000D01*
G36*
X51200000Y-96225000D02*
G01*
X51600000Y-96225000D01*
X51600000Y-96775000D01*
X50400000Y-96775000D01*
X50400000Y-96225000D01*
X50650000Y-96225000D01*
X50650000Y-95775000D01*
X51200000Y-95775000D01*
X51200000Y-96225000D01*
G37*
X51600000Y-99925000D02*
X51200000Y-99925000D01*
X51200000Y-100375000D01*
X50650000Y-100375000D01*
X50650000Y-99925000D01*
X50400000Y-99925000D01*
X50400000Y-99375000D01*
X51600000Y-99375000D01*
X51600000Y-99925000D01*
G36*
X51600000Y-99925000D02*
G01*
X51200000Y-99925000D01*
X51200000Y-100375000D01*
X50650000Y-100375000D01*
X50650000Y-99925000D01*
X50400000Y-99925000D01*
X50400000Y-99375000D01*
X51600000Y-99375000D01*
X51600000Y-99925000D01*
G37*
%TO.C,D14*%
X51200000Y-117225000D02*
X51600000Y-117225000D01*
X51600000Y-117775000D01*
X50400000Y-117775000D01*
X50400000Y-117225000D01*
X50650000Y-117225000D01*
X50650000Y-116775000D01*
X51200000Y-116775000D01*
X51200000Y-117225000D01*
G36*
X51200000Y-117225000D02*
G01*
X51600000Y-117225000D01*
X51600000Y-117775000D01*
X50400000Y-117775000D01*
X50400000Y-117225000D01*
X50650000Y-117225000D01*
X50650000Y-116775000D01*
X51200000Y-116775000D01*
X51200000Y-117225000D01*
G37*
X51600000Y-120925000D02*
X51200000Y-120925000D01*
X51200000Y-121375000D01*
X50650000Y-121375000D01*
X50650000Y-120925000D01*
X50400000Y-120925000D01*
X50400000Y-120375000D01*
X51600000Y-120375000D01*
X51600000Y-120925000D01*
G36*
X51600000Y-120925000D02*
G01*
X51200000Y-120925000D01*
X51200000Y-121375000D01*
X50650000Y-121375000D01*
X50650000Y-120925000D01*
X50400000Y-120925000D01*
X50400000Y-120375000D01*
X51600000Y-120375000D01*
X51600000Y-120925000D01*
G37*
%TO.C,D4*%
X51200000Y-47225000D02*
X51600000Y-47225000D01*
X51600000Y-47775000D01*
X50400000Y-47775000D01*
X50400000Y-47225000D01*
X50650000Y-47225000D01*
X50650000Y-46775000D01*
X51200000Y-46775000D01*
X51200000Y-47225000D01*
G36*
X51200000Y-47225000D02*
G01*
X51600000Y-47225000D01*
X51600000Y-47775000D01*
X50400000Y-47775000D01*
X50400000Y-47225000D01*
X50650000Y-47225000D01*
X50650000Y-46775000D01*
X51200000Y-46775000D01*
X51200000Y-47225000D01*
G37*
X51600000Y-50925000D02*
X51200000Y-50925000D01*
X51200000Y-51375000D01*
X50650000Y-51375000D01*
X50650000Y-50925000D01*
X50400000Y-50925000D01*
X50400000Y-50375000D01*
X51600000Y-50375000D01*
X51600000Y-50925000D01*
G36*
X51600000Y-50925000D02*
G01*
X51200000Y-50925000D01*
X51200000Y-51375000D01*
X50650000Y-51375000D01*
X50650000Y-50925000D01*
X50400000Y-50925000D01*
X50400000Y-50375000D01*
X51600000Y-50375000D01*
X51600000Y-50925000D01*
G37*
%TO.C,D19*%
X51200000Y-152225000D02*
X51600000Y-152225000D01*
X51600000Y-152775000D01*
X50400000Y-152775000D01*
X50400000Y-152225000D01*
X50650000Y-152225000D01*
X50650000Y-151775000D01*
X51200000Y-151775000D01*
X51200000Y-152225000D01*
G36*
X51200000Y-152225000D02*
G01*
X51600000Y-152225000D01*
X51600000Y-152775000D01*
X50400000Y-152775000D01*
X50400000Y-152225000D01*
X50650000Y-152225000D01*
X50650000Y-151775000D01*
X51200000Y-151775000D01*
X51200000Y-152225000D01*
G37*
X51600000Y-155925000D02*
X51200000Y-155925000D01*
X51200000Y-156375000D01*
X50650000Y-156375000D01*
X50650000Y-155925000D01*
X50400000Y-155925000D01*
X50400000Y-155375000D01*
X51600000Y-155375000D01*
X51600000Y-155925000D01*
G36*
X51600000Y-155925000D02*
G01*
X51200000Y-155925000D01*
X51200000Y-156375000D01*
X50650000Y-156375000D01*
X50650000Y-155925000D01*
X50400000Y-155925000D01*
X50400000Y-155375000D01*
X51600000Y-155375000D01*
X51600000Y-155925000D01*
G37*
%TO.C,D22*%
X51200000Y-173225000D02*
X51600000Y-173225000D01*
X51600000Y-173775000D01*
X50400000Y-173775000D01*
X50400000Y-173225000D01*
X50650000Y-173225000D01*
X50650000Y-172775000D01*
X51200000Y-172775000D01*
X51200000Y-173225000D01*
G36*
X51200000Y-173225000D02*
G01*
X51600000Y-173225000D01*
X51600000Y-173775000D01*
X50400000Y-173775000D01*
X50400000Y-173225000D01*
X50650000Y-173225000D01*
X50650000Y-172775000D01*
X51200000Y-172775000D01*
X51200000Y-173225000D01*
G37*
X51600000Y-176925000D02*
X51200000Y-176925000D01*
X51200000Y-177375000D01*
X50650000Y-177375000D01*
X50650000Y-176925000D01*
X50400000Y-176925000D01*
X50400000Y-176375000D01*
X51600000Y-176375000D01*
X51600000Y-176925000D01*
G36*
X51600000Y-176925000D02*
G01*
X51200000Y-176925000D01*
X51200000Y-177375000D01*
X50650000Y-177375000D01*
X50650000Y-176925000D01*
X50400000Y-176925000D01*
X50400000Y-176375000D01*
X51600000Y-176375000D01*
X51600000Y-176925000D01*
G37*
%TO.C,D6*%
X51200000Y-61225000D02*
X51600000Y-61225000D01*
X51600000Y-61775000D01*
X50400000Y-61775000D01*
X50400000Y-61225000D01*
X50650000Y-61225000D01*
X50650000Y-60775000D01*
X51200000Y-60775000D01*
X51200000Y-61225000D01*
G36*
X51200000Y-61225000D02*
G01*
X51600000Y-61225000D01*
X51600000Y-61775000D01*
X50400000Y-61775000D01*
X50400000Y-61225000D01*
X50650000Y-61225000D01*
X50650000Y-60775000D01*
X51200000Y-60775000D01*
X51200000Y-61225000D01*
G37*
X51600000Y-64925000D02*
X51200000Y-64925000D01*
X51200000Y-65375000D01*
X50650000Y-65375000D01*
X50650000Y-64925000D01*
X50400000Y-64925000D01*
X50400000Y-64375000D01*
X51600000Y-64375000D01*
X51600000Y-64925000D01*
G36*
X51600000Y-64925000D02*
G01*
X51200000Y-64925000D01*
X51200000Y-65375000D01*
X50650000Y-65375000D01*
X50650000Y-64925000D01*
X50400000Y-64925000D01*
X50400000Y-64375000D01*
X51600000Y-64375000D01*
X51600000Y-64925000D01*
G37*
%TD*%
D11*
%TO.C,D8*%
X51000000Y-77525000D03*
D12*
X51000000Y-76500000D03*
%TD*%
D13*
%TO.C,C4*%
X47040000Y-42000000D03*
X48000000Y-42000000D03*
%TD*%
D11*
%TO.C,D7*%
X51000000Y-70525000D03*
D12*
X51000000Y-69500000D03*
%TD*%
D11*
%TO.C,D3*%
X51000000Y-42525000D03*
D12*
X51000000Y-41500000D03*
%TD*%
D11*
%TO.C,D1*%
X51000000Y-28525000D03*
D12*
X51000000Y-27500000D03*
%TD*%
D11*
%TO.C,D24*%
X51000000Y-189525000D03*
D12*
X51000000Y-188500000D03*
%TD*%
D13*
%TO.C,C11*%
X47040000Y-98000000D03*
X48000000Y-98000000D03*
%TD*%
%TO.C,C9*%
X47040000Y-112000000D03*
X48000000Y-112000000D03*
%TD*%
D11*
%TO.C,D17*%
X51000000Y-140525000D03*
D12*
X51000000Y-139500000D03*
%TD*%
D13*
%TO.C,C16*%
X47040000Y-126000000D03*
X48000000Y-126000000D03*
%TD*%
D11*
%TO.C,D21*%
X51000000Y-168525000D03*
D12*
X51000000Y-167500000D03*
%TD*%
D13*
%TO.C,C20*%
X47040000Y-154000000D03*
X48000000Y-154000000D03*
%TD*%
%TO.C,C13*%
X47040000Y-84000000D03*
X48000000Y-84000000D03*
%TD*%
%TO.C,C7*%
X47040000Y-63000000D03*
X48000000Y-63000000D03*
%TD*%
D11*
%TO.C,D12*%
X51000000Y-105525000D03*
D12*
X51000000Y-104500000D03*
%TD*%
D13*
%TO.C,C18*%
X47040000Y-140000000D03*
X48000000Y-140000000D03*
%TD*%
D11*
%TO.C,D9*%
X51000000Y-84525000D03*
D12*
X51000000Y-83500000D03*
%TD*%
D11*
%TO.C,D18*%
X51000000Y-147525000D03*
D12*
X51000000Y-146500000D03*
%TD*%
D11*
%TO.C,D5*%
X51000000Y-56525000D03*
D12*
X51000000Y-55500000D03*
%TD*%
D11*
%TO.C,D2*%
X51000000Y-35525000D03*
D12*
X51000000Y-34500000D03*
%TD*%
D13*
%TO.C,C14*%
X47040000Y-77000000D03*
X48000000Y-77000000D03*
%TD*%
D11*
%TO.C,D13*%
X51000000Y-112525000D03*
D12*
X51000000Y-111500000D03*
%TD*%
D11*
%TO.C,D23*%
X51000000Y-182525000D03*
D12*
X51000000Y-181500000D03*
%TD*%
D13*
%TO.C,C17*%
X47040000Y-133000000D03*
X48000000Y-133000000D03*
%TD*%
D11*
%TO.C,D15*%
X51000000Y-126525000D03*
D12*
X51000000Y-125500000D03*
%TD*%
D13*
%TO.C,C8*%
X47040000Y-70000000D03*
X48000000Y-70000000D03*
%TD*%
%TO.C,C19*%
X47040000Y-147000000D03*
X48000000Y-147000000D03*
%TD*%
%TO.C,C22*%
X47040000Y-182000000D03*
X48000000Y-182000000D03*
%TD*%
%TO.C,C25*%
X47040000Y-161000000D03*
X48000000Y-161000000D03*
%TD*%
%TO.C,C15*%
X47040000Y-119000000D03*
X48000000Y-119000000D03*
%TD*%
D11*
%TO.C,D10*%
X51000000Y-91525000D03*
D12*
X51000000Y-90500000D03*
%TD*%
D11*
%TO.C,D20*%
X51000000Y-161525000D03*
D12*
X51000000Y-160500000D03*
%TD*%
D11*
%TO.C,D16*%
X51000000Y-133525000D03*
D12*
X51000000Y-132500000D03*
%TD*%
D11*
%TO.C,D11*%
X51000000Y-98525000D03*
D12*
X51000000Y-97500000D03*
%TD*%
D13*
%TO.C,C3*%
X47040000Y-35000000D03*
X48000000Y-35000000D03*
%TD*%
%TO.C,C10*%
X47040000Y-105000000D03*
X48000000Y-105000000D03*
%TD*%
D14*
%TO.C,SW1*%
X41500000Y-26000000D03*
X41500000Y-33610000D03*
%TD*%
D13*
%TO.C,C24*%
X47040000Y-168000000D03*
X48000000Y-168000000D03*
%TD*%
%TO.C,C21*%
X47040000Y-189000000D03*
X48000000Y-189000000D03*
%TD*%
D11*
%TO.C,D14*%
X51000000Y-119525000D03*
D12*
X51000000Y-118500000D03*
%TD*%
D11*
%TO.C,D4*%
X51000000Y-49525000D03*
D12*
X51000000Y-48500000D03*
%TD*%
D11*
%TO.C,D19*%
X51000000Y-154525000D03*
D12*
X51000000Y-153500000D03*
%TD*%
D13*
%TO.C,C23*%
X47040000Y-175000000D03*
X48000000Y-175000000D03*
%TD*%
D11*
%TO.C,D22*%
X51000000Y-175525000D03*
D12*
X51000000Y-174500000D03*
%TD*%
D13*
%TO.C,C6*%
X47040000Y-56000000D03*
X48000000Y-56000000D03*
%TD*%
%TO.C,C5*%
X47040000Y-49000000D03*
X48000000Y-49000000D03*
%TD*%
%TO.C,C2*%
X47040000Y-28000000D03*
X48000000Y-28000000D03*
%TD*%
D15*
%TO.C,C1*%
X44025000Y-25000000D03*
X46975000Y-25000000D03*
%TD*%
D11*
%TO.C,D6*%
X51000000Y-63525000D03*
D12*
X51000000Y-62500000D03*
%TD*%
D13*
%TO.C,C12*%
X47040000Y-91000000D03*
X48000000Y-91000000D03*
%TD*%
M02*
