%TF.GenerationSoftware,KiCad,Pcbnew,9.0.7*%
%TF.CreationDate,2026-03-17T22:43:26+07:00*%
%TF.ProjectId,project,70726f6a-6563-4742-9e6b-696361645f70,rev?*%
%TF.SameCoordinates,Original*%
%TF.FileFunction,Copper,L2,Bot*%
%TF.FilePolarity,Positive*%
%FSLAX46Y46*%
G04 Gerber Fmt 4.6, Leading zero omitted, Abs format (unit mm)*
G04 Created by KiCad (PCBNEW 9.0.7) date 2026-03-17 22:43:26*
%MOMM*%
%LPD*%
G01*
G04 APERTURE LIST*
%TA.AperFunction,ComponentPad*%
%ADD10C,2.000000*%
%TD*%
%TA.AperFunction,ViaPad*%
%ADD11C,0.600000*%
%TD*%
%TA.AperFunction,Conductor*%
%ADD12C,0.200000*%
%TD*%
G04 APERTURE END LIST*
D10*
%TO.P,H1,1,1*%
%TO.N,Net-(C1-Pad2)*%
X41500000Y-18500000D03*
%TD*%
%TO.P,H3,1,1*%
%TO.N,Net-(D1-DIN)*%
X41500000Y-23500000D03*
%TD*%
%TO.P,H2,1,1*%
%TO.N,GND*%
X41500000Y-21000000D03*
%TD*%
D11*
%TO.N,GND*%
X47996826Y-98634962D03*
X47995487Y-42660880D03*
X47994516Y-161630056D03*
X47986670Y-112640629D03*
X51000000Y-179000000D03*
X51000000Y-60500000D03*
X51000000Y-144000000D03*
X47999999Y-168631660D03*
X48003332Y-105627097D03*
X51000000Y-46500000D03*
X51000000Y-123000000D03*
X51000000Y-53500000D03*
X48006347Y-126631948D03*
X51000000Y-25500000D03*
X47996826Y-133628869D03*
X47999999Y-175636626D03*
X48006347Y-91638296D03*
X51000000Y-158000000D03*
X47989764Y-63641761D03*
X51000000Y-32500000D03*
X47994571Y-77655437D03*
X51000000Y-165000000D03*
X48017826Y-56667045D03*
X51000000Y-172000000D03*
X47993652Y-84637948D03*
X43000000Y-25000000D03*
X51000000Y-81000000D03*
X51000000Y-67000000D03*
X47995487Y-49630455D03*
X51000000Y-109000000D03*
X48000000Y-70652604D03*
X51000000Y-130000000D03*
X48009997Y-189643428D03*
X48001503Y-28635291D03*
X51000000Y-95000000D03*
X51000000Y-39500000D03*
X51000000Y-74000000D03*
X47999999Y-140641911D03*
X48006656Y-35635460D03*
X51000000Y-116000000D03*
X48009521Y-119637948D03*
X48003173Y-147638578D03*
X51000000Y-186000000D03*
X51000000Y-137000000D03*
X51000000Y-88000000D03*
X51000000Y-151000000D03*
X51000000Y-102000000D03*
X48013329Y-182632962D03*
X47996826Y-154629659D03*
%TO.N,Net-(D1-VDD)*%
X47040000Y-68500000D03*
X49500000Y-140000000D03*
X47040000Y-173500000D03*
X49600000Y-42000000D03*
X49600000Y-175250000D03*
X47040000Y-124500000D03*
X47040000Y-89500000D03*
X47040000Y-110500000D03*
X47040000Y-138500000D03*
X47040000Y-117500000D03*
X49674265Y-161174265D03*
X49671256Y-133277274D03*
X49724265Y-49124265D03*
X50000000Y-147100000D03*
X49674265Y-63174265D03*
X49987978Y-168008265D03*
X49600000Y-56000000D03*
X47040000Y-103500000D03*
X49600000Y-70000000D03*
X49659000Y-126000000D03*
X49600000Y-154000000D03*
X47040000Y-54500000D03*
X47040000Y-75500000D03*
X49753765Y-119194765D03*
X47040000Y-166500000D03*
X49600000Y-182000000D03*
X47040000Y-47500000D03*
X47040000Y-61500000D03*
X49674265Y-35174265D03*
X47040000Y-82500000D03*
X49987978Y-112008265D03*
X47040000Y-145500000D03*
X49600000Y-84000000D03*
X49600000Y-98000000D03*
X49624265Y-105224265D03*
X47040000Y-131500000D03*
X47040000Y-96500000D03*
X49624265Y-91224265D03*
X47040000Y-159500000D03*
X47040000Y-152500000D03*
X47040000Y-40500000D03*
X47040000Y-33500000D03*
X47040000Y-180500000D03*
X49600000Y-27500000D03*
X49724265Y-77124265D03*
X47040000Y-27000000D03*
%TD*%
D12*
%TO.N,Net-(D1-VDD)*%
X47040000Y-159500000D02*
X47540000Y-160000000D01*
X49100000Y-27000000D02*
X49600000Y-27500000D01*
X48600000Y-55000000D02*
X49600000Y-56000000D01*
X48600000Y-153000000D02*
X49600000Y-154000000D01*
X48500000Y-34000000D02*
X49674265Y-35174265D01*
X48624265Y-76000000D02*
X49724265Y-77100000D01*
X48500000Y-41000000D02*
X49500000Y-42000000D01*
X48600000Y-181000000D02*
X49600000Y-182000000D01*
X47040000Y-75500000D02*
X47540000Y-76000000D01*
X48500000Y-174000000D02*
X49600000Y-175100000D01*
X48900000Y-146000000D02*
X47540000Y-146000000D01*
X47540000Y-146000000D02*
X47040000Y-145500000D01*
X47040000Y-131500000D02*
X47540000Y-132000000D01*
X47040000Y-68500000D02*
X47540000Y-69000000D01*
X47540000Y-118000000D02*
X48559000Y-118000000D01*
X49500000Y-70000000D02*
X49600000Y-70000000D01*
X48600000Y-97000000D02*
X49600000Y-98000000D01*
X49600000Y-83800000D02*
X49600000Y-84000000D01*
X47040000Y-96500000D02*
X47540000Y-97000000D01*
X47540000Y-111000000D02*
X48979713Y-111000000D01*
X47040000Y-47500000D02*
X47540000Y-48000000D01*
X47040000Y-61500000D02*
X47540000Y-62000000D01*
X47040000Y-117500000D02*
X47540000Y-118000000D01*
X47040000Y-54500000D02*
X47540000Y-55000000D01*
X47040000Y-152500000D02*
X47540000Y-153000000D01*
X47040000Y-124500000D02*
X47540000Y-125000000D01*
X48559000Y-118000000D02*
X49753765Y-119194765D01*
X48400000Y-90000000D02*
X49624265Y-91224265D01*
X47040000Y-40500000D02*
X47540000Y-41000000D01*
X47540000Y-83000000D02*
X48800000Y-83000000D01*
X48800000Y-83000000D02*
X49600000Y-83800000D01*
X48500000Y-62000000D02*
X49674265Y-63174265D01*
X48393982Y-132000000D02*
X49671256Y-133277274D01*
X48500000Y-139000000D02*
X49500000Y-140000000D01*
X49500000Y-126000000D02*
X49659000Y-126000000D01*
X47040000Y-166500000D02*
X47540000Y-167000000D01*
X47040000Y-27000000D02*
X49100000Y-27000000D01*
X47500000Y-34000000D02*
X48500000Y-34000000D01*
X48500000Y-125000000D02*
X49500000Y-126000000D01*
X47040000Y-110500000D02*
X47540000Y-111000000D01*
X47540000Y-125000000D02*
X48500000Y-125000000D01*
X47040000Y-180500000D02*
X47540000Y-181000000D01*
X47540000Y-160000000D02*
X48500000Y-160000000D01*
X49600000Y-175100000D02*
X49600000Y-175250000D01*
X47040000Y-173500000D02*
X47540000Y-174000000D01*
X47540000Y-153000000D02*
X48600000Y-153000000D01*
X47040000Y-89500000D02*
X47540000Y-90000000D01*
X49500000Y-42000000D02*
X49600000Y-42000000D01*
X47540000Y-167000000D02*
X48979713Y-167000000D01*
X47540000Y-55000000D02*
X48600000Y-55000000D01*
X50000000Y-147100000D02*
X48900000Y-146000000D01*
X47040000Y-82500000D02*
X47540000Y-83000000D01*
X47540000Y-62000000D02*
X48500000Y-62000000D01*
X47540000Y-104000000D02*
X48400000Y-104000000D01*
X47540000Y-69000000D02*
X48500000Y-69000000D01*
X47540000Y-181000000D02*
X48600000Y-181000000D01*
X47540000Y-132000000D02*
X48393982Y-132000000D01*
X47540000Y-97000000D02*
X48600000Y-97000000D01*
X48979713Y-111000000D02*
X49987978Y-112008265D01*
X48500000Y-160000000D02*
X49674265Y-161174265D01*
X47540000Y-48000000D02*
X48600000Y-48000000D01*
X48500000Y-69000000D02*
X49500000Y-70000000D01*
X48400000Y-104000000D02*
X49624265Y-105224265D01*
X48600000Y-48000000D02*
X49724265Y-49124265D01*
X49724265Y-77100000D02*
X49724265Y-77124265D01*
X47540000Y-41000000D02*
X48500000Y-41000000D01*
X47540000Y-90000000D02*
X48400000Y-90000000D01*
X48979713Y-167000000D02*
X49987978Y-168008265D01*
X47540000Y-139000000D02*
X48500000Y-139000000D01*
X47040000Y-33540000D02*
X47500000Y-34000000D01*
X47040000Y-138500000D02*
X47540000Y-139000000D01*
X47540000Y-76000000D02*
X48624265Y-76000000D01*
X47040000Y-103500000D02*
X47540000Y-104000000D01*
X47040000Y-33500000D02*
X47040000Y-33540000D01*
X47540000Y-174000000D02*
X48500000Y-174000000D01*
%TD*%
%TA.AperFunction,Conductor*%
%TO.N,GND*%
G36*
X40195134Y-17520185D02*
G01*
X40240889Y-17572989D01*
X40250833Y-17642147D01*
X40228414Y-17697385D01*
X40216656Y-17713567D01*
X40109433Y-17924003D01*
X40036446Y-18148631D01*
X39999500Y-18381902D01*
X39999500Y-18618097D01*
X40036446Y-18851368D01*
X40109433Y-19075996D01*
X40216657Y-19286433D01*
X40355483Y-19477510D01*
X40522490Y-19644517D01*
X40578739Y-19685384D01*
X40621403Y-19740713D01*
X40626095Y-19772542D01*
X41370591Y-20517037D01*
X41307007Y-20534075D01*
X41192993Y-20599901D01*
X41099901Y-20692993D01*
X41034075Y-20807007D01*
X41017037Y-20870591D01*
X40277340Y-20130894D01*
X40217084Y-20213830D01*
X40109897Y-20424197D01*
X40036934Y-20648752D01*
X40000000Y-20881947D01*
X40000000Y-21118052D01*
X40036934Y-21351247D01*
X40109897Y-21575802D01*
X40217087Y-21786174D01*
X40277338Y-21869104D01*
X40277340Y-21869105D01*
X41017037Y-21129408D01*
X41034075Y-21192993D01*
X41099901Y-21307007D01*
X41192993Y-21400099D01*
X41307007Y-21465925D01*
X41370590Y-21482962D01*
X40624280Y-22229271D01*
X40615105Y-22272947D01*
X40578739Y-22314615D01*
X40522490Y-22355482D01*
X40355485Y-22522487D01*
X40355485Y-22522488D01*
X40355483Y-22522490D01*
X40295862Y-22604550D01*
X40216657Y-22713566D01*
X40109433Y-22924003D01*
X40036446Y-23148631D01*
X39999500Y-23381902D01*
X39999500Y-23618097D01*
X40036446Y-23851368D01*
X40109433Y-24075996D01*
X40216657Y-24286433D01*
X40355483Y-24477510D01*
X40522490Y-24644517D01*
X40713567Y-24783343D01*
X40812991Y-24834002D01*
X40924003Y-24890566D01*
X40924005Y-24890566D01*
X40924008Y-24890568D01*
X41044412Y-24929689D01*
X41148631Y-24963553D01*
X41381903Y-25000500D01*
X41381908Y-25000500D01*
X41618097Y-25000500D01*
X41851368Y-24963553D01*
X42075992Y-24890568D01*
X42286433Y-24783343D01*
X42477510Y-24644517D01*
X42644517Y-24477510D01*
X42783343Y-24286433D01*
X42890568Y-24075992D01*
X42963553Y-23851368D01*
X43000500Y-23618097D01*
X43000500Y-23381902D01*
X42963553Y-23148631D01*
X42890566Y-22924003D01*
X42783342Y-22713566D01*
X42644517Y-22522490D01*
X42477510Y-22355483D01*
X42421259Y-22314614D01*
X42378595Y-22259284D01*
X42373902Y-22227455D01*
X41629408Y-21482962D01*
X41692993Y-21465925D01*
X41807007Y-21400099D01*
X41900099Y-21307007D01*
X41965925Y-21192993D01*
X41982962Y-21129409D01*
X42722658Y-21869105D01*
X42722658Y-21869104D01*
X42782914Y-21786169D01*
X42782918Y-21786163D01*
X42890102Y-21575802D01*
X42963065Y-21351247D01*
X43000000Y-21118052D01*
X43000000Y-20881947D01*
X42963065Y-20648752D01*
X42890102Y-20424197D01*
X42782914Y-20213828D01*
X42722658Y-20130894D01*
X42722658Y-20130893D01*
X41982962Y-20870590D01*
X41965925Y-20807007D01*
X41900099Y-20692993D01*
X41807007Y-20599901D01*
X41692993Y-20534075D01*
X41629409Y-20517037D01*
X42375716Y-19770729D01*
X42384891Y-19727054D01*
X42421257Y-19685386D01*
X42477510Y-19644517D01*
X42644517Y-19477510D01*
X42783343Y-19286433D01*
X42890568Y-19075992D01*
X42963553Y-18851368D01*
X43000500Y-18618097D01*
X43000500Y-18381902D01*
X42963553Y-18148631D01*
X42913010Y-17993077D01*
X42890568Y-17924008D01*
X42890566Y-17924005D01*
X42890566Y-17924003D01*
X42783343Y-17713567D01*
X42771586Y-17697385D01*
X42748107Y-17631578D01*
X42763933Y-17563524D01*
X42814039Y-17514830D01*
X42871905Y-17500500D01*
X52934108Y-17500500D01*
X52993038Y-17500500D01*
X53006922Y-17501280D01*
X53097266Y-17511459D01*
X53124331Y-17517636D01*
X53203540Y-17545352D01*
X53228553Y-17557398D01*
X53299606Y-17602043D01*
X53321313Y-17619355D01*
X53380644Y-17678686D01*
X53397957Y-17700395D01*
X53442600Y-17771444D01*
X53454648Y-17796462D01*
X53482362Y-17875666D01*
X53488540Y-17902735D01*
X53498720Y-17993076D01*
X53499500Y-18006961D01*
X53499500Y-192993038D01*
X53498720Y-193006922D01*
X53498720Y-193006923D01*
X53488540Y-193097264D01*
X53482362Y-193124333D01*
X53454648Y-193203537D01*
X53442600Y-193228555D01*
X53397957Y-193299604D01*
X53380644Y-193321313D01*
X53321313Y-193380644D01*
X53299604Y-193397957D01*
X53228555Y-193442600D01*
X53203537Y-193454648D01*
X53124333Y-193482362D01*
X53097264Y-193488540D01*
X53017075Y-193497576D01*
X53006921Y-193498720D01*
X52993038Y-193499500D01*
X40006962Y-193499500D01*
X39993078Y-193498720D01*
X39980553Y-193497308D01*
X39902735Y-193488540D01*
X39875666Y-193482362D01*
X39796462Y-193454648D01*
X39771444Y-193442600D01*
X39700395Y-193397957D01*
X39678686Y-193380644D01*
X39619355Y-193321313D01*
X39602042Y-193299604D01*
X39557399Y-193228555D01*
X39545351Y-193203537D01*
X39517637Y-193124333D01*
X39511459Y-193097263D01*
X39501280Y-193006922D01*
X39500500Y-192993038D01*
X39500500Y-180421153D01*
X46239500Y-180421153D01*
X46239500Y-180578846D01*
X46270261Y-180733489D01*
X46270264Y-180733501D01*
X46330602Y-180879172D01*
X46330609Y-180879185D01*
X46418210Y-181010288D01*
X46418213Y-181010292D01*
X46529707Y-181121786D01*
X46529711Y-181121789D01*
X46660814Y-181209390D01*
X46660827Y-181209397D01*
X46806498Y-181269735D01*
X46806503Y-181269737D01*
X46961158Y-181300500D01*
X46961847Y-181300637D01*
X47023758Y-181333022D01*
X47025337Y-181334573D01*
X47171284Y-181480520D01*
X47171286Y-181480521D01*
X47171290Y-181480524D01*
X47187196Y-181489707D01*
X47308216Y-181559577D01*
X47460943Y-181600501D01*
X47460945Y-181600501D01*
X47626654Y-181600501D01*
X47626670Y-181600500D01*
X48299903Y-181600500D01*
X48366942Y-181620185D01*
X48387584Y-181636819D01*
X48765425Y-182014660D01*
X48798910Y-182075983D01*
X48799361Y-182078149D01*
X48830261Y-182233491D01*
X48830264Y-182233501D01*
X48890602Y-182379172D01*
X48890609Y-182379185D01*
X48978210Y-182510288D01*
X48978213Y-182510292D01*
X49089707Y-182621786D01*
X49089711Y-182621789D01*
X49220814Y-182709390D01*
X49220827Y-182709397D01*
X49366498Y-182769735D01*
X49366503Y-182769737D01*
X49521153Y-182800499D01*
X49521156Y-182800500D01*
X49521158Y-182800500D01*
X49678844Y-182800500D01*
X49678845Y-182800499D01*
X49833497Y-182769737D01*
X49979179Y-182709394D01*
X50110289Y-182621789D01*
X50221789Y-182510289D01*
X50309394Y-182379179D01*
X50369737Y-182233497D01*
X50400500Y-182078842D01*
X50400500Y-181921158D01*
X50400500Y-181921155D01*
X50400499Y-181921153D01*
X50369738Y-181766510D01*
X50369737Y-181766503D01*
X50316021Y-181636819D01*
X50309397Y-181620827D01*
X50309390Y-181620814D01*
X50221789Y-181489711D01*
X50221786Y-181489707D01*
X50110292Y-181378213D01*
X50110288Y-181378210D01*
X49979185Y-181290609D01*
X49979172Y-181290602D01*
X49833501Y-181230264D01*
X49833491Y-181230261D01*
X49678151Y-181199362D01*
X49616241Y-181166977D01*
X49614662Y-181165426D01*
X49087590Y-180638355D01*
X49087588Y-180638352D01*
X48968717Y-180519481D01*
X48968716Y-180519480D01*
X48876764Y-180466392D01*
X48831785Y-180440423D01*
X48679057Y-180399499D01*
X48520943Y-180399499D01*
X48513347Y-180399499D01*
X48513331Y-180399500D01*
X47937956Y-180399500D01*
X47870917Y-180379815D01*
X47825162Y-180327011D01*
X47816339Y-180299691D01*
X47809738Y-180266510D01*
X47809737Y-180266503D01*
X47809735Y-180266498D01*
X47749397Y-180120827D01*
X47749390Y-180120814D01*
X47661789Y-179989711D01*
X47661786Y-179989707D01*
X47550292Y-179878213D01*
X47550288Y-179878210D01*
X47419185Y-179790609D01*
X47419172Y-179790602D01*
X47273501Y-179730264D01*
X47273489Y-179730261D01*
X47118845Y-179699500D01*
X47118842Y-179699500D01*
X46961158Y-179699500D01*
X46961155Y-179699500D01*
X46806510Y-179730261D01*
X46806498Y-179730264D01*
X46660827Y-179790602D01*
X46660814Y-179790609D01*
X46529711Y-179878210D01*
X46529707Y-179878213D01*
X46418213Y-179989707D01*
X46418210Y-179989711D01*
X46330609Y-180120814D01*
X46330602Y-180120827D01*
X46270264Y-180266498D01*
X46270261Y-180266510D01*
X46239500Y-180421153D01*
X39500500Y-180421153D01*
X39500500Y-179892683D01*
X39500500Y-179892682D01*
X39477147Y-179730261D01*
X39469955Y-179680235D01*
X39469952Y-179680225D01*
X39431705Y-179549966D01*
X39409484Y-179474290D01*
X39409483Y-179474288D01*
X39409482Y-179474284D01*
X39320327Y-179279061D01*
X39320320Y-179279048D01*
X39265140Y-179193186D01*
X39204281Y-179098487D01*
X39171172Y-179060277D01*
X39063724Y-178936275D01*
X38981926Y-178865397D01*
X38944152Y-178806618D01*
X38939129Y-178771684D01*
X38939129Y-173421153D01*
X46239500Y-173421153D01*
X46239500Y-173578846D01*
X46270261Y-173733489D01*
X46270264Y-173733501D01*
X46330602Y-173879172D01*
X46330609Y-173879185D01*
X46418210Y-174010288D01*
X46418213Y-174010292D01*
X46529707Y-174121786D01*
X46529711Y-174121789D01*
X46660814Y-174209390D01*
X46660827Y-174209397D01*
X46806498Y-174269735D01*
X46806503Y-174269737D01*
X46961158Y-174300500D01*
X46961847Y-174300637D01*
X47023758Y-174333022D01*
X47025337Y-174334573D01*
X47171284Y-174480520D01*
X47171286Y-174480521D01*
X47171290Y-174480524D01*
X47275353Y-174540604D01*
X47308216Y-174559577D01*
X47460943Y-174600501D01*
X47460945Y-174600501D01*
X47626654Y-174600501D01*
X47626670Y-174600500D01*
X48199903Y-174600500D01*
X48266942Y-174620185D01*
X48287584Y-174636819D01*
X48763181Y-175112416D01*
X48796666Y-175173739D01*
X48799500Y-175200097D01*
X48799500Y-175328846D01*
X48830261Y-175483489D01*
X48830264Y-175483501D01*
X48890602Y-175629172D01*
X48890609Y-175629185D01*
X48978210Y-175760288D01*
X48978213Y-175760292D01*
X49089707Y-175871786D01*
X49089711Y-175871789D01*
X49220814Y-175959390D01*
X49220827Y-175959397D01*
X49366498Y-176019735D01*
X49366503Y-176019737D01*
X49521153Y-176050499D01*
X49521156Y-176050500D01*
X49521158Y-176050500D01*
X49678844Y-176050500D01*
X49678845Y-176050499D01*
X49833497Y-176019737D01*
X49979179Y-175959394D01*
X50110289Y-175871789D01*
X50221789Y-175760289D01*
X50309394Y-175629179D01*
X50369737Y-175483497D01*
X50400500Y-175328842D01*
X50400500Y-175171158D01*
X50400500Y-175171155D01*
X50400499Y-175171153D01*
X50369738Y-175016510D01*
X50369737Y-175016503D01*
X50369735Y-175016498D01*
X50309397Y-174870827D01*
X50309390Y-174870814D01*
X50221789Y-174739711D01*
X50221786Y-174739707D01*
X50110292Y-174628213D01*
X50110288Y-174628210D01*
X49979185Y-174540609D01*
X49979176Y-174540604D01*
X49849456Y-174486873D01*
X49809228Y-174459993D01*
X48987590Y-173638355D01*
X48987588Y-173638352D01*
X48868717Y-173519481D01*
X48868716Y-173519480D01*
X48781904Y-173469360D01*
X48781904Y-173469359D01*
X48781900Y-173469358D01*
X48731785Y-173440423D01*
X48579057Y-173399499D01*
X48420943Y-173399499D01*
X48413347Y-173399499D01*
X48413331Y-173399500D01*
X47937956Y-173399500D01*
X47870917Y-173379815D01*
X47825162Y-173327011D01*
X47816339Y-173299691D01*
X47809738Y-173266510D01*
X47809737Y-173266503D01*
X47809735Y-173266498D01*
X47749397Y-173120827D01*
X47749390Y-173120814D01*
X47661789Y-172989711D01*
X47661786Y-172989707D01*
X47550292Y-172878213D01*
X47550288Y-172878210D01*
X47419185Y-172790609D01*
X47419172Y-172790602D01*
X47273501Y-172730264D01*
X47273489Y-172730261D01*
X47118845Y-172699500D01*
X47118842Y-172699500D01*
X46961158Y-172699500D01*
X46961155Y-172699500D01*
X46806510Y-172730261D01*
X46806498Y-172730264D01*
X46660827Y-172790602D01*
X46660814Y-172790609D01*
X46529711Y-172878210D01*
X46529707Y-172878213D01*
X46418213Y-172989707D01*
X46418210Y-172989711D01*
X46330609Y-173120814D01*
X46330602Y-173120827D01*
X46270264Y-173266498D01*
X46270261Y-173266510D01*
X46239500Y-173421153D01*
X38939129Y-173421153D01*
X38939129Y-167228315D01*
X38958814Y-167161276D01*
X38981927Y-167134602D01*
X39063721Y-167063727D01*
X39110023Y-167010292D01*
X39204281Y-166901513D01*
X39320321Y-166720950D01*
X39320323Y-166720944D01*
X39320327Y-166720938D01*
X39409482Y-166525715D01*
X39409482Y-166525713D01*
X39409484Y-166525710D01*
X39440185Y-166421153D01*
X46239500Y-166421153D01*
X46239500Y-166578846D01*
X46270261Y-166733489D01*
X46270264Y-166733501D01*
X46330602Y-166879172D01*
X46330609Y-166879185D01*
X46418210Y-167010288D01*
X46418213Y-167010292D01*
X46529707Y-167121786D01*
X46529711Y-167121789D01*
X46660814Y-167209390D01*
X46660827Y-167209397D01*
X46806498Y-167269735D01*
X46806503Y-167269737D01*
X46961158Y-167300500D01*
X46961847Y-167300637D01*
X47023758Y-167333022D01*
X47025337Y-167334573D01*
X47171284Y-167480520D01*
X47171286Y-167480521D01*
X47171290Y-167480524D01*
X47308209Y-167559573D01*
X47308216Y-167559577D01*
X47460943Y-167600501D01*
X47460945Y-167600501D01*
X47626654Y-167600501D01*
X47626670Y-167600500D01*
X48679616Y-167600500D01*
X48746655Y-167620185D01*
X48767297Y-167636819D01*
X49153403Y-168022925D01*
X49186888Y-168084248D01*
X49187339Y-168086414D01*
X49218239Y-168241756D01*
X49218242Y-168241766D01*
X49278580Y-168387437D01*
X49278587Y-168387450D01*
X49366188Y-168518553D01*
X49366191Y-168518557D01*
X49477685Y-168630051D01*
X49477689Y-168630054D01*
X49608792Y-168717655D01*
X49608805Y-168717662D01*
X49754476Y-168778000D01*
X49754481Y-168778002D01*
X49909131Y-168808764D01*
X49909134Y-168808765D01*
X49909136Y-168808765D01*
X50066822Y-168808765D01*
X50066823Y-168808764D01*
X50221475Y-168778002D01*
X50367157Y-168717659D01*
X50498267Y-168630054D01*
X50609767Y-168518554D01*
X50697372Y-168387444D01*
X50757715Y-168241762D01*
X50788478Y-168087107D01*
X50788478Y-167929423D01*
X50788478Y-167929420D01*
X50788477Y-167929418D01*
X50757716Y-167774775D01*
X50757715Y-167774768D01*
X50757713Y-167774763D01*
X50697375Y-167629092D01*
X50697368Y-167629079D01*
X50609767Y-167497976D01*
X50609764Y-167497972D01*
X50498270Y-167386478D01*
X50498266Y-167386475D01*
X50367163Y-167298874D01*
X50367150Y-167298867D01*
X50221479Y-167238529D01*
X50221469Y-167238526D01*
X50066127Y-167207626D01*
X50004216Y-167175241D01*
X50002638Y-167173690D01*
X49467303Y-166638355D01*
X49467301Y-166638352D01*
X49348430Y-166519481D01*
X49348429Y-166519480D01*
X49256477Y-166466392D01*
X49211498Y-166440423D01*
X49058770Y-166399499D01*
X48900656Y-166399499D01*
X48893060Y-166399499D01*
X48893044Y-166399500D01*
X47937956Y-166399500D01*
X47870917Y-166379815D01*
X47825162Y-166327011D01*
X47816339Y-166299691D01*
X47809738Y-166266510D01*
X47809737Y-166266503D01*
X47809735Y-166266498D01*
X47749397Y-166120827D01*
X47749390Y-166120814D01*
X47661789Y-165989711D01*
X47661786Y-165989707D01*
X47550292Y-165878213D01*
X47550288Y-165878210D01*
X47419185Y-165790609D01*
X47419172Y-165790602D01*
X47273501Y-165730264D01*
X47273489Y-165730261D01*
X47118845Y-165699500D01*
X47118842Y-165699500D01*
X46961158Y-165699500D01*
X46961155Y-165699500D01*
X46806510Y-165730261D01*
X46806498Y-165730264D01*
X46660827Y-165790602D01*
X46660814Y-165790609D01*
X46529711Y-165878210D01*
X46529707Y-165878213D01*
X46418213Y-165989707D01*
X46418210Y-165989711D01*
X46330609Y-166120814D01*
X46330602Y-166120827D01*
X46270264Y-166266498D01*
X46270261Y-166266510D01*
X46239500Y-166421153D01*
X39440185Y-166421153D01*
X39469954Y-166319769D01*
X39500500Y-166107318D01*
X39500500Y-166000000D01*
X39500500Y-165934108D01*
X39500500Y-160934108D01*
X39500500Y-160892682D01*
X39469954Y-160680231D01*
X39409484Y-160474290D01*
X39409483Y-160474288D01*
X39409482Y-160474284D01*
X39320327Y-160279061D01*
X39320320Y-160279048D01*
X39275556Y-160209394D01*
X39204281Y-160098487D01*
X39171172Y-160060277D01*
X39063724Y-159936275D01*
X38981926Y-159865397D01*
X38944152Y-159806618D01*
X38939129Y-159771684D01*
X38939129Y-159421153D01*
X46239500Y-159421153D01*
X46239500Y-159578846D01*
X46270261Y-159733489D01*
X46270264Y-159733501D01*
X46330602Y-159879172D01*
X46330609Y-159879185D01*
X46418210Y-160010288D01*
X46418213Y-160010292D01*
X46529707Y-160121786D01*
X46529711Y-160121789D01*
X46660814Y-160209390D01*
X46660827Y-160209397D01*
X46806498Y-160269735D01*
X46806503Y-160269737D01*
X46961158Y-160300500D01*
X46961847Y-160300637D01*
X47023758Y-160333022D01*
X47025337Y-160334573D01*
X47171284Y-160480520D01*
X47171286Y-160480521D01*
X47171290Y-160480524D01*
X47295920Y-160552478D01*
X47308216Y-160559577D01*
X47460943Y-160600501D01*
X47460945Y-160600501D01*
X47626654Y-160600501D01*
X47626670Y-160600500D01*
X48199903Y-160600500D01*
X48266942Y-160620185D01*
X48287584Y-160636819D01*
X48839690Y-161188925D01*
X48873175Y-161250248D01*
X48873626Y-161252414D01*
X48904526Y-161407756D01*
X48904529Y-161407766D01*
X48964867Y-161553437D01*
X48964874Y-161553450D01*
X49052475Y-161684553D01*
X49052478Y-161684557D01*
X49163972Y-161796051D01*
X49163976Y-161796054D01*
X49295079Y-161883655D01*
X49295092Y-161883662D01*
X49440763Y-161944000D01*
X49440768Y-161944002D01*
X49595418Y-161974764D01*
X49595421Y-161974765D01*
X49595423Y-161974765D01*
X49753109Y-161974765D01*
X49753110Y-161974764D01*
X49907762Y-161944002D01*
X50053444Y-161883659D01*
X50184554Y-161796054D01*
X50296054Y-161684554D01*
X50383659Y-161553444D01*
X50444002Y-161407762D01*
X50474765Y-161253107D01*
X50474765Y-161095423D01*
X50474765Y-161095420D01*
X50474764Y-161095418D01*
X50444003Y-160940775D01*
X50444002Y-160940768D01*
X50424084Y-160892682D01*
X50383662Y-160795092D01*
X50383655Y-160795079D01*
X50296054Y-160663976D01*
X50296051Y-160663972D01*
X50184557Y-160552478D01*
X50184553Y-160552475D01*
X50053450Y-160464874D01*
X50053437Y-160464867D01*
X49907766Y-160404529D01*
X49907756Y-160404526D01*
X49752414Y-160373626D01*
X49690503Y-160341241D01*
X49688925Y-160339690D01*
X48987590Y-159638355D01*
X48987588Y-159638352D01*
X48868717Y-159519481D01*
X48868716Y-159519480D01*
X48781904Y-159469360D01*
X48781904Y-159469359D01*
X48781900Y-159469358D01*
X48731785Y-159440423D01*
X48579057Y-159399499D01*
X48420943Y-159399499D01*
X48413347Y-159399499D01*
X48413331Y-159399500D01*
X47937956Y-159399500D01*
X47870917Y-159379815D01*
X47825162Y-159327011D01*
X47816339Y-159299691D01*
X47809738Y-159266510D01*
X47809737Y-159266503D01*
X47809735Y-159266498D01*
X47749397Y-159120827D01*
X47749390Y-159120814D01*
X47661789Y-158989711D01*
X47661786Y-158989707D01*
X47550292Y-158878213D01*
X47550288Y-158878210D01*
X47419185Y-158790609D01*
X47419172Y-158790602D01*
X47273501Y-158730264D01*
X47273489Y-158730261D01*
X47118845Y-158699500D01*
X47118842Y-158699500D01*
X46961158Y-158699500D01*
X46961155Y-158699500D01*
X46806510Y-158730261D01*
X46806498Y-158730264D01*
X46660827Y-158790602D01*
X46660814Y-158790609D01*
X46529711Y-158878210D01*
X46529707Y-158878213D01*
X46418213Y-158989707D01*
X46418210Y-158989711D01*
X46330609Y-159120814D01*
X46330602Y-159120827D01*
X46270264Y-159266498D01*
X46270261Y-159266510D01*
X46239500Y-159421153D01*
X38939129Y-159421153D01*
X38939129Y-152421153D01*
X46239500Y-152421153D01*
X46239500Y-152578846D01*
X46270261Y-152733489D01*
X46270264Y-152733501D01*
X46330602Y-152879172D01*
X46330609Y-152879185D01*
X46418210Y-153010288D01*
X46418213Y-153010292D01*
X46529707Y-153121786D01*
X46529711Y-153121789D01*
X46660814Y-153209390D01*
X46660827Y-153209397D01*
X46806498Y-153269735D01*
X46806503Y-153269737D01*
X46961158Y-153300500D01*
X46961847Y-153300637D01*
X47023758Y-153333022D01*
X47025337Y-153334573D01*
X47171284Y-153480520D01*
X47171286Y-153480521D01*
X47171290Y-153480524D01*
X47187196Y-153489707D01*
X47308216Y-153559577D01*
X47460943Y-153600501D01*
X47460945Y-153600501D01*
X47626654Y-153600501D01*
X47626670Y-153600500D01*
X48299903Y-153600500D01*
X48366942Y-153620185D01*
X48387584Y-153636819D01*
X48765425Y-154014660D01*
X48798910Y-154075983D01*
X48799361Y-154078149D01*
X48830261Y-154233491D01*
X48830264Y-154233501D01*
X48890602Y-154379172D01*
X48890609Y-154379185D01*
X48978210Y-154510288D01*
X48978213Y-154510292D01*
X49089707Y-154621786D01*
X49089711Y-154621789D01*
X49220814Y-154709390D01*
X49220827Y-154709397D01*
X49366498Y-154769735D01*
X49366503Y-154769737D01*
X49521153Y-154800499D01*
X49521156Y-154800500D01*
X49521158Y-154800500D01*
X49678844Y-154800500D01*
X49678845Y-154800499D01*
X49833497Y-154769737D01*
X49979179Y-154709394D01*
X50110289Y-154621789D01*
X50221789Y-154510289D01*
X50309394Y-154379179D01*
X50369737Y-154233497D01*
X50400500Y-154078842D01*
X50400500Y-153921158D01*
X50400500Y-153921155D01*
X50400499Y-153921153D01*
X50369738Y-153766510D01*
X50369737Y-153766503D01*
X50316021Y-153636819D01*
X50309397Y-153620827D01*
X50309390Y-153620814D01*
X50221789Y-153489711D01*
X50221786Y-153489707D01*
X50110292Y-153378213D01*
X50110288Y-153378210D01*
X49979185Y-153290609D01*
X49979172Y-153290602D01*
X49833501Y-153230264D01*
X49833491Y-153230261D01*
X49678151Y-153199362D01*
X49616241Y-153166977D01*
X49614662Y-153165426D01*
X49087590Y-152638355D01*
X49087588Y-152638352D01*
X48968717Y-152519481D01*
X48968716Y-152519480D01*
X48881904Y-152469360D01*
X48881904Y-152469359D01*
X48881900Y-152469358D01*
X48831785Y-152440423D01*
X48679057Y-152399499D01*
X48520943Y-152399499D01*
X48513347Y-152399499D01*
X48513331Y-152399500D01*
X47937956Y-152399500D01*
X47870917Y-152379815D01*
X47825162Y-152327011D01*
X47816339Y-152299691D01*
X47809738Y-152266510D01*
X47809737Y-152266503D01*
X47809735Y-152266498D01*
X47749397Y-152120827D01*
X47749390Y-152120814D01*
X47661789Y-151989711D01*
X47661786Y-151989707D01*
X47550292Y-151878213D01*
X47550288Y-151878210D01*
X47419185Y-151790609D01*
X47419172Y-151790602D01*
X47273501Y-151730264D01*
X47273489Y-151730261D01*
X47118845Y-151699500D01*
X47118842Y-151699500D01*
X46961158Y-151699500D01*
X46961155Y-151699500D01*
X46806510Y-151730261D01*
X46806498Y-151730264D01*
X46660827Y-151790602D01*
X46660814Y-151790609D01*
X46529711Y-151878210D01*
X46529707Y-151878213D01*
X46418213Y-151989707D01*
X46418210Y-151989711D01*
X46330609Y-152120814D01*
X46330602Y-152120827D01*
X46270264Y-152266498D01*
X46270261Y-152266510D01*
X46239500Y-152421153D01*
X38939129Y-152421153D01*
X38939129Y-148228315D01*
X38958814Y-148161276D01*
X38981927Y-148134602D01*
X39063721Y-148063727D01*
X39063724Y-148063724D01*
X39204281Y-147901513D01*
X39320321Y-147720950D01*
X39320323Y-147720944D01*
X39320327Y-147720938D01*
X39409482Y-147525715D01*
X39409482Y-147525713D01*
X39409484Y-147525710D01*
X39469954Y-147319769D01*
X39500500Y-147107318D01*
X39500500Y-147000000D01*
X39500500Y-146934108D01*
X39500500Y-145421153D01*
X46239500Y-145421153D01*
X46239500Y-145578846D01*
X46270261Y-145733489D01*
X46270264Y-145733501D01*
X46330602Y-145879172D01*
X46330609Y-145879185D01*
X46418210Y-146010288D01*
X46418213Y-146010292D01*
X46529707Y-146121786D01*
X46529711Y-146121789D01*
X46660814Y-146209390D01*
X46660827Y-146209397D01*
X46796093Y-146265425D01*
X46806503Y-146269737D01*
X46961158Y-146300500D01*
X46961847Y-146300637D01*
X47023758Y-146333022D01*
X47025337Y-146334573D01*
X47171284Y-146480520D01*
X47171286Y-146480521D01*
X47171290Y-146480524D01*
X47308209Y-146559573D01*
X47308216Y-146559577D01*
X47460943Y-146600501D01*
X47460945Y-146600501D01*
X47626654Y-146600501D01*
X47626670Y-146600500D01*
X48599903Y-146600500D01*
X48666942Y-146620185D01*
X48687584Y-146636819D01*
X49165425Y-147114660D01*
X49198910Y-147175983D01*
X49199361Y-147178149D01*
X49230261Y-147333491D01*
X49230264Y-147333501D01*
X49290602Y-147479172D01*
X49290609Y-147479185D01*
X49378210Y-147610288D01*
X49378213Y-147610292D01*
X49489707Y-147721786D01*
X49489711Y-147721789D01*
X49620814Y-147809390D01*
X49620827Y-147809397D01*
X49766498Y-147869735D01*
X49766503Y-147869737D01*
X49921153Y-147900499D01*
X49921156Y-147900500D01*
X49921158Y-147900500D01*
X50078844Y-147900500D01*
X50078845Y-147900499D01*
X50233497Y-147869737D01*
X50379179Y-147809394D01*
X50510289Y-147721789D01*
X50621789Y-147610289D01*
X50709394Y-147479179D01*
X50769737Y-147333497D01*
X50800500Y-147178842D01*
X50800500Y-147021158D01*
X50800500Y-147021155D01*
X50800499Y-147021153D01*
X50796291Y-147000000D01*
X50769737Y-146866503D01*
X50769735Y-146866498D01*
X50709397Y-146720827D01*
X50709390Y-146720814D01*
X50621789Y-146589711D01*
X50621786Y-146589707D01*
X50510292Y-146478213D01*
X50510288Y-146478210D01*
X50379185Y-146390609D01*
X50379172Y-146390602D01*
X50233501Y-146330264D01*
X50233491Y-146330261D01*
X50078149Y-146299361D01*
X50016238Y-146266976D01*
X50014660Y-146265425D01*
X49387590Y-145638355D01*
X49387588Y-145638352D01*
X49268717Y-145519481D01*
X49268716Y-145519480D01*
X49181904Y-145469360D01*
X49181904Y-145469359D01*
X49181900Y-145469358D01*
X49131785Y-145440423D01*
X48979057Y-145399499D01*
X48820943Y-145399499D01*
X48813347Y-145399499D01*
X48813331Y-145399500D01*
X47937956Y-145399500D01*
X47870917Y-145379815D01*
X47825162Y-145327011D01*
X47816339Y-145299691D01*
X47809738Y-145266510D01*
X47809737Y-145266503D01*
X47809735Y-145266498D01*
X47749397Y-145120827D01*
X47749390Y-145120814D01*
X47661789Y-144989711D01*
X47661786Y-144989707D01*
X47550292Y-144878213D01*
X47550288Y-144878210D01*
X47419185Y-144790609D01*
X47419172Y-144790602D01*
X47273501Y-144730264D01*
X47273489Y-144730261D01*
X47118845Y-144699500D01*
X47118842Y-144699500D01*
X46961158Y-144699500D01*
X46961155Y-144699500D01*
X46806510Y-144730261D01*
X46806498Y-144730264D01*
X46660827Y-144790602D01*
X46660814Y-144790609D01*
X46529711Y-144878210D01*
X46529707Y-144878213D01*
X46418213Y-144989707D01*
X46418210Y-144989711D01*
X46330609Y-145120814D01*
X46330602Y-145120827D01*
X46270264Y-145266498D01*
X46270261Y-145266510D01*
X46239500Y-145421153D01*
X39500500Y-145421153D01*
X39500500Y-141934108D01*
X39500500Y-141892682D01*
X39469954Y-141680231D01*
X39409484Y-141474290D01*
X39409483Y-141474288D01*
X39409482Y-141474284D01*
X39320327Y-141279061D01*
X39320320Y-141279048D01*
X39265140Y-141193186D01*
X39204281Y-141098487D01*
X39171172Y-141060277D01*
X39063724Y-140936275D01*
X38981926Y-140865397D01*
X38944152Y-140806618D01*
X38939129Y-140771684D01*
X38939129Y-138421153D01*
X46239500Y-138421153D01*
X46239500Y-138578846D01*
X46270261Y-138733489D01*
X46270264Y-138733501D01*
X46330602Y-138879172D01*
X46330609Y-138879185D01*
X46418210Y-139010288D01*
X46418213Y-139010292D01*
X46529707Y-139121786D01*
X46529711Y-139121789D01*
X46660814Y-139209390D01*
X46660827Y-139209397D01*
X46806498Y-139269735D01*
X46806503Y-139269737D01*
X46961158Y-139300500D01*
X46961847Y-139300637D01*
X47023758Y-139333022D01*
X47025337Y-139334573D01*
X47171284Y-139480520D01*
X47171286Y-139480521D01*
X47171290Y-139480524D01*
X47187196Y-139489707D01*
X47308216Y-139559577D01*
X47460943Y-139600501D01*
X47460945Y-139600501D01*
X47626654Y-139600501D01*
X47626670Y-139600500D01*
X48199903Y-139600500D01*
X48266942Y-139620185D01*
X48287584Y-139636819D01*
X48665425Y-140014660D01*
X48698910Y-140075983D01*
X48699361Y-140078149D01*
X48730261Y-140233491D01*
X48730264Y-140233501D01*
X48790602Y-140379172D01*
X48790609Y-140379185D01*
X48878210Y-140510288D01*
X48878213Y-140510292D01*
X48989707Y-140621786D01*
X48989711Y-140621789D01*
X49120814Y-140709390D01*
X49120827Y-140709397D01*
X49266498Y-140769735D01*
X49266503Y-140769737D01*
X49421153Y-140800499D01*
X49421156Y-140800500D01*
X49421158Y-140800500D01*
X49578844Y-140800500D01*
X49578845Y-140800499D01*
X49733497Y-140769737D01*
X49879179Y-140709394D01*
X50010289Y-140621789D01*
X50121789Y-140510289D01*
X50209394Y-140379179D01*
X50269737Y-140233497D01*
X50300500Y-140078842D01*
X50300500Y-139921158D01*
X50300500Y-139921155D01*
X50300499Y-139921153D01*
X50269738Y-139766510D01*
X50269737Y-139766503D01*
X50216021Y-139636819D01*
X50209397Y-139620827D01*
X50209390Y-139620814D01*
X50121789Y-139489711D01*
X50121786Y-139489707D01*
X50010292Y-139378213D01*
X50010288Y-139378210D01*
X49879185Y-139290609D01*
X49879172Y-139290602D01*
X49733501Y-139230264D01*
X49733491Y-139230261D01*
X49578151Y-139199362D01*
X49516241Y-139166977D01*
X49514662Y-139165426D01*
X48987590Y-138638355D01*
X48987588Y-138638352D01*
X48868717Y-138519481D01*
X48868716Y-138519480D01*
X48781904Y-138469360D01*
X48781904Y-138469359D01*
X48781900Y-138469358D01*
X48731785Y-138440423D01*
X48579057Y-138399499D01*
X48420943Y-138399499D01*
X48413347Y-138399499D01*
X48413331Y-138399500D01*
X47937956Y-138399500D01*
X47870917Y-138379815D01*
X47825162Y-138327011D01*
X47816339Y-138299691D01*
X47809738Y-138266510D01*
X47809737Y-138266503D01*
X47809735Y-138266498D01*
X47749397Y-138120827D01*
X47749390Y-138120814D01*
X47661789Y-137989711D01*
X47661786Y-137989707D01*
X47550292Y-137878213D01*
X47550288Y-137878210D01*
X47419185Y-137790609D01*
X47419172Y-137790602D01*
X47273501Y-137730264D01*
X47273489Y-137730261D01*
X47118845Y-137699500D01*
X47118842Y-137699500D01*
X46961158Y-137699500D01*
X46961155Y-137699500D01*
X46806510Y-137730261D01*
X46806498Y-137730264D01*
X46660827Y-137790602D01*
X46660814Y-137790609D01*
X46529711Y-137878210D01*
X46529707Y-137878213D01*
X46418213Y-137989707D01*
X46418210Y-137989711D01*
X46330609Y-138120814D01*
X46330602Y-138120827D01*
X46270264Y-138266498D01*
X46270261Y-138266510D01*
X46239500Y-138421153D01*
X38939129Y-138421153D01*
X38939129Y-131421153D01*
X46239500Y-131421153D01*
X46239500Y-131578846D01*
X46270261Y-131733489D01*
X46270264Y-131733501D01*
X46330602Y-131879172D01*
X46330609Y-131879185D01*
X46418210Y-132010288D01*
X46418213Y-132010292D01*
X46529707Y-132121786D01*
X46529711Y-132121789D01*
X46660814Y-132209390D01*
X46660827Y-132209397D01*
X46806498Y-132269735D01*
X46806503Y-132269737D01*
X46961158Y-132300500D01*
X46961847Y-132300637D01*
X47023758Y-132333022D01*
X47025337Y-132334573D01*
X47171284Y-132480520D01*
X47171286Y-132480521D01*
X47171290Y-132480524D01*
X47308209Y-132559573D01*
X47308216Y-132559577D01*
X47460943Y-132600501D01*
X47460945Y-132600501D01*
X47626654Y-132600501D01*
X47626670Y-132600500D01*
X48093885Y-132600500D01*
X48160924Y-132620185D01*
X48181566Y-132636819D01*
X48836681Y-133291934D01*
X48870166Y-133353257D01*
X48870617Y-133355423D01*
X48901517Y-133510765D01*
X48901520Y-133510775D01*
X48961858Y-133656446D01*
X48961865Y-133656459D01*
X49049466Y-133787562D01*
X49049469Y-133787566D01*
X49160963Y-133899060D01*
X49160967Y-133899063D01*
X49292070Y-133986664D01*
X49292083Y-133986671D01*
X49437754Y-134047009D01*
X49437759Y-134047011D01*
X49592409Y-134077773D01*
X49592412Y-134077774D01*
X49592414Y-134077774D01*
X49750100Y-134077774D01*
X49750101Y-134077773D01*
X49904753Y-134047011D01*
X50050435Y-133986668D01*
X50181545Y-133899063D01*
X50293045Y-133787563D01*
X50380650Y-133656453D01*
X50440993Y-133510771D01*
X50471756Y-133356116D01*
X50471756Y-133198432D01*
X50471756Y-133198429D01*
X50471755Y-133198427D01*
X50440994Y-133043784D01*
X50440993Y-133043777D01*
X50440991Y-133043772D01*
X50380653Y-132898101D01*
X50380646Y-132898088D01*
X50293045Y-132766985D01*
X50293042Y-132766981D01*
X50181548Y-132655487D01*
X50181544Y-132655484D01*
X50050441Y-132567883D01*
X50050428Y-132567876D01*
X49904757Y-132507538D01*
X49904747Y-132507535D01*
X49749405Y-132476635D01*
X49687494Y-132444250D01*
X49685916Y-132442699D01*
X48881572Y-131638355D01*
X48881570Y-131638352D01*
X48762699Y-131519481D01*
X48762698Y-131519480D01*
X48675886Y-131469360D01*
X48675886Y-131469359D01*
X48675882Y-131469358D01*
X48625767Y-131440423D01*
X48473039Y-131399499D01*
X48314925Y-131399499D01*
X48307329Y-131399499D01*
X48307313Y-131399500D01*
X47937956Y-131399500D01*
X47870917Y-131379815D01*
X47825162Y-131327011D01*
X47816339Y-131299691D01*
X47809738Y-131266510D01*
X47809737Y-131266503D01*
X47809735Y-131266498D01*
X47749397Y-131120827D01*
X47749390Y-131120814D01*
X47661789Y-130989711D01*
X47661786Y-130989707D01*
X47550292Y-130878213D01*
X47550288Y-130878210D01*
X47419185Y-130790609D01*
X47419172Y-130790602D01*
X47273501Y-130730264D01*
X47273489Y-130730261D01*
X47118845Y-130699500D01*
X47118842Y-130699500D01*
X46961158Y-130699500D01*
X46961155Y-130699500D01*
X46806510Y-130730261D01*
X46806498Y-130730264D01*
X46660827Y-130790602D01*
X46660814Y-130790609D01*
X46529711Y-130878210D01*
X46529707Y-130878213D01*
X46418213Y-130989707D01*
X46418210Y-130989711D01*
X46330609Y-131120814D01*
X46330602Y-131120827D01*
X46270264Y-131266498D01*
X46270261Y-131266510D01*
X46239500Y-131421153D01*
X38939129Y-131421153D01*
X38939129Y-129228315D01*
X38958814Y-129161276D01*
X38981927Y-129134602D01*
X39063721Y-129063727D01*
X39063724Y-129063724D01*
X39204281Y-128901513D01*
X39320321Y-128720950D01*
X39320323Y-128720944D01*
X39320327Y-128720938D01*
X39409482Y-128525715D01*
X39409482Y-128525713D01*
X39409484Y-128525710D01*
X39469954Y-128319769D01*
X39500500Y-128107318D01*
X39500500Y-128000000D01*
X39500500Y-127934108D01*
X39500500Y-124421153D01*
X46239500Y-124421153D01*
X46239500Y-124578846D01*
X46270261Y-124733489D01*
X46270264Y-124733501D01*
X46330602Y-124879172D01*
X46330609Y-124879185D01*
X46418210Y-125010288D01*
X46418213Y-125010292D01*
X46529707Y-125121786D01*
X46529711Y-125121789D01*
X46660814Y-125209390D01*
X46660827Y-125209397D01*
X46806498Y-125269735D01*
X46806503Y-125269737D01*
X46961158Y-125300500D01*
X46961847Y-125300637D01*
X47023758Y-125333022D01*
X47025337Y-125334573D01*
X47171284Y-125480520D01*
X47171286Y-125480521D01*
X47171290Y-125480524D01*
X47187196Y-125489707D01*
X47308216Y-125559577D01*
X47460943Y-125600501D01*
X47460945Y-125600501D01*
X47626654Y-125600501D01*
X47626670Y-125600500D01*
X48199903Y-125600500D01*
X48266942Y-125620185D01*
X48287584Y-125636819D01*
X48875357Y-126224593D01*
X48902237Y-126264821D01*
X48949604Y-126379175D01*
X48949609Y-126379185D01*
X49037210Y-126510288D01*
X49037213Y-126510292D01*
X49148707Y-126621786D01*
X49148711Y-126621789D01*
X49279814Y-126709390D01*
X49279827Y-126709397D01*
X49425498Y-126769735D01*
X49425503Y-126769737D01*
X49580153Y-126800499D01*
X49580156Y-126800500D01*
X49580158Y-126800500D01*
X49737844Y-126800500D01*
X49737845Y-126800499D01*
X49892497Y-126769737D01*
X50038179Y-126709394D01*
X50169289Y-126621789D01*
X50280789Y-126510289D01*
X50368394Y-126379179D01*
X50428737Y-126233497D01*
X50459500Y-126078842D01*
X50459500Y-125921158D01*
X50459500Y-125921155D01*
X50459499Y-125921153D01*
X50428738Y-125766510D01*
X50428737Y-125766503D01*
X50375021Y-125636819D01*
X50368397Y-125620827D01*
X50368390Y-125620814D01*
X50280789Y-125489711D01*
X50280786Y-125489707D01*
X50169292Y-125378213D01*
X50169288Y-125378210D01*
X50038185Y-125290609D01*
X50038172Y-125290602D01*
X49892501Y-125230264D01*
X49892489Y-125230261D01*
X49737845Y-125199500D01*
X49737842Y-125199500D01*
X49600097Y-125199500D01*
X49533058Y-125179815D01*
X49512416Y-125163181D01*
X48987590Y-124638355D01*
X48987588Y-124638352D01*
X48868717Y-124519481D01*
X48868716Y-124519480D01*
X48781904Y-124469360D01*
X48781904Y-124469359D01*
X48781900Y-124469358D01*
X48731785Y-124440423D01*
X48579057Y-124399499D01*
X48420943Y-124399499D01*
X48413347Y-124399499D01*
X48413331Y-124399500D01*
X47937956Y-124399500D01*
X47870917Y-124379815D01*
X47825162Y-124327011D01*
X47816339Y-124299691D01*
X47809738Y-124266510D01*
X47809737Y-124266503D01*
X47809735Y-124266498D01*
X47749397Y-124120827D01*
X47749390Y-124120814D01*
X47661789Y-123989711D01*
X47661786Y-123989707D01*
X47550292Y-123878213D01*
X47550288Y-123878210D01*
X47419185Y-123790609D01*
X47419172Y-123790602D01*
X47273501Y-123730264D01*
X47273489Y-123730261D01*
X47118845Y-123699500D01*
X47118842Y-123699500D01*
X46961158Y-123699500D01*
X46961155Y-123699500D01*
X46806510Y-123730261D01*
X46806498Y-123730264D01*
X46660827Y-123790602D01*
X46660814Y-123790609D01*
X46529711Y-123878210D01*
X46529707Y-123878213D01*
X46418213Y-123989707D01*
X46418210Y-123989711D01*
X46330609Y-124120814D01*
X46330602Y-124120827D01*
X46270264Y-124266498D01*
X46270261Y-124266510D01*
X46239500Y-124421153D01*
X39500500Y-124421153D01*
X39500500Y-117421153D01*
X46239500Y-117421153D01*
X46239500Y-117578846D01*
X46270261Y-117733489D01*
X46270264Y-117733501D01*
X46330602Y-117879172D01*
X46330609Y-117879185D01*
X46418210Y-118010288D01*
X46418213Y-118010292D01*
X46529707Y-118121786D01*
X46529711Y-118121789D01*
X46660814Y-118209390D01*
X46660827Y-118209397D01*
X46806498Y-118269735D01*
X46806503Y-118269737D01*
X46961158Y-118300500D01*
X46961847Y-118300637D01*
X47023758Y-118333022D01*
X47025337Y-118334573D01*
X47171284Y-118480520D01*
X47171286Y-118480521D01*
X47171290Y-118480524D01*
X47179691Y-118485374D01*
X47308216Y-118559577D01*
X47460943Y-118600501D01*
X47460945Y-118600501D01*
X47626654Y-118600501D01*
X47626670Y-118600500D01*
X48258903Y-118600500D01*
X48325942Y-118620185D01*
X48346584Y-118636819D01*
X48919190Y-119209425D01*
X48952675Y-119270748D01*
X48953126Y-119272914D01*
X48984026Y-119428256D01*
X48984029Y-119428266D01*
X49044367Y-119573937D01*
X49044374Y-119573950D01*
X49131975Y-119705053D01*
X49131978Y-119705057D01*
X49243472Y-119816551D01*
X49243476Y-119816554D01*
X49374579Y-119904155D01*
X49374592Y-119904162D01*
X49520263Y-119964500D01*
X49520268Y-119964502D01*
X49674918Y-119995264D01*
X49674921Y-119995265D01*
X49674923Y-119995265D01*
X49832609Y-119995265D01*
X49832610Y-119995264D01*
X49987262Y-119964502D01*
X50132944Y-119904159D01*
X50264054Y-119816554D01*
X50375554Y-119705054D01*
X50463159Y-119573944D01*
X50523502Y-119428262D01*
X50554265Y-119273607D01*
X50554265Y-119115923D01*
X50554265Y-119115920D01*
X50554264Y-119115918D01*
X50523503Y-118961275D01*
X50523502Y-118961268D01*
X50523500Y-118961263D01*
X50463162Y-118815592D01*
X50463155Y-118815579D01*
X50375554Y-118684476D01*
X50375551Y-118684472D01*
X50264057Y-118572978D01*
X50264053Y-118572975D01*
X50132950Y-118485374D01*
X50132937Y-118485367D01*
X49987266Y-118425029D01*
X49987256Y-118425026D01*
X49831914Y-118394126D01*
X49770003Y-118361741D01*
X49768425Y-118360190D01*
X49046590Y-117638355D01*
X49046588Y-117638352D01*
X48927717Y-117519481D01*
X48927716Y-117519480D01*
X48840904Y-117469360D01*
X48840904Y-117469359D01*
X48840900Y-117469358D01*
X48790785Y-117440423D01*
X48638057Y-117399499D01*
X48479943Y-117399499D01*
X48472347Y-117399499D01*
X48472331Y-117399500D01*
X47937956Y-117399500D01*
X47870917Y-117379815D01*
X47825162Y-117327011D01*
X47816339Y-117299691D01*
X47809738Y-117266510D01*
X47809737Y-117266503D01*
X47809735Y-117266498D01*
X47749397Y-117120827D01*
X47749390Y-117120814D01*
X47661789Y-116989711D01*
X47661786Y-116989707D01*
X47550292Y-116878213D01*
X47550288Y-116878210D01*
X47419185Y-116790609D01*
X47419172Y-116790602D01*
X47273501Y-116730264D01*
X47273489Y-116730261D01*
X47118845Y-116699500D01*
X47118842Y-116699500D01*
X46961158Y-116699500D01*
X46961155Y-116699500D01*
X46806510Y-116730261D01*
X46806498Y-116730264D01*
X46660827Y-116790602D01*
X46660814Y-116790609D01*
X46529711Y-116878210D01*
X46529707Y-116878213D01*
X46418213Y-116989707D01*
X46418210Y-116989711D01*
X46330609Y-117120814D01*
X46330602Y-117120827D01*
X46270264Y-117266498D01*
X46270261Y-117266510D01*
X46239500Y-117421153D01*
X39500500Y-117421153D01*
X39500500Y-110421153D01*
X46239500Y-110421153D01*
X46239500Y-110578846D01*
X46270261Y-110733489D01*
X46270264Y-110733501D01*
X46330602Y-110879172D01*
X46330609Y-110879185D01*
X46418210Y-111010288D01*
X46418213Y-111010292D01*
X46529707Y-111121786D01*
X46529711Y-111121789D01*
X46660814Y-111209390D01*
X46660827Y-111209397D01*
X46806498Y-111269735D01*
X46806503Y-111269737D01*
X46961158Y-111300500D01*
X46961847Y-111300637D01*
X47023758Y-111333022D01*
X47025337Y-111334573D01*
X47171284Y-111480520D01*
X47171286Y-111480521D01*
X47171290Y-111480524D01*
X47308209Y-111559573D01*
X47308216Y-111559577D01*
X47460943Y-111600501D01*
X47460945Y-111600501D01*
X47626654Y-111600501D01*
X47626670Y-111600500D01*
X48679616Y-111600500D01*
X48746655Y-111620185D01*
X48767297Y-111636819D01*
X49153403Y-112022925D01*
X49186888Y-112084248D01*
X49187339Y-112086414D01*
X49218239Y-112241756D01*
X49218242Y-112241766D01*
X49278580Y-112387437D01*
X49278587Y-112387450D01*
X49366188Y-112518553D01*
X49366191Y-112518557D01*
X49477685Y-112630051D01*
X49477689Y-112630054D01*
X49608792Y-112717655D01*
X49608805Y-112717662D01*
X49754476Y-112778000D01*
X49754481Y-112778002D01*
X49909131Y-112808764D01*
X49909134Y-112808765D01*
X49909136Y-112808765D01*
X50066822Y-112808765D01*
X50066823Y-112808764D01*
X50221475Y-112778002D01*
X50367157Y-112717659D01*
X50498267Y-112630054D01*
X50609767Y-112518554D01*
X50697372Y-112387444D01*
X50757715Y-112241762D01*
X50788478Y-112087107D01*
X50788478Y-111929423D01*
X50788478Y-111929420D01*
X50788477Y-111929418D01*
X50757716Y-111774775D01*
X50757715Y-111774768D01*
X50757713Y-111774763D01*
X50697375Y-111629092D01*
X50697368Y-111629079D01*
X50609767Y-111497976D01*
X50609764Y-111497972D01*
X50498270Y-111386478D01*
X50498266Y-111386475D01*
X50367163Y-111298874D01*
X50367150Y-111298867D01*
X50221479Y-111238529D01*
X50221469Y-111238526D01*
X50066127Y-111207626D01*
X50004216Y-111175241D01*
X50002638Y-111173690D01*
X49467303Y-110638355D01*
X49467301Y-110638352D01*
X49348430Y-110519481D01*
X49348429Y-110519480D01*
X49261617Y-110469360D01*
X49261617Y-110469359D01*
X49261613Y-110469358D01*
X49211498Y-110440423D01*
X49058770Y-110399499D01*
X48900656Y-110399499D01*
X48893060Y-110399499D01*
X48893044Y-110399500D01*
X47937956Y-110399500D01*
X47870917Y-110379815D01*
X47825162Y-110327011D01*
X47816339Y-110299691D01*
X47809738Y-110266510D01*
X47809737Y-110266503D01*
X47809735Y-110266498D01*
X47749397Y-110120827D01*
X47749390Y-110120814D01*
X47661789Y-109989711D01*
X47661786Y-109989707D01*
X47550292Y-109878213D01*
X47550288Y-109878210D01*
X47419185Y-109790609D01*
X47419172Y-109790602D01*
X47273501Y-109730264D01*
X47273489Y-109730261D01*
X47118845Y-109699500D01*
X47118842Y-109699500D01*
X46961158Y-109699500D01*
X46961155Y-109699500D01*
X46806510Y-109730261D01*
X46806498Y-109730264D01*
X46660827Y-109790602D01*
X46660814Y-109790609D01*
X46529711Y-109878210D01*
X46529707Y-109878213D01*
X46418213Y-109989707D01*
X46418210Y-109989711D01*
X46330609Y-110120814D01*
X46330602Y-110120827D01*
X46270264Y-110266498D01*
X46270261Y-110266510D01*
X46239500Y-110421153D01*
X39500500Y-110421153D01*
X39500500Y-103421153D01*
X46239500Y-103421153D01*
X46239500Y-103578846D01*
X46270261Y-103733489D01*
X46270264Y-103733501D01*
X46330602Y-103879172D01*
X46330609Y-103879185D01*
X46418210Y-104010288D01*
X46418213Y-104010292D01*
X46529707Y-104121786D01*
X46529711Y-104121789D01*
X46660814Y-104209390D01*
X46660827Y-104209397D01*
X46806498Y-104269735D01*
X46806503Y-104269737D01*
X46961158Y-104300500D01*
X46961847Y-104300637D01*
X47023758Y-104333022D01*
X47025337Y-104334573D01*
X47171284Y-104480520D01*
X47171286Y-104480521D01*
X47171290Y-104480524D01*
X47230775Y-104514867D01*
X47308216Y-104559577D01*
X47460943Y-104600501D01*
X47460945Y-104600501D01*
X47626654Y-104600501D01*
X47626670Y-104600500D01*
X48099903Y-104600500D01*
X48166942Y-104620185D01*
X48187584Y-104636819D01*
X48789690Y-105238925D01*
X48823175Y-105300248D01*
X48823626Y-105302414D01*
X48854526Y-105457756D01*
X48854529Y-105457766D01*
X48914867Y-105603437D01*
X48914874Y-105603450D01*
X49002475Y-105734553D01*
X49002478Y-105734557D01*
X49113972Y-105846051D01*
X49113976Y-105846054D01*
X49245079Y-105933655D01*
X49245092Y-105933662D01*
X49390763Y-105994000D01*
X49390768Y-105994002D01*
X49545418Y-106024764D01*
X49545421Y-106024765D01*
X49545423Y-106024765D01*
X49703109Y-106024765D01*
X49703110Y-106024764D01*
X49857762Y-105994002D01*
X50003444Y-105933659D01*
X50134554Y-105846054D01*
X50246054Y-105734554D01*
X50333659Y-105603444D01*
X50394002Y-105457762D01*
X50424765Y-105303107D01*
X50424765Y-105145423D01*
X50424765Y-105145420D01*
X50424764Y-105145418D01*
X50394003Y-104990775D01*
X50394002Y-104990768D01*
X50394000Y-104990763D01*
X50333662Y-104845092D01*
X50333655Y-104845079D01*
X50246054Y-104713976D01*
X50246051Y-104713972D01*
X50134557Y-104602478D01*
X50134553Y-104602475D01*
X50003450Y-104514874D01*
X50003437Y-104514867D01*
X49857766Y-104454529D01*
X49857756Y-104454526D01*
X49702414Y-104423626D01*
X49640503Y-104391241D01*
X49638925Y-104389690D01*
X48887590Y-103638355D01*
X48887588Y-103638352D01*
X48768717Y-103519481D01*
X48768716Y-103519480D01*
X48681904Y-103469360D01*
X48681904Y-103469359D01*
X48681900Y-103469358D01*
X48631785Y-103440423D01*
X48479057Y-103399499D01*
X48320943Y-103399499D01*
X48313347Y-103399499D01*
X48313331Y-103399500D01*
X47937956Y-103399500D01*
X47870917Y-103379815D01*
X47825162Y-103327011D01*
X47816339Y-103299691D01*
X47809738Y-103266510D01*
X47809737Y-103266503D01*
X47809735Y-103266498D01*
X47749397Y-103120827D01*
X47749390Y-103120814D01*
X47661789Y-102989711D01*
X47661786Y-102989707D01*
X47550292Y-102878213D01*
X47550288Y-102878210D01*
X47419185Y-102790609D01*
X47419172Y-102790602D01*
X47273501Y-102730264D01*
X47273489Y-102730261D01*
X47118845Y-102699500D01*
X47118842Y-102699500D01*
X46961158Y-102699500D01*
X46961155Y-102699500D01*
X46806510Y-102730261D01*
X46806498Y-102730264D01*
X46660827Y-102790602D01*
X46660814Y-102790609D01*
X46529711Y-102878210D01*
X46529707Y-102878213D01*
X46418213Y-102989707D01*
X46418210Y-102989711D01*
X46330609Y-103120814D01*
X46330602Y-103120827D01*
X46270264Y-103266498D01*
X46270261Y-103266510D01*
X46239500Y-103421153D01*
X39500500Y-103421153D01*
X39500500Y-96421153D01*
X46239500Y-96421153D01*
X46239500Y-96578846D01*
X46270261Y-96733489D01*
X46270264Y-96733501D01*
X46330602Y-96879172D01*
X46330609Y-96879185D01*
X46418210Y-97010288D01*
X46418213Y-97010292D01*
X46529707Y-97121786D01*
X46529711Y-97121789D01*
X46660814Y-97209390D01*
X46660827Y-97209397D01*
X46806498Y-97269735D01*
X46806503Y-97269737D01*
X46961158Y-97300500D01*
X46961847Y-97300637D01*
X47023758Y-97333022D01*
X47025337Y-97334573D01*
X47171284Y-97480520D01*
X47171286Y-97480521D01*
X47171290Y-97480524D01*
X47187196Y-97489707D01*
X47308216Y-97559577D01*
X47460943Y-97600501D01*
X47460945Y-97600501D01*
X47626654Y-97600501D01*
X47626670Y-97600500D01*
X48299903Y-97600500D01*
X48366942Y-97620185D01*
X48387584Y-97636819D01*
X48765425Y-98014660D01*
X48798910Y-98075983D01*
X48799361Y-98078149D01*
X48830261Y-98233491D01*
X48830264Y-98233501D01*
X48890602Y-98379172D01*
X48890609Y-98379185D01*
X48978210Y-98510288D01*
X48978213Y-98510292D01*
X49089707Y-98621786D01*
X49089711Y-98621789D01*
X49220814Y-98709390D01*
X49220827Y-98709397D01*
X49366498Y-98769735D01*
X49366503Y-98769737D01*
X49521153Y-98800499D01*
X49521156Y-98800500D01*
X49521158Y-98800500D01*
X49678844Y-98800500D01*
X49678845Y-98800499D01*
X49833497Y-98769737D01*
X49979179Y-98709394D01*
X50110289Y-98621789D01*
X50221789Y-98510289D01*
X50309394Y-98379179D01*
X50369737Y-98233497D01*
X50400500Y-98078842D01*
X50400500Y-97921158D01*
X50400500Y-97921155D01*
X50400499Y-97921153D01*
X50369738Y-97766510D01*
X50369737Y-97766503D01*
X50316021Y-97636819D01*
X50309397Y-97620827D01*
X50309390Y-97620814D01*
X50221789Y-97489711D01*
X50221786Y-97489707D01*
X50110292Y-97378213D01*
X50110288Y-97378210D01*
X49979185Y-97290609D01*
X49979172Y-97290602D01*
X49833501Y-97230264D01*
X49833491Y-97230261D01*
X49678151Y-97199362D01*
X49616241Y-97166977D01*
X49614662Y-97165426D01*
X49087590Y-96638355D01*
X49087588Y-96638352D01*
X48968717Y-96519481D01*
X48968716Y-96519480D01*
X48881904Y-96469360D01*
X48881904Y-96469359D01*
X48881900Y-96469358D01*
X48831785Y-96440423D01*
X48679057Y-96399499D01*
X48520943Y-96399499D01*
X48513347Y-96399499D01*
X48513331Y-96399500D01*
X47937956Y-96399500D01*
X47870917Y-96379815D01*
X47825162Y-96327011D01*
X47816339Y-96299691D01*
X47809738Y-96266510D01*
X47809737Y-96266503D01*
X47809735Y-96266498D01*
X47749397Y-96120827D01*
X47749390Y-96120814D01*
X47661789Y-95989711D01*
X47661786Y-95989707D01*
X47550292Y-95878213D01*
X47550288Y-95878210D01*
X47419185Y-95790609D01*
X47419172Y-95790602D01*
X47273501Y-95730264D01*
X47273489Y-95730261D01*
X47118845Y-95699500D01*
X47118842Y-95699500D01*
X46961158Y-95699500D01*
X46961155Y-95699500D01*
X46806510Y-95730261D01*
X46806498Y-95730264D01*
X46660827Y-95790602D01*
X46660814Y-95790609D01*
X46529711Y-95878210D01*
X46529707Y-95878213D01*
X46418213Y-95989707D01*
X46418210Y-95989711D01*
X46330609Y-96120814D01*
X46330602Y-96120827D01*
X46270264Y-96266498D01*
X46270261Y-96266510D01*
X46239500Y-96421153D01*
X39500500Y-96421153D01*
X39500500Y-89934108D01*
X39500500Y-89892682D01*
X39469954Y-89680231D01*
X39409484Y-89474290D01*
X39385217Y-89421153D01*
X46239500Y-89421153D01*
X46239500Y-89578846D01*
X46270261Y-89733489D01*
X46270264Y-89733501D01*
X46330602Y-89879172D01*
X46330609Y-89879185D01*
X46418210Y-90010288D01*
X46418213Y-90010292D01*
X46529707Y-90121786D01*
X46529711Y-90121789D01*
X46660814Y-90209390D01*
X46660827Y-90209397D01*
X46806498Y-90269735D01*
X46806503Y-90269737D01*
X46961158Y-90300500D01*
X46961847Y-90300637D01*
X47023758Y-90333022D01*
X47025337Y-90334573D01*
X47171284Y-90480520D01*
X47171286Y-90480521D01*
X47171290Y-90480524D01*
X47230775Y-90514867D01*
X47308216Y-90559577D01*
X47460943Y-90600501D01*
X47460945Y-90600501D01*
X47626654Y-90600501D01*
X47626670Y-90600500D01*
X48099903Y-90600500D01*
X48166942Y-90620185D01*
X48187584Y-90636819D01*
X48789690Y-91238925D01*
X48823175Y-91300248D01*
X48823626Y-91302414D01*
X48854526Y-91457756D01*
X48854529Y-91457766D01*
X48914867Y-91603437D01*
X48914874Y-91603450D01*
X49002475Y-91734553D01*
X49002478Y-91734557D01*
X49113972Y-91846051D01*
X49113976Y-91846054D01*
X49245079Y-91933655D01*
X49245092Y-91933662D01*
X49390763Y-91994000D01*
X49390768Y-91994002D01*
X49545418Y-92024764D01*
X49545421Y-92024765D01*
X49545423Y-92024765D01*
X49703109Y-92024765D01*
X49703110Y-92024764D01*
X49857762Y-91994002D01*
X50003444Y-91933659D01*
X50134554Y-91846054D01*
X50246054Y-91734554D01*
X50333659Y-91603444D01*
X50394002Y-91457762D01*
X50424765Y-91303107D01*
X50424765Y-91145423D01*
X50424765Y-91145420D01*
X50424764Y-91145418D01*
X50394003Y-90990775D01*
X50394002Y-90990768D01*
X50394000Y-90990763D01*
X50333662Y-90845092D01*
X50333655Y-90845079D01*
X50246054Y-90713976D01*
X50246051Y-90713972D01*
X50134557Y-90602478D01*
X50134553Y-90602475D01*
X50003450Y-90514874D01*
X50003437Y-90514867D01*
X49857766Y-90454529D01*
X49857756Y-90454526D01*
X49702414Y-90423626D01*
X49640503Y-90391241D01*
X49638925Y-90389690D01*
X48887590Y-89638355D01*
X48887588Y-89638352D01*
X48768717Y-89519481D01*
X48768716Y-89519480D01*
X48676764Y-89466392D01*
X48631785Y-89440423D01*
X48479057Y-89399499D01*
X48320943Y-89399499D01*
X48313347Y-89399499D01*
X48313331Y-89399500D01*
X47937956Y-89399500D01*
X47870917Y-89379815D01*
X47825162Y-89327011D01*
X47816339Y-89299691D01*
X47809738Y-89266510D01*
X47809737Y-89266503D01*
X47809735Y-89266498D01*
X47749397Y-89120827D01*
X47749390Y-89120814D01*
X47661789Y-88989711D01*
X47661786Y-88989707D01*
X47550292Y-88878213D01*
X47550288Y-88878210D01*
X47419185Y-88790609D01*
X47419172Y-88790602D01*
X47273501Y-88730264D01*
X47273489Y-88730261D01*
X47118845Y-88699500D01*
X47118842Y-88699500D01*
X46961158Y-88699500D01*
X46961155Y-88699500D01*
X46806510Y-88730261D01*
X46806498Y-88730264D01*
X46660827Y-88790602D01*
X46660814Y-88790609D01*
X46529711Y-88878210D01*
X46529707Y-88878213D01*
X46418213Y-88989707D01*
X46418210Y-88989711D01*
X46330609Y-89120814D01*
X46330602Y-89120827D01*
X46270264Y-89266498D01*
X46270261Y-89266510D01*
X46239500Y-89421153D01*
X39385217Y-89421153D01*
X39320321Y-89279050D01*
X39312254Y-89266498D01*
X39265140Y-89193186D01*
X39204281Y-89098487D01*
X39110026Y-88989711D01*
X39063724Y-88936275D01*
X38981926Y-88865397D01*
X38944152Y-88806618D01*
X38939129Y-88771684D01*
X38939129Y-82421153D01*
X46239500Y-82421153D01*
X46239500Y-82578846D01*
X46270261Y-82733489D01*
X46270264Y-82733501D01*
X46330602Y-82879172D01*
X46330609Y-82879185D01*
X46418210Y-83010288D01*
X46418213Y-83010292D01*
X46529707Y-83121786D01*
X46529711Y-83121789D01*
X46660814Y-83209390D01*
X46660827Y-83209397D01*
X46747622Y-83245348D01*
X46806503Y-83269737D01*
X46961158Y-83300500D01*
X46961847Y-83300637D01*
X47023758Y-83333022D01*
X47025337Y-83334573D01*
X47171284Y-83480520D01*
X47171286Y-83480521D01*
X47171290Y-83480524D01*
X47187196Y-83489707D01*
X47308216Y-83559577D01*
X47460943Y-83600501D01*
X47460945Y-83600501D01*
X47626654Y-83600501D01*
X47626670Y-83600500D01*
X48499903Y-83600500D01*
X48566942Y-83620185D01*
X48587584Y-83636819D01*
X48764649Y-83813884D01*
X48798134Y-83875207D01*
X48798490Y-83914937D01*
X48800097Y-83915096D01*
X48799500Y-83921158D01*
X48799500Y-84078846D01*
X48830261Y-84233489D01*
X48830264Y-84233501D01*
X48890602Y-84379172D01*
X48890609Y-84379185D01*
X48978210Y-84510288D01*
X48978213Y-84510292D01*
X49089707Y-84621786D01*
X49089711Y-84621789D01*
X49220814Y-84709390D01*
X49220827Y-84709397D01*
X49366498Y-84769735D01*
X49366503Y-84769737D01*
X49521153Y-84800499D01*
X49521156Y-84800500D01*
X49521158Y-84800500D01*
X49678844Y-84800500D01*
X49678845Y-84800499D01*
X49833497Y-84769737D01*
X49979179Y-84709394D01*
X50110289Y-84621789D01*
X50221789Y-84510289D01*
X50309394Y-84379179D01*
X50369737Y-84233497D01*
X50400500Y-84078842D01*
X50400500Y-83921158D01*
X50400500Y-83921155D01*
X50400499Y-83921153D01*
X50388484Y-83860750D01*
X50369737Y-83766503D01*
X50316021Y-83636819D01*
X50309397Y-83620827D01*
X50309390Y-83620814D01*
X50221789Y-83489711D01*
X50221786Y-83489707D01*
X50110292Y-83378213D01*
X50110288Y-83378210D01*
X49979185Y-83290609D01*
X49979176Y-83290604D01*
X49934811Y-83272228D01*
X49894583Y-83245348D01*
X49287590Y-82638355D01*
X49287588Y-82638352D01*
X49168717Y-82519481D01*
X49168716Y-82519480D01*
X49081904Y-82469360D01*
X49081904Y-82469359D01*
X49081900Y-82469358D01*
X49031785Y-82440423D01*
X48879057Y-82399499D01*
X48720943Y-82399499D01*
X48713347Y-82399499D01*
X48713331Y-82399500D01*
X47937956Y-82399500D01*
X47870917Y-82379815D01*
X47825162Y-82327011D01*
X47816339Y-82299691D01*
X47809738Y-82266510D01*
X47809737Y-82266503D01*
X47809735Y-82266498D01*
X47749397Y-82120827D01*
X47749390Y-82120814D01*
X47661789Y-81989711D01*
X47661786Y-81989707D01*
X47550292Y-81878213D01*
X47550288Y-81878210D01*
X47419185Y-81790609D01*
X47419172Y-81790602D01*
X47273501Y-81730264D01*
X47273489Y-81730261D01*
X47118845Y-81699500D01*
X47118842Y-81699500D01*
X46961158Y-81699500D01*
X46961155Y-81699500D01*
X46806510Y-81730261D01*
X46806498Y-81730264D01*
X46660827Y-81790602D01*
X46660814Y-81790609D01*
X46529711Y-81878210D01*
X46529707Y-81878213D01*
X46418213Y-81989707D01*
X46418210Y-81989711D01*
X46330609Y-82120814D01*
X46330602Y-82120827D01*
X46270264Y-82266498D01*
X46270261Y-82266510D01*
X46239500Y-82421153D01*
X38939129Y-82421153D01*
X38939129Y-77228315D01*
X38958814Y-77161276D01*
X38981927Y-77134602D01*
X39063721Y-77063727D01*
X39063724Y-77063724D01*
X39204281Y-76901513D01*
X39320321Y-76720950D01*
X39320323Y-76720944D01*
X39320327Y-76720938D01*
X39409482Y-76525715D01*
X39409482Y-76525713D01*
X39409484Y-76525710D01*
X39469954Y-76319769D01*
X39472725Y-76300500D01*
X39477147Y-76269738D01*
X39500500Y-76107318D01*
X39500500Y-76000000D01*
X39500500Y-75934108D01*
X39500500Y-75421153D01*
X46239500Y-75421153D01*
X46239500Y-75578846D01*
X46270261Y-75733489D01*
X46270264Y-75733501D01*
X46330602Y-75879172D01*
X46330609Y-75879185D01*
X46418210Y-76010288D01*
X46418213Y-76010292D01*
X46529707Y-76121786D01*
X46529711Y-76121789D01*
X46660814Y-76209390D01*
X46660827Y-76209397D01*
X46806498Y-76269735D01*
X46806503Y-76269737D01*
X46961158Y-76300500D01*
X46961847Y-76300637D01*
X47023758Y-76333022D01*
X47025337Y-76334573D01*
X47171284Y-76480520D01*
X47171286Y-76480521D01*
X47171290Y-76480524D01*
X47263236Y-76533608D01*
X47308216Y-76559577D01*
X47460943Y-76600501D01*
X47460945Y-76600501D01*
X47626654Y-76600501D01*
X47626670Y-76600500D01*
X48324168Y-76600500D01*
X48391207Y-76620185D01*
X48411849Y-76636819D01*
X48887446Y-77112416D01*
X48920931Y-77173739D01*
X48923765Y-77200097D01*
X48923765Y-77203111D01*
X48954526Y-77357754D01*
X48954529Y-77357766D01*
X49014867Y-77503437D01*
X49014874Y-77503450D01*
X49102475Y-77634553D01*
X49102478Y-77634557D01*
X49213972Y-77746051D01*
X49213976Y-77746054D01*
X49345079Y-77833655D01*
X49345092Y-77833662D01*
X49490763Y-77894000D01*
X49490768Y-77894002D01*
X49645418Y-77924764D01*
X49645421Y-77924765D01*
X49645423Y-77924765D01*
X49803109Y-77924765D01*
X49803110Y-77924764D01*
X49957762Y-77894002D01*
X50103444Y-77833659D01*
X50234554Y-77746054D01*
X50346054Y-77634554D01*
X50433659Y-77503444D01*
X50434879Y-77500500D01*
X50494000Y-77357766D01*
X50494002Y-77357762D01*
X50524765Y-77203107D01*
X50524765Y-77045423D01*
X50524765Y-77045420D01*
X50524764Y-77045418D01*
X50502623Y-76934108D01*
X50494002Y-76890768D01*
X50494000Y-76890763D01*
X50433662Y-76745092D01*
X50433655Y-76745079D01*
X50346054Y-76613976D01*
X50346051Y-76613972D01*
X50234557Y-76502478D01*
X50234553Y-76502475D01*
X50103450Y-76414874D01*
X50103437Y-76414867D01*
X49957766Y-76354529D01*
X49957756Y-76354526D01*
X49832704Y-76329651D01*
X49770793Y-76297266D01*
X49769215Y-76295715D01*
X49111855Y-75638355D01*
X49111853Y-75638352D01*
X48992982Y-75519481D01*
X48992981Y-75519480D01*
X48906169Y-75469360D01*
X48906169Y-75469359D01*
X48906165Y-75469358D01*
X48856050Y-75440423D01*
X48703322Y-75399499D01*
X48545208Y-75399499D01*
X48537612Y-75399499D01*
X48537596Y-75399500D01*
X47937956Y-75399500D01*
X47870917Y-75379815D01*
X47825162Y-75327011D01*
X47816339Y-75299691D01*
X47809738Y-75266510D01*
X47809737Y-75266503D01*
X47809735Y-75266498D01*
X47749397Y-75120827D01*
X47749390Y-75120814D01*
X47661789Y-74989711D01*
X47661786Y-74989707D01*
X47550292Y-74878213D01*
X47550288Y-74878210D01*
X47419185Y-74790609D01*
X47419172Y-74790602D01*
X47273501Y-74730264D01*
X47273489Y-74730261D01*
X47118845Y-74699500D01*
X47118842Y-74699500D01*
X46961158Y-74699500D01*
X46961155Y-74699500D01*
X46806510Y-74730261D01*
X46806498Y-74730264D01*
X46660827Y-74790602D01*
X46660814Y-74790609D01*
X46529711Y-74878210D01*
X46529707Y-74878213D01*
X46418213Y-74989707D01*
X46418210Y-74989711D01*
X46330609Y-75120814D01*
X46330602Y-75120827D01*
X46270264Y-75266498D01*
X46270261Y-75266510D01*
X46239500Y-75421153D01*
X39500500Y-75421153D01*
X39500500Y-70934108D01*
X39500500Y-70892682D01*
X39479062Y-70743584D01*
X39469955Y-70680235D01*
X39469952Y-70680225D01*
X39431705Y-70549966D01*
X39409484Y-70474290D01*
X39409483Y-70474288D01*
X39409482Y-70474284D01*
X39320327Y-70279061D01*
X39320320Y-70279048D01*
X39265140Y-70193186D01*
X39204281Y-70098487D01*
X39171172Y-70060277D01*
X39063724Y-69936275D01*
X38981926Y-69865397D01*
X38944152Y-69806618D01*
X38939129Y-69771684D01*
X38939129Y-68421153D01*
X46239500Y-68421153D01*
X46239500Y-68578846D01*
X46270261Y-68733489D01*
X46270264Y-68733501D01*
X46330602Y-68879172D01*
X46330609Y-68879185D01*
X46418210Y-69010288D01*
X46418213Y-69010292D01*
X46529707Y-69121786D01*
X46529711Y-69121789D01*
X46660814Y-69209390D01*
X46660827Y-69209397D01*
X46806498Y-69269735D01*
X46806503Y-69269737D01*
X46961158Y-69300500D01*
X46961847Y-69300637D01*
X47023758Y-69333022D01*
X47025337Y-69334573D01*
X47171284Y-69480520D01*
X47171286Y-69480521D01*
X47171290Y-69480524D01*
X47257066Y-69530046D01*
X47308216Y-69559577D01*
X47460943Y-69600501D01*
X47460945Y-69600501D01*
X47626654Y-69600501D01*
X47626670Y-69600500D01*
X48199903Y-69600500D01*
X48266942Y-69620185D01*
X48287584Y-69636819D01*
X48790256Y-70139492D01*
X48823741Y-70200815D01*
X48824192Y-70202980D01*
X48830261Y-70233493D01*
X48830263Y-70233499D01*
X48890602Y-70379172D01*
X48890609Y-70379185D01*
X48978210Y-70510288D01*
X48978213Y-70510292D01*
X49089707Y-70621786D01*
X49089711Y-70621789D01*
X49220814Y-70709390D01*
X49220827Y-70709397D01*
X49366498Y-70769735D01*
X49366503Y-70769737D01*
X49521153Y-70800499D01*
X49521156Y-70800500D01*
X49521158Y-70800500D01*
X49678844Y-70800500D01*
X49678845Y-70800499D01*
X49833497Y-70769737D01*
X49979179Y-70709394D01*
X50110289Y-70621789D01*
X50221789Y-70510289D01*
X50309394Y-70379179D01*
X50369737Y-70233497D01*
X50400500Y-70078842D01*
X50400500Y-69921158D01*
X50400500Y-69921155D01*
X50400499Y-69921153D01*
X50375548Y-69795719D01*
X50369737Y-69766503D01*
X50369735Y-69766498D01*
X50309397Y-69620827D01*
X50309390Y-69620814D01*
X50221789Y-69489711D01*
X50221786Y-69489707D01*
X50110292Y-69378213D01*
X50110288Y-69378210D01*
X49979185Y-69290609D01*
X49979172Y-69290602D01*
X49833501Y-69230264D01*
X49833489Y-69230261D01*
X49678845Y-69199500D01*
X49678842Y-69199500D01*
X49600098Y-69199500D01*
X49533059Y-69179815D01*
X49512417Y-69163181D01*
X48987590Y-68638355D01*
X48987588Y-68638352D01*
X48868717Y-68519481D01*
X48868716Y-68519480D01*
X48781904Y-68469360D01*
X48781904Y-68469359D01*
X48781900Y-68469358D01*
X48731785Y-68440423D01*
X48579057Y-68399499D01*
X48420943Y-68399499D01*
X48413347Y-68399499D01*
X48413331Y-68399500D01*
X47937956Y-68399500D01*
X47870917Y-68379815D01*
X47825162Y-68327011D01*
X47816339Y-68299691D01*
X47809738Y-68266510D01*
X47809737Y-68266503D01*
X47809735Y-68266498D01*
X47749397Y-68120827D01*
X47749390Y-68120814D01*
X47661789Y-67989711D01*
X47661786Y-67989707D01*
X47550292Y-67878213D01*
X47550288Y-67878210D01*
X47419185Y-67790609D01*
X47419172Y-67790602D01*
X47273501Y-67730264D01*
X47273489Y-67730261D01*
X47118845Y-67699500D01*
X47118842Y-67699500D01*
X46961158Y-67699500D01*
X46961155Y-67699500D01*
X46806510Y-67730261D01*
X46806498Y-67730264D01*
X46660827Y-67790602D01*
X46660814Y-67790609D01*
X46529711Y-67878210D01*
X46529707Y-67878213D01*
X46418213Y-67989707D01*
X46418210Y-67989711D01*
X46330609Y-68120814D01*
X46330602Y-68120827D01*
X46270264Y-68266498D01*
X46270261Y-68266510D01*
X46239500Y-68421153D01*
X38939129Y-68421153D01*
X38939129Y-61421153D01*
X46239500Y-61421153D01*
X46239500Y-61578846D01*
X46270261Y-61733489D01*
X46270264Y-61733501D01*
X46330602Y-61879172D01*
X46330609Y-61879185D01*
X46418210Y-62010288D01*
X46418213Y-62010292D01*
X46529707Y-62121786D01*
X46529711Y-62121789D01*
X46660814Y-62209390D01*
X46660827Y-62209397D01*
X46806498Y-62269735D01*
X46806503Y-62269737D01*
X46961158Y-62300500D01*
X46961847Y-62300637D01*
X47023758Y-62333022D01*
X47025337Y-62334573D01*
X47171284Y-62480520D01*
X47171286Y-62480521D01*
X47171290Y-62480524D01*
X47295920Y-62552478D01*
X47308216Y-62559577D01*
X47460943Y-62600501D01*
X47460945Y-62600501D01*
X47626654Y-62600501D01*
X47626670Y-62600500D01*
X48199903Y-62600500D01*
X48266942Y-62620185D01*
X48287584Y-62636819D01*
X48839690Y-63188925D01*
X48873175Y-63250248D01*
X48873626Y-63252414D01*
X48904526Y-63407756D01*
X48904529Y-63407766D01*
X48964867Y-63553437D01*
X48964874Y-63553450D01*
X49052475Y-63684553D01*
X49052478Y-63684557D01*
X49163972Y-63796051D01*
X49163976Y-63796054D01*
X49295079Y-63883655D01*
X49295092Y-63883662D01*
X49440763Y-63944000D01*
X49440768Y-63944002D01*
X49595418Y-63974764D01*
X49595421Y-63974765D01*
X49595423Y-63974765D01*
X49753109Y-63974765D01*
X49753110Y-63974764D01*
X49907762Y-63944002D01*
X50053444Y-63883659D01*
X50184554Y-63796054D01*
X50296054Y-63684554D01*
X50383659Y-63553444D01*
X50444002Y-63407762D01*
X50474765Y-63253107D01*
X50474765Y-63095423D01*
X50474765Y-63095420D01*
X50474764Y-63095418D01*
X50444003Y-62940775D01*
X50444002Y-62940768D01*
X50444000Y-62940763D01*
X50383662Y-62795092D01*
X50383655Y-62795079D01*
X50296054Y-62663976D01*
X50296051Y-62663972D01*
X50184557Y-62552478D01*
X50184553Y-62552475D01*
X50053450Y-62464874D01*
X50053437Y-62464867D01*
X49907766Y-62404529D01*
X49907756Y-62404526D01*
X49752414Y-62373626D01*
X49690503Y-62341241D01*
X49688925Y-62339690D01*
X48987590Y-61638355D01*
X48987588Y-61638352D01*
X48868717Y-61519481D01*
X48868716Y-61519480D01*
X48781904Y-61469360D01*
X48781904Y-61469359D01*
X48781900Y-61469358D01*
X48731785Y-61440423D01*
X48579057Y-61399499D01*
X48420943Y-61399499D01*
X48413347Y-61399499D01*
X48413331Y-61399500D01*
X47937956Y-61399500D01*
X47870917Y-61379815D01*
X47825162Y-61327011D01*
X47816339Y-61299691D01*
X47809738Y-61266510D01*
X47809737Y-61266503D01*
X47809735Y-61266498D01*
X47749397Y-61120827D01*
X47749390Y-61120814D01*
X47661789Y-60989711D01*
X47661786Y-60989707D01*
X47550292Y-60878213D01*
X47550288Y-60878210D01*
X47419185Y-60790609D01*
X47419172Y-60790602D01*
X47273501Y-60730264D01*
X47273489Y-60730261D01*
X47118845Y-60699500D01*
X47118842Y-60699500D01*
X46961158Y-60699500D01*
X46961155Y-60699500D01*
X46806510Y-60730261D01*
X46806498Y-60730264D01*
X46660827Y-60790602D01*
X46660814Y-60790609D01*
X46529711Y-60878210D01*
X46529707Y-60878213D01*
X46418213Y-60989707D01*
X46418210Y-60989711D01*
X46330609Y-61120814D01*
X46330602Y-61120827D01*
X46270264Y-61266498D01*
X46270261Y-61266510D01*
X46239500Y-61421153D01*
X38939129Y-61421153D01*
X38939129Y-58228315D01*
X38958814Y-58161276D01*
X38981927Y-58134602D01*
X39063721Y-58063727D01*
X39063724Y-58063724D01*
X39204281Y-57901513D01*
X39320321Y-57720950D01*
X39320323Y-57720944D01*
X39320327Y-57720938D01*
X39409482Y-57525715D01*
X39409482Y-57525713D01*
X39409484Y-57525710D01*
X39469954Y-57319769D01*
X39500500Y-57107318D01*
X39500500Y-57000000D01*
X39500500Y-56934108D01*
X39500500Y-54421153D01*
X46239500Y-54421153D01*
X46239500Y-54578846D01*
X46270261Y-54733489D01*
X46270264Y-54733501D01*
X46330602Y-54879172D01*
X46330609Y-54879185D01*
X46418210Y-55010288D01*
X46418213Y-55010292D01*
X46529707Y-55121786D01*
X46529711Y-55121789D01*
X46660814Y-55209390D01*
X46660827Y-55209397D01*
X46806498Y-55269735D01*
X46806503Y-55269737D01*
X46961158Y-55300500D01*
X46961847Y-55300637D01*
X47023758Y-55333022D01*
X47025337Y-55334573D01*
X47171284Y-55480520D01*
X47171286Y-55480521D01*
X47171290Y-55480524D01*
X47187196Y-55489707D01*
X47308216Y-55559577D01*
X47460943Y-55600501D01*
X47460945Y-55600501D01*
X47626654Y-55600501D01*
X47626670Y-55600500D01*
X48299903Y-55600500D01*
X48366942Y-55620185D01*
X48387584Y-55636819D01*
X48765425Y-56014660D01*
X48798910Y-56075983D01*
X48799361Y-56078149D01*
X48830261Y-56233491D01*
X48830264Y-56233501D01*
X48890602Y-56379172D01*
X48890609Y-56379185D01*
X48978210Y-56510288D01*
X48978213Y-56510292D01*
X49089707Y-56621786D01*
X49089711Y-56621789D01*
X49220814Y-56709390D01*
X49220827Y-56709397D01*
X49366498Y-56769735D01*
X49366503Y-56769737D01*
X49521153Y-56800499D01*
X49521156Y-56800500D01*
X49521158Y-56800500D01*
X49678844Y-56800500D01*
X49678845Y-56800499D01*
X49833497Y-56769737D01*
X49979179Y-56709394D01*
X50110289Y-56621789D01*
X50221789Y-56510289D01*
X50309394Y-56379179D01*
X50369737Y-56233497D01*
X50400500Y-56078842D01*
X50400500Y-55921158D01*
X50400500Y-55921155D01*
X50400499Y-55921153D01*
X50369738Y-55766510D01*
X50369737Y-55766503D01*
X50316021Y-55636819D01*
X50309397Y-55620827D01*
X50309390Y-55620814D01*
X50221789Y-55489711D01*
X50221786Y-55489707D01*
X50110292Y-55378213D01*
X50110288Y-55378210D01*
X49979185Y-55290609D01*
X49979172Y-55290602D01*
X49833501Y-55230264D01*
X49833491Y-55230261D01*
X49678151Y-55199362D01*
X49616241Y-55166977D01*
X49614662Y-55165426D01*
X49087590Y-54638355D01*
X49087588Y-54638352D01*
X48968717Y-54519481D01*
X48968716Y-54519480D01*
X48881904Y-54469360D01*
X48881904Y-54469359D01*
X48881900Y-54469358D01*
X48831785Y-54440423D01*
X48679057Y-54399499D01*
X48520943Y-54399499D01*
X48513347Y-54399499D01*
X48513331Y-54399500D01*
X47937956Y-54399500D01*
X47870917Y-54379815D01*
X47825162Y-54327011D01*
X47816339Y-54299691D01*
X47809738Y-54266510D01*
X47809737Y-54266503D01*
X47809735Y-54266498D01*
X47749397Y-54120827D01*
X47749390Y-54120814D01*
X47661789Y-53989711D01*
X47661786Y-53989707D01*
X47550292Y-53878213D01*
X47550288Y-53878210D01*
X47419185Y-53790609D01*
X47419172Y-53790602D01*
X47273501Y-53730264D01*
X47273489Y-53730261D01*
X47118845Y-53699500D01*
X47118842Y-53699500D01*
X46961158Y-53699500D01*
X46961155Y-53699500D01*
X46806510Y-53730261D01*
X46806498Y-53730264D01*
X46660827Y-53790602D01*
X46660814Y-53790609D01*
X46529711Y-53878210D01*
X46529707Y-53878213D01*
X46418213Y-53989707D01*
X46418210Y-53989711D01*
X46330609Y-54120814D01*
X46330602Y-54120827D01*
X46270264Y-54266498D01*
X46270261Y-54266510D01*
X46239500Y-54421153D01*
X39500500Y-54421153D01*
X39500500Y-51934108D01*
X39500500Y-51892682D01*
X39469954Y-51680231D01*
X39409484Y-51474290D01*
X39409483Y-51474288D01*
X39409482Y-51474284D01*
X39320327Y-51279061D01*
X39320320Y-51279048D01*
X39265140Y-51193186D01*
X39204281Y-51098487D01*
X39171172Y-51060277D01*
X39063724Y-50936275D01*
X38981926Y-50865397D01*
X38944152Y-50806618D01*
X38939129Y-50771684D01*
X38939129Y-47421153D01*
X46239500Y-47421153D01*
X46239500Y-47578846D01*
X46270261Y-47733489D01*
X46270264Y-47733501D01*
X46330602Y-47879172D01*
X46330609Y-47879185D01*
X46418210Y-48010288D01*
X46418213Y-48010292D01*
X46529707Y-48121786D01*
X46529711Y-48121789D01*
X46660814Y-48209390D01*
X46660827Y-48209397D01*
X46806498Y-48269735D01*
X46806503Y-48269737D01*
X46961158Y-48300500D01*
X46961847Y-48300637D01*
X47023758Y-48333022D01*
X47025337Y-48334573D01*
X47171284Y-48480520D01*
X47171286Y-48480521D01*
X47171290Y-48480524D01*
X47308209Y-48559573D01*
X47308216Y-48559577D01*
X47460943Y-48600501D01*
X47460945Y-48600501D01*
X47626654Y-48600501D01*
X47626670Y-48600500D01*
X48299903Y-48600500D01*
X48366942Y-48620185D01*
X48387584Y-48636819D01*
X48889690Y-49138925D01*
X48923175Y-49200248D01*
X48923626Y-49202414D01*
X48954526Y-49357756D01*
X48954529Y-49357766D01*
X49014867Y-49503437D01*
X49014874Y-49503450D01*
X49102475Y-49634553D01*
X49102478Y-49634557D01*
X49213972Y-49746051D01*
X49213976Y-49746054D01*
X49345079Y-49833655D01*
X49345092Y-49833662D01*
X49490763Y-49894000D01*
X49490768Y-49894002D01*
X49645418Y-49924764D01*
X49645421Y-49924765D01*
X49645423Y-49924765D01*
X49803109Y-49924765D01*
X49803110Y-49924764D01*
X49957762Y-49894002D01*
X50103444Y-49833659D01*
X50234554Y-49746054D01*
X50346054Y-49634554D01*
X50433659Y-49503444D01*
X50494002Y-49357762D01*
X50524765Y-49203107D01*
X50524765Y-49045423D01*
X50524765Y-49045420D01*
X50524764Y-49045418D01*
X50494003Y-48890775D01*
X50494002Y-48890768D01*
X50494000Y-48890763D01*
X50433662Y-48745092D01*
X50433655Y-48745079D01*
X50346054Y-48613976D01*
X50346051Y-48613972D01*
X50234557Y-48502478D01*
X50234553Y-48502475D01*
X50103450Y-48414874D01*
X50103437Y-48414867D01*
X49957766Y-48354529D01*
X49957756Y-48354526D01*
X49802414Y-48323626D01*
X49740503Y-48291241D01*
X49738925Y-48289690D01*
X49087590Y-47638355D01*
X49087588Y-47638352D01*
X48968717Y-47519481D01*
X48968716Y-47519480D01*
X48881904Y-47469360D01*
X48881904Y-47469359D01*
X48881900Y-47469358D01*
X48831785Y-47440423D01*
X48679057Y-47399499D01*
X48520943Y-47399499D01*
X48513347Y-47399499D01*
X48513331Y-47399500D01*
X47937956Y-47399500D01*
X47870917Y-47379815D01*
X47825162Y-47327011D01*
X47816339Y-47299691D01*
X47809738Y-47266510D01*
X47809737Y-47266503D01*
X47809735Y-47266498D01*
X47749397Y-47120827D01*
X47749390Y-47120814D01*
X47661789Y-46989711D01*
X47661786Y-46989707D01*
X47550292Y-46878213D01*
X47550288Y-46878210D01*
X47419185Y-46790609D01*
X47419172Y-46790602D01*
X47273501Y-46730264D01*
X47273489Y-46730261D01*
X47118845Y-46699500D01*
X47118842Y-46699500D01*
X46961158Y-46699500D01*
X46961155Y-46699500D01*
X46806510Y-46730261D01*
X46806498Y-46730264D01*
X46660827Y-46790602D01*
X46660814Y-46790609D01*
X46529711Y-46878210D01*
X46529707Y-46878213D01*
X46418213Y-46989707D01*
X46418210Y-46989711D01*
X46330609Y-47120814D01*
X46330602Y-47120827D01*
X46270264Y-47266498D01*
X46270261Y-47266510D01*
X46239500Y-47421153D01*
X38939129Y-47421153D01*
X38939129Y-40421153D01*
X46239500Y-40421153D01*
X46239500Y-40578846D01*
X46270261Y-40733489D01*
X46270264Y-40733501D01*
X46330602Y-40879172D01*
X46330609Y-40879185D01*
X46418210Y-41010288D01*
X46418213Y-41010292D01*
X46529707Y-41121786D01*
X46529711Y-41121789D01*
X46660814Y-41209390D01*
X46660827Y-41209397D01*
X46806498Y-41269735D01*
X46806503Y-41269737D01*
X46961158Y-41300500D01*
X46961847Y-41300637D01*
X47023758Y-41333022D01*
X47025337Y-41334573D01*
X47171284Y-41480520D01*
X47171286Y-41480521D01*
X47171290Y-41480524D01*
X47187196Y-41489707D01*
X47308216Y-41559577D01*
X47460943Y-41600501D01*
X47460945Y-41600501D01*
X47626654Y-41600501D01*
X47626670Y-41600500D01*
X48199903Y-41600500D01*
X48266942Y-41620185D01*
X48287584Y-41636819D01*
X48790256Y-42139492D01*
X48823741Y-42200815D01*
X48824192Y-42202980D01*
X48830261Y-42233493D01*
X48830263Y-42233499D01*
X48890602Y-42379172D01*
X48890609Y-42379185D01*
X48978210Y-42510288D01*
X48978213Y-42510292D01*
X49089707Y-42621786D01*
X49089711Y-42621789D01*
X49220814Y-42709390D01*
X49220827Y-42709397D01*
X49366498Y-42769735D01*
X49366503Y-42769737D01*
X49521153Y-42800499D01*
X49521156Y-42800500D01*
X49521158Y-42800500D01*
X49678844Y-42800500D01*
X49678845Y-42800499D01*
X49833497Y-42769737D01*
X49979179Y-42709394D01*
X50110289Y-42621789D01*
X50221789Y-42510289D01*
X50309394Y-42379179D01*
X50369737Y-42233497D01*
X50400500Y-42078842D01*
X50400500Y-41921158D01*
X50400500Y-41921155D01*
X50400499Y-41921153D01*
X50369738Y-41766510D01*
X50369737Y-41766503D01*
X50316021Y-41636819D01*
X50309397Y-41620827D01*
X50309390Y-41620814D01*
X50221789Y-41489711D01*
X50221786Y-41489707D01*
X50110292Y-41378213D01*
X50110288Y-41378210D01*
X49979185Y-41290609D01*
X49979172Y-41290602D01*
X49833501Y-41230264D01*
X49833489Y-41230261D01*
X49678845Y-41199500D01*
X49678842Y-41199500D01*
X49600098Y-41199500D01*
X49533059Y-41179815D01*
X49512417Y-41163181D01*
X48987590Y-40638355D01*
X48987588Y-40638352D01*
X48868717Y-40519481D01*
X48868716Y-40519480D01*
X48781904Y-40469360D01*
X48781904Y-40469359D01*
X48781900Y-40469358D01*
X48731785Y-40440423D01*
X48579057Y-40399499D01*
X48420943Y-40399499D01*
X48413347Y-40399499D01*
X48413331Y-40399500D01*
X47937956Y-40399500D01*
X47870917Y-40379815D01*
X47825162Y-40327011D01*
X47816339Y-40299691D01*
X47809738Y-40266510D01*
X47809737Y-40266503D01*
X47809735Y-40266498D01*
X47749397Y-40120827D01*
X47749390Y-40120814D01*
X47661789Y-39989711D01*
X47661786Y-39989707D01*
X47550292Y-39878213D01*
X47550288Y-39878210D01*
X47419185Y-39790609D01*
X47419172Y-39790602D01*
X47273501Y-39730264D01*
X47273489Y-39730261D01*
X47118845Y-39699500D01*
X47118842Y-39699500D01*
X46961158Y-39699500D01*
X46961155Y-39699500D01*
X46806510Y-39730261D01*
X46806498Y-39730264D01*
X46660827Y-39790602D01*
X46660814Y-39790609D01*
X46529711Y-39878210D01*
X46529707Y-39878213D01*
X46418213Y-39989707D01*
X46418210Y-39989711D01*
X46330609Y-40120814D01*
X46330602Y-40120827D01*
X46270264Y-40266498D01*
X46270261Y-40266510D01*
X46239500Y-40421153D01*
X38939129Y-40421153D01*
X38939129Y-39228315D01*
X38958814Y-39161276D01*
X38981927Y-39134602D01*
X39063721Y-39063727D01*
X39063724Y-39063724D01*
X39204281Y-38901513D01*
X39320321Y-38720950D01*
X39320323Y-38720944D01*
X39320327Y-38720938D01*
X39409482Y-38525715D01*
X39409482Y-38525713D01*
X39409484Y-38525710D01*
X39469954Y-38319769D01*
X39500500Y-38107318D01*
X39500500Y-38000000D01*
X39500500Y-37934108D01*
X39500500Y-33421153D01*
X46239500Y-33421153D01*
X46239500Y-33578846D01*
X46270261Y-33733489D01*
X46270264Y-33733501D01*
X46330602Y-33879172D01*
X46330609Y-33879185D01*
X46418210Y-34010288D01*
X46418213Y-34010292D01*
X46529707Y-34121786D01*
X46529711Y-34121789D01*
X46660814Y-34209390D01*
X46660827Y-34209397D01*
X46770082Y-34254651D01*
X46806503Y-34269737D01*
X46911918Y-34290705D01*
X46928672Y-34299469D01*
X46947151Y-34303489D01*
X46972187Y-34322231D01*
X46973825Y-34323088D01*
X46975405Y-34324640D01*
X47015139Y-34364374D01*
X47015149Y-34364385D01*
X47019479Y-34368715D01*
X47019480Y-34368716D01*
X47131284Y-34480520D01*
X47206187Y-34523765D01*
X47268215Y-34559577D01*
X47420942Y-34600500D01*
X47420943Y-34600500D01*
X48199903Y-34600500D01*
X48266942Y-34620185D01*
X48287584Y-34636819D01*
X48839690Y-35188925D01*
X48873175Y-35250248D01*
X48873626Y-35252414D01*
X48904526Y-35407756D01*
X48904529Y-35407766D01*
X48964867Y-35553437D01*
X48964874Y-35553450D01*
X49052475Y-35684553D01*
X49052478Y-35684557D01*
X49163972Y-35796051D01*
X49163976Y-35796054D01*
X49295079Y-35883655D01*
X49295092Y-35883662D01*
X49440763Y-35944000D01*
X49440768Y-35944002D01*
X49595418Y-35974764D01*
X49595421Y-35974765D01*
X49595423Y-35974765D01*
X49753109Y-35974765D01*
X49753110Y-35974764D01*
X49907762Y-35944002D01*
X50053444Y-35883659D01*
X50184554Y-35796054D01*
X50296054Y-35684554D01*
X50383659Y-35553444D01*
X50444002Y-35407762D01*
X50474765Y-35253107D01*
X50474765Y-35095423D01*
X50474765Y-35095420D01*
X50474764Y-35095418D01*
X50444003Y-34940775D01*
X50444002Y-34940768D01*
X50444000Y-34940763D01*
X50383662Y-34795092D01*
X50383655Y-34795079D01*
X50296054Y-34663976D01*
X50296051Y-34663972D01*
X50184557Y-34552478D01*
X50184553Y-34552475D01*
X50053450Y-34464874D01*
X50053437Y-34464867D01*
X49907766Y-34404529D01*
X49907756Y-34404526D01*
X49752414Y-34373626D01*
X49690503Y-34341241D01*
X49688925Y-34339690D01*
X48987590Y-33638355D01*
X48987588Y-33638352D01*
X48868717Y-33519481D01*
X48868716Y-33519480D01*
X48767326Y-33460943D01*
X48767325Y-33460942D01*
X48731783Y-33440422D01*
X48659888Y-33421158D01*
X48579057Y-33399499D01*
X48420943Y-33399499D01*
X48413347Y-33399499D01*
X48413331Y-33399500D01*
X47937956Y-33399500D01*
X47870917Y-33379815D01*
X47825162Y-33327011D01*
X47816339Y-33299691D01*
X47809738Y-33266510D01*
X47809737Y-33266503D01*
X47809735Y-33266498D01*
X47749397Y-33120827D01*
X47749390Y-33120814D01*
X47661789Y-32989711D01*
X47661786Y-32989707D01*
X47550292Y-32878213D01*
X47550288Y-32878210D01*
X47419185Y-32790609D01*
X47419172Y-32790602D01*
X47273501Y-32730264D01*
X47273489Y-32730261D01*
X47118845Y-32699500D01*
X47118842Y-32699500D01*
X46961158Y-32699500D01*
X46961155Y-32699500D01*
X46806510Y-32730261D01*
X46806498Y-32730264D01*
X46660827Y-32790602D01*
X46660814Y-32790609D01*
X46529711Y-32878210D01*
X46529707Y-32878213D01*
X46418213Y-32989707D01*
X46418210Y-32989711D01*
X46330609Y-33120814D01*
X46330602Y-33120827D01*
X46270264Y-33266498D01*
X46270261Y-33266510D01*
X46239500Y-33421153D01*
X39500500Y-33421153D01*
X39500500Y-26921153D01*
X46239500Y-26921153D01*
X46239500Y-27078846D01*
X46270261Y-27233489D01*
X46270264Y-27233501D01*
X46330602Y-27379172D01*
X46330609Y-27379185D01*
X46418210Y-27510288D01*
X46418213Y-27510292D01*
X46529707Y-27621786D01*
X46529711Y-27621789D01*
X46660814Y-27709390D01*
X46660827Y-27709397D01*
X46806498Y-27769735D01*
X46806503Y-27769737D01*
X46961153Y-27800499D01*
X46961156Y-27800500D01*
X46961158Y-27800500D01*
X47118844Y-27800500D01*
X47118845Y-27800499D01*
X47273497Y-27769737D01*
X47419179Y-27709394D01*
X47473663Y-27672989D01*
X47550875Y-27621398D01*
X47617553Y-27600520D01*
X47619766Y-27600500D01*
X48702044Y-27600500D01*
X48769083Y-27620185D01*
X48814838Y-27672989D01*
X48823661Y-27700309D01*
X48830261Y-27733489D01*
X48830264Y-27733501D01*
X48890602Y-27879172D01*
X48890609Y-27879185D01*
X48978210Y-28010288D01*
X48978213Y-28010292D01*
X49089707Y-28121786D01*
X49089711Y-28121789D01*
X49220814Y-28209390D01*
X49220827Y-28209397D01*
X49366498Y-28269735D01*
X49366503Y-28269737D01*
X49521153Y-28300499D01*
X49521156Y-28300500D01*
X49521158Y-28300500D01*
X49678844Y-28300500D01*
X49678845Y-28300499D01*
X49833497Y-28269737D01*
X49979179Y-28209394D01*
X50110289Y-28121789D01*
X50221789Y-28010289D01*
X50309394Y-27879179D01*
X50369737Y-27733497D01*
X50400500Y-27578842D01*
X50400500Y-27421158D01*
X50400500Y-27421155D01*
X50400499Y-27421153D01*
X50369738Y-27266510D01*
X50369737Y-27266503D01*
X50356062Y-27233489D01*
X50309397Y-27120827D01*
X50309390Y-27120814D01*
X50221789Y-26989711D01*
X50221786Y-26989707D01*
X50110292Y-26878213D01*
X50110288Y-26878210D01*
X49979185Y-26790609D01*
X49979172Y-26790602D01*
X49833501Y-26730264D01*
X49833491Y-26730261D01*
X49678151Y-26699362D01*
X49661394Y-26690596D01*
X49642916Y-26686577D01*
X49617875Y-26667831D01*
X49616241Y-26666977D01*
X49614664Y-26665428D01*
X49614660Y-26665425D01*
X49580520Y-26631284D01*
X49468717Y-26519481D01*
X49468716Y-26519480D01*
X49381904Y-26469360D01*
X49381904Y-26469359D01*
X49381900Y-26469358D01*
X49331785Y-26440423D01*
X49179057Y-26399499D01*
X49020943Y-26399499D01*
X49013347Y-26399499D01*
X49013331Y-26399500D01*
X47619766Y-26399500D01*
X47552727Y-26379815D01*
X47550875Y-26378602D01*
X47419185Y-26290609D01*
X47419172Y-26290602D01*
X47273501Y-26230264D01*
X47273489Y-26230261D01*
X47118845Y-26199500D01*
X47118842Y-26199500D01*
X46961158Y-26199500D01*
X46961155Y-26199500D01*
X46806510Y-26230261D01*
X46806498Y-26230264D01*
X46660827Y-26290602D01*
X46660814Y-26290609D01*
X46529711Y-26378210D01*
X46529707Y-26378213D01*
X46418213Y-26489707D01*
X46418210Y-26489711D01*
X46330609Y-26620814D01*
X46330602Y-26620827D01*
X46270264Y-26766498D01*
X46270261Y-26766510D01*
X46239500Y-26921153D01*
X39500500Y-26921153D01*
X39500500Y-23934108D01*
X39500500Y-18006961D01*
X39501280Y-17993077D01*
X39501280Y-17993076D01*
X39511460Y-17902729D01*
X39517635Y-17875670D01*
X39545353Y-17796456D01*
X39557396Y-17771450D01*
X39602046Y-17700389D01*
X39619351Y-17678690D01*
X39678690Y-17619351D01*
X39700389Y-17602046D01*
X39771450Y-17557396D01*
X39796456Y-17545353D01*
X39875670Y-17517635D01*
X39902733Y-17511459D01*
X39965419Y-17504396D01*
X39993079Y-17501280D01*
X40006962Y-17500500D01*
X40065892Y-17500500D01*
X40128095Y-17500500D01*
X40195134Y-17520185D01*
G37*
%TD.AperFunction*%
%TD*%
M02*
