M48
; DRILL file {KiCad 9.0.7} date 2026-03-17T22:43:32+0700
; FORMAT={-:-/ absolute / inch / decimal}
; #@! TF.CreationDate,2026-03-17T22:43:32+07:00
; #@! TF.GenerationSoftware,Kicad,Pcbnew,9.0.7
; #@! TF.FileFunction,Plated,1,2,PTH
FMAT,2
INCH
; #@! TA.AperFunction,Plated,PTH,ViaDrill
T1C0.0118
; #@! TA.AperFunction,Plated,PTH,ComponentDrill
T2C0.0394
%
G90
G05
T1
X1.6929Y-0.9843
X1.852Y-1.063
X1.852Y-1.3189
X1.852Y-1.5945
X1.852Y-1.8701
X1.852Y-2.1457
X1.852Y-2.4213
X1.852Y-2.6969
X1.852Y-2.9724
X1.852Y-3.248
X1.852Y-3.5236
X1.852Y-3.7992
X1.852Y-4.0748
X1.852Y-4.3504
X1.852Y-4.626
X1.852Y-4.9016
X1.852Y-5.1772
X1.852Y-5.4528
X1.852Y-5.7283
X1.852Y-6.0039
X1.852Y-6.2795
X1.852Y-6.5551
X1.852Y-6.8307
X1.852Y-7.1063
X1.8892Y-4.4347
X1.8894Y-2.5056
X1.8895Y-3.3322
X1.8895Y-6.3634
X1.8896Y-3.0573
X1.8896Y-1.6796
X1.8896Y-1.954
X1.8896Y-3.8833
X1.8896Y-5.261
X1.8896Y-6.0878
X1.8898Y-5.5371
X1.8898Y-6.639
X1.8898Y-6.9148
X1.8898Y-2.7816
X1.8898Y-1.1274
X1.8899Y-5.8125
X1.8899Y-4.1585
X1.89Y-3.6078
X1.89Y-4.9855
X1.89Y-1.403
X1.8901Y-4.7102
X1.8902Y-7.4663
X1.8903Y-7.1903
X1.8905Y-2.231
X1.9488Y-5.5118
X1.9528Y-1.0827
X1.9528Y-1.6535
X1.9528Y-2.2047
X1.9528Y-2.7559
X1.9528Y-3.3071
X1.9528Y-3.8583
X1.9528Y-6.063
X1.9528Y-6.8996
X1.9528Y-7.1654
X1.9537Y-3.5915
X1.9537Y-4.1427
X1.9551Y-4.9606
X1.9556Y-5.2471
X1.9557Y-1.3848
X1.9557Y-2.4872
X1.9557Y-6.3454
X1.9576Y-1.934
X1.9576Y-3.0364
X1.9588Y-4.6927
X1.968Y-4.4098
X1.968Y-6.6145
X1.9685Y-5.7913
X2.0079Y-1.0039
X2.0079Y-1.2795
X2.0079Y-1.5551
X2.0079Y-1.8307
X2.0079Y-2.1063
X2.0079Y-2.3819
X2.0079Y-2.6378
X2.0079Y-2.9134
X2.0079Y-3.189
X2.0079Y-3.4646
X2.0079Y-3.7402
X2.0079Y-4.0157
X2.0079Y-4.2913
X2.0079Y-4.5669
X2.0079Y-4.8425
X2.0079Y-5.1181
X2.0079Y-5.3937
X2.0079Y-5.6693
X2.0079Y-5.9449
X2.0079Y-6.2205
X2.0079Y-6.4961
X2.0079Y-6.7717
X2.0079Y-7.0472
X2.0079Y-7.3228
T2
X1.6339Y-0.7283
X1.6339Y-0.8268
X1.6339Y-0.9252
M30
