{"accessors":[{"bufferView":0,"byteOffset":0,"componentType":5126,"count":4,"max":[-0.0475,0.0003,0.085],"min":[-0.0475,0.0,-0.085],"type":"VEC3"},{"bufferView":0,"byteOffset":48,"componentType":5126,"count":4,"max":[0.0475,0.0003,0.085],"min":[-0.0475,0.0,0.085],"type":"VEC3"},{"bufferView":0,"byteOffset":96,"componentType":5126,"count":4,"max":[0.0475,0.0003,0.085],"min":[0.0475,0.0,-0.085],"type":"VEC3"},{"bufferView":0,"byteOffset":144,"componentType":5126,"count":4,"max":[0.0475,0.0003,-0.085],"min":[-0.0475,0.0,-0.085],"type":"VEC3"},{"bufferView":0,"byteOffset":192,"componentType":5126,"count":54,"max":[-0.039,0.0003,0.028481772185245135],"min":[-0.044,0.0,0.023518227814754868],"type":"VEC3"},{"bufferView":0,"byteOffset":840,"componentType":5126,"count":54,"max":[-0.039,0.0003,0.04748177218524514],"min":[-0.044,0.0,0.042518227814754869],"type":"VEC3"},{"bufferView":0,"byteOffset":1488,"componentType":5126,"count":54,"max":[-0.039,0.0003,0.06648177218524514],"min":[-0.044,0.0,0.06151822781475487],"type":"VEC3"},{"bufferView":0,"byteOffset":2136,"componentType":5126,"count":54,"max":[-0.039,0.0003,-0.023018227814754868],"min":[-0.044,0.0,-0.027981772185245135],"type":"VEC3"},{"bufferView":0,"byteOffset":2784,"componentType":5126,"count":54,"max":[-0.039,0.0003,-0.042018227814754869],"min":[-0.044,0.0,-0.04698177218524514],"type":"VEC3"},{"bufferView":0,"byteOffset":3432,"componentType":5126,"count":54,"max":[-0.039,0.0003,-0.06101822781475487],"min":[-0.044,0.0,-0.06598177218524513],"type":"VEC3"},{"bufferView":0,"byteOffset":4080,"componentType":5126,"count":160,"max":[0.0475,0.0,0.085],"min":[-0.0475,0.0,-0.085],"type":"VEC3"},{"bufferView":0,"byteOffset":6000,"componentType":5126,"count":160,"max":[0.0475,0.0003,0.085],"min":[-0.0475,0.0003,-0.085],"type":"VEC3"},{"bufferView":1,"byteOffset":0,"componentType":5126,"count":4,"type":"VEC3"},{"bufferView":1,"byteOffset":48,"componentType":5126,"count":4,"type":"VEC3"},{"bufferView":1,"byteOffset":96,"componentType":5126,"count":4,"type":"VEC3"},{"bufferView":1,"byteOffset":144,"componentType":5126,"count":4,"type":"VEC3"},{"bufferView":1,"byteOffset":192,"componentType":5126,"count":54,"type":"VEC3"},{"bufferView":1,"byteOffset":840,"componentType":5126,"count":54,"type":"VEC3"},{"bufferView":1,"byteOffset":1488,"componentType":5126,"count":54,"type":"VEC3"},{"bufferView":1,"byteOffset":2136,"componentType":5126,"count":54,"type":"VEC3"},{"bufferView":1,"byteOffset":2784,"componentType":5126,"count":54,"type":"VEC3"},{"bufferView":1,"byteOffset":3432,"componentType":5126,"count":54,"type":"VEC3"},{"bufferView":1,"byteOffset":4080,"componentType":5126,"count":160,"type":"VEC3"},{"bufferView":1,"byteOffset":6000,"componentType":5126,"count":160,"type":"VEC3"},{"bufferView":2,"byteOffset":0,"componentType":5123,"count":6,"type":"SCALAR"},{"bufferView":2,"byteOffset":12,"componentType":5123,"count":6,"type":"SCALAR"},{"bufferView":2,"byteOffset":24,"componentType":5123,"count":6,"type":"SCALAR"},{"bufferView":2,"byteOffset":36,"componentType":5123,"count":6,"type":"SCALAR"},{"bufferView":2,"byteOffset":48,"componentType":5123,"count":156,"type":"SCALAR"},{"bufferView":2,"byteOffset":360,"componentType":5123,"count":156,"type":"SCALAR"},{"bufferView":2,"byteOffset":672,"componentType":5123,"count":156,"type":"SCALAR"},{"bufferView":2,"byteOffset":984,"componentType":5123,"count":156,"type":"SCALAR"},{"bufferView":2,"byteOffset":1296,"componentType":5123,"count":156,"type":"SCALAR"},{"bufferView":2,"byteOffset":1608,"componentType":5123,"count":156,"type":"SCALAR"},{"bufferView":2,"byteOffset":1920,"componentType":5123,"count":510,"type":"SCALAR"},{"bufferView":2,"byteOffset":2940,"componentType":5123,"count":510,"type":"SCALAR"}],"asset":{"generator":"Open CASCADE Technology 7.9 [dev.opencascade.org]","version":"2.0"},"bufferViews":[{"buffer":0,"byteLength":7920,"byteOffset":0,"byteStride":12,"target":34962},{"buffer":0,"byteLength":7920,"byteOffset":7920,"byteStride":12,"target":34962},{"buffer":0,"byteLength":3960,"byteOffset":15840,"target":34963}],"buffers":[{"byteLength":19800,"uri":"paper.bin"}],"materials":[{"name":"mat_0","pbrMetallicRoughness":{"baseColorFactor":[0.16826939582824708,0.19120168685913087,0.2158605307340622,1.0]},"doubleSided":true}],"meshes":[{"name":"Body","primitives":[{"attributes":{"NORMAL":12,"POSITION":0},"indices":24,"material":0,"mode":4},{"attributes":{"NORMAL":13,"POSITION":1},"indices":25,"material":0,"mode":4},{"attributes":{"NORMAL":14,"POSITION":2},"indices":26,"material":0,"mode":4},{"attributes":{"NORMAL":15,"POSITION":3},"indices":27,"material":0,"mode":4},{"attributes":{"NORMAL":16,"POSITION":4},"indices":28,"material":0,"mode":4},{"attributes":{"NORMAL":17,"POSITION":5},"indices":29,"material":0,"mode":4},{"attributes":{"NORMAL":18,"POSITION":6},"indices":30,"material":0,"mode":4},{"attributes":{"NORMAL":19,"POSITION":7},"indices":31,"material":0,"mode":4},{"attributes":{"NORMAL":20,"POSITION":8},"indices":32,"material":0,"mode":4},{"attributes":{"NORMAL":21,"POSITION":9},"indices":33,"material":0,"mode":4},{"attributes":{"NORMAL":22,"POSITION":10},"indices":34,"material":0,"mode":4},{"attributes":{"NORMAL":23,"POSITION":11},"indices":35,"material":0,"mode":4}]}],"nodes":[{"mesh":0,"name":"Body"}],"scene":0,"scenes":[{"nodes":[0]}]}